<svg width="178" height="30" viewBox="0 0 178 30" fill="none" xmlns="http://www.w3.org/2000/svg">
<g clip-path="url(#clip0_1165_599)">
<path d="M0 29.1565C0 19.6559 0 10.152 0 0.648132C4.44904 0.66116 8.90134 0.706758 13.3504 0.657903C14.4382 0.644875 15.0961 0.99663 15.7671 1.85647C20.7568 8.24994 25.8116 14.5945 30.8404 20.9587C31.0944 21.2779 31.2833 21.6492 31.5016 21.9977C31.6644 21.9065 31.824 21.8153 31.9869 21.7241C31.9869 14.7509 31.9869 7.77767 31.9869 0.810982C34.8725 0.810982 37.553 0.810982 40.214 0.810982C40.214 10.3084 40.214 19.6754 40.214 29.2249C35.9408 29.2249 31.7719 29.1858 27.603 29.2477C26.4076 29.2673 25.6325 28.922 24.8769 27.9547C19.8253 21.4733 14.6955 15.0505 9.61137 8.58866C9.33452 8.23691 9.26612 7.72882 9.10002 7.29238C8.86226 7.48129 8.62776 7.67019 8.39 7.8591C8.39 14.9105 8.39 21.9651 8.39 29.1565C5.50105 29.1565 2.7489 29.1565 0 29.1565Z" fill="black"/>
<path d="M70.3475 0C71.9011 0.166106 73.4742 0.231246 75.0017 0.521118C79.1642 1.30279 81.2551 3.68039 81.3398 7.86888C81.431 12.5589 81.4375 17.2523 81.3398 21.9391C81.2454 26.4532 78.5746 29.0914 74.0442 29.4301C72.8098 29.5213 71.5819 29.6809 70.3508 29.8079C65.2471 29.8079 60.1466 29.8079 55.0429 29.8079C53.8118 29.6809 52.5806 29.5213 51.3462 29.4334C46.9656 29.1207 44.2362 26.6487 44.106 22.4309C43.9496 17.4184 43.9627 12.3928 44.1027 7.38033C44.2069 3.612 46.1742 1.43959 49.9197 0.654654C51.6003 0.3029 53.3363 0.211704 55.0462 0.00325699C60.1434 0 65.2471 0 70.3475 0ZM62.7457 7.33148C62.7457 7.33473 62.7457 7.33473 62.7457 7.33799C59.9284 7.33799 57.1111 7.35102 54.2938 7.33148C52.6718 7.3217 51.8706 8.15549 51.8543 9.70256C51.8185 13.1517 51.7859 16.6041 51.8608 20.05C51.9032 21.8576 52.5513 22.4471 54.4046 22.4602C59.9317 22.4993 65.4588 22.4602 70.9859 22.4797C72.5818 22.4862 73.4612 21.7664 73.4775 20.1835C73.5133 16.6823 73.5719 13.1778 73.4644 9.67976C73.4058 7.82654 72.8065 7.37707 70.8751 7.3445C68.1653 7.29565 65.4523 7.33148 62.7457 7.33148Z" fill="black"/>
<path d="M177.75 29.2184C174.581 29.2184 171.601 29.2575 168.624 29.1761C168.175 29.1631 167.468 28.6647 167.347 28.2544C166.286 24.6554 163.856 23.8639 160.338 24.1766C156.625 24.5088 152.857 24.2808 149.112 24.232C148.138 24.219 147.376 24.3818 147.099 25.3915C146.164 28.808 143.852 29.7493 140.533 29.2673C138.999 29.0458 137.403 29.2282 135.523 29.2282C135.852 28.5638 136.061 28.1045 136.302 27.6648C140.956 19.1967 145.636 10.7448 150.248 2.25384C150.896 1.05853 151.619 0.576494 153.02 0.648147C155.671 0.778427 158.339 0.635119 160.993 0.726315C161.573 0.745857 162.407 1.1139 162.664 1.57639C167.66 10.5331 172.588 19.5289 177.526 28.5182C177.6 28.6452 177.623 28.8048 177.75 29.2184ZM156.443 7.43245C154.456 11.1552 152.655 14.5327 150.769 18.0633C154.658 18.0633 158.273 18.0633 162.117 18.0633C160.228 14.5229 158.443 11.1747 156.443 7.43245Z" fill="black"/>
<path d="M104.797 14.0311C110.734 19.0925 116.466 23.9844 122.563 29.1826C118.251 29.1826 114.431 29.1956 110.61 29.1598C110.288 29.1565 109.926 28.8569 109.659 28.6159C104.513 23.9095 99.3802 19.1902 94.1104 14.3535C95.7323 12.8716 97.3152 11.4288 98.8981 9.98592C101.973 7.18166 105.044 4.36762 108.138 1.5829C108.558 1.20509 109.112 0.742598 109.614 0.732828C113.112 0.657917 116.61 0.693744 120.573 0.693744C115.134 5.28935 110.044 9.59509 104.797 14.0311Z" fill="black"/>
<path d="M85.2129 0.771912C88.1018 0.771912 90.8475 0.771912 93.7006 0.771912C93.7006 10.2107 93.7006 19.5615 93.7006 29.0719C90.8963 29.0719 88.1181 29.0719 85.2129 29.0719C85.2129 19.6787 85.2129 10.2823 85.2129 0.771912Z" fill="black"/>
<path d="M124.876 0.775146C127.801 0.775146 130.546 0.775146 133.377 0.775146C133.377 10.2237 133.377 19.581 133.377 29.0849C130.559 29.0849 127.778 29.0849 124.876 29.0849C124.876 19.6657 124.876 10.266 124.876 0.775146Z" fill="black"/>
</g>
<defs>
<clipPath id="clip0_1165_599">
<rect width="177.75" height="29.8047" fill="white"/>
</clipPath>
</defs>
</svg>
