<svg width="151" height="36" viewBox="0 0 151 36" fill="none" xmlns="http://www.w3.org/2000/svg">
<g clip-path="url(#clip0_1165_610)">
<path d="M38.3926 18.5773V1.25721H41.0933H43.7941V2.40209C43.7941 3.03178 43.8037 3.54698 43.8154 3.54698C43.8272 3.54698 44.1681 3.33945 44.5731 3.0858C49.3502 0.0935772 56.2947 -0.807449 62.5232 0.756803C68.1347 2.16607 72.2026 5.51145 73.6487 9.9062C74.4938 12.4743 74.4472 15.3303 73.5197 17.814C72.3659 20.9036 69.9941 23.3877 66.5731 25.0893C63.5793 26.5785 60.1613 27.3242 56.3291 27.3242C53.1522 27.3242 50.1893 26.7945 47.581 25.7602C46.5461 25.3498 45.2195 24.6761 44.4147 24.1523L43.7941 23.7483V29.8228V35.8973H41.0933H38.3926V18.5773ZM58.9418 22.7196C61.98 22.2886 64.3373 21.3247 66.1047 19.7905C67.4426 18.6292 68.3743 17.0163 68.7273 15.2506C68.8716 14.5285 68.8721 12.8231 68.7288 12.1031C68.3132 10.0252 67.1225 8.21007 65.34 6.93718C64.6214 6.4241 63.162 5.69313 62.2304 5.37977C59.5997 4.49485 56.4101 4.2328 53.4888 4.66156C48.4166 5.40599 44.9885 7.92153 44.0687 11.5739C43.6629 13.1853 43.7353 14.9249 44.2716 16.4453C45.4897 19.899 49.0816 22.1972 54.1575 22.7708C55.178 22.8861 57.98 22.8561 58.9425 22.7196H58.9418ZM76.849 18.5773V1.25721H79.5497H82.2505V2.40209C82.2505 3.03178 82.2623 3.54698 82.2765 3.54698C82.2909 3.54698 82.5881 3.36085 82.937 3.13337C83.7445 2.60701 85.3384 1.81976 86.3603 1.44253C90.772 -0.185885 96.1587 -0.448501 100.873 0.735007C108.557 2.66423 113.082 7.94972 112.655 14.4968C112.329 19.4944 109.003 23.5995 103.534 25.7567C101.749 26.4604 99.9209 26.9041 97.6325 27.1888C96.4247 27.3391 93.1695 27.3389 91.9086 27.1885C88.3401 26.7628 85.207 25.7031 82.7642 24.0957L82.2505 23.7576V29.8275V35.8974H79.5497H76.849V18.5773ZM97.5288 22.6941C101.737 22.0657 104.702 20.3705 106.26 17.7027C107.165 16.1531 107.504 14.0916 107.168 12.1777C106.471 8.19932 102.974 5.44646 97.6216 4.66083C94.0886 4.14228 90.0995 4.65879 87.3878 5.98591C84.6197 7.34064 82.9538 9.36341 82.3851 12.0602C82.2358 12.7681 82.2362 14.5881 82.3866 15.282C82.7893 17.1499 83.6997 18.6954 85.0813 19.857C86.9838 21.4563 89.4597 22.4086 92.6726 22.7767C93.7353 22.8985 96.4728 22.8519 97.5296 22.6941H97.5288ZM16.082 27.2884C13.2167 27.0353 10.7711 26.4709 8.69153 25.5826C3.96146 23.5623 0.973906 20.1524 0.163127 15.8486C0.00827608 15.0266 -0.0507951 13.1747 0.0496199 12.2898C0.635107 7.12996 4.43611 3.04299 10.4456 1.11168C13.6436 0.0839258 17.5801 -0.251805 21.1133 0.201861C27.5867 1.03304 32.4834 4.03479 34.6357 8.4913C36.3881 12.1199 36.1657 16.5276 34.0593 19.9161C33.1103 21.4426 31.548 23.0179 29.938 24.0715C27.4333 25.7106 24.4417 26.7303 20.8083 27.1835C20.0805 27.2742 16.757 27.348 16.082 27.2884ZM19.9135 22.7763C22.7312 22.4772 25.1015 21.6729 26.885 20.4105C28.343 19.3785 29.4967 17.8576 30.0144 16.2851C30.3174 15.3647 30.3775 14.9325 30.3775 13.6748C30.3775 12.4208 30.3183 11.9922 30.0176 11.0711C29.0294 8.04376 26.1388 5.79186 22.1 4.90285C18.5589 4.12341 14.4292 4.39432 11.3695 5.60679C9.16212 6.48151 7.41976 7.89747 6.39801 9.64698C5.3115 11.5073 5.06501 14.0412 5.75813 16.2249C6.50491 18.5777 8.47222 20.5468 11.1795 21.6512C12.6541 22.2527 14.4799 22.6719 16.2874 22.8238C16.981 22.8821 19.1892 22.8531 19.9135 22.7763ZM131.334 27.2904C131.221 27.2775 130.824 27.2382 130.453 27.203C127.471 26.9204 124.337 25.9789 122.039 24.6755C118.932 22.9135 116.768 20.4091 115.78 17.4324C115.112 15.4178 114.998 13.1539 115.46 11.071C116.158 7.92156 118.075 5.24718 121.053 3.26921C124.979 0.660775 130.752 -0.497726 136.324 0.204444C140.954 0.787814 144.769 2.48116 147.423 5.13138C149.444 7.14972 150.606 9.51472 150.942 12.2935C151.029 13.0157 151.016 14.4761 150.915 15.2424C150.186 20.7604 145.812 24.9778 139.113 26.6208C137.082 27.119 135.807 27.2698 133.418 27.2944C132.385 27.3051 131.447 27.3033 131.334 27.2904ZM134.886 22.8037C138.452 22.4756 141.359 21.3003 143.225 19.4318C144.489 18.1667 145.222 16.774 145.511 15.0909C145.63 14.3973 145.629 12.9515 145.508 12.232C144.858 8.35911 141.443 5.55184 136.383 4.73041C135.168 4.53319 134.36 4.46893 133.095 4.46893C127.422 4.46893 123.02 6.60796 121.327 10.1875C120.823 11.2544 120.59 12.3554 120.59 13.6748C120.59 15.4158 120.996 16.7965 121.912 18.1723C123.593 20.698 126.782 22.3115 131.002 22.7723C131.873 22.8674 134.007 22.8846 134.886 22.8037Z" fill="#006B33"/>
</g>
<defs>
<clipPath id="clip0_1165_610">
<rect width="151" height="35.8974" fill="white"/>
</clipPath>
</defs>
</svg>
