<svg width="518" height="528" viewBox="0 0 518 528" fill="none" xmlns="http://www.w3.org/2000/svg">
<rect width="518" height="528" rx="10" fill="#FFFEEC"/>
<g opacity="0.21">
<mask id="path-2-outside-1_3001_9" maskUnits="userSpaceOnUse" x="18.041" y="58" width="64" height="416" fill="black">
<rect fill="white" x="18.041" y="58" width="64" height="416"/>
<path d="M79.041 424.341L66.5559 428.983L66.5559 454.113L79.041 458.755L79.041 471.08L20.6971 448.751L20.6971 434.265L79.041 411.856L79.041 424.341ZM32.3819 441.628L55.3513 450.111L55.3513 433.144L32.3819 441.628ZM62.9544 359.89C74.7993 359.89 79.041 370.374 79.041 380.619L79.041 405.189L20.6971 405.189L20.6971 381.019C20.6971 376.217 21.9776 371.735 24.4587 368.214C26.9397 364.692 31.0213 362.371 36.1434 362.371C41.5857 362.371 45.7474 365.092 48.6286 370.534L48.7086 370.534C50.0691 366.933 51.8299 364.292 54.0708 362.451C56.2317 360.77 59.1929 359.89 62.9544 359.89ZM37.9842 374.216C33.1822 374.216 31.8217 378.618 31.8217 382.699L31.8217 393.424L44.3868 393.424L44.3868 383.5C44.3868 381.099 44.0667 379.178 43.1863 377.257C42.306 375.336 40.4652 374.216 37.9842 374.216ZM61.3538 371.655C57.032 371.655 54.8711 374.776 54.8711 381.179L54.8711 393.424L67.8364 393.424L67.8364 380.779C67.8364 378.378 67.4363 376.457 66.5559 374.616C65.6755 372.775 63.8348 371.655 61.3538 371.655ZM49.9091 353.377C45.8274 353.377 41.9058 352.577 38.1443 350.976C34.3827 349.375 31.1814 347.214 28.5403 344.493C25.8192 341.772 23.7384 338.491 22.1377 334.729C20.6171 330.968 19.8168 327.046 19.8168 322.964C19.8168 318.803 20.5371 314.881 22.1377 311.12C23.6583 307.438 25.7392 304.237 28.3803 301.516C31.0213 298.875 34.2227 296.714 37.9042 295.113C41.5857 293.592 45.5073 292.792 49.669 292.792C53.8307 292.792 57.7523 293.592 61.4338 295.193C65.1953 296.794 68.4767 298.955 71.1178 301.676C73.8389 304.397 75.9998 307.598 77.5204 311.36C79.121 315.121 79.9214 319.043 79.9214 323.204C79.9214 340.011 66.796 353.377 49.9091 353.377ZM40.6253 338.651C43.4264 340.171 46.5477 340.972 49.829 340.972C53.1104 340.972 56.2317 340.171 59.0328 338.651C61.834 337.05 64.0749 334.889 65.7556 332.168C67.4363 329.367 68.2366 326.326 68.2366 323.044C68.2366 319.763 67.4363 316.722 65.7556 314.001C64.0749 311.2 61.834 309.039 59.0328 307.438C56.2317 305.917 53.1104 305.117 49.829 305.117C39.905 304.877 31.3415 313.2 31.5015 323.044C31.5015 326.326 32.3019 329.367 33.9826 332.168C35.5832 334.889 37.8241 337.05 40.6253 338.651ZM20.6971 248.461L20.6971 236.536L55.5114 236.536C63.1145 236.536 69.0369 238.537 73.3587 242.538C77.6804 246.46 79.8413 252.382 79.8413 260.065C79.8413 267.989 77.4404 274.071 73.1986 277.833C68.9569 281.594 63.1145 283.355 55.9115 283.355L20.6971 283.355L20.6971 271.27L55.6714 271.35C59.7531 271.35 62.8744 270.31 65.0353 268.149C67.1962 266.068 68.2366 263.347 68.2366 259.985C68.2366 256.384 67.1161 253.503 64.9552 251.502C62.7143 249.501 59.6731 248.461 55.9115 248.461L20.6971 248.461ZM32.3819 199.222L79.041 199.222L79.041 211.307L32.3819 211.307L32.3819 228.754L20.6971 228.754L20.6971 181.775L32.3819 181.775L32.3819 199.222ZM20.6971 125.911L20.6971 113.986L55.5114 113.986C63.1145 113.986 69.0369 115.987 73.3587 119.988C77.6804 123.91 79.8413 129.832 79.8413 137.515C79.8413 145.439 77.4403 151.521 73.1986 155.283C68.9569 159.044 63.1145 160.805 55.9115 160.805L20.6971 160.805L20.6971 148.72L55.6714 148.8C59.7531 148.8 62.8744 147.76 65.0353 145.599C67.1962 143.518 68.2366 140.797 68.2366 137.435C68.2366 133.834 67.1161 130.953 64.9552 128.952C62.7143 126.951 59.6731 125.911 55.9115 125.911L20.6971 125.911ZM79.9214 81.7938C79.9214 88.5965 78.3207 93.8787 75.1194 97.8003C71.9181 101.722 67.5163 104.203 61.834 105.163L59.1929 93.8787C62.2341 93.3985 64.7151 92.038 66.4759 89.717C68.2366 87.3961 69.0369 84.6749 69.0369 81.3936C69.0369 78.6725 68.4767 76.5116 67.1961 74.991C65.9156 73.3903 64.315 72.59 62.4742 72.59C59.593 72.59 57.112 75.151 56.3917 79.2327L54.711 87.4761C53.8307 92.198 51.8299 96.0396 48.9487 98.8407C45.9875 101.642 42.306 103.002 37.9842 103.002C32.8621 103.002 28.1402 100.601 24.9388 96.92C21.8176 93.1584 19.8167 87.8763 19.8167 82.354C19.8167 75.9514 21.7375 70.5091 24.6987 67.1478C27.82 63.7864 31.4215 61.8656 35.3431 61.3054L38.5444 72.2699C33.7424 73.3103 30.6212 76.6717 30.6212 82.5141C30.6212 84.915 31.2614 86.9159 32.542 88.5965C33.8225 90.1972 35.3431 90.9975 37.0238 90.9975C39.985 90.9975 42.306 88.9967 43.1063 84.9951L44.6269 76.8317C45.5873 71.5496 47.5881 67.4679 50.7094 64.5867C53.8307 61.7856 57.5122 60.345 61.7539 60.345C66.3158 60.345 70.7176 62.3458 74.239 65.7872C77.6804 69.3887 79.9214 75.071 79.9214 81.7938Z"/>
</mask>
<path d="M79.041 424.341L79.5317 425.661L80.4492 425.32L80.4492 424.341L79.041 424.341ZM66.5559 428.983L66.0652 427.663L65.1477 428.004L65.1477 428.983L66.5559 428.983ZM66.5559 454.113L65.1477 454.113L65.1477 455.092L66.0652 455.433L66.5559 454.113ZM79.041 458.755L80.4492 458.755L80.4492 457.776L79.5317 457.435L79.041 458.755ZM79.041 471.08L78.5377 472.395L80.4492 473.127L80.4492 471.08L79.041 471.08ZM20.6971 448.751L19.289 448.751L19.289 449.72L20.1938 450.066L20.6971 448.751ZM20.6971 434.265L20.1922 432.95L19.289 433.297L19.289 434.265L20.6971 434.265ZM79.041 411.856L80.4492 411.856L80.4492 409.806L78.5361 410.541L79.041 411.856ZM32.3819 441.628L31.894 440.307L28.3175 441.628L31.894 442.949L32.3819 441.628ZM55.3513 450.111L54.8634 451.432L56.7595 452.133L56.7595 450.111L55.3513 450.111ZM55.3513 433.144L56.7595 433.144L56.7595 431.123L54.8634 431.824L55.3513 433.144ZM78.5503 423.021L66.0652 427.663L67.0466 430.303L79.5317 425.661L78.5503 423.021ZM65.1477 428.983L65.1477 454.113L67.9641 454.113L67.9641 428.983L65.1477 428.983ZM66.0652 455.433L78.5503 460.075L79.5317 457.435L67.0466 452.793L66.0652 455.433ZM77.6329 458.755L77.6329 471.08L80.4492 471.08L80.4492 458.755L77.6329 458.755ZM79.5443 469.765L21.2004 447.436L20.1938 450.066L78.5377 472.395L79.5443 469.765ZM22.1053 448.751L22.1053 434.265L19.289 434.265L19.289 448.751L22.1053 448.751ZM21.202 435.579L79.5459 413.17L78.5361 410.541L20.1922 432.95L21.202 435.579ZM77.6328 411.856L77.6328 424.341L80.4492 424.341L80.4492 411.856L77.6328 411.856ZM31.894 442.949L54.8634 451.432L55.8392 448.79L32.8698 440.307L31.894 442.949ZM56.7595 450.111L56.7595 433.144L53.9432 433.144L53.9432 450.111L56.7595 450.111ZM54.8634 431.824L31.894 440.307L32.8698 442.949L55.8392 434.465L54.8634 431.824ZM79.041 405.189L79.041 406.597L80.4492 406.597L80.4492 405.189L79.041 405.189ZM20.6971 405.189L19.289 405.189L19.289 406.597L20.6971 406.597L20.6971 405.189ZM24.4587 368.214L23.3075 367.403L24.4587 368.214ZM48.6286 370.534L47.384 371.193L47.7807 371.943L48.6286 371.943L48.6286 370.534ZM48.7086 370.534L48.7086 371.943L49.6819 371.943L50.0259 371.032L48.7086 370.534ZM54.0708 362.451L53.2063 361.34L53.1915 361.351L53.177 361.363L54.0708 362.451ZM31.8217 393.424L30.4135 393.424L30.4135 394.832L31.8217 394.832L31.8217 393.424ZM44.3868 393.424L44.3868 394.832L45.795 394.832L45.795 393.424L44.3868 393.424ZM43.1863 377.257L41.9062 377.844L43.1863 377.257ZM54.8711 393.424L53.463 393.424L53.463 394.832L54.8711 394.832L54.8711 393.424ZM67.8364 393.424L67.8364 394.832L69.2446 394.832L69.2446 393.424L67.8364 393.424ZM66.5559 374.616L67.8263 374.009L66.5559 374.616ZM62.9544 361.298C68.3814 361.298 71.9677 363.662 74.2596 367.181C76.6004 370.776 77.6328 375.657 77.6328 380.619L80.4492 380.619C80.4492 375.336 79.3607 369.853 76.6195 365.644C73.8293 361.36 69.3723 358.482 62.9544 358.482L62.9544 361.298ZM77.6328 380.619L77.6328 405.189L80.4492 405.189L80.4492 380.619L77.6328 380.619ZM79.041 403.781L20.6971 403.781L20.6971 406.597L79.041 406.597L79.041 403.781ZM22.1053 405.189L22.1053 381.019L19.289 381.019L19.289 405.189L22.1053 405.189ZM22.1053 381.019C22.1053 376.46 23.3213 372.273 25.6098 369.025L23.3075 367.403C20.634 371.197 19.289 375.974 19.289 381.019L22.1053 381.019ZM25.6098 369.025C27.8261 365.879 31.4777 363.779 36.1434 363.779L36.1434 360.963C30.565 360.963 26.0532 363.505 23.3075 367.403L25.6098 369.025ZM36.1434 363.779C38.6178 363.779 40.7456 364.394 42.5758 365.591C44.4151 366.793 46.0287 368.633 47.384 371.193L49.8731 369.876C48.3473 366.994 46.4394 364.752 44.117 363.233C41.7855 361.709 39.1114 360.963 36.1434 360.963L36.1434 363.779ZM48.6286 371.943L48.7086 371.943L48.7086 369.126L48.6286 369.126L48.6286 371.943ZM50.0259 371.032C51.3257 367.592 52.9643 365.182 54.9646 363.539L53.177 361.363C50.6954 363.401 48.8126 366.274 47.3913 370.037L50.0259 371.032ZM54.9353 363.563C56.7794 362.128 59.4046 361.298 62.9544 361.298L62.9544 358.482C58.9811 358.482 55.6839 359.413 53.2063 361.34L54.9353 363.563ZM37.9842 372.808C35.0517 372.808 33.063 374.201 31.8861 376.217C30.7664 378.135 30.4135 380.543 30.4135 382.699L33.2298 382.699C33.2298 380.774 33.5573 378.941 34.3183 377.637C35.0222 376.431 36.1147 375.624 37.9842 375.624L37.9842 372.808ZM30.4135 382.699L30.4135 393.424L33.2298 393.424L33.2298 382.699L30.4135 382.699ZM31.8217 394.832L44.3868 394.832L44.3868 392.016L31.8217 392.016L31.8217 394.832ZM45.795 393.424L45.795 383.5L42.9787 383.5L42.9787 393.424L45.795 393.424ZM45.795 383.5C45.795 380.959 45.454 378.825 44.4664 376.671L41.9062 377.844C42.6793 379.531 42.9787 381.238 42.9787 383.5L45.795 383.5ZM44.4664 376.671C43.3234 374.177 40.9314 372.808 37.9842 372.808L37.9842 375.624C39.9991 375.624 41.2885 376.496 41.9062 377.844L44.4664 376.671ZM61.3538 370.247C58.8032 370.247 56.712 371.198 55.3292 373.221C54.014 375.145 53.463 377.864 53.463 381.179L56.2793 381.179C56.2793 378.091 56.8087 376.048 57.6543 374.811C58.4325 373.672 59.5826 373.063 61.3538 373.063L61.3538 370.247ZM53.463 381.179L53.463 393.424L56.2793 393.424L56.2793 381.179L53.463 381.179ZM54.8711 394.832L67.8364 394.832L67.8364 392.016L54.8711 392.016L54.8711 394.832ZM69.2446 393.424L69.2446 380.779L66.4283 380.779L66.4283 393.424L69.2446 393.424ZM69.2446 380.779C69.2446 378.204 68.8117 376.069 67.8263 374.009L65.2855 375.224C66.0608 376.845 66.4283 378.552 66.4283 380.779L69.2446 380.779ZM67.8263 374.009C66.6774 371.607 64.2923 370.247 61.3538 370.247L61.3538 373.063C63.3772 373.063 64.6736 373.944 65.2855 375.224L67.8263 374.009ZM38.1443 350.976L37.5929 352.272L38.1443 350.976ZM28.5403 344.493L29.5508 343.512L29.5435 343.505L29.5361 343.497L28.5403 344.493ZM22.1377 334.729L20.8322 335.257L20.837 335.269L20.842 335.281L22.1377 334.729ZM22.1377 311.12L23.4334 311.671L23.4364 311.664L23.4392 311.657L22.1377 311.12ZM28.3803 301.516L27.3845 300.52L27.3771 300.527L27.3698 300.535L28.3803 301.516ZM37.9042 295.113L37.3666 293.811L37.3546 293.816L37.3427 293.822L37.9042 295.113ZM61.4338 295.193L60.8723 296.484L60.8824 296.489L61.4338 295.193ZM71.1178 301.676L70.1073 302.656L70.1146 302.664L70.122 302.671L71.1178 301.676ZM77.5204 311.36L76.2149 311.887L76.2197 311.899L76.2247 311.911L77.5204 311.36ZM40.6253 338.651L39.9266 339.873L39.94 339.881L39.9535 339.888L40.6253 338.651ZM59.0328 338.651L59.7046 339.888L59.7181 339.881L59.7315 339.873L59.0328 338.651ZM65.7556 332.168L66.9536 332.908L66.9584 332.9L66.9631 332.893L65.7556 332.168ZM65.7556 314.001L64.5481 314.725L64.5527 314.733L64.5575 314.741L65.7556 314.001ZM59.0328 307.438L59.7315 306.215L59.7181 306.208L59.7046 306.2L59.0328 307.438ZM49.829 305.117L49.795 306.525L49.812 306.525L49.829 306.525L49.829 305.117ZM31.5015 323.044L32.9097 323.044L32.9097 323.033L32.9095 323.022L31.5015 323.044ZM33.9826 332.168L35.1963 331.454L35.19 331.444L33.9826 332.168ZM49.9091 351.969C46.0172 351.969 42.2831 351.207 38.6956 349.68L37.5929 352.272C41.5285 353.946 45.6376 354.785 49.9091 354.785L49.9091 351.969ZM38.6956 349.68C35.093 348.147 32.0514 346.089 29.5508 343.512L27.5299 345.474C30.3114 348.34 33.6725 350.603 37.5929 352.272L38.6956 349.68ZM29.5361 343.497C26.9648 340.926 24.977 337.805 23.4334 334.178L20.842 335.281C22.4998 339.176 24.6736 342.618 27.5446 345.489L29.5361 343.497ZM23.4432 334.201C21.9873 330.6 21.2249 326.857 21.2249 322.964L18.4086 322.964C18.4086 327.235 19.2469 331.335 20.8322 335.257L23.4432 334.201ZM21.2249 322.964C21.2249 318.971 21.9147 315.24 23.4334 311.671L20.842 310.568C19.1594 314.522 18.4086 318.634 18.4086 322.964L21.2249 322.964ZM23.4392 311.657C24.8952 308.132 26.8801 305.083 29.3907 302.496L27.3698 300.535C24.5983 303.39 22.4214 306.744 20.8362 310.582L23.4392 311.657ZM29.376 302.511C31.8849 300.002 34.9365 297.939 38.4656 296.404L37.3427 293.822C33.5088 295.489 30.1578 297.747 27.3845 300.52L29.376 302.511ZM38.4417 296.415C41.9538 294.964 45.6928 294.2 49.669 294.2L49.669 291.384C45.3217 291.384 41.2176 292.221 37.3666 293.811L38.4417 296.415ZM49.669 294.2C53.6447 294.2 57.3745 294.964 60.8723 296.484L61.9953 293.902C58.1301 292.221 54.0166 291.384 49.669 291.384L49.669 294.2ZM60.8824 296.489C64.4957 298.026 67.6139 300.088 70.1073 302.656L72.1282 300.695C69.3394 297.822 65.8949 295.561 61.9852 293.897L60.8824 296.489ZM70.122 302.671C72.712 305.261 74.7663 308.304 76.2149 311.887L78.8259 310.832C77.2332 306.892 74.9658 303.532 72.1135 300.68L70.122 302.671ZM76.2247 311.911C77.7505 315.497 78.5132 319.231 78.5132 323.204L81.3295 323.204C81.3295 318.855 80.4916 314.746 78.8161 310.808L76.2247 311.911ZM78.5132 323.204C78.5132 339.246 66.0061 351.969 49.9091 351.969L49.9091 354.785C67.5859 354.785 81.3295 340.777 81.3295 323.204L78.5132 323.204ZM39.9535 339.888C42.9619 341.522 46.3143 342.38 49.8291 342.38L49.8291 339.564C46.7811 339.564 43.8909 338.821 41.2971 337.413L39.9535 339.888ZM49.8291 342.38C53.3438 342.38 56.6962 341.522 59.7046 339.888L58.361 337.413C55.7672 338.821 52.877 339.564 49.8291 339.564L49.8291 342.38ZM59.7315 339.873C62.7349 338.157 65.1483 335.831 66.9536 332.908L64.5575 331.428C63.0015 333.947 60.933 335.943 58.3342 337.428L59.7315 339.873ZM66.9631 332.893C68.7817 329.862 69.6447 326.568 69.6447 323.044L66.8284 323.044C66.8284 326.084 66.0908 328.872 64.5481 331.444L66.9631 332.893ZM69.6447 323.044C69.6447 319.525 68.7832 316.223 66.9536 313.261L64.5575 314.741C66.0893 317.221 66.8284 320.002 66.8284 323.044L69.6447 323.044ZM66.9631 313.276C65.1553 310.263 62.7371 307.933 59.7315 306.215L58.3342 308.661C60.9308 310.144 62.9944 312.136 64.5481 314.725L66.9631 313.276ZM59.7046 306.2C56.6962 304.567 53.3438 303.709 49.829 303.709L49.829 306.525C52.877 306.525 55.7672 307.268 58.361 308.676L59.7046 306.2ZM49.8631 303.709C39.1612 303.45 29.9201 312.402 30.0936 323.067L32.9095 323.022C32.7628 313.999 40.6487 306.304 49.795 306.525L49.8631 303.709ZM30.0934 323.044C30.0934 326.568 30.9564 329.862 32.7751 332.893L35.19 331.444C33.6473 328.872 32.9097 326.084 32.9097 323.044L30.0934 323.044ZM32.7688 332.882C34.5011 335.827 36.9251 338.158 39.9266 339.873L41.3239 337.428C38.7232 335.942 36.6653 333.952 35.1963 331.454L32.7688 332.882ZM20.6971 248.461L19.289 248.461L19.289 249.869L20.6971 249.869L20.6971 248.461ZM20.6971 236.536L20.6971 235.128L19.289 235.128L19.289 236.536L20.6971 236.536ZM73.3587 242.538L72.402 243.572L72.4072 243.576L72.4124 243.581L73.3587 242.538ZM73.1986 277.833L72.2643 276.779L73.1986 277.833ZM20.6971 283.355L19.289 283.355L19.289 284.763L20.6971 284.763L20.6971 283.355ZM20.6971 271.27L20.7003 269.862L19.289 269.859L19.289 271.27L20.6971 271.27ZM55.6714 271.35L55.6682 272.758L55.6714 272.758L55.6714 271.35ZM65.0353 268.149L64.0585 267.134L64.0489 267.144L64.0395 267.153L65.0353 268.149ZM64.9552 251.502L65.912 250.469L65.9026 250.46L65.8931 250.452L64.9552 251.502ZM22.1053 248.461L22.1053 236.536L19.289 236.536L19.289 248.461L22.1053 248.461ZM20.6971 237.944L55.5114 237.944L55.5114 235.128L20.6971 235.128L20.6971 237.944ZM55.5114 237.944C62.864 237.944 68.408 239.874 72.402 243.572L74.3154 241.505C69.6658 237.2 63.365 235.128 55.5114 235.128L55.5114 237.944ZM72.4124 243.581C76.3501 247.154 78.4332 252.639 78.4332 260.066L81.2495 260.066C81.2495 252.126 79.0108 245.766 74.305 241.495L72.4124 243.581ZM78.4332 260.066C78.4332 267.718 76.1182 273.362 72.2643 276.779L74.1329 278.886C78.7625 274.781 81.2495 268.259 81.2495 260.066L78.4332 260.066ZM72.2643 276.779C68.3602 280.241 62.8948 281.947 55.9115 281.947L55.9115 284.763C63.3342 284.763 69.5535 282.947 74.1329 278.886L72.2643 276.779ZM55.9115 281.947L20.6971 281.947L20.6971 284.763L55.9115 284.763L55.9115 281.947ZM22.1053 283.355L22.1053 271.27L19.289 271.27L19.289 283.355L22.1053 283.355ZM20.6939 272.678L55.6682 272.758L55.6747 269.942L20.7003 269.862L20.6939 272.678ZM55.6714 272.758C59.9838 272.758 63.5198 271.656 66.031 269.145L64.0395 267.153C62.229 268.964 59.5225 269.942 55.6714 269.942L55.6714 272.758ZM66.012 269.163C68.4918 266.775 69.6447 263.665 69.6447 259.985L66.8284 259.985C66.8284 263.029 65.9005 265.361 64.0585 267.134L66.012 269.163ZM69.6447 259.985C69.6447 256.083 68.4213 252.792 65.912 250.469L63.9985 252.535C65.811 254.213 66.8284 256.685 66.8284 259.985L69.6447 259.985ZM65.8931 250.452C63.3391 248.171 59.9373 247.053 55.9115 247.053L55.9115 249.869C59.4088 249.869 62.0896 250.831 64.0174 252.552L65.8931 250.452ZM55.9115 247.053L20.6971 247.053L20.6971 249.869L55.9115 249.869L55.9115 247.053ZM32.3819 199.222L30.9737 199.222L30.9737 200.63L32.3819 200.63L32.3819 199.222ZM79.041 199.222L80.4492 199.222L80.4492 197.814L79.041 197.814L79.041 199.222ZM79.041 211.307L79.041 212.715L80.4492 212.715L80.4492 211.307L79.041 211.307ZM32.3819 211.307L32.3819 209.899L30.9737 209.899L30.9737 211.307L32.3819 211.307ZM32.3819 228.754L32.3819 230.162L33.7901 230.162L33.7901 228.754L32.3819 228.754ZM20.6971 228.754L19.289 228.754L19.289 230.162L20.6971 230.162L20.6971 228.754ZM20.6971 181.775L20.6971 180.367L19.2889 180.367L19.2889 181.775L20.6971 181.775ZM32.3819 181.775L33.7901 181.775L33.7901 180.367L32.3819 180.367L32.3819 181.775ZM32.3819 200.63L79.041 200.63L79.041 197.814L32.3819 197.814L32.3819 200.63ZM77.6328 199.222L77.6328 211.307L80.4492 211.307L80.4492 199.222L77.6328 199.222ZM79.041 209.899L32.3819 209.899L32.3819 212.715L79.041 212.715L79.041 209.899ZM30.9737 211.307L30.9737 228.754L33.7901 228.754L33.7901 211.307L30.9737 211.307ZM32.3819 227.346L20.6971 227.346L20.6971 230.162L32.3819 230.162L32.3819 227.346ZM22.1053 228.754L22.1053 181.775L19.2889 181.775L19.289 228.754L22.1053 228.754ZM20.6971 183.183L32.3819 183.183L32.3819 180.367L20.6971 180.367L20.6971 183.183ZM30.9737 181.775L30.9737 199.222L33.7901 199.222L33.7901 181.775L30.9737 181.775ZM20.6971 125.911L19.2889 125.911L19.2889 127.319L20.6971 127.319L20.6971 125.911ZM20.6971 113.986L20.6971 112.578L19.2889 112.578L19.2889 113.986L20.6971 113.986ZM73.3587 119.988L72.402 121.021L72.4072 121.026L72.4124 121.031L73.3587 119.988ZM73.1986 155.283L72.2643 154.229L73.1986 155.283ZM20.6971 160.805L19.2889 160.805L19.2889 162.213L20.6971 162.213L20.6971 160.805ZM20.6971 148.72L20.7003 147.312L19.2889 147.309L19.2889 148.72L20.6971 148.72ZM55.6714 148.8L55.6682 150.208L55.6714 150.208L55.6714 148.8ZM65.0353 145.599L64.0585 144.584L64.0489 144.594L64.0395 144.603L65.0353 145.599ZM64.9552 128.952L65.9119 127.919L65.9026 127.91L65.8931 127.901L64.9552 128.952ZM22.1053 125.911L22.1053 113.986L19.2889 113.986L19.2889 125.911L22.1053 125.911ZM20.6971 115.394L55.5114 115.394L55.5114 112.578L20.6971 112.578L20.6971 115.394ZM55.5114 115.394C62.864 115.394 68.408 117.323 72.402 121.021L74.3154 118.955C69.6658 114.65 63.365 112.578 55.5114 112.578L55.5114 115.394ZM72.4124 121.031C76.3501 124.604 78.4332 130.089 78.4332 137.515L81.2495 137.515C81.2495 129.575 79.0108 123.215 74.3049 118.945L72.4124 121.031ZM78.4332 137.515C78.4332 145.168 76.1182 150.811 72.2643 154.229L74.1329 156.336C78.7625 152.231 81.2495 145.709 81.2495 137.515L78.4332 137.515ZM72.2643 154.229C68.3602 157.691 62.8948 159.397 55.9115 159.397L55.9115 162.213C63.3342 162.213 69.5535 160.397 74.1329 156.336L72.2643 154.229ZM55.9115 159.397L20.6971 159.397L20.6971 162.213L55.9115 162.213L55.9115 159.397ZM22.1053 160.805L22.1053 148.72L19.2889 148.72L19.2889 160.805L22.1053 160.805ZM20.6939 150.128L55.6682 150.208L55.6747 147.392L20.7003 147.312L20.6939 150.128ZM55.6714 150.208C59.9838 150.208 63.5198 149.106 66.031 146.594L64.0395 144.603C62.229 146.413 59.5224 147.392 55.6714 147.392L55.6714 150.208ZM66.012 146.613C68.4918 144.225 69.6447 141.115 69.6447 137.435L66.8284 137.435C66.8284 140.479 65.9005 142.811 64.0585 144.584L66.012 146.613ZM69.6447 137.435C69.6447 133.533 68.4213 130.242 65.9119 127.919L63.9985 129.985C65.811 131.663 66.8284 134.135 66.8284 137.435L69.6447 137.435ZM65.8931 127.901C63.3391 125.621 59.9373 124.502 55.9115 124.502L55.9115 127.319C59.4088 127.319 62.0896 128.281 64.0174 130.002L65.8931 127.901ZM55.9115 124.502L20.6971 124.502L20.6971 127.319L55.9115 127.319L55.9115 124.502ZM75.1194 97.8003L76.2102 98.6908L75.1194 97.8003ZM61.834 105.163L60.4628 105.484L60.7643 106.772L62.0686 106.552L61.834 105.163ZM59.1929 93.8787L58.9733 92.4878L57.4764 92.7241L57.8218 94.1996L59.1929 93.8787ZM66.4759 89.717L67.5977 90.5681L67.5977 90.5681L66.4759 89.717ZM67.1961 74.991L66.0966 75.8706L66.1076 75.8845L66.119 75.898L67.1961 74.991ZM56.3917 79.2327L57.7715 79.514L57.7752 79.4958L57.7785 79.4774L56.3917 79.2327ZM54.711 87.4761L53.3313 87.1948L53.3289 87.2064L53.3267 87.218L54.711 87.4761ZM48.9487 98.8407L49.9164 99.8637L49.9234 99.8571L49.9303 99.8504L48.9487 98.8407ZM24.9388 96.92L23.8552 97.8192L23.8656 97.8317L23.8762 97.844L24.9388 96.92ZM24.6987 67.1478L23.6669 66.1896L23.6543 66.2031L23.6421 66.2169L24.6987 67.1478ZM35.3431 61.3054L36.6948 60.9107L36.3526 59.7387L35.144 59.9114L35.3431 61.3054ZM38.5444 72.2699L38.8426 73.6461L40.3197 73.326L39.8961 71.8752L38.5444 72.2699ZM32.542 88.5966L31.4219 89.45L31.432 89.4632L31.4424 89.4762L32.542 88.5966ZM43.1063 84.9951L44.4871 85.2712L44.4889 85.2621L44.4906 85.2529L43.1063 84.9951ZM44.6269 76.8317L46.0113 77.0896L46.0124 77.0836L44.6269 76.8317ZM50.7094 64.5867L49.7689 63.5387L49.7615 63.5453L49.7543 63.552L50.7094 64.5867ZM74.239 65.7872L75.2571 64.8144L75.2405 64.7969L75.2232 64.7801L74.239 65.7872ZM78.5132 81.7938C78.5132 88.379 76.9659 93.3116 74.0285 96.9098L76.2102 98.6908C79.6755 94.4458 81.3295 88.8141 81.3295 81.7938L78.5132 81.7938ZM74.0285 96.9098C71.0663 100.539 66.9837 102.865 61.5993 103.775L62.0686 106.552C68.0488 105.541 72.7698 102.905 76.2102 98.6908L74.0285 96.9098ZM63.2051 104.842L60.564 93.5578L57.8218 94.1996L60.4628 105.484L63.2051 104.842ZM59.4125 95.2697C62.7625 94.7407 65.5882 93.217 67.5977 90.5681L65.354 88.8659C63.8421 90.8589 61.7057 92.0563 58.9733 92.4878L59.4125 95.2697ZM67.5977 90.5681C69.5775 87.9584 70.4451 84.9222 70.4451 81.3936L67.6287 81.3936C67.6287 84.4276 66.8957 86.8337 65.354 88.8659L67.5977 90.5681ZM70.4451 81.3936C70.4451 78.5095 69.8558 75.9631 68.2733 74.0839L66.119 75.898C67.0976 77.0601 67.6287 78.8354 67.6287 81.3936L70.4451 81.3936ZM68.2957 74.1113C66.7755 72.211 64.7849 71.1818 62.4742 71.1818L62.4742 73.9982C63.8451 73.9982 65.0558 74.5697 66.0966 75.8706L68.2957 74.1113ZM62.4742 71.1818C58.6304 71.1818 55.7878 74.5522 55.005 78.988L57.7785 79.4774C58.4363 75.7498 60.5557 73.9982 62.4742 73.9982L62.4742 71.1818ZM55.0119 78.9514L53.3313 87.1948L56.0908 87.7574L57.7715 79.514L55.0119 78.9514ZM53.3267 87.218C52.4923 91.6935 50.6124 95.2593 47.9671 97.8311L49.9303 99.8504C53.0473 96.8199 55.169 92.7025 56.0953 87.7342L53.3267 87.218ZM47.981 97.8177C45.3074 100.347 41.9837 101.594 37.9842 101.594L37.9842 104.411C42.6282 104.411 46.6675 102.937 49.9164 99.8637L47.981 97.8177ZM37.9842 101.594C33.306 101.594 28.9601 99.3984 26.0015 95.9959L23.8762 97.844C27.3202 101.805 32.4182 104.411 37.9842 104.411L37.9842 101.594ZM26.0225 96.0208C23.1132 92.5146 21.2249 87.5514 21.2249 82.354L18.4086 82.354C18.4086 88.2011 20.5219 93.8022 23.8552 97.8192L26.0225 96.0208ZM21.2249 82.354C21.2249 76.2033 23.0743 71.122 25.7554 68.0786L23.6421 66.2169C20.4008 69.8963 18.4086 75.6995 18.4086 82.354L21.2249 82.354ZM25.7306 68.106C28.6557 64.9558 31.9723 63.2094 35.5423 62.6994L35.144 59.9114C30.8707 60.5218 26.9843 62.6169 23.6669 66.1896L25.7306 68.106ZM33.9914 61.7L37.1927 72.6645L39.8961 71.8752L36.6948 60.9107L33.9914 61.7ZM38.2462 70.8936C35.598 71.4674 33.3097 72.7069 31.6888 74.7037C30.0659 76.703 29.213 79.3368 29.213 82.5141L32.0293 82.5141C32.0293 79.8489 32.7371 77.8809 33.8753 76.4787C35.0155 75.0742 36.6889 74.1127 38.8426 73.6461L38.2462 70.8936ZM29.213 82.5141C29.213 85.1853 29.9326 87.4953 31.4219 89.45L33.6621 87.7431C32.5902 86.3364 32.0293 84.6448 32.0293 82.5141L29.213 82.5141ZM31.4424 89.4762C32.9332 91.3398 34.8318 92.4057 37.0238 92.4057L37.0238 89.5894C35.8544 89.5894 34.7118 89.0547 33.6415 87.7169L31.4424 89.4762ZM37.0238 92.4057C38.8426 92.4057 40.5178 91.782 41.8465 90.5166C43.1584 89.2672 44.0459 87.477 44.4871 85.2712L41.7255 84.7189C41.3663 86.5147 40.6932 87.7258 39.9042 88.4772C39.1321 89.2126 38.1662 89.5894 37.0238 89.5894L37.0238 92.4057ZM44.4906 85.2529L46.0113 77.0896L43.2426 76.5739L41.7219 84.7372L44.4906 85.2529ZM46.0124 77.0836C46.9342 72.0133 48.8262 68.2414 51.6645 65.6214L49.7543 63.552C46.35 66.6944 44.2404 71.0858 43.2415 76.5798L46.0124 77.0836ZM51.6499 65.6347C54.5167 63.062 57.8645 61.7531 61.7539 61.7531L61.7539 58.9368C57.1598 58.9368 53.1447 60.5091 49.7689 63.5387L51.6499 65.6347ZM61.7539 61.7531C65.8928 61.7531 69.9542 63.5687 73.2548 66.7943L75.2232 64.7801C71.481 61.1229 66.7388 58.9368 61.7539 58.9368L61.7539 61.7531ZM73.2209 66.76C76.3702 70.0558 78.5132 75.3681 78.5132 81.7938L81.3295 81.7938C81.3295 74.7739 78.9906 68.7215 75.2571 64.8144L73.2209 66.76Z" fill="#1C1C1C" mask="url(#path-2-outside-1_3001_9)"/>
</g>
</svg>
