<svg width="42" height="63" viewBox="0 0 42 63" fill="none" xmlns="http://www.w3.org/2000/svg">
<path d="M26.1501 62.9652H7.01463C5.16439 62.9425 3.39634 62.1974 2.08793 60.889C0.779518 59.5806 0.0344235 57.8125 0.0117188 55.9623V14.9253C0.0344235 13.075 0.779518 11.307 2.08793 9.99857C3.39634 8.69016 5.16439 7.94507 7.01463 7.92236H26.1501C28.0003 7.94507 29.7684 8.69016 31.0768 9.99857C32.3852 11.307 33.1303 13.075 33.153 14.9253V55.8748C33.1531 57.7402 32.4181 59.5305 31.1073 60.8578C29.7964 62.185 28.0154 62.9422 26.1501 62.9652ZM7.01463 12.1941C6.29957 12.1941 5.6138 12.4782 5.10818 12.9838C4.60256 13.4894 4.31851 14.1752 4.31851 14.8903V55.8748C4.31851 56.5898 4.60256 57.2756 5.10818 57.7812C5.6138 58.2868 6.29957 58.5709 7.01463 58.5709H26.1501C26.8651 58.5709 27.5509 58.2868 28.0565 57.7812C28.5621 57.2756 28.8462 56.5898 28.8462 55.8748V14.9253C28.8462 14.2102 28.5621 13.5244 28.0565 13.0188C27.5509 12.5132 26.8651 12.2292 26.1501 12.2292L7.01463 12.1941Z" fill="#EDE574"/>
<path d="M34.8167 55.0691H31.893C31.5879 55.0964 31.2806 55.0598 30.9905 54.9618C30.7003 54.8637 30.4338 54.7064 30.2078 54.4997C29.9819 54.293 29.8014 54.0415 29.6779 53.7613C29.5545 53.4811 29.4907 53.1782 29.4907 52.872C29.4907 52.5657 29.5545 52.2628 29.6779 51.9826C29.8014 51.7023 29.9819 51.4509 30.2078 51.2442C30.4338 51.0375 30.7003 50.8801 30.9905 50.7821C31.2806 50.6841 31.5879 50.6475 31.893 50.6748H34.8167C35.0843 50.6782 35.3506 50.6368 35.6045 50.5522C36.1515 50.4248 36.7264 50.5108 37.2122 50.7926C37.698 51.0745 38.0579 51.531 38.2187 52.0691C38.3795 52.6073 38.3289 53.1864 38.0774 53.6886C37.8259 54.1907 37.3923 54.578 36.865 54.7715C36.1997 54.967 35.5101 55.0672 34.8167 55.0691ZM26.063 55.0691H23.1043C22.7993 55.0964 22.4919 55.0598 22.2018 54.9618C21.9117 54.8637 21.6452 54.7064 21.4192 54.4997C21.1932 54.293 21.0128 54.0415 20.8893 53.7613C20.7658 53.4811 20.7021 53.1782 20.7021 52.872C20.7021 52.5657 20.7658 52.2628 20.8893 51.9826C21.0128 51.7023 21.1932 51.4509 21.4192 51.2442C21.6452 51.0375 21.9117 50.8801 22.2018 50.7821C22.4919 50.6841 22.7993 50.6475 23.1043 50.6748H26.028C26.333 50.6475 26.6404 50.6841 26.9305 50.7821C27.2206 50.8801 27.4872 51.0375 27.7131 51.2442C27.9391 51.4509 28.1196 51.7023 28.243 51.9826C28.3665 52.2628 28.4303 52.5657 28.4303 52.872C28.4303 53.1782 28.3665 53.4811 28.243 53.7613C28.1196 54.0415 27.9391 54.293 27.7131 54.4997C27.4872 54.7064 27.2206 54.8637 26.9305 54.9618C26.6404 55.0598 26.333 55.0964 26.028 55.0691H26.063ZM17.3094 55.0691H15.7513C15.0874 55.0731 14.4266 54.9787 13.7904 54.789C13.5134 54.7097 13.2547 54.5766 13.0291 54.3973C12.8035 54.218 12.6154 53.996 12.4756 53.744C12.3358 53.492 12.247 53.215 12.2143 52.9287C12.1815 52.6424 12.2055 52.3524 12.2848 52.0754C12.3641 51.7983 12.4972 51.5396 12.6765 51.314C12.8558 51.0884 13.0778 50.9004 13.3298 50.7605C13.5818 50.6207 13.8588 50.5319 14.1452 50.4992C14.4315 50.4665 14.7214 50.4904 14.9984 50.5697C15.2432 50.6401 15.4966 50.6755 15.7513 50.6748H17.3094C17.8583 50.7238 18.3689 50.9765 18.7408 51.3832C19.1127 51.7898 19.319 52.3209 19.319 52.872C19.319 53.423 19.1127 53.9541 18.7408 54.3607C18.3689 54.7674 17.8583 55.0201 17.3094 55.0691ZM10.7967 50.6223C10.2493 50.6204 9.72218 50.4151 9.31773 50.0462C8.91328 49.6774 8.66042 49.1713 8.60829 48.6264C8.60829 48.4164 8.60829 48.2063 8.60829 47.9962V45.4926C8.65734 44.9438 8.91004 44.4331 9.31667 44.0612C9.72329 43.6893 10.2544 43.483 10.8055 43.483C11.3565 43.483 11.8876 43.6893 12.2942 44.0612C12.7009 44.4331 12.9536 44.9438 13.0026 45.4926V47.9787C12.9945 48.066 12.9945 48.1539 13.0026 48.2413C13.0511 48.8239 12.8662 49.402 12.4887 49.8485C12.1112 50.2949 11.5719 50.5732 10.9893 50.6223H10.7967ZM39.7012 50.6223H39.5261C39.2384 50.6002 38.9579 50.5214 38.7007 50.3905C38.4436 50.2596 38.2149 50.0791 38.0277 49.8594C37.8406 49.6397 37.6988 49.3852 37.6104 49.1105C37.522 48.8358 37.4889 48.5464 37.5128 48.2588V45.4401C37.4855 45.1351 37.5221 44.8277 37.6201 44.5376C37.7182 44.2475 37.8755 43.981 38.0822 43.755C38.2889 43.529 38.5403 43.3486 38.8206 43.2251C39.1008 43.1016 39.4037 43.0379 39.71 43.0379C40.0162 43.0379 40.3191 43.1016 40.5993 43.2251C40.8796 43.3486 41.131 43.529 41.3377 43.755C41.5444 43.981 41.7017 44.2475 41.7998 44.5376C41.8978 44.8277 41.9344 45.1351 41.9071 45.4401V47.9787C41.9071 48.1712 41.9071 48.3463 41.9071 48.5389C41.8674 49.0886 41.6219 49.603 41.2194 49.9795C40.817 50.356 40.2873 50.5668 39.7362 50.5697L39.7012 50.6223ZM10.7792 41.8686C10.4903 41.8686 10.2043 41.8115 9.93766 41.7004C9.67101 41.5893 9.42898 41.4266 9.22553 41.2215C9.02209 41.0164 8.86126 40.7731 8.75232 40.5056C8.64337 40.238 8.58847 39.9516 8.59078 39.6627V36.704C8.56353 36.399 8.60008 36.0916 8.69812 35.8015C8.79615 35.5114 8.95352 35.2449 9.1602 35.0189C9.36688 34.7929 9.61835 34.6124 9.89859 34.489C10.1788 34.3655 10.4817 34.3017 10.7879 34.3017C11.0942 34.3017 11.3971 34.3655 11.6773 34.489C11.9576 34.6124 12.209 34.7929 12.4157 35.0189C12.6224 35.2449 12.7797 35.5114 12.8778 35.8015C12.9758 36.0916 13.0124 36.399 12.9851 36.704V39.6277C12.9874 39.918 12.932 40.2059 12.8219 40.4746C12.7119 40.7433 12.5495 40.9874 12.3442 41.1927C12.1389 41.398 11.8948 41.5604 11.6261 41.6705C11.3574 41.7805 11.0695 41.8359 10.7792 41.8336V41.8686ZM39.7187 41.8686C39.4299 41.8709 39.1434 41.816 38.8759 41.7071C38.6083 41.5982 38.365 41.4373 38.1599 41.2339C37.9549 41.0304 37.7921 40.7884 37.681 40.5218C37.57 40.2551 37.5128 39.9691 37.5128 39.6802V36.634C37.5618 36.0851 37.8145 35.5745 38.2212 35.2025C38.6278 34.8306 39.1589 34.6244 39.71 34.6244C40.261 34.6244 40.7921 34.8306 41.1987 35.2025C41.6054 35.5745 41.8581 36.0851 41.9071 36.634V39.5752C41.9071 40.1526 41.679 40.7066 41.2723 41.1165C40.8657 41.5264 40.3136 41.759 39.7362 41.7636L39.7187 41.8686ZM10.7792 33.115C10.4903 33.115 10.2043 33.0578 9.93766 32.9468C9.67101 32.8357 9.42898 32.6729 9.22553 32.4678C9.02209 32.2628 8.86126 32.0195 8.75232 31.7519C8.64337 31.4844 8.58847 31.1979 8.59078 30.9091V27.9153C8.56353 27.6103 8.60008 27.303 8.69812 27.0128C8.79615 26.7227 8.95352 26.4562 9.1602 26.2302C9.36688 26.0043 9.61835 25.8238 9.89859 25.7003C10.1788 25.5769 10.4817 25.5131 10.7879 25.5131C11.0942 25.5131 11.3971 25.5769 11.6773 25.7003C11.9576 25.8238 12.209 26.0043 12.4157 26.2302C12.6224 26.4562 12.7797 26.7227 12.8778 27.0128C12.9758 27.303 13.0124 27.6103 12.9851 27.9153V30.8391C12.9874 31.1294 12.932 31.4173 12.8219 31.686C12.7119 31.9547 12.5495 32.1988 12.3442 32.4041C12.1389 32.6094 11.8948 32.7718 11.6261 32.8818C11.3574 32.9918 11.0695 33.0473 10.7792 33.045V33.115ZM39.7187 33.115C39.4284 33.1173 39.1405 33.0619 38.8718 32.9518C38.6031 32.8418 38.359 32.6794 38.1537 32.4741C37.9484 32.2688 37.786 32.0247 37.676 31.756C37.5659 31.4873 37.5105 31.1994 37.5128 30.9091V27.8453C37.4855 27.5403 37.5221 27.2329 37.6201 26.9428C37.7182 26.6527 37.8755 26.3862 38.0822 26.1602C38.2889 25.9342 38.5403 25.7538 38.8206 25.6303C39.1008 25.5068 39.4037 25.4431 39.71 25.4431C40.0162 25.4431 40.3191 25.5068 40.5993 25.6303C40.8796 25.7538 41.131 25.9342 41.3377 26.1602C41.5444 26.3862 41.7017 26.6527 41.7998 26.9428C41.8978 27.2329 41.9344 27.5403 41.9071 27.8453V30.769C41.9094 31.0564 41.8551 31.3414 41.7472 31.6078C41.6394 31.8742 41.4801 32.1168 41.2785 32.3216C41.077 32.5265 40.837 32.6896 40.5724 32.8017C40.3077 32.9138 40.0236 32.9727 39.7362 32.9749L39.7187 33.115ZM10.7792 24.3614C10.1988 24.3614 9.64216 24.1308 9.23176 23.7204C8.82135 23.31 8.59078 22.7534 8.59078 22.173V19.1092C8.63983 18.5603 8.89253 18.0497 9.29916 17.6778C9.70579 17.3058 10.2369 17.0996 10.7879 17.0996C11.339 17.0996 11.8701 17.3058 12.2767 17.6778C12.6834 18.0497 12.9361 18.5603 12.9851 19.1092V22.0504C12.9851 22.3393 12.9279 22.6253 12.8169 22.8919C12.7058 23.1586 12.543 23.4006 12.338 23.6041C12.1329 23.8075 11.8896 23.9683 11.622 24.0773C11.3545 24.1862 11.068 24.2411 10.7792 24.2388V24.3614ZM39.7362 24.1863C39.4459 24.1886 39.158 24.1332 38.8893 24.0231C38.6206 23.9131 38.3765 23.7507 38.1712 23.5454C37.9659 23.3401 37.8035 23.096 37.6935 22.8273C37.5834 22.5586 37.528 22.2707 37.5303 21.9804V19.0567C37.503 18.7516 37.5396 18.4443 37.6376 18.1542C37.7357 17.864 37.893 17.5975 38.0997 17.3715C38.3064 17.1456 38.5579 16.9651 38.8381 16.8417C39.1183 16.7182 39.4212 16.6544 39.7275 16.6544C40.0337 16.6544 40.3366 16.7182 40.6168 16.8417C40.8971 16.9651 41.1485 17.1456 41.3552 17.3715C41.5619 17.5975 41.7193 17.864 41.8173 18.1542C41.9153 18.4443 41.9519 18.7516 41.9246 19.0567V21.9804C41.9269 22.2692 41.872 22.5557 41.7631 22.8232C41.6541 23.0908 41.4933 23.3341 41.2899 23.5391C41.0864 23.7442 40.8444 23.907 40.5777 24.0181C40.3111 24.1291 40.0251 24.1863 39.7362 24.1863ZM10.7967 15.4327C10.5078 15.4327 10.2218 15.3755 9.95517 15.2644C9.68851 15.1533 9.44648 14.9906 9.24304 14.7855C9.0396 14.5804 8.87877 14.3371 8.76983 14.0696C8.66088 13.8021 8.60598 13.5156 8.60829 13.2267V10.3205C8.58104 10.0155 8.61759 9.70816 8.71563 9.41804C8.81366 9.12792 8.97103 8.86139 9.17771 8.63542C9.38439 8.40945 9.63585 8.22899 9.9161 8.10552C10.1963 7.98206 10.4992 7.91829 10.8055 7.91829C11.1117 7.91829 11.4146 7.98206 11.6948 8.10552C11.9751 8.22899 12.2265 8.40945 12.4332 8.63542C12.6399 8.86139 12.7973 9.12792 12.8953 9.41804C12.9933 9.70816 13.0299 10.0155 13.0026 10.3205V13.2442C13.005 13.5361 12.949 13.8254 12.8379 14.0953C12.7267 14.3651 12.5628 14.61 12.3556 14.8156C12.1484 15.0211 11.9022 15.1832 11.6315 15.2921C11.3608 15.4011 11.071 15.4548 10.7792 15.4502L10.7967 15.4327ZM39.7362 15.4327C39.4474 15.435 39.1609 15.3801 38.8934 15.2711C38.6258 15.1622 38.3825 15.0014 38.1774 14.7979C37.9724 14.5945 37.8096 14.3524 37.6985 14.0858C37.5875 13.8191 37.5303 13.5331 37.5303 13.2442V10.2505C37.5793 9.70163 37.832 9.19099 38.2387 8.81908C38.6453 8.44717 39.1764 8.24091 39.7275 8.24091C40.2785 8.24091 40.8096 8.44717 41.2162 8.81908C41.6229 9.19099 41.8756 9.70163 41.9246 10.2505V13.1917C41.9246 13.7721 41.6941 14.3288 41.2837 14.7392C40.8732 15.1496 40.3166 15.3801 39.7362 15.3801V15.4327ZM11.4445 6.78407C11.0548 6.78246 10.6732 6.67342 10.3415 6.46894C10.0917 6.3256 9.87263 6.13436 9.69688 5.90619C9.52112 5.67801 9.39214 5.41739 9.31732 5.13926C9.2425 4.86113 9.22332 4.57097 9.26088 4.28541C9.29843 3.99985 9.39199 3.72452 9.53618 3.47519C10.2499 2.23763 11.3251 1.24798 12.6175 0.639015C12.8773 0.514864 13.159 0.443101 13.4465 0.427821C13.734 0.412541 14.0218 0.454043 14.2932 0.549959C14.5647 0.645875 14.8147 0.794327 15.0288 0.986838C15.2429 1.17935 15.417 1.41215 15.5412 1.67194C15.6653 1.93174 15.7371 2.21345 15.7524 2.50098C15.7676 2.78851 15.7261 3.07624 15.6302 3.34773C15.5343 3.61922 15.3859 3.86916 15.1933 4.08328C15.0008 4.2974 14.768 4.47151 14.5082 4.59566C14.0201 4.83589 13.6126 5.21306 13.3353 5.68111C13.1447 6.01477 12.8696 6.29237 12.5377 6.48598C12.2058 6.6796 11.8287 6.7824 11.4445 6.78407ZM39.0184 6.78407C38.6379 6.78425 38.2638 6.686 37.9325 6.49887C37.6012 6.31174 37.3239 6.04209 37.1276 5.71612C36.8543 5.24917 36.4451 4.87663 35.9546 4.64818C35.692 4.52942 35.4557 4.35957 35.2595 4.14852C35.0632 3.93747 34.9109 3.68945 34.8115 3.41893C34.7121 3.14841 34.6675 2.86081 34.6805 2.57289C34.6934 2.28497 34.7635 2.00251 34.8867 1.74197C35.0057 1.47941 35.1754 1.24295 35.3861 1.04617C35.5967 0.849392 35.8442 0.696171 36.1142 0.595309C36.3843 0.494448 36.6716 0.447934 36.9597 0.458439C37.2478 0.468943 37.5309 0.53626 37.7929 0.656523C39.0895 1.25589 40.1755 2.23204 40.9092 3.45769C41.0615 3.70666 41.1629 3.98338 41.2075 4.27182C41.2521 4.56026 41.239 4.85468 41.1689 5.13803C41.0989 5.42137 40.9734 5.688 40.7996 5.92247C40.6257 6.15694 40.4071 6.35458 40.1564 6.50395C39.8018 6.67162 39.4095 6.74403 39.0184 6.71404V6.78407ZM31.0876 4.40308H28.1464C27.8414 4.43033 27.534 4.39378 27.2439 4.29575C26.9538 4.19771 26.6873 4.04035 26.4613 3.83367C26.2353 3.62698 26.0549 3.37552 25.9314 3.09527C25.8079 2.81503 25.7442 2.51215 25.7442 2.20592C25.7442 1.89968 25.8079 1.5968 25.9314 1.31656C26.0549 1.03631 26.2353 0.784848 26.4613 0.578167C26.6873 0.371487 26.9538 0.214119 27.2439 0.116086C27.534 0.018052 27.8414 -0.0185006 28.1464 0.00875389H31.0876C31.6365 0.0577974 32.1471 0.310499 32.519 0.717127C32.891 1.12375 33.0972 1.65486 33.0972 2.20592C33.0972 2.75698 32.891 3.28808 32.519 3.69471C32.1471 4.10133 31.6365 4.35403 31.0876 4.40308ZM22.334 4.40308H19.3578C19.0527 4.43033 18.7454 4.39378 18.4553 4.29575C18.1651 4.19771 17.8986 4.04035 17.6726 3.83367C17.4467 3.62698 17.2662 3.37552 17.1427 3.09527C17.0193 2.81503 16.9555 2.51215 16.9555 2.20592C16.9555 1.89968 17.0193 1.5968 17.1427 1.31656C17.2662 1.03631 17.4467 0.784848 17.6726 0.578167C17.8986 0.371487 18.1651 0.214119 18.4553 0.116086C18.7454 0.018052 19.0527 -0.0185006 19.3578 0.00875389H22.2289C22.534 -0.0185006 22.8413 0.018052 23.1314 0.116086C23.4216 0.214119 23.6881 0.371487 23.9141 0.578167C24.14 0.784848 24.3205 1.03631 24.444 1.31656C24.5674 1.5968 24.6312 1.89968 24.6312 2.20592C24.6312 2.51215 24.5674 2.81503 24.444 3.09527C24.3205 3.37552 24.14 3.62698 23.9141 3.83367C23.6881 4.04035 23.4216 4.19771 23.1314 4.29575C22.8413 4.39378 22.534 4.43033 22.2289 4.40308H22.334Z" fill="#EDE574"/>
</svg>
