<svg id="Layer_1" enable-background="new 0 0 66 66" viewBox="0 0 66 66" xmlns="http://www.w3.org/2000/svg"><g><g><path d="m14.95 23.62c-.05 0-.09-.01-.14-.04-.11-.08-.14-.23-.06-.34l11.71-17.23c.08-.11.23-.14.34-.07l17.15 11.41c.11.08.14.23.07.34s-.23.14-.34.07l-16.96-11.28-11.57 17.03c-.04.07-.12.11-.2.11z"/></g><g><path d="m64.24 50.43c-.05.66-.54 1.22-1.22 1.34l-52.9 10.05c-.82.16-1.61-.38-1.76-1.2l-2.69-14.18-3.89-20.46c-.16-.82.38-1.61 1.2-1.77l52.9-10.04c.82-.16 1.61.38 1.76 1.2l.41 2.15 2.61 13.76 3.56 18.72c.03.15.04.29.02.43z" fill="#ffcd3b"/></g><g><path d="m60.67 31.29c-.28.36-.63.68-1.04.89-.62.33-1.41.39-2.03.06s-1.02-1.09-.84-1.76c.12-.42.42-.76.62-1.15s.25-.92-.07-1.22c-.33-.29-.85-.18-1.22-.38-.4-.21-.55-.72-.52-1.16.04-.44.22-.87.35-1.29.12-.43.18-.91-.03-1.31-.36-.71-1.31-.81-1.99-1.22-.55-.34-.94-.92-1.04-1.57-.09-.64.12-1.32.55-1.8l4.66-1.85z" fill="#fcb910"/></g><g><path d="m57.17 36.58c-.41 0-.81-.09-1.16-.27-.94-.47-1.45-1.57-1.17-2.5.1-.33.29-.62.47-.89.12-.18.23-.35.32-.53.19-.39.2-.93-.12-1.12-.16-.09-.37-.1-.6-.1s-.49-.01-.73-.11c-.67-.28-.84-1.15-.63-1.82.11-.36.31-.67.49-.98.13-.21.25-.4.34-.6.22-.45.29-1.04-.03-1.38-.26-.27-.67-.3-1.12-.34-.24-.02-.49-.04-.73-.1-1.23-.3-1.89-1.57-1.98-2.63-.1-1.15.3-2.3.62-3.23.04-.13.18-.19.31-.15s.19.18.15.31c-.32.93-.69 1.98-.6 3.02.08.89.61 1.96 1.61 2.2.2.05.42.07.65.08.52.04 1.05.08 1.43.49.51.53.38 1.37.11 1.92-.11.23-.24.44-.37.65-.18.29-.35.56-.44.87-.14.46-.05 1.05.36 1.23.16.07.35.07.55.07.27 0 .57.01.84.17.57.35.58 1.16.3 1.75-.1.21-.23.4-.35.59-.17.26-.33.5-.41.76-.22.7.2 1.56.92 1.92.67.34 1.57.26 2.3-.18.64-.38 1.19-1.04 1.58-1.9.19-.43.36-.91.51-1.51.03-.13.17-.21.3-.18s.21.17.17.3c-.16.63-.34 1.14-.54 1.59-.44.95-1.05 1.69-1.78 2.12-.46.33-1.02.48-1.57.48z" fill="#fcb910"/></g><g><path d="m38.38 50.07-6.76 1.28c1.48-.93 2.98-1.81 4.67-1.76.72.02 1.41.21 2.09.48z" fill="#fcb910"/></g><g><path d="m23.93 52.81-16.46 3.13-1.8-9.49c.03.04.05.07.08.1 1.24 1.4 3.13 2.19 4.99 2.08 1.66-.1 3.25-.85 4.91-.75 3.22.2 5.47 3.49 8.28 4.93z" fill="#fcb910"/></g><g><path d="m58.53 20.05-55.86 10.6-.89-4.67c-.16-.82.38-1.61 1.2-1.77l52.9-10.04c.82-.16 1.61.38 1.77 1.2z" fill="#efa707"/></g><g><path d="m64.24 50.43v.01c-.01.07-.01.12-.03.18 0 .03-.01.07-.02.09-.01.05-.03.1-.05.14-.02.07-.05.12-.08.18-.03.07-.07.12-.12.18-.1.15-.25.27-.41.36-.07.05-.15.08-.23.12-.08.03-.17.05-.26.07l-52.9 10.05c-.82.16-1.61-.38-1.76-1.2l-.89-4.67h.01l16.46-3.13 7.68-1.46 6.76-1.28 24.96-4.74.86 4.67c.03.15.04.29.02.43z" fill="#efa707"/></g><g><path d="m64.24 50.43v.01c-.01.07-.01.12-.03.18 0 .03-.01.07-.02.09-.01.05-.03.1-.05.14-.02.07-.05.12-.08.18-.03.07-.07.12-.12.18-.1.15-.25.27-.41.36-.07.05-.15.08-.23.12-.08.03-.17.05-.26.07l-52.9 10.05c-.82.16-1.61-.38-1.76-1.2l-.89-4.67 16.46-3.13c.77.4 1.59.65 2.48.66 1.89.03 3.54-1.09 5.2-2.12l6.76-1.28c2.3.92 4.41 2.83 6.84 2.45 2.49-.38 4.17-3.06 6.67-3.33 1.65-.18 3.19.74 4.75 1.29 2.42.87 5.15.81 7.59-.05z" fill="#db9405"/></g><g><g><path d="m6.4 28.3-1.95.37c-.29.05-.56-.13-.62-.42l-.36-1.95c-.05-.29.13-.56.42-.62l1.95-.37c.29-.05.56.13.62.42l.37 1.95c.05.29-.14.56-.43.62z" fill="#f4eded"/></g><g><path d="m11.38 27.35-1.95.37c-.29.05-.56-.13-.62-.42l-.37-1.95c-.05-.29.13-.56.42-.62l1.95-.37c.29-.05.56.13.62.42l.37 1.95c.05.29-.14.57-.42.62z" fill="#f4eded"/></g><g><path d="m16.35 26.41-1.95.37c-.29.05-.56-.13-.62-.42l-.37-1.95c-.05-.29.13-.56.42-.62l1.95-.37c.29-.05.56.13.62.42l.37 1.95c.05.29-.13.56-.42.62z" fill="#f4eded"/></g><g><path d="m21.32 25.46-1.95.37c-.29.05-.56-.13-.62-.42l-.37-1.95c-.05-.29.13-.56.42-.62l1.95-.37c.29-.05.56.13.62.42l.37 1.95c.06.29-.13.57-.42.62z" fill="#f4eded"/></g><g><path d="m26.3 24.52-1.95.37c-.29.05-.56-.13-.62-.42l-.37-1.95c-.05-.29.13-.56.42-.62l1.95-.37c.29-.05.56.13.62.42l.37 1.95c.05.29-.14.57-.42.62z" fill="#f4eded"/></g><g><path d="m31.27 23.58-1.95.37c-.29.05-.56-.13-.62-.42l-.37-1.95c-.05-.29.13-.56.42-.62l1.95-.37c.29-.05.56.13.62.42l.37 1.95c.06.29-.13.56-.42.62z" fill="#f4eded"/></g><g><path d="m36.25 22.63-1.95.37c-.29.05-.56-.13-.62-.42l-.37-1.95c-.05-.29.13-.56.42-.62l1.95-.37c.29-.05.56.13.62.42l.37 1.95c.05.29-.14.57-.42.62z" fill="#f4eded"/></g><g><path d="m41.22 21.69-1.95.37c-.29.05-.56-.13-.62-.42l-.37-1.95c-.05-.29.13-.56.42-.62l1.95-.37c.29-.05.56.13.62.42l.37 1.95c.06.29-.13.56-.42.62z" fill="#f4eded"/></g><g><path d="m46.19 20.74-1.95.37c-.29.05-.56-.13-.62-.42l-.37-1.95c-.05-.29.13-.56.42-.62l1.95-.37c.29-.05.56.13.62.42l.37 1.95c.06.29-.13.57-.42.62z" fill="#f4eded"/></g><g><path d="m51.17 19.8-1.95.37c-.29.05-.56-.13-.62-.42l-.37-1.95c-.05-.29.13-.56.42-.62l1.95-.37c.29-.05.56.13.62.42l.37 1.95c.05.29-.14.57-.42.62z" fill="#f4eded"/></g><g><path d="m56.14 18.86-1.95.37c-.29.05-.56-.13-.62-.42l-.37-1.95c-.05-.29.13-.56.42-.62l1.95-.37c.29-.05.56.13.62.42l.37 1.95c.06.28-.13.56-.42.62z" fill="#f4eded"/></g></g><g><g><path d="m12.37 59.74-1.95.37c-.29.05-.56-.13-.62-.42l-.37-1.95c-.05-.29.13-.56.42-.62l1.95-.37c.29-.05.56.13.62.42l.37 1.95c.06.29-.13.57-.42.62z" fill="#f4eded"/></g><g><path d="m17.34 58.8-1.95.37c-.29.05-.56-.13-.62-.42l-.37-1.95c-.05-.29.13-.56.42-.62l1.95-.37c.29-.05.56.13.62.42l.37 1.95c.06.29-.13.56-.42.62z" fill="#f4eded"/></g><g><path d="m22.32 57.85-1.95.37c-.29.05-.56-.13-.62-.42l-.37-1.95c-.05-.29.13-.56.42-.62l1.95-.37c.29-.05.56.13.62.42l.37 1.95c.05.29-.13.57-.42.62z" fill="#f4eded"/></g><g><path d="m27.29 56.91-1.95.37c-.29.05-.56-.13-.62-.42l-.37-1.95c-.05-.29.13-.56.42-.62l1.95-.37c.29-.05.56.13.62.42l.37 1.95c.06.29-.13.57-.42.62z" fill="#f4eded"/></g><g><path d="m32.27 55.97-1.95.37c-.29.05-.56-.13-.62-.42l-.37-1.95c-.05-.29.13-.56.42-.62l1.95-.37c.29-.05.56.13.62.42l.37 1.95c.05.28-.14.56-.42.62z" fill="#f4eded"/></g><g><path d="m37.24 55.02-1.95.37c-.29.05-.56-.13-.62-.42l-.37-1.95c-.05-.29.13-.56.42-.62l1.95-.37c.29-.05.56.13.62.42l.37 1.95c.06.29-.13.57-.42.62z" fill="#f4eded"/></g><g><path d="m42.21 54.08-1.95.37c-.29.05-.56-.13-.62-.42l-.37-1.95c-.05-.29.13-.56.42-.62l1.95-.37c.29-.05.56.13.62.42l.37 1.95c.06.29-.13.56-.42.62z" fill="#f4eded"/></g><g><path d="m47.19 53.13-1.95.37c-.29.05-.56-.13-.62-.42l-.37-1.95c-.05-.29.13-.56.42-.62l1.95-.37c.29-.05.56.13.62.42l.37 1.95c.05.29-.13.57-.42.62z" fill="#f4eded"/></g><g><path d="m52.16 52.19-1.95.37c-.29.05-.56-.13-.62-.42l-.37-1.95c-.05-.29.13-.56.42-.62l1.95-.37c.29-.05.56.13.62.42l.37 1.95c.06.29-.13.56-.42.62z" fill="#f4eded"/></g><g><path d="m57.14 51.24-1.95.37c-.29.05-.56-.13-.62-.42l-.37-1.95c-.05-.29.13-.56.42-.62l1.95-.37c.29-.05.56.13.62.42l.37 1.95c.05.29-.14.57-.42.62z" fill="#f4eded"/></g><g><path d="m62.11 50.3-1.95.37c-.29.05-.56-.13-.62-.42l-.37-1.95c-.05-.29.13-.56.42-.62l1.95-.37c.29-.05.56.13.62.42l.37 1.95c.06.29-.13.57-.42.62z" fill="#f4eded"/></g></g><g><g><g><path d="m18.53 37.55c.24.29.19.72-.11.97-.53.43-1.16.73-1.85.86-2.25.43-4.42-1.05-4.85-3.3s1.05-4.42 3.3-4.85c.69-.13 1.38-.08 2.04.12.36.12.57.51.45.87-.12.37-.51.57-.88.46-.43-.15-.9-.17-1.35-.08-1.49.28-2.48 1.73-2.2 3.23.29 1.5 1.74 2.48 3.23 2.2.45-.09.89-.28 1.23-.57.31-.25.74-.21.99.09z" fill="#1b38ab"/></g><g><path d="m18.46 34.8c-.43-2.25.97-4.41 3.13-4.81 2.15-.41 4.26 1.09 4.68 3.33.43 2.25-.98 4.41-3.14 4.82-2.15.4-4.24-1.09-4.67-3.34zm1.36-.26c.29 1.5 1.66 2.5 3.05 2.23 1.41-.27 2.32-1.69 2.03-3.2-.28-1.5-1.66-2.5-3.06-2.23-1.39.27-2.3 1.7-2.02 3.2z" fill="#1b38ab"/></g><g><path d="m33.96 35.38-.9-4.76-1.36 2.79c-.1.2-.28.34-.49.38s-.44-.02-.6-.18l-2.29-2.1.9 4.76c.07.37-.17.73-.56.81-.37.07-.73-.18-.8-.55l-1.29-6.8c-.07-.36.16-.73.56-.81.21-.04.42.02.59.17l3.15 2.88 1.88-3.83c.09-.2.27-.33.48-.37.4-.08.75.18.82.54l1.29 6.8c.07.37-.17.73-.56.81s-.75-.17-.82-.54z" fill="#1b38ab"/></g><g><path d="m36.26 34.94-1.29-6.8c-.07-.37.17-.73.55-.8.37-.07.73.17.8.55l1.29 6.8c.07.37-.17.73-.55.8-.37.07-.73-.18-.8-.55z" fill="#1b38ab"/></g><g><path d="m43.49 33.97-4.47-4.36.88 4.64c.07.37-.19.74-.56.81s-.73-.18-.8-.55l-1.29-6.8c-.07-.35.15-.73.56-.81.21-.04.44.02.6.19l4.47 4.36-.88-4.64c-.07-.37.17-.73.56-.81.37-.07.73.17.8.55l1.29 6.8c.07.36-.17.73-.55.8-.21.04-.44-.02-.61-.18z" fill="#1b38ab"/></g><g><path d="m46.68 32.43c-.91-.62-1.53-1.57-1.74-2.66-.21-1.08.02-2.19.64-3.1.62-.93 1.57-1.54 2.66-1.75 1.08-.21 2.19.02 3.11.65.15.1.24.26.27.43s.01.36-.11.53c-.11.17-.26.26-.44.29-.17.03-.36.01-.51-.11-.61-.41-1.35-.56-2.07-.43-.73.14-1.36.55-1.77 1.16-.42.61-.58 1.35-.44 2.07s.56 1.35 1.17 1.77c.63.44 1.37.57 2.07.44.62-.12 1.18-.44 1.61-.94l-.27-1.43-1.7.32c-.37.07-.74-.17-.82-.55s.19-.73.56-.81l2.37-.45c.37-.07.73.17.8.55l.46 2.4c.04.19 0 .37-.11.53-.64.94-1.61 1.54-2.65 1.73-1.02.2-2.15 0-3.09-.64z" fill="#1b38ab"/></g></g><g><g><path d="m24.64 46.94.02.12c.13.67-.02 1.37-.4 1.92-.42.61-1.06 1.02-1.83 1.17l-.09.02c-1 .15-1.96-.24-2.54-1.04-.06-.09-.1-.19-.11-.28-.05-.26.04-.53.28-.69.08-.06.18-.09.27-.11.26-.05.54.04.7.28.26.37.71.55 1.19.47l.06-.01c.41-.08.72-.27.92-.56.19-.28.26-.59.2-.91l-.01-.05c-.14-.53-1.24-.81-1.71-.86l-.05-.01c-1.28-.2-2.03-.85-2.23-1.89l-.02-.09c-.09-.6.08-1.19.51-1.65.36-.41.89-.71 1.5-.83l.1-.02c.49-.08 1.03.02 1.49.25.2.11.33.29.37.48.03.14.01.3-.06.43-.11.2-.29.33-.5.37-.14.03-.29.02-.43-.05-.2-.11-.45-.14-.66-.12l-.07.01c-.57.11-.96.48-.89.91l.01.05c.11.57.59.7 1.08.8.38.03 2.53.3 2.9 1.89z" fill="#1b38ab"/></g><g><path d="m25.32 45.4c-.43-2.25.97-4.41 3.13-4.81 2.15-.41 4.26 1.09 4.68 3.33.43 2.25-.98 4.41-3.14 4.82-2.15.41-4.25-1.09-4.67-3.34zm1.36-.26c.29 1.5 1.66 2.5 3.05 2.23 1.41-.27 2.32-1.69 2.03-3.2-.28-1.5-1.66-2.5-3.06-2.23-1.4.28-2.31 1.7-2.02 3.2z" fill="#1b38ab"/></g><g><path d="m34.06 43.74c-.43-2.25.97-4.41 3.13-4.81 2.15-.41 4.26 1.09 4.68 3.33.43 2.25-.98 4.41-3.14 4.82s-4.24-1.09-4.67-3.34zm1.37-.26c.29 1.5 1.66 2.5 3.05 2.23 1.41-.27 2.32-1.69 2.03-3.2-.28-1.5-1.66-2.5-3.06-2.23s-2.31 1.7-2.02 3.2z" fill="#1b38ab"/></g><g><path d="m48.41 44.94-4.47-4.36.88 4.64c.07.37-.19.74-.56.81s-.73-.18-.8-.55l-1.29-6.8c-.07-.35.15-.73.56-.81.21-.04.44.02.6.19l4.47 4.36-.88-4.64c-.07-.37.17-.73.56-.81.37-.07.73.17.8.55l1.29 6.8c.07.36-.17.73-.55.8-.22.05-.45-.02-.61-.18z" fill="#1b38ab"/></g></g></g><g><path d="m30.37 7.15c0 .05 0 .11-.01.16-.08 1.58-1.39 2.83-2.99 2.83-1.64 0-2.98-1.32-2.99-2.96v-.03c0-1.65 1.34-2.99 2.99-2.99 1.66 0 3 1.34 3 2.99z" fill="#fe515e"/></g><g><path d="m30.36 7.32c-.08 1.58-1.39 2.83-2.99 2.83-1.64 0-2.98-1.32-2.99-2.96.07.18.17.35.31.48.29.29.75.42 1.12.24.21-.1.4-.29.64-.29.23.01.4.2.5.41.09.21.14.44.26.63.12.2.35.35.57.27.21-.07.29-.31.38-.51.08-.2.22-.43.44-.42.18.01.31.17.48.25.29.14.65-.02.84-.27.2-.25.26-.59.33-.9.03.07.07.15.11.24z" fill="#f83b4d"/></g><g><path d="m45.87 55.27c-.11 0-.22-.08-.24-.2-.03-.13.06-.26.19-.29l17.15-3.26c.56-.1.98-.56 1.02-1.12.02-.12.01-.24-.01-.36l-6.58-34.63c-.13-.69-.79-1.14-1.48-1.01l-52.89 10.05c-.33.06-.62.25-.81.53s-.26.62-.2.95l5.38 28.3c.03.13-.06.26-.19.29s-.26-.06-.29-.19l-5.37-28.3c-.09-.46.01-.93.27-1.32s.66-.65 1.13-.74l52.9-10.04c.95-.18 1.87.45 2.05 1.4l6.58 34.63c.03.18.04.35.01.5-.06.76-.64 1.41-1.41 1.55l-17.15 3.26c-.03 0-.05 0-.06 0z"/></g><g><path d="m13.52 48.06c-.47 0-.9.23-1.21.6s-.5.87-.5 1.43c0-1.12-.76-2.03-1.71-2.03.47 0 .9-.23 1.21-.59.31-.37.5-.87.5-1.43 0 .56.19 1.06.5 1.43.31.36.74.59 1.21.59z" fill="#fff"/></g><g><path d="m60.67 35.5c-.47 0-.9.23-1.21.6s-.5.87-.5 1.43c0-1.12-.76-2.03-1.71-2.03.47 0 .9-.23 1.21-.59.31-.37.5-.87.5-1.43 0 .56.19 1.06.5 1.43.3.36.74.59 1.21.59z" fill="#fff"/></g><g><path d="m10.35 45.78c-.26 0-.5.13-.67.33s-.28.48-.28.79c0-.62-.42-1.12-.94-1.12.26 0 .5-.13.67-.33s.28-.48.28-.79c0 .31.11.59.28.79.16.2.4.33.66.33z" fill="#fff"/></g><g><g><path d="m6.56 37.6c-.45.12-1.14-1.04-1.53-2.58s-.34-2.88.12-2.99 1.14 1.05 1.53 2.58c.38 1.54.33 2.88-.12 2.99z" fill="#fff"/></g><g><path d="m7.18 40.08c-.2.05-.46-.29-.58-.77s-.06-.91.14-.96.46.29.58.77.06.9-.14.96z" fill="#fff"/></g></g><g><g><path d="m58.19 44.72c.09.46-1.2 1.07-2.88 1.35-1.68.29-3.09.14-3.15-.32-.07-.46 1.22-1.07 2.88-1.35s3.07-.14 3.15.32z" fill="#fff"/></g><g><path d="m60.87 44.27c.04.2-.35.43-.87.52s-.97 0-1-.2c-.04-.2.35-.43.87-.52.51-.1.96 0 1 .2z" fill="#fff"/></g></g></g></svg>