<svg width="39" height="63" viewBox="0 0 39 63" fill="none" xmlns="http://www.w3.org/2000/svg">
<path d="M30.1553 63.0001H8.0353C5.95743 62.9954 3.96598 62.168 2.4967 60.6987C1.02741 59.2294 0.199935 57.2379 0.195312 55.1601V51.4851C0.244336 50.9364 0.49693 50.426 0.903388 50.0542C1.30985 49.6825 1.84073 49.4763 2.39156 49.4763C2.94239 49.4763 3.47327 49.6825 3.87973 50.0542C4.28618 50.426 4.53878 50.9364 4.5878 51.4851V55.1601C4.5878 56.0883 4.95655 56.9786 5.61293 57.6349C6.2693 58.2913 7.15954 58.6601 8.0878 58.6601H30.1553C31.0835 58.6601 31.9738 58.2913 32.6301 57.6349C33.2865 56.9786 33.6553 56.0883 33.6553 55.1601V51.4851C33.7043 50.9364 33.9569 50.426 34.3633 50.0542C34.7698 49.6825 35.3007 49.4763 35.8515 49.4763C36.4023 49.4763 36.9332 49.6825 37.3397 50.0542C37.7461 50.426 37.9987 50.9364 38.0478 51.4851V55.1601C38.0455 56.1934 37.8394 57.2161 37.4413 58.1697C37.0432 59.1233 36.4609 59.989 35.7278 60.7172C34.9947 61.4455 34.1251 62.022 33.1689 62.4137C32.2127 62.8054 31.1886 63.0047 30.1553 63.0001Z" fill="#EDE574"/>
<path d="M35.8085 29.4C35.5182 29.4023 35.2305 29.3468 34.9619 29.2369C34.6933 29.1269 34.4493 28.9645 34.2441 28.7593C34.0389 28.5541 33.8765 28.3101 33.7666 28.0415C33.6566 27.7729 33.6011 27.4852 33.6035 27.195V7.83999C33.6035 6.91173 33.2347 6.02149 32.5783 5.36512C31.922 4.70874 31.0317 4.33999 30.1035 4.33999H8.036C7.10775 4.33999 6.21751 4.70874 5.56113 5.36512C4.90476 6.02149 4.53601 6.91173 4.53601 7.83999V27.195C4.56325 27.4999 4.52671 27.8071 4.42872 28.0971C4.33073 28.3871 4.17343 28.6535 3.96684 28.8794C3.76024 29.1052 3.50888 29.2856 3.22875 29.409C2.94863 29.5325 2.64587 29.5962 2.33976 29.5962C2.03365 29.5962 1.7309 29.5325 1.45077 29.409C1.17065 29.2856 0.919284 29.1052 0.71269 28.8794C0.506096 28.6535 0.348797 28.3871 0.250804 28.0971C0.152812 27.8071 0.116273 27.4999 0.143516 27.195V7.83999C0.148138 5.76211 0.975618 3.77067 2.4449 2.30139C3.91418 0.832104 5.90563 0.00462265 7.9835 0H30.156C32.2338 0.00462265 34.2253 0.832104 35.6946 2.30139C37.1639 3.77067 37.9913 5.76211 37.996 7.83999V27.195C37.9983 27.4837 37.9434 27.77 37.8345 28.0375C37.7256 28.3049 37.5648 28.5481 37.3615 28.7531C37.1581 28.9581 36.9162 29.1208 36.6496 29.2318C36.3831 29.3428 36.0972 29.4 35.8085 29.4Z" fill="#EDE574"/>
<path d="M23.3671 10.0624H14.8271C14.2785 10.0134 13.768 9.7608 13.3963 9.35434C13.0245 8.94788 12.8184 8.417 12.8184 7.86617C12.8184 7.31534 13.0245 6.78446 13.3963 6.378C13.768 5.97154 14.2785 5.71894 14.8271 5.66992H23.3671C23.9157 5.71894 24.4262 5.97154 24.7979 6.378C25.1697 6.78446 25.3759 7.31534 25.3759 7.86617C25.3759 8.417 25.1697 8.94788 24.7979 9.35434C24.4262 9.7608 23.9157 10.0134 23.3671 10.0624Z" fill="#EDE574"/>
<path d="M7.2828 41.9476C5.41952 41.9432 3.63254 41.207 2.30684 39.8977C0.981142 38.5884 0.222844 36.8107 0.195312 34.9476C0.244336 34.3989 0.49693 33.8885 0.903388 33.5168C1.30985 33.145 1.84073 32.9388 2.39156 32.9388C2.94239 32.9388 3.47327 33.145 3.87973 33.5168C4.28619 33.8885 4.53878 34.3989 4.5878 34.9476C4.55783 35.3186 4.60504 35.6918 4.72644 36.0436C4.84784 36.3954 5.0408 36.7183 5.29317 36.9919C5.54554 37.2655 5.85183 37.4838 6.19276 37.6332C6.53369 37.7825 6.90185 37.8596 7.27405 37.8596C7.64625 37.8596 8.01441 37.7825 8.35534 37.6332C8.69627 37.4838 9.00257 37.2655 9.25494 36.9919C9.5073 36.7183 9.70026 36.3954 9.82166 36.0436C9.94306 35.6918 9.99027 35.3186 9.9603 34.9476V17.0626C9.93305 16.7577 9.96959 16.4505 10.0676 16.1605C10.1656 15.8705 10.3229 15.6041 10.5295 15.3782C10.7361 15.1523 10.9874 14.9719 11.2676 14.8485C11.5477 14.7251 11.8504 14.6614 12.1565 14.6614C12.4627 14.6614 12.7654 14.7251 13.0455 14.8485C13.3257 14.9719 13.577 15.1523 13.7836 15.3782C13.9902 15.6041 14.1475 15.8705 14.2455 16.1605C14.3435 16.4505 14.38 16.7577 14.3528 17.0626V34.8601C14.3528 36.7368 13.6085 38.5369 12.2831 39.8655C10.9577 41.1942 9.15949 41.9429 7.2828 41.9476Z" fill="#EDE574"/>
<path d="M30.9101 41.9474C29.0621 41.9203 27.2973 41.1741 25.9904 39.8671C24.6835 38.5602 23.9373 36.7955 23.9102 34.9474V17.0624C23.9102 16.4776 24.1425 15.9168 24.556 15.5033C24.9695 15.0897 25.5303 14.8574 26.1151 14.8574C26.7 14.8574 27.2608 15.0897 27.6743 15.5033C28.0878 15.9168 28.3202 16.4776 28.3202 17.0624V34.8599C28.3202 35.57 28.6022 36.251 29.1044 36.7532C29.6065 37.2553 30.2875 37.5374 30.9976 37.5374C31.7078 37.5374 32.3888 37.2553 32.8909 36.7532C33.3931 36.251 33.6751 35.57 33.6751 34.8599C33.7242 34.3112 33.9768 33.8008 34.3832 33.4291C34.7897 33.0573 35.3206 32.8511 35.8714 32.8511C36.4222 32.8511 36.9531 33.0573 37.3596 33.4291C37.766 33.8008 38.0186 34.3112 38.0676 34.8599C38.0677 35.7966 37.8821 36.7239 37.5215 37.5884C37.161 38.4529 36.6326 39.2374 35.9671 39.8964C35.3015 40.5555 34.5119 41.0761 33.6439 41.4281C32.7759 41.7801 31.8468 41.9566 30.9101 41.9474Z" fill="#EDE574"/>
<path d="M19.0966 41.9474C18.5255 41.9475 17.9769 41.7243 17.5681 41.3253C17.1594 40.9264 16.9228 40.3834 16.9091 39.8124V21.2799C16.8819 20.975 16.9184 20.6678 17.0164 20.3778C17.1144 20.0878 17.2717 19.8214 17.4783 19.5955C17.6849 19.3696 17.9363 19.1892 18.2164 19.0658C18.4965 18.9424 18.7993 18.8787 19.1054 18.8787C19.4115 18.8787 19.7143 18.9424 19.9944 19.0658C20.2745 19.1892 20.5259 19.3696 20.7325 19.5955C20.9391 19.8214 21.0964 20.0878 21.1943 20.3778C21.2923 20.6678 21.3289 20.975 21.3016 21.2799V39.8124C21.2879 40.3864 21.0489 40.9321 20.6364 41.3315C20.2239 41.7309 19.6708 41.9521 19.0966 41.9474Z" fill="#EDE574"/>
<path d="M35.8087 47.4073H2.40124C2.09634 47.4346 1.78912 47.3981 1.49912 47.3001C1.20912 47.2021 0.942705 47.0448 0.716828 46.8382C0.49095 46.6316 0.31056 46.3802 0.187147 46.1001C0.0637335 45.82 0 45.5172 0 45.2111C0 44.905 0.0637335 44.6022 0.187147 44.3221C0.31056 44.042 0.49095 43.7906 0.716828 43.584C0.942705 43.3774 1.20912 43.2201 1.49912 43.1221C1.78912 43.0241 2.09634 42.9876 2.40124 43.0149H35.8087C36.3573 43.0639 36.8678 43.3165 37.2395 43.7229C37.6113 44.1294 37.8174 44.6603 37.8174 45.2111C37.8174 45.7619 37.6113 46.2928 37.2395 46.6993C36.8678 47.1057 36.3573 47.3583 35.8087 47.4073Z" fill="#EDE574"/>
</svg>
