<svg width="36" height="34" viewBox="0 0 36 34" fill="none" xmlns="http://www.w3.org/2000/svg">
<path d="M14.3937 22.9724C14.5476 23.1088 14.7793 23.1117 14.9365 22.9756C18.3664 19.9997 21.4929 16.8786 25.2233 13.729C25.5452 13.4572 25.737 13.0773 25.7638 12.6583C25.8461 11.3562 24.2956 10.5035 23.2419 11.3751C20.0502 14.011 17.3967 16.4019 14.9215 18.873C14.4351 18.3871 13.7845 17.692 12.9815 16.8C12.3608 16.1106 11.2405 15.9914 10.4869 16.7358C9.82496 17.3891 9.79339 18.4379 10.4144 19.1239C11.9132 20.7782 12.8542 21.6038 14.3937 22.9724Z" fill="#EDE574"/>
<path d="M6.33815 30.3692C11.5947 34.4541 19.5478 34.7754 25.0553 31.0357C29.7874 27.8223 32.5632 21.6438 32.0612 15.9165C31.7617 7.40319 26.2301 2.10274 17.1318 1.68857C14.4559 1.56175 11.8554 2.22367 9.56255 3.57012C5.73252 5.37288 2.56554 8.63059 1.13645 12.6256C-1.10583 18.8939 1.08154 26.2843 6.33815 30.3692ZM4.51148 10.2837C7.0825 5.47398 11.6687 2.25911 17.0944 2.50941C26.0929 2.9193 31.2537 8.07341 31.2537 16.6506C31.2537 24.4476 24.9103 30.7912 17.1131 30.7912C6.36964 30.7912 -0.276081 19.2408 4.51148 10.2837Z" fill="#EDE574"/>
<path d="M28.5004 0.604023C27.9939 1.81175 27.6533 3.08208 27.4877 4.38078C27.4591 4.60606 27.6183 4.81154 27.8435 4.84043C28.074 4.86836 28.275 4.70602 28.3032 4.48459C28.4592 3.25974 28.7805 2.06111 29.2581 0.921874C29.3461 0.712649 29.2474 0.471853 29.0382 0.384096C28.8284 0.295269 28.5881 0.394798 28.5004 0.604023Z" fill="#EDE574"/>
<path d="M33.6636 3.30149C33.5247 3.12169 33.2668 3.08852 33.087 3.22818L30.3294 5.36324C30.1498 5.50183 30.1169 5.76028 30.2561 5.93954C30.3956 6.12068 30.6557 6.15087 30.8324 6.01285L33.59 3.87779C33.7696 3.7392 33.8025 3.48075 33.6636 3.30149Z" fill="#EDE574"/>
<path d="M35.7206 8.08105C35.6505 7.8654 35.4193 7.74661 35.2026 7.81778C34.2777 8.11957 33.3185 8.26566 32.3393 8.24265C32.1258 8.25067 31.9248 8.41816 31.92 8.64558C31.9155 8.87246 32.0958 9.05975 32.3227 9.06456C33.4444 9.08326 34.4783 8.91819 35.4573 8.59903C35.6732 8.52893 35.7909 8.29669 35.7206 8.08105Z" fill="#EDE574"/>
</svg>
