<svg width="71" height="71" viewBox="0 0 71 71" fill="none" xmlns="http://www.w3.org/2000/svg">
<path d="M35.5006 58.53C34.7571 58.53 34.0441 58.8254 33.5183 59.3511C32.9926 59.8768 32.6973 60.5899 32.6973 61.3333C32.6973 62.0768 32.9926 62.7899 33.5183 63.3156C34.0441 63.8413 34.7571 64.1367 35.5006 64.1367C36.2395 64.1263 36.9452 63.8283 37.468 63.306C37.9908 62.7837 38.2893 62.0782 38.3003 61.3393C38.3041 60.9701 38.2344 60.6039 38.0951 60.262C37.9559 59.92 37.7499 59.6093 37.4893 59.3478C37.2287 59.0863 36.9186 58.8793 36.5772 58.7389C36.2357 58.5985 35.8698 58.5275 35.5006 58.53Z" fill="white"/>
<path d="M63.148 14.2545V8.22655C63.0881 6.17343 62.2273 4.22522 60.7497 2.79848C59.2721 1.37173 57.295 0.579687 55.241 0.591687H15.6538C13.5824 0.591687 11.5959 1.41452 10.1312 2.87918C8.66659 4.34384 7.84375 6.33035 7.84375 8.40169V62.6102C7.84375 64.6815 8.66659 66.668 10.1312 68.1327C11.5959 69.5974 13.5824 70.4202 15.6538 70.4202H55.3475C56.3731 70.4202 57.3887 70.2182 58.3362 69.8257C59.2838 69.4332 60.1448 68.8579 60.87 68.1327C61.5952 67.4075 62.1705 66.5465 62.563 65.599C62.9555 64.6514 63.1575 63.6358 63.1575 62.6102V54.0239L63.148 14.2545ZM15.6538 4.14169H55.241C56.3628 4.1315 57.4445 4.55793 58.2576 5.33083C59.0707 6.10372 59.5514 7.16251 59.598 8.28335V12.4795H22.0887C21.618 12.4795 21.1665 12.6665 20.8336 12.9993C20.5007 13.3322 20.3137 13.7837 20.3137 14.2545C20.3137 14.7252 20.5007 15.1767 20.8336 15.5096C21.1665 15.8424 21.618 16.0295 22.0887 16.0295H59.598V52.2395H11.4032V16.0295H12.7262C13.1969 16.0295 13.6484 15.8424 13.9813 15.5096C14.3142 15.1767 14.5012 14.7252 14.5012 14.2545C14.5012 13.7837 14.3142 13.3322 13.9813 12.9993C13.6484 12.6665 13.1969 12.4795 12.7262 12.4795H11.4032V8.39222C11.4057 7.26568 11.8543 6.18599 12.6509 5.3894C13.4475 4.59281 14.5272 4.14419 15.6538 4.14169ZM55.3475 66.8584H15.6538C14.5239 66.8584 13.4404 66.4095 12.6415 65.6106C11.8426 64.8117 11.3938 63.7282 11.3938 62.5984V55.7989H59.598V62.6102C59.5949 63.7363 59.146 64.8154 58.3495 65.6115C57.553 66.4076 56.4736 66.8559 55.3475 66.8584Z" fill="white"/>
<path d="M33.3707 10.0867H37.6307C38.1015 10.0867 38.5529 9.89974 38.8858 9.56686C39.2187 9.23398 39.4057 8.7825 39.4057 8.31174C39.4057 7.84098 39.2187 7.38951 38.8858 7.05663C38.5529 6.72375 38.1015 6.53674 37.6307 6.53674H33.3707C32.8999 6.53674 32.4485 6.72375 32.1156 7.05663C31.7827 7.38951 31.5957 7.84098 31.5957 8.31174C31.5957 8.7825 31.7827 9.23398 32.1156 9.56686C32.4485 9.89974 32.8999 10.0867 33.3707 10.0867Z" fill="white"/>
</svg>
