<svg width="38" height="63" viewBox="0 0 38 63" fill="none" xmlns="http://www.w3.org/2000/svg">
<path d="M29.9933 62.9999H7.84871C5.76852 62.9953 3.77486 62.1669 2.30394 60.696C0.833028 59.2251 0.00462779 57.2314 0 55.1512V7.84871C0.00462779 5.76853 0.833028 3.77486 2.30394 2.30395C3.77486 0.83303 5.76852 0.00462779 7.84871 0H29.9933C32.0735 0.00462779 34.0671 0.83303 35.538 2.30395C37.009 3.77486 37.8374 5.76853 37.842 7.84871V20.6729C37.8693 20.9782 37.8327 21.2857 37.7346 21.5761C37.6365 21.8664 37.479 22.1331 37.2722 22.3592C37.0654 22.5854 36.8137 22.7659 36.5333 22.8895C36.2528 23.013 35.9497 23.0769 35.6433 23.0769C35.3369 23.0769 35.0338 23.013 34.7533 22.8895C34.4729 22.7659 34.2212 22.5854 34.0144 22.3592C33.8076 22.1331 33.6501 21.8664 33.552 21.5761C33.4539 21.2857 33.4173 20.9782 33.4446 20.6729V7.77863C33.4446 6.84934 33.0755 5.95812 32.4183 5.30101C31.7612 4.6439 30.87 4.27474 29.9407 4.27474H7.84871C6.91942 4.27474 6.02819 4.6439 5.37109 5.30101C4.71398 5.95812 4.34482 6.84934 4.34482 7.77863V55.0811C4.34482 56.0104 4.71398 56.9016 5.37109 57.5588C6.02819 58.2159 6.91942 58.585 7.84871 58.585H29.9933C30.9226 58.585 31.8138 58.2159 32.4709 57.5588C33.128 56.9016 33.4972 56.0104 33.4972 55.0811V52.7861C33.4699 52.4809 33.5065 52.1733 33.6046 51.883C33.7027 51.5926 33.8602 51.3259 34.067 51.0998C34.2738 50.8737 34.5254 50.6931 34.8059 50.5695C35.0863 50.446 35.3894 50.3822 35.6959 50.3822C36.0023 50.3822 36.3054 50.446 36.5858 50.5695C36.8663 50.6931 37.1179 50.8737 37.3247 51.0998C37.5316 51.3259 37.689 51.5926 37.7871 51.883C37.8852 52.1733 37.9218 52.4809 37.8946 52.7861V55.1512C37.8923 56.1857 37.6859 57.2096 37.2874 58.1642C36.8889 59.1189 36.3059 59.9855 35.572 60.7146C34.8381 61.4436 33.9676 62.0207 33.0103 62.4129C32.053 62.805 31.0278 63.0045 29.9933 62.9999Z" fill="#EDE574"/>
<path d="M35.6505 35.8447H8.72308C8.43402 35.8471 8.14736 35.7921 7.87964 35.6831C7.61192 35.5741 7.36843 35.4131 7.16322 35.2096C6.95801 35.006 6.79513 34.7638 6.68398 34.4969C6.57284 34.2301 6.51562 33.9439 6.51563 33.6548V27.523C6.51562 27.2339 6.57284 26.9477 6.68398 26.6809C6.79513 26.414 6.95801 26.1719 7.16322 25.9683C7.36843 25.7647 7.61192 25.6037 7.87964 25.4947C8.14736 25.3857 8.43402 25.3308 8.72308 25.3331H35.6505C36.2313 25.3331 36.7883 25.5638 37.199 25.9745C37.6097 26.3852 37.8404 26.9422 37.8404 27.523V33.6548C37.8404 34.2356 37.6097 34.7926 37.199 35.2033C36.7883 35.614 36.2313 35.8447 35.6505 35.8447ZM10.913 31.4474H33.443V29.6954H10.913V31.4474Z" fill="#EDE574"/>
<path d="M33.918 49.3346H10.442C10.1544 49.3346 9.8696 49.278 9.6039 49.1679C9.33821 49.0579 9.09679 48.8966 8.89344 48.6932C8.69009 48.4899 8.52878 48.2484 8.41872 47.9827C8.30867 47.717 8.25202 47.4323 8.25202 47.1447V33.6547C8.24971 33.3657 8.30465 33.079 8.41367 32.8113C8.52269 32.5436 8.68363 32.3001 8.88721 32.0949C9.0908 31.8897 9.333 31.7268 9.59984 31.6156C9.86668 31.5045 10.1529 31.4473 10.442 31.4473H33.918C34.5035 31.4473 35.0649 31.6798 35.4789 32.0938C35.8929 32.5078 36.1255 33.0693 36.1255 33.6547V47.1447C36.1208 47.7271 35.8862 48.2841 35.4727 48.6943C35.0593 49.1045 34.5004 49.3346 33.918 49.3346ZM12.6494 44.9372H31.7106V35.8446H12.6494V44.9372Z" fill="#EDE574"/>
<path d="M26.9102 29.7129H17.4497C16.8689 29.7129 16.3119 29.4822 15.9012 29.0715C15.4905 28.6608 15.2598 28.1038 15.2598 27.523V20.5152C15.5106 18.8572 16.3477 17.344 17.6191 16.2505C18.8904 15.157 20.5118 14.5557 22.1887 14.5557C23.8656 14.5557 25.487 15.157 26.7584 16.2505C28.0297 17.344 28.8668 18.8572 29.1176 20.5152V27.523C29.113 28.1054 28.8784 28.6624 28.4649 29.0726C28.0515 29.4828 27.4926 29.713 26.9102 29.7129ZM19.6571 25.3156H24.7027V20.5152C24.7027 19.8461 24.437 19.2045 23.9638 18.7313C23.4907 18.2582 22.849 17.9924 22.1799 17.9924C21.5109 17.9924 20.8692 18.2582 20.3961 18.7313C19.9229 19.2045 19.6571 19.8461 19.6571 20.5152V25.3156Z" fill="#EDE574"/>
<path d="M16.7309 49.3349C16.4434 49.3349 16.1586 49.2783 15.8929 49.1682C15.6272 49.0582 15.3858 48.8969 15.1824 48.6935C14.9791 48.4902 14.8178 48.2487 14.7077 47.983C14.5977 47.7173 14.541 47.4326 14.541 47.145V40.1372C14.5901 39.588 14.843 39.077 15.2499 38.7048C15.6568 38.3326 16.1883 38.1262 16.7397 38.1262C17.2911 38.1262 17.8226 38.3326 18.2295 38.7048C18.6364 39.077 18.8893 39.588 18.9384 40.1372V47.145C18.9384 47.4341 18.8812 47.7203 18.77 47.9871C18.6589 48.2539 18.496 48.4961 18.2908 48.6997C18.0856 48.9033 17.8421 49.0643 17.5744 49.1733C17.3067 49.2823 17.02 49.3372 16.7309 49.3349Z" fill="#EDE574"/>
<path d="M21.9867 49.3345C21.4043 49.3345 20.8455 49.1044 20.432 48.6942C20.0185 48.284 19.7839 47.727 19.7793 47.1446V41.7836C19.7793 41.1982 20.0119 40.6367 20.4258 40.2227C20.8398 39.8087 21.4013 39.5762 21.9867 39.5762C22.5722 39.5762 23.1337 39.8087 23.5476 40.2227C23.9616 40.6367 24.1942 41.1982 24.1942 41.7836V47.1446C24.1896 47.727 23.955 48.284 23.5415 48.6942C23.128 49.1044 22.5692 49.3345 21.9867 49.3345Z" fill="#EDE574"/>
<path d="M23.1952 10.0036H14.6458C14.0965 9.9545 13.5855 9.70163 13.2133 9.29472C12.8412 8.88781 12.6348 8.35634 12.6348 7.80489C12.6348 7.25345 12.8412 6.72198 13.2133 6.31507C13.5855 5.90816 14.0965 5.65528 14.6458 5.6062H23.1952C23.7445 5.65528 24.2555 5.90816 24.6277 6.31507C24.9998 6.72198 25.2062 7.25345 25.2062 7.80489C25.2062 8.35634 24.9998 8.88781 24.6277 9.29472C24.2555 9.70163 23.7445 9.9545 23.1952 10.0036Z" fill="#EDE574"/>
</svg>
