<svg width="1457" height="298" viewBox="0 0 1457 298" fill="none" xmlns="http://www.w3.org/2000/svg">
<path d="M257 22L263 16L257 10" stroke="#EDE574" stroke-width="2" stroke-linecap="round" stroke-linejoin="round"/>
<path d="M243 22L249 16L243 10" stroke="#EDE574" stroke-width="2" stroke-linecap="round" stroke-linejoin="round"/>
<path d="M737 22L743 16L737 10" stroke="#EDE574" stroke-width="2" stroke-linecap="round" stroke-linejoin="round"/>
<path d="M723 22L729 16L723 10" stroke="#EDE574" stroke-width="2" stroke-linecap="round" stroke-linejoin="round"/>
<path d="M1209 22L1215 16L1209 10" stroke="#EDE574" stroke-width="2" stroke-linecap="round" stroke-linejoin="round"/>
<path d="M1195 22L1201 16L1195 10" stroke="#EDE574" stroke-width="2" stroke-linecap="round" stroke-linejoin="round"/>
<path d="M1435 150L1441 156L1447 150" stroke="#EDE574" stroke-width="2" stroke-linecap="round" stroke-linejoin="round"/>
<path d="M1435 136L1441 142L1447 136" stroke="#EDE574" stroke-width="2" stroke-linecap="round" stroke-linejoin="round"/>
<path d="M25 16.5H1439.5V281.5H25" stroke="white" stroke-width="2" stroke-dasharray="4 4"/>
<circle cx="960.5" cy="281.5" r="9.34615" fill="#EDE574"/>
<circle cx="960.5" cy="281.5" r="14.5385" stroke="white" stroke-width="2.07692"/>
<circle cx="488.5" cy="281.5" r="9.34615" fill="#EDE574"/>
<circle cx="488.5" cy="281.5" r="14.5385" stroke="white" stroke-width="2.07692"/>
<circle cx="16.5005" cy="281.5" r="9.34615" fill="#EDE574"/>
<circle cx="16.5" cy="281.5" r="14.5385" stroke="white" stroke-width="2.07692"/>
<path d="M721 288L715 282L721 276" stroke="#EDE574" stroke-width="2" stroke-linecap="round" stroke-linejoin="round"/>
<path d="M735 288L729 282L735 276" stroke="#EDE574" stroke-width="2" stroke-linecap="round" stroke-linejoin="round"/>
<path d="M241 288L235 282L241 276" stroke="#EDE574" stroke-width="2" stroke-linecap="round" stroke-linejoin="round"/>
<path d="M255 288L249 282L255 276" stroke="#EDE574" stroke-width="2" stroke-linecap="round" stroke-linejoin="round"/>
<path d="M1193 287L1187 281L1193 275" stroke="#EDE574" stroke-width="2" stroke-linecap="round" stroke-linejoin="round"/>
<path d="M1207 287L1201 281L1207 275" stroke="#EDE574" stroke-width="2" stroke-linecap="round" stroke-linejoin="round"/>
<circle cx="1440.5" cy="16.5005" r="9.34615" fill="#EDE574"/>
<circle cx="1440.5" cy="16.5" r="14.5385" stroke="white" stroke-width="2.07692"/>
<circle cx="968.5" cy="16.5005" r="9.34615" fill="#EDE574"/>
<circle cx="968.5" cy="16.5" r="14.5385" stroke="white" stroke-width="2.07692"/>
<circle cx="496.5" cy="16.5005" r="9.34615" fill="#EDE574"/>
<circle cx="496.5" cy="16.5" r="14.5385" stroke="white" stroke-width="2.07692"/>
<circle cx="24.5005" cy="16.5005" r="9.34615" fill="#EDE574"/>
<circle cx="24.5" cy="16.5" r="14.5385" stroke="white" stroke-width="2.07692"/>
</svg>
