<svg width="70" height="70" viewBox="0 0 70 70" fill="none" xmlns="http://www.w3.org/2000/svg">
<g clip-path="url(#clip0_443_389)">
<mask id="mask0_443_389" style="mask-type:luminance" maskUnits="userSpaceOnUse" x="0" y="0" width="70" height="70">
<path d="M0 7.62939e-06H70V70H0V7.62939e-06Z" fill="white"/>
</mask>
<g mask="url(#mask0_443_389)">
<path d="M55.5078 35C55.5078 46.3262 46.3262 55.5078 35 55.5078C23.6738 55.5078 14.4922 46.3262 14.4922 35C14.4922 23.6738 23.6738 14.4922 35 14.4922C46.3262 14.4922 55.5078 23.6738 55.5078 35Z" stroke="white" stroke-width="4.10156" stroke-miterlimit="10" stroke-linecap="round" stroke-linejoin="round"/>
<path d="M45.2539 28.8477L32.9492 41.1523L24.7461 32.9492" stroke="white" stroke-width="4.10156" stroke-miterlimit="10" stroke-linecap="round" stroke-linejoin="round"/>
<path d="M32.3403 3.03004C33.8732 1.72437 36.1268 1.72437 37.6597 3.03004L42.9894 7.73385L52.0086 7.0359C54.0162 6.88059 55.8396 8.20525 56.3121 10.1625L58.1204 17.6514L66.0007 22.3685C67.7161 23.4229 68.4126 25.5663 67.6445 27.4275L64.5312 34.9712L67.6445 42.515C68.4126 44.3762 67.7161 46.5197 66.0007 47.5741L58.1204 52.2912L56.3121 59.7801C55.8396 61.7372 54.0162 63.062 52.0086 62.9067L43.0776 62.2154L37.6597 66.97C36.1268 68.2756 33.8732 68.2756 32.3403 66.97L26.9224 62.2154L17.9914 62.9067C15.9838 63.062 14.1604 61.7372 13.6879 59.7801L11.8724 52.2615L4.00531 47.5741C2.28976 46.5197 1.59332 44.3762 2.36154 42.515L5.47463 34.9712L2.36154 27.4275C1.59332 25.5663 2.28976 23.4229 4.00531 22.3685L11.1981 18.0954L13.6879 10.1625C14.1604 8.20525 15.9838 6.88059 17.9914 7.0359L27.0107 7.73385L32.3403 3.03004Z" stroke="white" stroke-width="4.10156" stroke-miterlimit="10" stroke-linecap="round" stroke-linejoin="round"/>
</g>
</g>
<defs>
<clipPath id="clip0_443_389">
<rect width="70" height="70" fill="white"/>
</clipPath>
</defs>
</svg>
