<svg width="46" height="64" viewBox="0 0 46 64" fill="none" xmlns="http://www.w3.org/2000/svg">
<path d="M24.0124 63.0332C23.6631 63.0595 23.3123 63.0595 22.9631 63.0332L4.96688 60.4798C3.64026 60.3649 2.40189 59.7673 1.48646 58.8003C0.571024 57.8332 0.0421282 56.564 0 55.2331V7.80293C0.0421282 6.47201 0.571024 5.20278 1.48646 4.23577C2.40189 3.26877 3.64026 2.67117 4.96688 2.55623L22.9456 0.072794C23.9718 -0.0718915 25.0169 -0.000380225 26.0138 0.282735C27.0107 0.56585 27.9374 1.05431 28.7344 1.71676C29.3588 2.23607 29.8622 2.88542 30.2096 3.61946C30.557 4.35349 30.7399 5.15452 30.7457 5.96659V57.0694C30.7387 57.8813 30.5553 58.6819 30.208 59.4158C29.8607 60.1497 29.3579 60.7992 28.7344 61.3193C27.4146 62.4344 25.7402 63.0422 24.0124 63.0332ZM23.5577 58.6085C23.9639 58.6771 24.3801 58.658 24.7783 58.5525C25.1764 58.4469 25.5474 58.2573 25.8662 57.9964C26.0105 57.8869 26.1291 57.7472 26.2137 57.5871C26.2983 57.427 26.3468 57.2503 26.3559 57.0694V6.03654C26.3448 5.85365 26.2955 5.67513 26.2111 5.51247C26.1268 5.34981 26.0093 5.20662 25.8662 5.09214C25.5438 4.83817 25.172 4.65413 24.7746 4.55175C24.3771 4.44938 23.9627 4.4309 23.5577 4.49751L5.57899 6.98095C4.87943 7.06839 4.38974 7.48813 4.38974 7.80293V55.3031C4.38974 55.5829 4.80947 56.0201 5.57899 56.125L23.5577 58.6085Z" fill="#EDE574"/>
<path d="M38.6511 63.0328C38.3018 63.0591 37.9511 63.0591 37.6018 63.0328L27.3008 61.6162L27.9129 57.2614L38.2139 58.678C38.6161 58.7443 39.0278 58.7256 39.4224 58.6232C39.817 58.5208 40.1857 58.3369 40.505 58.0834C40.6504 57.9698 40.7707 57.8272 40.858 57.6646C40.9453 57.502 40.9978 57.323 41.0122 57.139V6.03617C40.9978 5.85216 40.9453 5.67316 40.858 5.51057C40.7707 5.34797 40.6504 5.20534 40.505 5.09176C40.1857 4.83825 39.817 4.65437 39.4224 4.55196C39.0278 4.44955 38.6161 4.43087 38.2139 4.49713L27.5106 5.9837L26.916 1.62894L37.6543 0.142374C38.6805 -0.00231146 39.7256 0.0691999 40.7225 0.352315C41.7194 0.635431 42.6461 1.12389 43.4431 1.78634C44.0675 2.30565 44.5709 2.955 44.9183 3.68904C45.2657 4.42307 45.4486 5.2241 45.4544 6.03617V57.0691C45.4474 57.8809 45.264 58.6816 44.9167 59.4154C44.5694 60.1493 44.0666 60.7988 43.4431 61.3189C42.1066 62.4526 40.4035 63.0618 38.6511 63.0328Z" fill="#EDE574"/>
<path d="M11.5974 12.7344C11.067 12.7308 10.5557 12.5361 10.1573 12.1859C9.75896 11.8357 9.50026 11.3536 9.42871 10.8281C9.3894 10.5442 9.40672 10.2554 9.47969 9.97831C9.55265 9.7012 9.67981 9.4413 9.85382 9.21363C10.0278 8.98596 10.2452 8.79503 10.4935 8.65188C10.7417 8.50872 11.0158 8.41619 11.3 8.37961L18.8378 7.33027C19.1249 7.29087 19.417 7.3085 19.6973 7.38215C19.9776 7.4558 20.2407 7.58402 20.4714 7.75947C20.702 7.93492 20.8959 8.15416 21.0417 8.40462C21.1875 8.65508 21.2825 8.93185 21.3212 9.21908C21.3631 9.50425 21.3476 9.7949 21.2758 10.074C21.204 10.3532 21.0773 10.6152 20.9031 10.8448C20.7289 11.0744 20.5106 11.2669 20.2611 11.4112C20.0116 11.5555 19.7358 11.6486 19.4499 11.685L11.8947 12.7344H11.5974Z" fill="#EDE574"/>
<path d="M20.8311 54.2008H20.6737L9.74308 53.3788C9.456 53.357 9.17602 53.2788 8.91914 53.1488C8.66225 53.0188 8.43349 52.8394 8.24592 52.621C8.05835 52.4026 7.91563 52.1494 7.82593 51.8758C7.73622 51.6022 7.70128 51.3136 7.7231 51.0265C7.74492 50.7394 7.82307 50.4595 7.95309 50.2026C8.08311 49.9457 8.26246 49.7169 8.48089 49.5294C8.69931 49.3418 8.95255 49.1991 9.22613 49.1094C9.49971 49.0197 9.78829 48.9847 10.0754 49.0065L21.006 49.8285C21.5561 49.8946 22.0611 50.1655 22.4204 50.5872C22.7798 51.0089 22.9671 51.5505 22.945 52.1041C22.923 52.6577 22.6932 53.1827 22.3014 53.5745C21.9097 53.9663 21.3847 54.1962 20.8311 54.2183V54.2008Z" fill="#EDE574"/>
</svg>
