<svg width="50" height="63" viewBox="0 0 50 63" fill="none" xmlns="http://www.w3.org/2000/svg">
<path d="M8.01259 34.0671C7.60823 34.0608 7.21335 33.9436 6.87101 33.7283C6.52867 33.513 6.25199 33.2079 6.07113 32.8461C5.89027 32.4844 5.81217 32.08 5.84534 31.6769C5.87851 31.2739 6.02167 30.8877 6.25924 30.5604L9.81855 25.5809C10.5718 24.4909 10.9753 23.1974 10.9753 21.8725C10.9753 20.5476 10.5718 19.2541 9.81855 18.1642C8.51935 16.3322 7.82149 14.1418 7.82149 11.8959C7.82149 9.65001 8.51935 7.45962 9.81855 5.62765L13.3253 0.630588C13.7008 0.271265 14.191 0.0558457 14.7096 0.0222113C15.2283 -0.0114232 15.7422 0.13888 16.161 0.446692C16.5798 0.754503 16.8766 1.20011 16.9994 1.70516C17.1221 2.21021 17.0628 2.74235 16.832 3.20802L13.3253 8.18755C12.572 9.27749 12.1685 10.571 12.1685 11.8959C12.1685 13.2208 12.572 14.5143 13.3253 15.6043C14.6186 17.4419 15.3128 19.6341 15.3128 21.8813C15.3128 24.1284 14.6186 26.3207 13.3253 28.1583L9.73088 33.1378C9.53488 33.4141 9.27798 33.6416 8.98003 33.8027C8.68209 33.9638 8.35108 34.0543 8.01259 34.0671Z" fill="#EDE574"/>
<path d="M21.077 34.0671C20.6727 34.0607 20.2778 33.9435 19.9355 33.7282C19.5931 33.513 19.3164 33.2078 19.1356 32.8461C18.9547 32.4844 18.8766 32.0799 18.9098 31.6769C18.943 31.2738 19.0861 30.8876 19.3237 30.5603L22.8304 25.5633C23.5837 24.4733 23.9872 23.1798 23.9872 21.8549C23.9872 20.53 23.5837 19.2365 22.8304 18.1466C21.5385 16.3117 20.8452 14.1224 20.8452 11.8783C20.8452 9.63425 21.5385 7.44499 22.8304 5.61007L26.3371 0.61301C26.7126 0.253687 27.2028 0.0382676 27.7215 0.00463313C28.2401 -0.0290013 28.7541 0.121302 29.1728 0.429114C29.5916 0.736925 29.8885 1.18253 30.0112 1.68758C30.1339 2.19263 30.0747 2.72477 29.8438 3.19044L26.3371 8.16998C25.5838 9.25992 25.1804 10.5534 25.1804 11.8783C25.1804 13.2032 25.5838 14.4967 26.3371 15.5867C27.6305 17.4243 28.3246 19.6166 28.3246 21.8637C28.3246 24.1108 27.6305 26.3031 26.3371 28.1407L22.8304 33.1202C22.6308 33.4024 22.3687 33.6347 22.0646 33.7989C21.7604 33.9631 21.4225 34.0549 21.077 34.0671Z" fill="#EDE574"/>
<path d="M34.1566 34.0671C33.696 34.0671 33.2475 33.9197 32.8767 33.6463C32.6391 33.4804 32.4371 33.2687 32.2825 33.0236C32.1279 32.7785 32.0239 32.505 31.9765 32.2191C31.9291 31.9333 31.9394 31.6408 32.0067 31.359C32.0739 31.0771 32.1969 30.8116 32.3682 30.5779L35.8749 25.5809C36.6282 24.4909 37.0317 23.1974 37.0317 21.8725C37.0317 20.5476 36.6282 19.2541 35.8749 18.1642C34.5831 16.3292 33.8897 14.14 33.8897 11.8959C33.8897 9.65183 34.5831 7.46257 35.8749 5.62765L39.3816 0.630588C39.7572 0.271265 40.2474 0.0558457 40.766 0.0222113C41.2847 -0.0114232 41.7986 0.13888 42.2174 0.446692C42.6362 0.754503 42.933 1.20011 43.0557 1.70516C43.1785 2.21021 43.1192 2.74235 42.8884 3.20802L39.294 8.18755C38.5407 9.27749 38.1372 10.571 38.1372 11.8959C38.1372 13.2208 38.5407 14.5143 39.294 15.6043C40.5947 17.4389 41.2933 19.6323 41.2933 21.8813C41.2933 24.1302 40.5947 26.3236 39.294 28.1583L35.7873 33.1378C35.5995 33.4021 35.3563 33.6221 35.0746 33.7826C34.793 33.9432 34.4797 34.0402 34.1566 34.0671Z" fill="#EDE574"/>
<path d="M47.1302 62.8396H2.20923C1.62633 62.8397 1.06705 62.6093 0.653235 62.1988C0.239424 61.7883 0.00462618 61.2308 0 60.6479V41.7468C0.0182213 41.1731 0.258998 40.629 0.671351 40.2297C1.0837 39.8305 1.63526 39.6074 2.20923 39.6077H47.1302C47.7131 39.6076 48.2724 39.838 48.6862 40.2485C49.1 40.659 49.3348 41.2165 49.3395 41.7994V60.6479C49.3348 61.2308 49.1 61.7883 48.6862 62.1988C48.2724 62.6093 47.7131 62.8397 47.1302 62.8396ZM4.41846 58.4387H44.921V43.956H4.41846V58.4387Z" fill="#EDE574"/>
</svg>
