<svg width="56" height="64" viewBox="0 0 56 64" fill="none" xmlns="http://www.w3.org/2000/svg">
<path d="M25.3379 62.9512H7.85144C5.77213 62.9512 3.77773 62.1264 2.30581 60.6578C0.833877 59.1891 0.00463097 57.1966 0 55.1173V7.90373C0.00463097 5.82443 0.833877 3.83188 2.30581 2.36323C3.77773 0.894575 5.77213 0.0697735 7.85144 0.0697787H14.6362C14.9409 0.0425565 15.2478 0.0790658 15.5376 0.176983C15.8274 0.2749 16.0936 0.432081 16.3193 0.638516C16.545 0.844952 16.7253 1.09612 16.8486 1.37603C16.9719 1.65594 17.0356 1.95846 17.0356 2.26433C17.0356 2.57021 16.9719 2.87273 16.8486 3.15264C16.7253 3.43255 16.545 3.68372 16.3193 3.89015C16.0936 4.09659 15.8274 4.25377 15.5376 4.35169C15.2478 4.4496 14.9409 4.48611 14.6362 4.45889H7.78149C6.85395 4.45889 5.9644 4.82735 5.30853 5.48322C4.65266 6.1391 4.28419 7.02865 4.28419 7.95619V55.1697C4.28419 56.0973 4.65266 56.9868 5.30853 57.6427C5.9644 58.2986 6.85395 58.667 7.78149 58.667H25.268C25.5726 58.6398 25.8796 58.6763 26.1694 58.7742C26.4592 58.8722 26.7254 59.0293 26.9511 59.2358C27.1768 59.4422 27.3571 59.6934 27.4804 59.9733C27.6037 60.2532 27.6674 60.5557 27.6674 60.8616C27.6674 61.1675 27.6037 61.47 27.4804 61.7499C27.3571 62.0298 27.1768 62.281 26.9511 62.4874C26.7254 62.6938 26.4592 62.851 26.1694 62.9489C25.8796 63.0469 25.5726 63.0834 25.268 63.0562L25.3379 62.9512Z" fill="#EDE574"/>
<path d="M17.9934 26.0375H9.47751C9.17285 26.0647 8.86587 26.0282 8.57609 25.9303C8.28632 25.8324 8.0201 25.6752 7.7944 25.4688C7.56869 25.2623 7.38845 25.0112 7.26513 24.7313C7.14181 24.4513 7.07812 24.1488 7.07812 23.8429C7.07812 23.5371 7.14181 23.2346 7.26513 22.9546C7.38845 22.6747 7.56869 22.4236 7.7944 22.2171C8.0201 22.0107 8.28632 21.8535 8.57609 21.7556C8.86587 21.6577 9.17285 21.6212 9.47751 21.6484H17.9934C18.2981 21.6212 18.6051 21.6577 18.8949 21.7556C19.1846 21.8535 19.4509 22.0107 19.6766 22.2171C19.9023 22.4236 20.0825 22.6747 20.2058 22.9546C20.3291 23.2346 20.3928 23.5371 20.3928 23.8429C20.3928 24.1488 20.3291 24.4513 20.2058 24.7313C20.0825 25.0112 19.9023 25.2623 19.6766 25.4688C19.4509 25.6752 19.1846 25.8324 18.8949 25.9303C18.6051 26.0282 18.2981 26.0647 17.9934 26.0375Z" fill="#EDE574"/>
<path d="M25.3378 38.9772H9.47751C9.17285 39.0044 8.86587 38.9679 8.57609 38.87C8.28632 38.7721 8.0201 38.6149 7.7944 38.4085C7.56869 38.202 7.38845 37.9509 7.26513 37.671C7.14181 37.391 7.07812 37.0885 7.07812 36.7826C7.07812 36.4768 7.14181 36.1743 7.26513 35.8943C7.38845 35.6144 7.56869 35.3633 7.7944 35.1568C8.0201 34.9504 8.28632 34.7932 8.57609 34.6953C8.86587 34.5974 9.17285 34.5609 9.47751 34.5881H25.3378C25.6424 34.5609 25.9494 34.5974 26.2392 34.6953C26.529 34.7932 26.7952 34.9504 27.0209 35.1568C27.2466 35.3633 27.4268 35.6144 27.5502 35.8943C27.6735 36.1743 27.7372 36.4768 27.7372 36.7826C27.7372 37.0885 27.6735 37.391 27.5502 37.671C27.4268 37.9509 27.2466 38.202 27.0209 38.4085C26.7952 38.6149 26.529 38.7721 26.2392 38.87C25.9494 38.9679 25.6424 39.0044 25.3378 38.9772Z" fill="#EDE574"/>
<path d="M25.3378 51.9174H9.47751C9.17285 51.9446 8.86587 51.9081 8.57609 51.8102C8.28632 51.7123 8.0201 51.5551 7.7944 51.3487C7.56869 51.1422 7.38845 50.891 7.26513 50.6111C7.14181 50.3312 7.07813 50.0287 7.07812 49.7228C7.07813 49.417 7.14181 49.1144 7.26513 48.8345C7.38845 48.5546 7.56869 48.3034 7.7944 48.097C8.0201 47.8906 8.28632 47.7334 8.57609 47.6355C8.86587 47.5376 9.17285 47.5011 9.47751 47.5283H25.3378C25.6424 47.5011 25.9494 47.5376 26.2392 47.6355C26.529 47.7334 26.7952 47.8906 27.0209 48.097C27.2466 48.3034 27.4268 48.5546 27.5502 48.8345C27.6735 49.1144 27.7372 49.417 27.7372 49.7228C27.7372 50.0287 27.6735 50.3312 27.5502 50.6111C27.4268 50.891 27.2466 51.1422 27.0209 51.3487C26.7952 51.5551 26.529 51.7123 26.2392 51.8102C25.9494 51.9081 25.6424 51.9446 25.3378 51.9174Z" fill="#EDE574"/>
<path d="M50.7818 15.3007H24.552C24.0445 15.3007 23.542 15.2007 23.0731 15.0065C22.6043 14.8123 22.1782 14.5277 21.8194 14.1688C21.4605 13.8099 21.1759 13.3839 20.9817 12.9151C20.7875 12.4462 20.6875 11.9437 20.6875 11.4362V3.86452C20.6875 3.35702 20.7875 2.85449 20.9817 2.38563C21.1759 1.91676 21.4605 1.49074 21.8194 1.13189C22.1782 0.773037 22.6043 0.488379 23.0731 0.294169C23.542 0.0999587 24.0445 0 24.552 0H46.0779C48.6674 -4.14337e-06 51.151 1.02745 52.9837 2.85683C54.8163 4.68621 55.8482 7.16802 55.8529 9.75747V10.1946C55.8552 10.8629 55.7258 11.525 55.4722 12.1433C55.2186 12.7615 54.8457 13.3238 54.3748 13.7979C53.9039 14.2721 53.3442 14.6488 52.7278 14.9067C52.1113 15.1645 51.45 15.2984 50.7818 15.3007ZM25.0591 10.8941H50.7818C50.9642 10.8895 51.1377 10.8138 51.2651 10.6831C51.3925 10.5525 51.4638 10.3771 51.4637 10.1946V9.75747C51.4591 8.33209 50.8896 6.96666 49.8801 5.9604C48.8706 4.95414 47.5033 4.3891 46.0779 4.38911H25.0941L25.0591 10.8941Z" fill="#EDE574"/>
<path d="M38.2599 33.6789C37.677 33.6743 37.1192 33.4407 36.707 33.0285C36.2948 32.6163 36.0612 32.0585 36.0566 31.4756V13.0798C36.0566 12.4954 36.2888 11.935 36.702 11.5218C37.1152 11.1086 37.6756 10.8765 38.2599 10.8765C38.8443 10.8765 39.4047 11.1086 39.8179 11.5218C40.2311 11.935 40.4632 12.4954 40.4632 13.0798V31.4756C40.4587 32.0585 40.2251 32.6163 39.8129 33.0285C39.4006 33.4407 38.8429 33.6743 38.2599 33.6789Z" fill="#EDE574"/>
<path d="M43.9098 62.9512H32.701C32.4067 62.963 32.113 62.9152 31.8376 62.8106C31.5623 62.706 31.3109 62.5469 31.0985 62.3427C30.8862 62.1386 30.7173 61.8936 30.6021 61.6226C30.4868 61.3515 30.4275 61.0599 30.4277 60.7654V31.4755C30.4299 31.1817 30.4909 30.8912 30.607 30.6213C30.7231 30.3513 30.892 30.1073 31.1038 29.9037C31.3157 29.7 31.5661 29.5407 31.8404 29.4353C32.1147 29.3299 32.4073 29.2803 32.701 29.2897H43.9973C44.5786 29.2943 45.1345 29.5285 45.5439 29.9412C45.9534 30.3539 46.1831 30.9117 46.1831 31.493V60.7654C46.1833 61.0599 46.124 61.3515 46.0087 61.6226C45.8935 61.8936 45.7246 62.1386 45.5123 62.3427C45.2999 62.5469 45.0485 62.706 44.7732 62.8106C44.4978 62.9152 44.2041 62.963 43.9098 62.9512ZM34.8168 58.5621H41.7065V33.6788H34.8168V58.5621Z" fill="#EDE574"/>
</svg>
