<svg width="83" height="83" viewBox="0 0 83 83" fill="none" xmlns="http://www.w3.org/2000/svg">
<g clip-path="url(#clip0_443_377)">
<path d="M64.0285 60.3567H60.7539C60.3227 60.3567 59.9091 60.1854 59.6042 59.8805C59.2993 59.5756 59.1279 59.162 59.1279 58.7308C59.1279 58.2995 59.2993 57.886 59.6042 57.581C59.9091 57.2761 60.3227 57.1048 60.7539 57.1048H66.028C66.2953 57.1072 66.5605 57.0566 66.8082 56.9559C67.0559 56.8553 67.2812 56.7066 67.4712 56.5183C67.6611 56.3301 67.8118 56.1062 67.9147 55.8594C68.0175 55.6126 68.0705 55.3478 68.0705 55.0805C68.0705 54.8131 68.0175 54.5484 67.9147 54.3016C67.8118 54.0548 67.6611 53.8308 67.4712 53.6426C67.2812 53.4544 67.0559 53.3056 66.8082 53.205C66.5605 53.1043 66.2953 53.0537 66.028 53.0561H64.4155V52.2868C64.4155 51.7498 64.2022 51.2349 63.8225 50.8553C63.4429 50.4756 62.928 50.2623 62.391 50.2623C61.8541 50.2623 61.3392 50.4756 60.9596 50.8553C60.5799 51.2349 60.3666 51.7498 60.3666 52.2868V53.0709C58.8981 53.1703 57.5256 53.8366 56.5391 54.929C55.5526 56.0214 55.0292 57.4544 55.0795 58.9255C55.1297 60.3965 55.7497 61.7905 56.8085 62.813C57.8673 63.8355 59.282 64.4066 60.7539 64.4056H64.0285C64.4597 64.4056 64.8733 64.5769 65.1782 64.8818C65.4832 65.1867 65.6545 65.6003 65.6545 66.0315C65.6545 66.4627 65.4832 66.8763 65.1782 67.1812C64.8733 67.4862 64.4597 67.6575 64.0285 67.6575H58.7275C58.1906 67.6575 57.6757 67.8708 57.2961 68.2504C56.9164 68.6301 56.7031 69.145 56.7031 69.6819C56.7031 70.2188 56.9164 70.7337 57.2961 71.1134C57.6757 71.493 58.1906 71.7063 58.7275 71.7063H60.3669V72.4757C60.3669 73.0126 60.5802 73.5275 60.9599 73.9072C61.3395 74.2868 61.8545 74.5001 62.3914 74.5001C62.9283 74.5001 63.4432 74.2868 63.8229 73.9072C64.2025 73.5275 64.4158 73.0126 64.4158 72.4757V71.6916C65.8848 71.5927 67.2578 70.9267 68.2449 69.8342C69.2319 68.7417 69.7556 67.3083 69.7054 65.8369C69.6551 64.3654 69.0348 62.9711 67.9756 61.9485C66.9163 60.9259 65.501 60.3551 64.0287 60.3567H64.0285Z" fill="white"/>
<path d="M62.3915 41.7729C58.3156 41.7729 54.3312 42.9816 50.9422 45.2461C47.5531 47.5105 44.9117 50.7291 43.3519 54.4948C41.7921 58.2605 41.384 62.4041 42.1792 66.4017C42.9744 70.3994 44.9371 74.0714 47.8192 76.9535C50.7014 79.8357 54.3734 81.7984 58.371 82.5936C62.3687 83.3888 66.5123 82.9807 70.278 81.4209C74.0437 79.8611 77.2622 77.2197 79.5267 73.8306C81.7912 70.4416 82.9998 66.4572 82.9998 62.3813C82.9937 56.9175 80.8205 51.6793 76.957 47.8158C73.0935 43.9523 67.8553 41.7791 62.3915 41.7729ZM62.3915 78.9407C59.1164 78.9407 55.9148 77.9695 53.1916 76.15C50.4684 74.3304 48.3459 71.7442 47.0926 68.7183C45.8392 65.6925 45.5113 62.3629 46.1502 59.1507C46.7892 55.9385 48.3663 52.9878 50.6822 50.672C52.9981 48.3561 55.9487 46.7789 59.1609 46.14C62.3732 45.501 65.7027 45.829 68.7286 47.0823C71.7544 48.3357 74.3406 50.4581 76.1602 53.1813C77.9798 55.9045 78.951 59.1061 78.951 62.3813C78.946 66.7716 77.1998 70.9807 74.0953 74.0851C70.9909 77.1895 66.7818 78.9358 62.3915 78.9407Z" fill="white"/>
<path d="M65.8337 32.7014H62.433C61.8716 32.7014 61.3333 32.9244 60.9363 33.3213C60.5394 33.7183 60.3164 34.2567 60.3164 34.818C60.3164 35.3794 60.5394 35.9178 60.9363 36.3147C61.3333 36.7117 61.8716 36.9347 62.433 36.9347H67.9609C68.5447 36.9126 69.0977 36.6678 69.5066 36.2506C69.9154 35.8334 70.1489 35.2755 70.1591 34.6914C70.054 25.4572 66.3118 16.637 59.7447 10.1443C53.1776 3.6517 44.3153 0.0104294 35.0805 0.0105591C15.7373 0.0105591 0 15.7477 0 35.0912C0 54.4347 15.7373 70.1717 35.0805 70.1717C35.5343 70.1716 35.976 70.0257 36.3406 69.7554C36.7052 69.4852 36.9733 69.105 37.1054 68.6708C37.1687 68.4899 37.1997 68.2992 37.197 68.1075V62.1703C37.1921 61.6121 36.9669 61.0785 36.5705 60.6855C36.1741 60.2926 35.6385 60.0721 35.0804 60.0721C34.5222 60.0721 33.9866 60.2926 33.5902 60.6855C33.1938 61.0785 32.9687 61.6121 32.9638 62.1703V65.8651C17.5472 64.8151 5.20484 52.3879 4.28941 36.935H7.72824C8.28961 36.935 8.82799 36.712 9.22495 36.3151C9.6219 35.9181 9.8449 35.3797 9.8449 34.8184C9.8449 34.257 9.6219 33.7186 9.22495 33.3217C8.82799 32.9247 8.28961 32.7017 7.72824 32.7017H4.32508C5.49551 17.5025 17.7289 5.3553 32.9641 4.31764V7.46564C32.9617 7.74516 33.0146 8.02238 33.1199 8.28133C33.2252 8.54027 33.3807 8.77579 33.5775 8.97431C33.7743 9.17283 34.0084 9.3304 34.2664 9.43793C34.5244 9.54547 34.8012 9.60083 35.0807 9.60083C35.3602 9.60083 35.637 9.54547 35.895 9.43793C36.153 9.3304 36.3872 9.17283 36.584 8.97431C36.7807 8.77579 36.9363 8.54027 37.0415 8.28133C37.1468 8.02238 37.1997 7.74516 37.1973 7.46564V4.31829C52.3725 5.36195 64.6583 17.5323 65.8337 32.7014Z" fill="white"/>
<path d="M35.0789 20.7299C34.5176 20.7299 33.9792 20.9529 33.5822 21.3498C33.1853 21.7468 32.9623 22.2851 32.9623 22.8465V33.868L18.6495 42.1171C18.4087 42.2559 18.1975 42.4408 18.0282 42.6612C17.8588 42.8816 17.7345 43.1332 17.6624 43.4016C17.5902 43.67 17.5717 43.95 17.6078 44.2256C17.6438 44.5012 17.7338 44.767 17.8726 45.0078C18.0114 45.2487 18.1963 45.4598 18.4167 45.6291C18.6371 45.7985 18.8887 45.9228 19.1571 45.9949C19.4256 46.0671 19.7056 46.0856 19.9812 46.0496C20.2568 46.0135 20.5226 45.9235 20.7634 45.7847L36.1359 36.9251C36.1746 36.9025 36.2087 36.8808 36.2404 36.8594C36.5339 36.6671 36.7749 36.4048 36.9416 36.0961C37.1083 35.7873 37.1955 35.442 37.1954 35.0911V22.8465C37.1954 22.5686 37.1407 22.2933 37.0344 22.0365C36.928 21.7797 36.7721 21.5464 36.5756 21.3498C36.379 21.1533 36.1457 20.9974 35.8889 20.891C35.6321 20.7846 35.3569 20.7299 35.0789 20.7299Z" fill="white"/>
</g>
<defs>
<clipPath id="clip0_443_377">
<rect width="83" height="83" fill="white"/>
</clipPath>
</defs>
</svg>
