<svg width="214" height="69" viewBox="0 0 214 69" fill="none" xmlns="http://www.w3.org/2000/svg">
<g clip-path="url(#clip0_131_19)">
<path d="M190.544 62.1352L191.193 63.0496C191.538 63.4863 191.711 64.0509 191.711 64.7458C191.711 65.8773 191.236 66.7483 190.285 67.3563H188.341C187.909 67.7062 187.303 67.8775 186.526 67.8775H161.651C161.219 67.8775 160.828 67.8123 160.486 67.6821C160.141 67.5518 159.839 67.4432 159.579 67.3563H161.521C161.089 67.0958 160.744 66.8135 160.483 66.507C160.225 66.203 160.008 65.9208 159.837 65.6578L159.19 64.7433L157.376 62.1328H156.987L155.692 60.1736H158.153L157.245 58.8683H153.1L151.674 56.9092H148.437L147.011 58.8683H144.678L143.77 60.1736H141.179L139.753 62.1328H144.805L142.991 64.7433L142.344 65.6578C142.171 65.9184 141.934 66.203 141.633 66.507C141.329 66.8135 140.962 67.0934 140.532 67.3563H137.295C136.602 67.7062 135.869 67.8775 135.092 67.8775H110.863C110.171 67.8775 109.611 67.7038 109.179 67.3563H112.547C111.597 66.8352 111.121 65.9642 111.121 64.7458C111.121 64.572 111.165 64.3115 111.252 63.9616C111.336 63.6142 111.466 63.3078 111.64 63.0472L112.289 62.1328H107.237L108.532 60.1736H111.254L112.161 58.8683H114.494L115.79 56.9092H112.291L112.81 56.2553L113.717 54.9501H124.99L126.804 52.3395H119.807L120.326 51.6856H124.213L125.508 49.7265H124.99L125.897 48.4212H124.859L126.669 45.8178H122.005L123.301 43.8587H123.947L125.373 41.8996H124.336L124.724 41.2457H124.466L124.985 40.5919H124.727L126.541 37.9813H129.521L130.816 36.0221H130.298L131.205 34.7169H128.355L129.263 33.4116H129.912L130.17 32.8904L129.651 32.1063L128.225 30.1471H128.614L127.318 28.188H127.837L126.541 26.2288H126.283L124.599 23.6183H121.358L120.84 22.9644H124.596L123.301 21.0053H122.524L120.84 18.3947H124.596L123.689 17.0894H124.985L123.17 14.4788H120.449L118.765 11.8682H110.472L110.084 11.2144H113.194L111.898 9.25525H104.382L103.478 7.96203H100.24L99.4629 6.65674H102.573L101.796 5.35145H111.903L111.645 4.8303C111.3 4.30915 111.126 3.74215 111.126 3.13414V2.74328H110.349C110.52 2.22213 110.694 1.78784 110.868 1.43799H111.126C111.211 1.26427 111.384 1.04713 111.645 0.784139H108.665C109.184 0.262988 109.874 0 110.738 0H134.448C135.051 0 135.548 0.0868585 135.936 0.260575C136.325 0.436705 136.691 0.610422 137.036 0.781726H140.016L140.793 1.43558H140.535C140.88 1.78542 141.138 2.13286 141.312 2.48029L141.57 2.74087H142.219L143.903 5.35145H133.666L134.573 6.65674H131.333L132.24 7.96203H135.35L136.257 9.26732H143.773L145.068 11.2265H157.376L158.671 9.26732H147.66L148.437 7.96203H151.028L151.935 6.65674H160.486L161.393 5.35145H155.434L157.118 2.74087H154.526L154.785 2.48029C154.956 2.13286 155.216 1.78542 155.561 1.43558H157.376L158.153 0.781726H162.686C163.031 0.608009 163.398 0.434292 163.786 0.260575C164.175 0.0868585 164.672 0 165.278 0H187.952C188.814 0 189.506 0.260575 190.025 0.784139H185.491C185.663 0.870998 185.793 0.960269 185.88 1.04471C185.964 1.13157 186.051 1.26186 186.138 1.43558H184.196C184.454 1.78542 184.584 2.21972 184.584 2.74087H187.175V3.00144C187.175 3.43815 187.132 3.8073 187.045 4.1113C186.958 4.41772 186.828 4.65658 186.657 4.8303L186.268 5.35145H192.228L191.321 6.65674H182.77L181.863 7.96203H179.271L178.364 9.26732H189.376L188.08 11.2265H168.257L167.738 11.8803H184.063L182.379 14.4909H185.101L183.286 17.1015H181.991L181.214 18.4068H177.457L175.643 21.0173H176.42L175.124 22.9765H171.367L170.849 23.6303H174.217L172.402 26.2409H172.533L171.237 28.2001H170.718L169.423 30.1592H169.034L167.738 32.1183H167.869L167.35 32.7722L167.869 33.426H167.35L168.257 34.7313H171.107L172.014 36.0366H172.533L173.828 37.9958H170.979L172.793 40.6063H173.051L173.44 41.2602H173.698L174.217 41.914H175.254L176.68 43.8732H176.031L177.327 45.8323H182.121L183.935 48.4429H184.973L185.88 49.7482H186.399L187.825 51.7073H183.938L184.326 52.3612H191.453L193.268 54.9718H188.862L189.769 56.2771H179.404L179.793 56.9309H184.717L186.013 58.89H190.288L191.195 60.1953H188.734L190.03 62.1545H190.544V62.1352ZM146.492 56.2602H156.857L155.95 54.9549H146.362L145.454 56.2602H145.324L144.936 56.914H146.88L146.492 56.2602ZM153.489 11.8779H150.509L152.063 14.0976L153.489 11.8779ZM157.636 54.9549H160.358L159.062 52.9957L157.636 54.9549Z" fill="#9D9C98"/>
<path d="M200.511 57.4925C200.511 57.439 200.525 57.4104 200.554 57.4104C200.525 56.9822 200.511 56.6681 200.511 56.4683V53.4901C200.511 52.4088 200.609 51.6843 200.803 51.315C200.878 51.0598 200.964 50.9028 201.059 50.8439C201.109 50.8724 201.164 50.8885 201.226 50.8885C201.439 50.4442 201.904 50.0605 202.623 49.7393C203.223 49.5377 203.674 49.4378 203.978 49.4378C204.081 49.4378 204.42 49.4806 204.995 49.5627C204.995 49.395 205.023 49.3111 205.082 49.3111C205.96 49.6341 206.608 50.1444 207.029 50.8439L207.279 51.4845H207.324C207.386 51.4167 207.613 51.2596 208.003 51.0134C208.057 51.1062 208.084 51.1776 208.084 51.2275L208.171 51.1829H208.214C208.239 51.6986 208.251 52.0394 208.251 52.2071H208.294C208.353 52.1982 208.382 52.1697 208.382 52.1197V51.058L208.844 50.6744C208.844 50.3942 208.985 50.2086 209.269 50.1212H209.311C209.311 50.2639 209.34 50.3353 209.399 50.3353C210.659 49.4521 211.308 49.0095 211.346 49.0095C211.367 49.1219 211.394 49.179 211.426 49.179C211.72 48.9828 211.892 48.8828 211.938 48.8828L211.975 48.9649V51.1008C211.975 51.3399 211.963 51.7236 211.938 52.2518C211.617 52.4784 211.447 52.5908 211.426 52.5908C211.397 52.5444 211.383 52.473 211.383 52.3767H211.346C210.102 53.2028 209.424 53.615 209.311 53.615V53.4455H209.224C208.946 53.5329 208.806 53.7025 208.806 53.9541C208.524 54.1771 208.382 54.3484 208.382 54.4697V55.237H208.594C208.619 55.237 208.631 55.2495 208.631 55.2745L208.719 55.237H210.666V54.766C210.675 54.7071 210.703 54.6785 210.753 54.6785C210.807 54.6785 210.833 54.7071 210.833 54.766V55.237C210.974 55.237 211.046 55.2495 211.046 55.2745L211.133 55.237H211.638C211.701 55.237 211.756 55.2495 211.806 55.2745C211.859 55.2495 211.904 55.237 211.938 55.237L211.975 55.3191V57.066C211.975 57.3515 211.963 57.778 211.938 58.349H210.921C210.862 58.3401 210.833 58.3115 210.833 58.2616V57.7958H210.709V58.2616C210.709 58.3205 210.68 58.349 210.621 58.349H208.426L208.383 58.5631V59.4125C208.383 59.4714 208.355 59.4999 208.296 59.4999L208.253 59.4125C208.241 58.7041 208.214 58.3508 208.171 58.3508C208.084 58.3508 208.041 58.3222 208.041 58.2634C208.069 58.2098 208.084 58.167 208.084 58.1384L208.003 58.0938H205.122C205.068 58.0849 205.041 58.0582 205.041 58.0118V57.7976L204.786 57.753C204.758 57.8083 204.742 57.8494 204.742 57.8779C204.77 58.1295 204.786 58.2723 204.786 58.3062C204.561 58.3062 204.449 58.4186 204.449 58.6452H204.237L204.065 58.3472H201.228L201.06 58.0903H200.636C200.582 58.0813 200.554 58.0546 200.554 58.0082V57.7066C200.554 57.6103 200.539 57.5389 200.511 57.4925ZM202.756 55.237C202.78 55.237 202.793 55.2495 202.793 55.2745C203.075 55.2495 203.287 55.237 203.43 55.237H203.685C203.714 55.237 203.728 55.2495 203.728 55.2745L203.808 55.237H203.851C204.105 55.237 204.231 55.3495 204.231 55.5761H204.486C204.502 55.3495 204.545 55.237 204.611 55.237V55.2745C204.665 55.2495 204.708 55.237 204.736 55.237V54.2128H204.824V54.5964L205.036 54.766V54.9801H205.461V53.6596C205.461 53.0851 205.32 52.6996 205.036 52.5034C205.036 52.2232 204.936 52.0822 204.736 52.0822V52.4659L204.699 52.548C204.502 52.4944 204.333 52.4659 204.187 52.4659H203.849C203.555 52.4659 203.23 52.721 202.877 53.2332C202.818 53.2956 202.777 53.5793 202.752 54.0825L202.789 54.17L202.752 54.2574C202.752 54.2824 202.764 54.2949 202.789 54.2949C202.764 54.3948 202.752 54.4537 202.752 54.4715C202.777 54.7196 202.789 54.8587 202.789 54.8927C202.768 55.0497 202.756 55.1657 202.756 55.237ZM204.74 48.8828V48.4992H204.827V48.8828H204.74ZM204.74 49.097V48.9649H204.827V49.097H204.74ZM204.74 49.3914V49.2665H204.827V49.3914H204.74ZM204.783 57.4497H204.825V57.3676H204.783V57.4497ZM204.783 57.662H204.825V57.5799H204.783V57.662ZM208.084 55.105L208.041 55.1924C208.1 55.1924 208.128 55.2192 208.128 55.2745C208.182 55.2495 208.225 55.237 208.253 55.237C208.228 54.9515 208.216 54.7392 208.216 54.5964V54.5518L208.253 54.4697L207.961 54.2931C207.707 54.4055 207.58 54.4769 207.58 54.5072V54.8909C207.58 54.9498 207.748 54.9926 208.085 55.0229V55.105H208.084ZM208.251 56.3862H208.294C208.353 56.3773 208.382 56.3487 208.382 56.2987V55.5315C208.382 55.4779 208.353 55.4494 208.294 55.4494H208.251V56.3862ZM211.426 52.9744V52.8924C211.472 52.8924 211.528 52.8638 211.594 52.8049H211.681C211.677 52.8424 211.606 52.8995 211.469 52.9744H211.426ZM211.851 52.6782V52.6336H211.938V52.6782H211.851Z" fill="white"/>
<path d="M200.511 47.4179V41.3723C200.511 41.3349 200.552 41.2921 200.636 41.2457H202.077C202.115 41.2457 202.156 41.2046 202.202 41.1208V40.9512C202.202 40.8834 202.188 40.8263 202.16 40.7746C202.197 40.6372 202.238 40.5676 202.284 40.5676H202.372C202.425 40.5676 202.452 40.5944 202.452 40.6497V40.8638H202.664C202.723 40.8638 202.752 40.8923 202.752 40.9512V43.8866C202.752 44.1845 202.766 44.636 202.795 45.2445H203.175C203.228 45.2355 203.257 45.2088 203.257 45.1624V44.7787C203.266 44.7199 203.294 44.6913 203.344 44.6913H205.159V40.9887C205.168 40.9352 205.195 40.9066 205.239 40.9066H205.876C205.93 40.9066 205.973 41.0619 206.001 41.3723L205.957 41.4598L206.001 41.7114C205.973 41.7703 205.957 41.8149 205.957 41.8434L206.169 41.888H206.886L207.311 41.8434L207.398 41.9683V45.5889C207.495 45.5889 207.55 45.687 207.566 45.8851L207.522 46.142V46.2241C207.531 46.283 207.559 46.3115 207.609 46.3115H207.647V46.0546L207.691 45.6281H209.088C209.238 45.6281 209.322 45.5442 209.338 45.3765C209.401 45.3765 209.456 45.3622 209.506 45.3319C209.556 45.3605 209.611 45.3765 209.674 45.3765H209.716V41.3295C209.716 41.276 209.857 41.2332 210.141 41.2046V40.5694C210.15 40.5105 210.177 40.4819 210.223 40.4819C210.282 40.4819 210.311 40.5105 210.311 40.5694V41.0351L210.355 41.2492H211.958V48.2262C211.958 48.2547 211.943 48.2708 211.915 48.2708L211.958 48.3582V48.6098C211.958 48.6526 211.917 48.6955 211.833 48.7419H211.745C211.717 48.7419 211.702 48.7276 211.702 48.6973L211.622 48.7419H210.605L210.568 48.956V49.3325C210.568 49.3914 210.539 49.4199 210.48 49.4199H210.393C210.339 49.411 210.312 49.3825 210.312 49.3325C210.284 48.8596 210.27 48.4903 210.27 48.2262V48.0567H210.187L210.145 48.4831V48.6526C210.145 48.7115 210.104 48.7401 210.02 48.7401L209.932 48.6955C209.882 48.724 209.827 48.7401 209.765 48.7401C209.727 48.7401 209.686 48.6544 209.64 48.4831C209.59 48.4546 209.531 48.4385 209.465 48.4385C209.345 48.4385 209.276 48.5384 209.26 48.7401H207.818L207.738 48.6955L207.695 48.7776V49.3307C207.695 49.3896 207.668 49.4182 207.613 49.4182C207.554 49.4092 207.525 49.3807 207.525 49.3307V48.8222C207.525 48.7686 207.497 48.7401 207.438 48.7401H206.046C205.987 48.7401 205.958 48.6955 205.958 48.608C205.958 48.5206 205.946 48.2529 205.921 47.8033H203.344C203.257 47.8033 203.212 47.9585 203.212 48.269V48.3547H202.54L202.372 48.0531H202.284C202.231 48.0531 202.204 48.0816 202.204 48.1405V48.6491C202.204 48.708 202.176 48.7365 202.117 48.7365H200.639L200.557 48.6919C200.525 48.1245 200.511 47.6998 200.511 47.4179ZM205.582 49.0345V48.8204C205.591 48.7668 205.618 48.7383 205.664 48.7383H205.876C205.93 48.7383 205.957 48.7651 205.957 48.8204V49.0345C205.957 49.0934 205.93 49.1219 205.876 49.1219H205.664C205.609 49.1095 205.582 49.0809 205.582 49.0345ZM210.266 47.4999V47.1163H210.184V47.4179C210.193 47.4732 210.221 47.4999 210.266 47.4999ZM210.311 42.9069H210.478C210.537 42.898 210.566 42.8694 210.566 42.8195V42.2289C210.532 42.2289 210.489 42.2146 210.434 42.1842C210.38 42.2128 210.339 42.2289 210.309 42.2289V42.9069H210.311Z" fill="white"/>
<path d="M200.511 40.0144C200.539 39.8646 200.554 39.7218 200.554 39.588C200.554 39.4541 200.539 39.3114 200.511 39.1597C200.511 39.0973 200.525 39.0402 200.554 38.9902C200.525 38.396 200.511 37.9106 200.511 37.5377V35.8354C200.511 34.44 200.836 33.4568 201.483 32.8876L201.528 32.975V33.2712H201.608C201.667 33.2623 201.696 33.2356 201.696 33.1892V32.6735C202.024 32.297 202.647 31.999 203.56 31.7813V31.3102C203.569 31.2567 203.596 31.2281 203.641 31.2281C203.699 31.3209 203.728 31.4048 203.728 31.4797L203.685 31.5672C203.714 31.7385 203.744 31.8241 203.773 31.8241C203.826 31.7956 203.869 31.7795 203.898 31.7795L203.985 31.9044V32.206H204.365C204.665 32.206 205.143 32.3612 205.8 32.6717C205.812 32.7306 205.841 32.7591 205.887 32.7591V31.6903H206.012V32.4576C206.012 32.5254 206.026 32.5825 206.055 32.6342C206.026 32.6806 206.012 32.7377 206.012 32.8037C206.099 32.8876 206.155 33.0428 206.18 33.2695C206.314 33.4122 206.413 33.4836 206.48 33.4836C206.488 33.4301 206.517 33.4015 206.567 33.4015C206.986 33.8333 207.256 34.4454 207.372 35.2359V35.7444C207.372 36.1138 207.384 36.4974 207.409 36.8953C207.384 37.0541 207.372 37.1701 207.372 37.2415C207.397 37.4342 207.409 37.5895 207.409 37.7072L207.372 37.7947C207.397 37.8446 207.409 37.9017 207.409 37.9642H207.622C207.65 37.9642 207.666 37.9785 207.666 38.0088C207.866 38.0088 207.966 37.866 207.966 37.5823H211.56C211.701 37.5823 211.772 37.5252 211.772 37.4128H211.902C211.956 37.4128 211.983 37.4396 211.983 37.4949V39.3292C211.983 39.5719 211.97 39.9288 211.945 40.3981C211.97 40.3981 211.983 40.4124 211.983 40.4427C211.892 40.4516 211.793 40.5355 211.69 40.6943H207.921L207.878 40.9084V41.0779H206.606L206.438 41.3795H206.226L206.014 40.9959C205.989 40.473 205.976 40.1447 205.976 40.0162H205.932C205.932 40.1001 205.917 40.1982 205.889 40.3124L205.932 40.3999C205.903 40.5551 205.889 40.6818 205.889 40.7835V40.9976C205.889 41.0512 205.86 41.0797 205.801 41.0797H203.987V40.9102C203.987 40.7425 203.901 40.6586 203.732 40.6586C203.732 40.5283 203.717 40.4427 203.689 40.4017C203.717 40.3517 203.732 40.2946 203.732 40.2321C203.732 40.1732 203.703 40.1447 203.644 40.1447C203.591 40.1447 203.564 40.1732 203.564 40.2321V40.6158C203.564 40.6693 203.519 40.6979 203.432 40.6979C203.082 40.6979 202.759 40.6854 202.459 40.6604C202.243 40.6854 202.004 40.6979 201.742 40.6979L201.699 40.7853V41.2135C201.699 41.2671 201.671 41.2956 201.612 41.2956C201.558 41.2867 201.531 41.2599 201.531 41.2135V40.7853C201.531 40.7175 201.46 40.6764 201.319 40.6604L201.107 40.6979C200.741 40.6764 200.557 40.6354 200.557 40.573V40.4034C200.554 40.2482 200.539 40.1197 200.511 40.0144ZM201.526 41.6739V41.5918C201.535 41.533 201.562 41.5044 201.606 41.5044H201.694V41.6739C201.694 41.7328 201.665 41.7614 201.606 41.7614C201.555 41.7542 201.526 41.7239 201.526 41.6739ZM202.756 37.5823H203.473C203.532 37.5734 203.56 37.5448 203.56 37.4949V37.1112C203.569 37.0559 203.596 37.0292 203.641 37.0292C203.699 37.0292 203.728 37.0559 203.728 37.1112C203.728 37.1737 203.714 37.2308 203.685 37.2808C203.714 37.3307 203.728 37.3878 203.728 37.4503L203.685 37.5377C203.885 37.5752 203.985 37.618 203.985 37.6626V37.9642C204.144 37.9642 204.24 37.9785 204.278 38.0088C204.431 37.9802 204.558 37.9642 204.658 37.9642H204.745C204.808 37.9642 204.863 37.9785 204.913 38.0088C204.963 37.9802 205.018 37.9642 205.081 37.9642H205.248V36.4314C205.248 35.8408 204.938 35.4286 204.319 35.193C204.14 35.193 204.013 35.1645 203.939 35.1056L203.981 34.8915V34.8469C203.981 34.7933 203.896 34.7648 203.726 34.7648V34.3383C203.698 34.3383 203.653 34.324 203.596 34.2937L203.558 34.3811V34.8469C203.021 35.1234 202.754 35.5927 202.754 36.2547V37.5823H202.756ZM203.598 35.491V35.0253H203.685V35.2769L203.641 35.491H203.598Z" fill="white"/>
<path d="M200.516 28.4141V25.9053C200.525 25.8553 201.115 25.6269 202.288 25.2201L202.368 25.0952V24.6687C202.427 24.5938 203.328 24.2529 205.075 23.6498L205.917 23.3483L205.96 23.4357V24.4153H206.004C206.154 24.4153 206.238 24.3297 206.254 24.1584L206.217 23.9014V23.8639C206.279 23.7426 207.348 23.3447 209.423 22.6702L209.468 22.7576C209.439 22.854 209.423 22.9111 209.423 22.9271C209.423 22.9521 209.438 22.9646 209.468 22.9646L209.423 23.2662V23.4803C209.432 23.5356 209.461 23.5624 209.511 23.5624C209.96 23.4107 210.183 23.3126 210.183 23.2662V22.4115C210.192 22.3561 210.221 22.3294 210.271 22.3294H210.308C210.367 22.3294 210.396 22.3561 210.396 22.4115V23.3483C210.396 23.4161 210.381 23.4714 210.353 23.5178C210.381 23.5677 210.396 23.6266 210.396 23.6944V24.5866L210.353 24.8828L210.44 24.9274C210.494 24.9185 210.521 24.89 210.521 24.84V22.2883C210.521 22.2045 210.986 22.0207 211.918 21.7352H211.961V24.9257C211.961 24.972 211.481 25.1416 210.519 25.4342V27.6897C210.519 27.7521 210.506 27.8092 210.481 27.8592C210.506 27.9091 210.519 27.9662 210.519 28.0287C210.519 28.0876 210.492 28.1161 210.439 28.1161C210.439 28.0876 210.424 28.0715 210.394 28.0715C210.365 27.5487 210.351 27.1651 210.351 26.9224V25.5591C210.351 25.5056 210.324 25.477 210.269 25.477L210.182 25.6019V26.4567C210.182 26.4906 210.055 26.5744 209.802 26.7083V27.0473H209.846C209.871 27.0473 209.984 27.0348 210.183 27.0098V27.3935C210.183 27.422 210.057 27.5219 209.803 27.6897V30.1593C209.803 30.3234 209.916 30.4216 210.141 30.4555L210.183 30.3734V29.6507C210.192 29.5918 210.221 29.5633 210.271 29.5633H210.308L211.961 30.1164V33.3533H211.918L210.228 32.7555L210.183 34.0314C210.183 34.0903 210.157 34.1188 210.103 34.1188C209.65 33.9761 209.423 33.8761 209.423 33.8173V32.6663C209.423 32.4611 209.184 32.3202 208.706 32.2452C208.702 32.1952 208.351 32.0525 207.651 31.817L206.297 31.3459H206.254V31.7723C205.992 31.8312 205.901 31.8419 205.979 31.8045C205.938 31.8419 205.917 31.4636 205.917 30.6678C205.908 30.6268 205.333 30.4002 204.19 29.9897L202.455 29.392H202.412V29.6061H202.37C201.65 29.392 201.046 29.1636 200.555 28.9209L200.516 28.4141ZM204.19 27.0491C205.371 27.3542 205.962 27.5683 205.962 27.6897V28.6693C205.962 28.7228 206.047 28.7657 206.217 28.7942V28.5373C206.233 28.3695 206.276 28.2857 206.342 28.2857C207.211 28.5712 207.662 28.7139 207.696 28.7139L207.733 28.4998L207.696 28.1982C207.721 28.1447 207.733 28.1019 207.733 28.0733L207.696 27.8164C207.696 27.7914 207.708 27.7789 207.733 27.7789L207.696 27.5648V26.8421C207.696 26.8135 207.708 26.7975 207.733 26.7975C207.708 26.512 207.667 26.371 207.609 26.371H207.566C207.378 26.4763 207.013 26.603 206.468 26.7546C206.322 26.7546 206.24 26.8831 206.219 27.1383C206.147 27.1383 206.078 27.1668 206.006 27.2257C205.947 27.2132 205.919 27.1829 205.919 27.1383V26.4156C205.403 26.5584 204.827 26.7422 204.191 26.9688V27.0491H204.19Z" fill="white"/>
<path d="M200.528 22.8397V19.9044C200.528 19.8455 200.681 19.8027 200.99 19.7724V19.3066C201.002 19.2477 201.031 19.2192 201.077 19.2192L201.165 19.3512C201.136 19.4476 201.122 19.5047 201.122 19.5208C201.151 19.5707 201.165 19.6278 201.165 19.6903H201.122C201.151 19.7456 201.165 19.7866 201.165 19.8152H206.149C206.215 19.8152 206.257 19.7028 206.274 19.4761C206.245 19.4262 206.231 19.3691 206.231 19.3066C206.243 19.3066 206.284 19.2781 206.356 19.2192H206.486C206.523 19.2192 206.564 19.2638 206.611 19.3512V19.6028C206.611 19.6903 206.597 19.7349 206.568 19.7349L206.611 19.9419V20.3701C206.62 20.429 206.648 20.4576 206.698 20.4576H206.866C206.919 20.4486 206.946 20.4201 206.946 20.3701V19.4779H209.903C209.965 19.4779 210.021 19.4637 210.071 19.4333C210.212 19.4797 210.283 19.5654 210.283 19.6903C210.255 19.6903 210.238 19.7045 210.238 19.7349L210.326 19.7724H211.548C211.607 19.7634 211.636 19.7367 211.636 19.6903C211.607 19.6403 211.593 19.5832 211.593 19.5208C211.696 19.4619 211.809 19.4333 211.93 19.4333L211.975 19.5208V21.3944C211.975 21.6335 211.96 22.0153 211.93 22.5382H211.68L211.513 22.8397C211.484 22.8397 211.47 22.854 211.47 22.8843L211.17 22.8397H210.92C210.854 22.8397 210.797 22.854 210.752 22.8843C210.702 22.8558 210.645 22.8397 210.585 22.8397H210.372C210.319 22.8397 210.247 22.9682 210.16 23.2234C210.106 23.2519 210.064 23.268 210.035 23.268C209.919 23.2216 209.86 23.177 209.86 23.1359V22.9664C209.86 22.9164 209.987 22.8736 210.24 22.8415V22.6274C210.24 22.5685 210.213 22.5399 210.16 22.5399H207.035C206.977 22.5399 206.948 22.5685 206.948 22.6274C206.92 23.1252 206.905 23.4232 206.905 23.5196L206.825 23.5642H206.7C206.659 23.5642 206.614 23.5213 206.57 23.4393C206.57 23.4107 206.584 23.3947 206.613 23.3947L206.57 23.3072V22.415C206.57 22.3615 206.543 22.3329 206.488 22.3329H206.357L206.233 22.415L206.275 22.7166V22.7987C206.275 22.8415 206.234 22.8825 206.15 22.9236H201.245L201.165 22.8861C201.136 22.9289 201.122 23.011 201.122 23.1377H201.035V22.9236H200.617C200.556 22.9129 200.528 22.8843 200.528 22.8397ZM201.077 22.6256C201.136 22.6167 201.165 22.5881 201.165 22.5382V22.4561C201.165 22.3972 201.136 22.3686 201.077 22.3686C201.019 22.3686 200.99 22.3972 200.99 22.4561V22.5382C201.002 22.5953 201.031 22.6256 201.077 22.6256Z" fill="white"/>
<path d="M200.511 17.9933C200.511 17.9398 200.525 17.9112 200.554 17.9112C200.525 17.483 200.511 17.1689 200.511 16.9691V13.9909C200.511 12.9096 200.609 12.1851 200.803 11.8158C200.878 11.5606 200.964 11.4036 201.059 11.3447C201.109 11.3732 201.164 11.3893 201.226 11.3893C201.439 10.945 201.904 10.5613 202.623 10.2384C203.223 10.0367 203.674 9.9368 203.978 9.9368C204.081 9.9368 204.42 9.97963 204.995 10.0617C204.995 9.89398 205.023 9.81011 205.082 9.81011C205.96 10.1331 206.608 10.6434 207.029 11.3429L207.279 11.9835H207.324C207.386 11.9157 207.613 11.7587 208.003 11.5124C208.057 11.6052 208.084 11.6766 208.084 11.7265L208.171 11.6819H208.214C208.239 12.1976 208.251 12.5384 208.251 12.7062H208.294C208.353 12.6972 208.382 12.6687 208.382 12.6187V11.557L208.844 11.1734C208.844 10.8932 208.985 10.7077 209.269 10.6202H209.311C209.311 10.763 209.34 10.8343 209.399 10.8343C210.659 9.95108 211.308 9.50855 211.346 9.50855C211.367 9.62097 211.394 9.67807 211.426 9.67807C211.72 9.48178 211.892 9.38186 211.938 9.38186L211.975 9.46394V11.5999C211.975 11.839 211.963 12.2226 211.938 12.7508C211.617 12.9774 211.447 13.0898 211.426 13.0898C211.397 13.0434 211.383 12.972 211.383 12.8757H211.346C210.102 13.7019 209.424 14.1141 209.311 14.1141V13.9445H209.224C208.946 14.032 208.806 14.2015 208.806 14.4531C208.524 14.6743 208.382 14.8474 208.382 14.9688V15.7361H208.594C208.619 15.7361 208.631 15.7486 208.631 15.7735L208.719 15.7361H210.666V15.265C210.675 15.2061 210.703 15.1775 210.753 15.1775C210.807 15.1775 210.833 15.2061 210.833 15.265V15.7361C210.974 15.7361 211.046 15.7486 211.046 15.7735L211.133 15.7361H211.638C211.701 15.7361 211.756 15.7486 211.806 15.7735C211.859 15.7486 211.904 15.7361 211.938 15.7361L211.975 15.8181V17.5651C211.975 17.8506 211.963 18.277 211.938 18.8462H210.921C210.862 18.8373 210.833 18.8088 210.833 18.7588V18.2931H210.709V18.7588C210.709 18.8177 210.68 18.8462 210.621 18.8462H208.426L208.383 19.0604V19.908C208.383 19.9668 208.355 19.9954 208.296 19.9954L208.253 19.908C208.241 19.1996 208.214 18.8462 208.171 18.8462C208.084 18.8462 208.041 18.8177 208.041 18.7588C208.069 18.7053 208.084 18.6625 208.084 18.6339L208.003 18.5893H205.122C205.068 18.5804 205.041 18.5536 205.041 18.5072V18.2931L204.786 18.2485C204.758 18.302 204.742 18.3448 204.742 18.3734C204.77 18.625 204.786 18.7677 204.786 18.7999C204.561 18.7999 204.449 18.9123 204.449 19.1389H204.237L204.069 18.8427H201.228L201.06 18.5857H200.636C200.582 18.5768 200.554 18.55 200.554 18.5036V18.2021C200.554 18.1111 200.539 18.0397 200.511 17.9933ZM202.756 15.7378C202.78 15.7378 202.793 15.7503 202.793 15.7753C203.075 15.7503 203.287 15.7378 203.43 15.7378H203.685C203.714 15.7378 203.728 15.7503 203.728 15.7753L203.808 15.7378H203.851C204.105 15.7378 204.231 15.8503 204.231 16.0769H204.486C204.502 15.8503 204.545 15.7378 204.611 15.7378V15.7753C204.665 15.7503 204.708 15.7378 204.736 15.7378V14.7136H204.824V15.0972L205.036 15.2668V15.4809H205.461V14.1604C205.461 13.5859 205.32 13.2004 205.036 13.0042C205.036 12.724 204.936 12.583 204.736 12.583V12.9667L204.699 13.0488C204.502 12.9952 204.333 12.9667 204.187 12.9667H203.849C203.555 12.9667 203.23 13.2219 202.877 13.734C202.818 13.7964 202.777 14.0801 202.752 14.5833L202.789 14.6708L202.752 14.7582C202.752 14.7832 202.764 14.7957 202.789 14.7957C202.764 14.8956 202.752 14.9545 202.752 14.9723C202.777 15.2204 202.789 15.3596 202.789 15.3935C202.768 15.5505 202.756 15.6665 202.756 15.7378ZM204.74 9.38364V9H204.827V9.38364H204.74ZM204.74 9.59777V9.46572H204.827V9.59777H204.74ZM204.74 9.89219V9.76729H204.827V9.89219H204.74ZM204.783 17.9487H204.825V17.8666H204.783V17.9487ZM204.783 18.1628H204.825V18.0807H204.783V18.1628ZM208.084 15.6058L208.041 15.6932C208.1 15.6932 208.128 15.72 208.128 15.7753C208.182 15.7503 208.225 15.7378 208.253 15.7378C208.228 15.4523 208.216 15.24 208.216 15.0972V15.0526L208.253 14.9706L207.961 14.7939C207.707 14.9063 207.58 14.9777 207.58 15.008V15.3917C207.58 15.4506 207.748 15.4952 208.085 15.5237V15.6058H208.084ZM208.251 16.887H208.294C208.353 16.8781 208.382 16.8495 208.382 16.7996V16.0323C208.382 15.9787 208.353 15.9502 208.294 15.9502H208.251V16.887ZM211.426 13.4752V13.3932C211.472 13.3932 211.528 13.3646 211.594 13.3057H211.681C211.677 13.3432 211.606 13.4003 211.469 13.4752H211.426ZM211.851 13.179V13.1344H211.938V13.179H211.851Z" fill="white"/>
<path d="M39.9766 43.5788H26.8441V43.8201H27.8068V44.5463H34.6372V44.7876H32.5213V45.7575H35.8894V46.4838H36.3696V46.725H36.0318V46.9663H35.887V47.9362H35.9835V48.6625H35.7905V48.9037H35.5492C35.5179 48.9689 35.501 49.0485 35.501 49.145H36.0294C35.9329 49.4683 35.7567 49.7096 35.501 49.8712H34.9726C34.811 50.0015 34.589 50.0643 34.2995 50.0643H10.0539C9.76434 50.0643 9.53996 49.9991 9.38072 49.8712H9.86085C9.57132 49.7096 9.38072 49.4683 9.28421 49.145H8.75582C8.75582 49.0799 8.74617 49.0316 8.73169 49.0002C8.7148 48.9689 8.70756 48.9351 8.70756 48.9037H8.94884V48.6625H9.14186V47.9362H9.04535V46.9663H9.19011V46.725H9.52789V46.4838H9.04776V45.7575H5.67717V44.7876H7.79314V44.5463H0.962682V43.8201H0V43.5788H13.1325V42.8526H7.79314V42.1264H12.9878V41.8851H1.63583V41.1588H3.27167V40.9176H9.52548V40.6763H7.313V39.9501H11.0648V38.9802H7.26475V38.4952H10.3917V38.2539H8.94884V37.5277H10.3434V37.0427H8.5628V36.5578H12.7489V35.8315H13.9529V35.3466H7.36126V34.6203H19.5794V35.3466H26.1709V35.8315H24.9694V36.5578H20.7809V37.0427H22.5615V37.5277H21.1669V38.2539H22.6097V38.4952H19.4828V38.9802H23.2829V39.9501H19.5311V40.1431H32.8566C33.3054 40.1431 33.6577 40.3216 33.9158 40.6763H36.1283L36.2731 40.9176H30.0193L30.1158 41.1588H28.4317C28.463 41.224 28.4799 41.3205 28.4799 41.4508V41.8875H39.8319V42.1288H34.6372V42.855H39.9766V43.5788ZM7.98616 17.4079C8.01752 17.3114 8.04165 17.2221 8.05854 17.1425C8.07543 17.0629 8.09955 16.9905 8.13092 16.9253H2.83738C2.90252 16.8288 2.96525 16.7396 3.0304 16.6599C3.09554 16.5803 3.15827 16.5079 3.22341 16.4428H8.80407C9.05982 16.2498 9.33246 16.1508 9.62199 16.1508H19.244C19.5962 16.1508 19.8689 16.2474 20.0619 16.4428H14.4788C14.544 16.5079 14.6139 16.5803 14.696 16.6599C14.7756 16.7396 14.8311 16.8288 14.8649 16.9253H20.1077C20.1705 17.1184 20.2042 17.2824 20.2042 17.4103H22.8993C22.9306 17.4103 22.9475 17.4272 22.9475 17.4586V17.8953H16.4524V18.8652H19.1475V19.5914H18.8579V20.5613H17.1256V21.5312H21.0222V21.7725H21.3117V22.7424H21.5047V23.7124H21.1669V24.6823H20.9257V25.8935H21.7436V26.8634H20.8291V27.8333H21.0222V28.0746H24.4386V29.0445H26.2192V29.5295H18.8121V30.0144H21.2659V30.9843H19.2464V31.9543H20.9787V32.4392H21.3165V33.1655H27.7634V33.6504H32.2366V34.6203H20.0112V33.6504H15.538V33.1655H9.09119V32.4392H8.75341V31.9543H7.02106V30.9843H9.04052V30.0144H6.59159V29.5295H14.0011V29.0445H12.2205V28.0746H8.80407V27.8333H8.61105V26.8634H9.52548V25.8935H8.70756V24.6823H8.94884V23.7124H9.28662V22.7424H9.0936V21.7725H8.80407V21.5312H4.9075V20.5613H6.63985V19.5914H6.92938V18.8652H4.23435V17.8953H10.7294V17.4103H7.98616V17.4079Z" fill="white"/>
<path d="M73.3139 47.4561L73.6517 48.426H72.8338L72.9303 48.6673C72.9303 48.6987 72.9375 48.7397 72.9544 48.7879C72.9713 48.8362 72.9786 48.8772 72.9786 48.9086H72.689V49.0051C72.689 49.3935 72.5443 49.683 72.2571 49.8785H72.3054C72.1437 50.0088 71.9362 50.0715 71.6805 50.0715H62.7799C62.5555 50.0715 62.3698 50.0474 62.2274 49.9991C62.0826 49.9509 61.9306 49.9098 61.7714 49.8785C61.5132 49.7506 61.3226 49.5962 61.1948 49.4176C61.0669 49.2415 60.9704 49.0702 60.9052 48.9086H61.1465V48.8603L61.05 48.6673L60.9535 48.426H61.7666L61.4288 47.4561H60.5144L60.3696 46.9711H62.3408L62.003 46.0012H61.4264L61.2816 45.661H50.9382L50.8417 46.0012H50.2651L49.9273 46.9711H49.3989L49.2059 47.4561H48.9163L48.5786 48.426H48.6268L48.5303 48.6673L48.482 48.8603L48.4338 48.9086H48.1925C48.1274 49.0702 48.0309 49.2415 47.903 49.4176C47.7751 49.5962 47.5821 49.7506 47.3263 49.8785H48.7692C48.6413 49.9098 48.4965 49.9509 48.3373 49.9991C48.1756 50.0474 47.985 50.0715 47.7606 50.0715H38.8697C38.6115 50.0715 38.4209 50.0064 38.2931 49.8785H36.8502C36.5294 49.6517 36.3701 49.3622 36.3701 49.0051V48.9086H36.6596C36.6596 48.812 36.6765 48.7324 36.7079 48.6673L36.7562 48.426H36.7079L37.0457 47.4561H37.3352L37.5282 46.9711H38.0566L38.3944 46.0012H38.9228L39.2606 45.0313H37.3835L37.5765 44.5463H37.4317L37.673 43.8201H38.1531L38.2496 43.5788H37.1904L37.5282 42.6089H39.1641L39.3088 42.1239H37.8178L37.9143 41.8827H38.1555L38.4933 40.9128H38.3486L38.5898 40.1865H38.7829L39.1206 39.2166H39.7455L39.9868 38.4904L40.0833 38.2491H42.4888L42.5853 38.0078H42.4406L42.6818 37.2816H39.9868L40.3246 36.3117H41.1908L41.2873 36.0704H40.7589L40.8554 35.8291H42.3947L42.7325 34.8592H40.8554L41.0484 34.3742H41.7698L42.1076 33.4043H41.6757L41.917 32.6781H42.4454L42.7832 31.7082H42.6384L42.7349 31.4669H41.6275L41.8205 30.9819H42.8797L43.121 30.2557H42.6408L42.6891 30.0144H43.5552L43.893 29.0445H42.8338L43.0751 28.3183H42.5467L42.6915 27.8333H39.3716L39.5163 27.3484H38.8914L39.2292 26.3784H38.6043L38.8938 25.6522H40.7709L41.1087 24.6823H45.9197L46.161 23.956H43.852L44.045 23.4711H45.8256L46.1634 22.5012H44.5758L44.8171 21.7749H45.828L46.1658 20.805H46.0211L46.3588 19.8351H45.0125L45.0608 19.5938H49.6788L50.0165 18.6239H49.8718L49.9683 18.3826H48.2842L48.4772 17.7529L48.622 17.4127H49.1021L49.3917 16.9277H49.2469C49.4061 16.701 49.6305 16.5152 49.92 16.3704C50.2096 16.2256 50.5618 16.1533 50.9792 16.1533H61.4191C61.8365 16.1533 62.1888 16.2256 62.4783 16.3704C62.7679 16.5152 62.9898 16.7034 63.1515 16.9277H63.3445L63.634 17.4127H63.1539C63.2166 17.543 63.2504 17.654 63.2504 17.7529L63.4917 18.3826H65.1758L65.224 18.6239H65.3688L65.7066 19.5938H61.1368L61.2334 19.8351H62.5797L62.9174 20.805H63.0622L63.4 21.7749H62.3891L62.6303 22.5012H64.2179L64.5557 23.4711H62.7751L62.9681 23.956H65.2771L65.5184 24.6823H60.7074L61.0452 25.6522H59.1681L59.4093 26.3784H59.986L60.3238 27.3484H58.4466L58.6397 27.8333H66.288L66.4328 28.3183H66.0492L66.2904 29.0445H65.3278L65.6656 30.0144H64.5098L64.5581 30.2557H66.2904L66.5317 30.9819H66.58L66.773 31.4669H65.1854L65.2819 31.7082H66.8213L67.159 32.6781H67.6874L67.9287 33.4043H67.7839L68.1217 34.3742H68.8914L69.0844 34.8592H67.6898L68.0276 35.8291H68.9903L69.0386 36.0704H68.7973L68.8938 36.3117H68.0276L68.3171 37.2816H71.058L71.2993 38.0078H71.444L71.5406 38.2491H69.0868L69.1833 38.4904H69.2316L69.4728 39.2166H68.8479L69.1857 40.1865H68.9445L69.234 40.9128H69.3787L69.7165 41.8827H69.4753L69.5718 42.1239H71.0628L71.2559 42.6089H69.5718L69.9096 43.5788H70.9687L71.0653 43.8201H70.5851L70.8746 44.5463H70.9712L71.1642 45.0313H73.0413L73.3791 46.0012H73.9557L74.2935 46.9711H72.3223L72.4671 47.4561H73.3139ZM51.9057 35.8243L51.8092 36.0656H52.3376L52.2893 36.2103H57.7252L57.677 36.0656H57.9183L57.87 35.8243H56.9073L56.6178 34.8544H58.0124L57.8676 34.3694H57.0497L56.7601 33.3995H56.9049L56.7119 32.6733H56.1835L55.894 31.7033H54.3546L54.2581 31.4621H55.8457L55.701 30.9771H55.6527L55.4114 30.2509H53.8721L53.6791 30.9771H52.6199L52.4751 31.4621H53.5343L53.4861 31.7033H53.6308L53.3413 32.6733H52.8129L52.5716 33.3995H53.0035L52.714 34.3694H51.9926L51.8478 34.8544H53.7249L53.4354 35.8243H51.9057ZM53.2038 28.3134H53.7804L53.5391 29.0397H55.5103L55.2691 28.3134H55.6527L55.5079 27.8285H53.3437L53.2038 28.3134ZM54.7914 30.0096L54.5501 29.1844L54.3088 30.0096H54.7914Z" fill="white"/>
<path d="M107.755 45.275H103.569L103.088 46.0012H107.033L106.601 46.4862H103.33L103.088 46.7274H103.52C103.137 47.1159 102.751 47.4392 102.365 47.6974H103.134C102.91 47.859 102.654 48.0207 102.365 48.1823H102.123L101.692 48.4236H101.788C101.723 48.455 101.643 48.4888 101.547 48.5201C101.45 48.5515 101.371 48.6021 101.305 48.6649H101.161C100.84 48.7952 100.502 48.923 100.15 49.0533C99.7975 49.1836 99.4284 49.2946 99.0423 49.3935H99.1388C98.7214 49.49 98.304 49.5793 97.889 49.6613C97.4716 49.741 97.0398 49.8157 96.591 49.8785H96.7358C96.2218 49.9436 95.6838 49.9919 95.1241 50.0232C94.5619 50.057 93.978 50.0715 93.3676 50.0715H76.9151C76.6256 50.0715 76.4012 50.0064 76.242 49.8785H76.049C75.8873 49.782 75.7425 49.6203 75.6171 49.3935H75.5206C75.4241 49.2005 75.3758 48.9906 75.3758 48.7638V48.6673H75.5206V48.426H75.4241V48.1847H75.6653V47.6998H74.8957V46.7299H74.4638V46.4886H77.7355V46.0036H73.7424V45.2774H77.9309V44.3075H74.4662V44.0662H74.418V43.5812H76.9682V43.0963H75.1876V42.6113H76.7752V41.8851H75.3806V41.1589H76.2468V40.9176H75.5254V39.4627H75.1876V38.9777H75.4289V38.2515H75.1394V37.5253H74.3214V37.0403H73.3105V36.5554H75.8608V36.3141H72.4443V36.0728H75.6677V35.8315H74.8016V35.5903H75.33V35.1053H74.9922V34.3791H75.0404V33.6528H75.2335V33.4116H75.3782V32.9266H76.5339V31.9567H77.3036V31.2304H75.523V30.2605H75.1852V29.7756H74.6086V29.0493H75.3782V28.0794H74.1284V27.8381H75.4747V27.5969H77.1106V27.1119H77.832V26.8706H74.1767V26.1444H75.523V25.4182H75.33V24.9332H75.3782V24.4482H75.2335V23.722H75.1369V23.4807H75.9549V23.2395H74.4155V22.5132H74.9439V22.272H75.1369V21.0608H75.3782V20.8195H72.6832V20.5782H73.8847V19.852H76.5798V19.1258H72.5384V18.8845H73.8365V18.3995H74.1743V17.4296H74.0778C74.0778 17.1714 74.1574 16.9278 74.319 16.7034H76.0514C76.3071 16.3487 76.6449 16.1702 77.0623 16.1702H93.0346C94.0938 16.1702 95.0782 16.2184 95.9926 16.3149C96.9071 16.4114 97.7636 16.5417 98.567 16.7034H96.8829C97.3003 16.7999 97.7081 16.906 98.1086 17.0194C98.5091 17.1328 98.871 17.2704 99.1919 17.432H99.2884C99.6407 17.5623 99.9616 17.7071 100.251 17.8687C100.541 18.0304 100.828 18.2089 101.117 18.4019H100.78C100.907 18.4671 101.028 18.5467 101.141 18.6432C101.252 18.7397 101.359 18.8217 101.455 18.8845H100.157L100.447 19.1258H104.488C104.616 19.256 104.736 19.3767 104.85 19.4901C104.961 19.6035 105.067 19.7241 105.163 19.8544H102.468C102.565 19.9847 102.661 20.1053 102.758 20.2187C102.854 20.3321 102.934 20.4528 102.999 20.583H101.798L101.942 20.8243H104.637L104.782 21.0656H104.541C104.637 21.2272 104.717 21.3889 104.782 21.5506C104.845 21.6808 104.91 21.8015 104.975 21.9149C105.038 22.0283 105.086 22.1489 105.12 22.2792H104.879L104.975 22.5205H104.447C104.512 22.6508 104.558 22.7714 104.592 22.8848C104.623 22.9982 104.654 23.1188 104.688 23.2491H106.227C106.227 23.2805 106.235 23.3143 106.252 23.3456C106.268 23.3794 106.276 23.4277 106.276 23.4904H105.458C105.489 23.5555 105.506 23.6352 105.506 23.7317H105.603L105.747 24.4579H105.892C105.892 24.523 105.892 24.6027 105.892 24.6992C105.892 24.7957 105.909 24.8777 105.94 24.9404C105.94 25.0056 105.94 25.0852 105.94 25.1817C105.94 25.2782 105.957 25.3603 105.989 25.423H105.94C105.972 25.5533 105.989 25.6739 105.989 25.7873C105.989 25.9007 105.989 26.0214 105.989 26.1516H105.557V26.3447C105.557 26.4412 105.549 26.5304 105.533 26.6101C105.516 26.6921 105.508 26.7789 105.508 26.8755H106.375C106.375 26.9092 106.367 26.9406 106.351 26.972C106.334 27.0033 106.326 27.054 106.326 27.1167H105.798L105.75 27.6017H106.471C106.471 27.6982 106.454 27.7802 106.423 27.843H105.798C105.767 27.9081 105.75 27.9877 105.75 28.0842C105.653 28.3762 105.525 28.6995 105.366 29.0542H104.596L104.213 29.7804H104.789C104.724 29.8455 104.669 29.9252 104.621 30.0217C104.572 30.1182 104.517 30.2002 104.452 30.2629H104.741C104.483 30.6514 104.196 30.9747 103.875 31.2329H105.704C105.383 31.5562 105.079 31.7974 104.789 31.9591H104.02C103.795 32.1521 103.554 32.2993 103.298 32.3958C103.458 32.4609 103.627 32.5406 103.803 32.6371C103.979 32.7336 104.148 32.8301 104.307 32.929H103.151C103.344 33.0593 103.569 33.221 103.824 33.414H103.68L103.969 33.6552H103.776L104.498 34.3815H104.449C104.546 34.5118 104.642 34.6324 104.739 34.7458C104.835 34.8592 104.915 34.9798 104.98 35.1101H105.318L105.607 35.5951H105.079L105.224 35.8364H106.09C106.09 35.8677 106.121 35.9498 106.186 36.0776H102.963L103.108 36.3189H106.524C106.524 36.3503 106.556 36.4323 106.621 36.5602H104.07C104.133 36.6253 104.174 36.7049 104.191 36.8015C104.206 36.898 104.232 36.98 104.263 37.0427H106.044L106.189 37.5277H106.43L106.575 38.2539H106.527C106.558 38.3842 106.582 38.5048 106.599 38.6182C106.616 38.7316 106.623 38.8523 106.623 38.9826H106.575V39.4675H106.527V39.9525H106.72C106.72 40.1141 106.712 40.2758 106.696 40.4374C106.679 40.5991 106.655 40.7608 106.623 40.9224H108.018C108.018 40.9538 108.01 40.9875 107.994 41.0189C107.977 41.0503 107.969 41.101 107.969 41.1637H106.623C106.592 41.294 106.575 41.4146 106.575 41.528C106.575 41.6414 106.558 41.762 106.527 41.8923H107.873L107.728 42.6186H106.141L105.996 43.1035H107.825L107.632 43.5885H105.081C105.05 43.6536 105.026 43.7332 105.009 43.8298C104.992 43.9263 104.954 44.0083 104.888 44.071H104.937C104.937 44.1024 104.905 44.1844 104.84 44.3123H108.305C108.155 44.6308 107.979 44.9541 107.755 45.275ZM87.5505 40.9152H88.2719V41.1564H87.4057V41.7379H91.8789C92.2312 41.7379 92.5279 41.6824 92.7692 41.569C93.0105 41.4556 93.2252 41.3181 93.4182 41.1564H94.7645C94.7959 41.0913 94.8273 41.043 94.8611 41.0117C94.8924 40.9803 94.9238 40.9465 94.9576 40.9152H93.6137C93.8067 40.6232 93.9515 40.3023 94.0456 39.9452H93.8525C93.8839 39.8801 93.9008 39.8005 93.9008 39.704C93.9008 39.6075 93.9008 39.5278 93.9008 39.4627H93.949V38.9777H93.9973C93.9659 38.8499 93.9322 38.7268 93.9008 38.6134C93.8694 38.5 93.8212 38.3794 93.756 38.2491H93.8043C93.6426 37.9258 93.4665 37.6845 93.2759 37.5229H93.0346C92.8102 37.2961 92.4893 37.1344 92.0719 37.0379H90.2913C90.1948 37.0065 90.0332 36.9896 89.8112 36.9896H85.338V37.0379H86.3489V37.5229H87.1668V38.2491H87.4564V38.9753H87.2151V39.4603H87.5529V40.9152H87.5505ZM86.1559 27.8285V28.0698H87.4057V28.8949H91.447C92.1853 28.8949 92.7137 28.6199 93.0346 28.0698L93.1794 27.8285H93.8043L93.9008 27.5872H93.1311L93.2759 27.1023H93.8043V26.861H92.9381C92.9695 26.8296 92.9864 26.7814 92.9864 26.7162C92.9864 26.6197 92.9767 26.5232 92.9622 26.4243C92.9453 26.3278 92.9212 26.2313 92.8899 26.1323H93.3724C93.341 25.8742 93.2445 25.6305 93.0829 25.4061C93.0515 25.3096 92.9936 25.2203 92.914 25.1407C92.8344 25.0611 92.762 24.9887 92.6968 24.9236C92.5352 24.7957 92.3518 24.6895 92.1443 24.6075C91.9344 24.5279 91.7028 24.4869 91.447 24.4869H87.4057V24.9236H87.3575V25.4085H87.5505V26.1347H86.2042V26.861H89.8595V27.1023H89.1381V27.5872H87.5022V27.8285H86.1559Z" fill="white"/>
<path d="M12.0422 57.4496C12.8119 57.4496 13.4368 57.6378 13.9097 58.0142C14.3826 58.4003 14.6118 58.9214 14.6118 59.5729C14.6118 59.8165 14.5563 60.094 14.3922 60.4366C14.2378 60.7792 13.8976 61.1122 13.4585 61.31C14.04 61.4982 14.4574 61.8312 14.6769 62.1955C14.8844 62.5719 14.9737 62.9145 14.9737 63.2571C14.9737 63.9327 14.7324 64.4731 14.2499 64.8953C13.7673 65.3055 13.0652 65.5154 12.1315 65.5154H8.98047V57.4496H12.0422ZM11.801 60.8685C12.3173 60.8685 12.713 60.7575 12.9639 60.5355C13.2269 60.3136 13.3596 60.0385 13.3596 59.7056C13.3596 59.0421 12.8867 58.5885 11.8661 58.5885H10.2182V60.8685H11.801ZM12.1532 64.3742C13.1738 64.3742 13.7239 63.8868 13.7239 63.1582C13.7239 62.4512 13.1762 61.9735 12.076 61.9735H10.2303V64.3742H12.1532Z" fill="#9D9C98"/>
<path d="M15.4897 60.0144H16.8722L18.5732 63.6214L20.1439 60.0144H21.4613L17.7167 68.2225H16.4211L17.9145 64.8929L15.4897 60.0144Z" fill="#9D9C98"/>
<path d="M27.8865 57.4496C28.6561 57.4496 29.281 57.6378 29.7539 58.0142C30.2268 58.4003 30.456 58.9214 30.456 59.5729C30.456 59.8165 30.4005 60.094 30.2365 60.4366C30.0821 60.7792 29.7419 61.1122 29.3027 61.31C29.8842 61.4982 30.3016 61.8312 30.5212 62.1955C30.7287 62.5719 30.8179 62.9145 30.8179 63.2571C30.8179 63.9327 30.5767 64.4731 30.0941 64.8953C29.6116 65.3055 28.9095 65.5154 27.9757 65.5154H24.8247V57.4496H27.8865ZM27.6452 60.8685C28.1615 60.8685 28.5572 60.7575 28.8081 60.5355C29.0711 60.3136 29.2038 60.0385 29.2038 59.7056C29.2038 59.0421 28.7309 58.5885 27.7103 58.5885H26.0624V60.8685H27.6452ZM27.9975 64.3742C29.018 64.3742 29.5681 63.8868 29.5681 63.1582C29.5681 62.4512 29.0205 61.9735 27.9202 61.9735H26.0769V64.3742H27.9975Z" fill="#9D9C98"/>
<path d="M35.8146 62.4392C35.8146 61.6092 35.4092 61.0663 34.6058 61.0663C34.2222 61.0663 33.9133 61.187 33.6841 61.4427C33.4525 61.6961 33.3439 62.029 33.3439 62.4488V65.513H32.1255V57.1263H33.3439V60.7117C33.508 60.5018 33.6962 60.3353 33.9037 60.2026C34.1232 60.0819 34.309 59.9927 34.4851 59.9589C34.6492 59.9251 34.8157 59.9034 34.9798 59.9034C35.6505 59.9034 36.1548 60.1037 36.5046 60.5235C36.8569 60.9336 37.0209 61.4741 37.0209 62.1279V65.513H35.8121V62.4392H35.8146Z" fill="#9D9C98"/>
<path d="M41.7549 65.513C41.7211 65.3586 41.6994 65.1149 41.6994 64.7602C41.5136 65.0691 41.282 65.2814 40.9973 65.4141C40.7005 65.5468 40.4038 65.6143 40.0974 65.6143C39.5714 65.6143 39.1202 65.4599 38.78 65.1487C38.4398 64.8495 38.2637 64.4635 38.2637 63.9857V63.9303C38.2757 63.1678 38.7245 62.7022 39.318 62.4706C39.7354 62.3041 40.1311 62.2486 40.5268 62.2486H41.2072C41.5474 62.2486 41.7115 62.0942 41.7115 61.7829C41.7115 61.5513 41.6246 61.351 41.4364 61.1846C41.2506 61.0301 40.9852 60.9409 40.6354 60.9409C39.9888 60.9409 39.5376 61.3052 39.4507 61.8601L38.3409 61.6068C38.3747 61.3535 38.4953 61.076 38.7149 60.7768C38.9344 60.4897 39.2095 60.2677 39.5714 60.1133C39.8778 59.9685 40.2518 59.9034 40.6812 59.9034C41.7018 59.9034 42.3822 60.2798 42.7224 61.0326C42.843 61.298 42.9082 61.6189 42.9082 62.0073V64.6299C42.9082 64.9943 42.9203 65.2935 42.942 65.5154H41.7549V65.513ZM41.6994 63.1123H40.5244C40.2614 63.1123 40.0298 63.1799 39.8102 63.3126C39.5907 63.4574 39.4797 63.6456 39.4797 63.8772C39.4797 64.3308 39.832 64.6299 40.3459 64.6299C40.7512 64.6299 41.0914 64.5093 41.3351 64.2656C41.5788 64.0219 41.697 63.701 41.697 63.2909V63.1123H41.6994Z" fill="#9D9C98"/>
<path d="M47.4538 61.2545C47.3548 61.2328 47.2463 61.2208 47.1136 61.2208C46.1919 61.2208 45.6852 61.7636 45.6852 62.7142V65.513H44.4668V60.0144H45.6635V60.8661C45.982 60.2798 46.5635 59.971 47.157 59.971C47.268 59.971 47.3645 59.983 47.4538 59.9927V61.2545Z" fill="#9D9C98"/>
<path d="M51.4155 65.513C51.3818 65.3586 51.36 65.1149 51.36 64.7602C51.1743 65.0691 50.9426 65.2814 50.6579 65.4141C50.3612 65.5468 50.0644 65.6143 49.758 65.6143C49.232 65.6143 48.7808 65.4599 48.4406 65.1487C48.1004 64.8495 47.9243 64.4635 47.9243 63.9857V63.9303C47.9364 63.1678 48.3851 62.7022 48.9787 62.4706C49.3961 62.3041 49.7918 62.2486 50.1875 62.2486H50.8679C51.208 62.2486 51.3721 62.0942 51.3721 61.7829C51.3721 61.5513 51.2853 61.351 51.0971 61.1846C50.9113 61.0301 50.6459 60.9409 50.296 60.9409C49.6494 60.9409 49.1982 61.3052 49.1114 61.8601L48.0015 61.6068C48.0353 61.3535 48.1559 61.076 48.3755 60.7768C48.5951 60.4897 48.8701 60.2677 49.232 60.1133C49.5384 59.9685 49.9124 59.9034 50.3419 59.9034C51.3625 59.9034 52.0429 60.2798 52.3831 61.0326C52.5037 61.298 52.5688 61.6189 52.5688 62.0073V64.6299C52.5688 64.9943 52.5809 65.2935 52.6026 65.5154H51.4155V65.513ZM51.3625 63.1123H50.1875C49.9245 63.1123 49.6929 63.1799 49.4733 63.3126C49.2537 63.4574 49.1427 63.6456 49.1427 63.8772C49.1427 64.3308 49.495 64.6299 50.0089 64.6299C50.4143 64.6299 50.7545 64.5093 50.9981 64.2656C51.2418 64.0219 51.36 63.701 51.36 63.2909V63.1123H51.3625Z" fill="#9D9C98"/>
<path d="M57.1045 61.1218H55.722V63.7445C55.722 64.2319 55.9633 64.4514 56.5569 64.4514C56.6775 64.4514 56.8416 64.4418 57.0515 64.408V65.4599C56.8102 65.5275 56.5134 65.5709 56.1853 65.5709C55.6255 65.5709 55.1961 65.4382 54.9234 65.1728C54.6484 64.9074 54.506 64.4538 54.506 63.812V61.1242H53.4517V60.0168H54.506V58.3134H55.7245V60.0168H57.107V61.1218H57.1045Z" fill="#9D9C98"/>
<path d="M66.6134 64.6299C65.9643 65.1607 64.9775 65.5154 63.8363 65.5154H61.2788V57.4496H63.8146C64.6711 57.4496 65.4384 57.6378 66.0102 57.9467C66.582 58.2676 67.0645 58.7091 67.383 59.1965C67.8656 59.9372 68.0851 60.7551 68.0851 61.4862C68.1044 62.6032 67.6002 63.8217 66.6134 64.6299ZM65.7568 59.264C65.3057 58.878 64.6036 58.6222 63.7905 58.6222H62.5286V64.3428H63.7808C64.5939 64.3428 65.296 64.0895 65.7472 63.7228C65.9668 63.5346 66.1646 63.3126 66.3287 63.0689C66.6351 62.5719 66.7678 62.0411 66.7678 61.4862C66.7871 60.7334 66.4372 59.86 65.7568 59.264Z" fill="#9D9C98"/>
<path d="M73.0675 62.4392C73.0675 61.6092 72.6622 61.0663 71.8587 61.0663C71.4751 61.0663 71.1663 61.187 70.9371 61.4427C70.7054 61.6961 70.5969 62.029 70.5969 62.4488V65.513H69.3784V57.1263H70.5969V60.7117C70.7609 60.5018 70.9491 60.3353 71.1566 60.2026C71.3762 60.0819 71.5619 59.9927 71.7381 59.9589C71.9021 59.9251 72.0686 59.9034 72.2327 59.9034C72.9034 59.9034 73.4077 60.1037 73.7575 60.5235C74.1098 60.9336 74.2739 61.4741 74.2739 62.1279V65.513H73.0675V62.4392Z" fill="#9D9C98"/>
<path d="M75.6489 58.2338C75.6489 58.0022 75.7358 57.814 75.8902 57.6596C76.0446 57.4931 76.2304 57.4159 76.4499 57.4159C76.6816 57.4159 76.8674 57.4931 77.0218 57.6596C77.1762 57.814 77.2534 58.0022 77.2534 58.2338C77.2534 58.4558 77.1762 58.644 77.0218 58.7984C76.8674 58.9528 76.6816 59.0421 76.4499 59.0421C76.2304 59.0421 76.0446 58.9528 75.8902 58.7984C75.7382 58.644 75.6489 58.4558 75.6489 58.2338ZM75.8468 60.0144H77.0652V65.513H75.8468V60.0144Z" fill="#9D9C98"/>
<path d="M82.3805 62.4392C82.3805 61.6092 81.9751 61.0663 81.1717 61.0663C80.7881 61.0663 80.4792 61.187 80.25 61.4427C80.0184 61.6961 79.9098 62.029 79.9098 62.4488V65.513H78.6914V60.0144H79.8761V60.7551C80.0401 60.5331 80.238 60.357 80.4575 60.2243C80.6771 60.0916 80.8629 60.0023 81.039 59.9589C81.2031 59.9251 81.3792 59.9034 81.5433 59.9034C82.214 59.9034 82.7183 60.1037 83.0681 60.5235C83.4204 60.9336 83.5844 61.4741 83.5844 62.1279V65.513H82.3757V62.4392H82.3805Z" fill="#9D9C98"/>
<path d="M85.5317 64.7072C85.0708 64.1884 84.7861 63.4791 84.7861 62.748C84.7861 62.0628 85.0491 61.3752 85.5003 60.8347C85.9394 60.2919 86.6632 59.9275 87.4763 59.9275C87.7731 59.9275 88.0916 59.9927 88.4414 60.1495C88.7937 60.316 89.0663 60.5355 89.2642 60.8564V60.0144H90.4488V65.4792C90.4488 66.0535 90.3161 66.5408 90.0531 66.9727C89.7901 67.3925 89.4499 67.7255 88.9988 67.9354C88.5596 68.1574 88.0554 68.2684 87.4956 68.2684C86.6729 68.2684 85.9153 68.0247 85.3435 67.4504C85.0588 67.1633 84.8826 66.8086 84.8054 66.4105L85.9467 66.0776C86.0118 66.3768 86.1879 66.6301 86.4726 66.84C86.7573 67.062 87.0758 67.173 87.4498 67.173C88.3497 67.173 89.228 66.6856 89.228 65.5347V64.6275C89.0953 64.8495 88.8998 65.0377 88.6682 65.1801C88.427 65.3248 88.2074 65.4237 87.9975 65.4792C87.7996 65.5227 87.6139 65.5564 87.4377 65.5564C86.685 65.5589 85.9804 65.2259 85.5317 64.7072ZM88.8033 61.5079C88.5066 61.1749 88.1109 61.0205 87.6283 61.0205C87.1458 61.0205 86.7501 61.1749 86.4437 61.5079C86.1469 61.8288 85.9925 62.2389 85.9925 62.7239C85.9925 63.2088 86.1469 63.619 86.4533 63.952C86.7598 64.2946 87.1458 64.4611 87.6283 64.4611C88.1109 64.4611 88.4945 64.2946 88.8033 63.952C89.1001 63.619 89.2545 63.2113 89.2545 62.7239C89.2545 62.2365 89.1001 61.8288 88.8033 61.5079Z" fill="#9D9C98"/>
<path d="M95.0622 61.2545C94.9632 61.2328 94.8547 61.2208 94.722 61.2208C93.8003 61.2208 93.2936 61.7636 93.2936 62.7142V65.513H92.0752V60.0144H93.2719V60.8661C93.5904 60.2798 94.1719 59.971 94.7654 59.971C94.8764 59.971 94.9729 59.983 95.0622 59.9927V61.2545Z" fill="#9D9C98"/>
<path d="M99.0254 65.513C98.9916 65.3586 98.9699 65.1149 98.9699 64.7602C98.7841 65.0691 98.5525 65.2814 98.2678 65.4141C97.971 65.5468 97.6743 65.6143 97.3679 65.6143C96.8419 65.6143 96.3907 65.4599 96.0505 65.1487C95.7103 64.8495 95.5342 64.4635 95.5342 63.9857V63.9303C95.5462 63.1678 95.995 62.7022 96.5885 62.4706C97.0059 62.3041 97.4016 62.2486 97.7973 62.2486H98.4777C98.8179 62.2486 98.982 62.0942 98.982 61.7829C98.982 61.5513 98.8951 61.351 98.7069 61.1846C98.5211 61.0301 98.2557 60.9409 97.9059 60.9409C97.2593 60.9409 96.8081 61.3052 96.7212 61.8601L95.6114 61.6068C95.6452 61.3535 95.7658 61.076 95.9854 60.7768C96.2049 60.4897 96.48 60.2677 96.8419 60.1133C97.1483 59.9685 97.5223 59.9034 97.9517 59.9034C98.9723 59.9034 99.6527 60.2798 99.9929 61.0326C100.114 61.298 100.179 61.6189 100.179 62.0073V64.6299C100.179 64.9943 100.191 65.2935 100.212 65.5154H99.0254V65.513ZM98.9699 63.1123H97.7949C97.5319 63.1123 97.3003 63.1799 97.0807 63.3126C96.8612 63.4574 96.7502 63.6456 96.7502 63.8772C96.7502 64.3308 97.1025 64.6299 97.6164 64.6299C98.0217 64.6299 98.3619 64.5093 98.6056 64.2656C98.8493 64.0219 98.9675 63.701 98.9675 63.2909V63.1123H98.9699Z" fill="#9D9C98"/>
</g>
<defs>
<clipPath id="clip0_131_19">
<rect width="214" height="68.389" fill="white"/>
</clipPath>
</defs>
</svg>
