<svg width="83" height="83" viewBox="0 0 83 83" fill="none" xmlns="http://www.w3.org/2000/svg">
<g filter="url(#filter0_d_188_1072)">
<circle cx="41.2816" cy="37.2816" r="37.2816" fill="url(#paint0_linear_188_1072)"/>
</g>
<g clip-path="url(#clip0_188_1072)">
<path fill-rule="evenodd" clip-rule="evenodd" d="M41.4903 46.0004C41.2136 46.0004 40.9567 45.8571 40.8134 45.6237C40.2965 44.8 39.5996 43.7629 38.7926 42.5658C35.5447 37.7438 31.0962 31.1445 31.0962 27.3962C31.0962 21.6639 35.7581 17.002 41.4904 17.002C47.2227 17.002 51.8846 21.6639 51.8846 27.3962C51.8846 31.1444 47.4362 37.7471 44.1882 42.5658C43.3812 43.7629 42.6843 44.8 42.1674 45.6237C42.0237 45.8604 41.7671 46.0004 41.4903 46.0004ZM41.4903 18.6026C36.6416 18.6026 32.6968 22.5476 32.6968 27.3962C32.6968 30.6542 37.162 37.2836 40.1198 41.672C40.6233 42.4224 41.0869 43.1059 41.4903 43.7229C41.8938 43.1059 42.3574 42.4224 42.8609 41.672C45.8155 37.2836 50.2806 30.6541 50.2806 27.3962C50.2839 22.5475 46.3389 18.6026 41.4903 18.6026Z" fill="white"/>
<path fill-rule="evenodd" clip-rule="evenodd" d="M41.4904 32.9517C38.3558 32.9517 35.8081 30.4006 35.8081 27.2693C35.8081 24.1346 38.3591 21.5869 41.4904 21.5869C44.6251 21.5869 47.1729 24.138 47.1729 27.2693C47.1728 30.4006 44.6251 32.9517 41.4904 32.9517ZM41.4904 23.1844C39.2396 23.1844 37.4088 25.0151 37.4088 27.266C37.4088 29.517 39.2396 31.3478 41.4904 31.3478C43.7414 31.3478 45.5722 29.517 45.5722 27.266C45.5721 25.0151 43.7414 23.1844 41.4904 23.1844Z" fill="white"/>
<path fill-rule="evenodd" clip-rule="evenodd" d="M35.5713 57.9787C35.4879 57.9787 35.4012 57.9653 35.3178 57.9387L23.4829 53.9904C23.1561 53.8803 22.936 53.5769 22.936 53.2301V30.2206C22.936 29.9638 23.0594 29.7204 23.2695 29.5704C23.4795 29.4203 23.7464 29.3803 23.9898 29.4603L34.4041 32.9318C34.5976 32.9951 34.7576 33.1319 34.8543 33.3085C35.2578 34.0521 35.728 34.8692 36.2582 35.7362C36.3349 35.8628 36.3749 36.0063 36.3749 36.153V57.1782C36.3749 57.4351 36.2515 57.6784 36.0415 57.8285C35.9014 57.9253 35.7379 57.9787 35.5713 57.9787ZM24.5367 52.6565L34.7709 56.0679L34.7708 36.3765C34.334 35.6561 33.9506 34.9892 33.597 34.3523L24.5367 31.3278V52.6565Z" fill="white"/>
<path fill-rule="evenodd" clip-rule="evenodd" d="M35.5714 57.9783C35.4047 57.9783 35.2413 57.9249 35.1045 57.8283C34.8946 57.6781 34.7711 57.4347 34.7711 57.178L34.771 36.1527C34.771 35.7926 35.0112 35.4791 35.3547 35.3824C35.7014 35.2857 36.0683 35.4324 36.255 35.7359C37.5156 37.8101 38.8995 39.8609 40.1167 41.6717C40.6202 42.422 41.0838 43.1089 41.4872 43.7225C41.8907 43.1089 42.3543 42.422 42.8578 41.6717C44.0783 39.8609 45.4589 37.8101 46.7194 35.7359C46.9061 35.4291 47.2729 35.2857 47.6198 35.3824C47.9665 35.4791 48.2035 35.7926 48.2035 36.1527V53.233C48.2035 53.5765 47.9833 53.8833 47.6565 53.9933L35.8217 57.9383C35.7414 57.965 35.6581 57.9783 35.5714 57.9783ZM36.3717 38.9271V56.0674L46.606 52.656V38.9271C45.7823 40.201 44.9519 41.4315 44.1883 42.5686C43.3813 43.7657 42.6844 44.8029 42.1675 45.6266C42.0207 45.86 41.7641 46.0033 41.4872 46.0033C41.2105 46.0033 40.9536 45.86 40.8103 45.6266C40.2934 44.7996 39.5965 43.7657 38.7895 42.5686C38.0258 41.4315 37.1987 40.201 36.3717 38.9271Z" fill="white"/>
<path fill-rule="evenodd" clip-rule="evenodd" d="M59.2445 57.9785C59.1611 57.9785 59.0745 57.9651 58.9912 57.9385L47.1564 53.9935C46.8295 53.8835 46.6095 53.58 46.6095 53.2332L46.6094 36.1529C46.6094 36.0061 46.6494 35.8627 46.7261 35.7361C47.9066 33.7919 48.7703 32.1779 49.3638 30.8007C49.5272 30.4172 49.9573 30.2271 50.3509 30.3572L59.498 33.4051C59.8248 33.5151 60.0449 33.8186 60.0449 34.1653V57.1781C60.0449 57.435 59.9215 57.6783 59.7114 57.8284C59.5746 57.925 59.4113 57.9785 59.2445 57.9785ZM48.21 52.6563L58.4443 56.0677L58.4442 34.7423L50.5309 32.1046C49.954 33.3451 49.1871 34.7523 48.21 36.3763V52.6563Z" fill="white"/>
</g>
<defs>
<filter id="filter0_d_188_1072" x="0" y="0" width="82.563" height="82.5635" filterUnits="userSpaceOnUse" color-interpolation-filters="sRGB">
<feFlood flood-opacity="0" result="BackgroundImageFix"/>
<feColorMatrix in="SourceAlpha" type="matrix" values="0 0 0 0 0 0 0 0 0 0 0 0 0 0 0 0 0 0 127 0" result="hardAlpha"/>
<feOffset dy="4"/>
<feGaussianBlur stdDeviation="2"/>
<feComposite in2="hardAlpha" operator="out"/>
<feColorMatrix type="matrix" values="0 0 0 0 0 0 0 0 0 0 0 0 0 0 0 0 0 0 0.25 0"/>
<feBlend mode="normal" in2="BackgroundImageFix" result="effect1_dropShadow_188_1072"/>
<feBlend mode="normal" in="SourceGraphic" in2="effect1_dropShadow_188_1072" result="shape"/>
</filter>
<linearGradient id="paint0_linear_188_1072" x1="41.2816" y1="0" x2="41.2816" y2="74.5632" gradientUnits="userSpaceOnUse">
<stop stop-color="#91A3CC"/>
<stop offset="1" stop-color="#2A4480"/>
</linearGradient>
<clipPath id="clip0_188_1072">
<rect width="40.9804" height="40.9804" fill="white" transform="translate(21 17)"/>
</clipPath>
</defs>
</svg>
