<svg width="83" height="83" viewBox="0 0 83 83" fill="none" xmlns="http://www.w3.org/2000/svg">
<g filter="url(#filter0_d_188_1069)">
<circle cx="41.2816" cy="37.2816" r="37.2816" fill="url(#paint0_linear_188_1069)"/>
</g>
<path d="M25.7684 39.7405C25.424 39.9021 25.2721 40.3088 25.4256 40.6565L26.9984 44.033C27.0757 44.2011 27.2167 44.332 27.3901 44.3966C27.466 44.4242 27.5466 44.4384 27.6276 44.4384C27.729 44.4393 27.829 44.4176 27.9212 44.3758L39.8051 38.8251L38.7287 50.0796C38.7079 50.3012 38.7933 50.519 38.959 50.667C39.48 51.0982 40.1293 51.3438 40.8049 51.366C40.9912 51.3657 41.1764 51.3423 41.357 51.2963C42.3217 51.0446 43.0698 50.1849 43.5801 48.7167L48.2567 34.8686L57.5189 30.5481C60.2453 29.276 61.6503 26.6966 60.7068 24.6832C60.1713 23.6309 59.1457 22.9151 57.9734 22.7747C56.6709 22.5782 55.3397 22.7831 54.1566 23.3623L43.468 28.3743L31.9759 23.8794C30.5286 23.3343 29.3824 23.3483 28.5786 23.9286C27.9041 24.4821 27.5203 25.3139 27.5368 26.1863C27.5438 26.4076 27.6552 26.6123 27.8373 26.7388L35.5757 32.0584L31.144 34.1556L23.7128 32.2679C23.4083 32.1931 23.0913 32.3303 22.9369 32.6035L21.0847 35.9378C20.9886 36.1145 20.9735 36.3242 21.0433 36.5129C21.1127 36.7018 21.2603 36.8513 21.4483 36.9236L26.9498 39.1957L25.7684 39.7405ZM28.9695 25.8369C29.0107 25.5414 29.1602 25.2723 29.3892 25.0819C29.7878 24.7951 30.5149 24.8371 31.4864 25.2005L41.7206 29.1922L37.0507 31.3732L28.9695 25.8369ZM22.6784 35.931L23.8947 33.771L31.0459 35.5464C31.2001 35.5853 31.3627 35.5707 31.5076 35.5048L54.751 24.6484C55.675 24.1926 56.7157 24.0267 57.7359 24.1729C58.4513 24.2388 59.0886 24.6517 59.4417 25.2774C60.0283 26.5359 58.8751 28.3743 56.9246 29.283L48.8716 33.0582L49.3611 31.6108C49.4848 31.2384 49.2828 30.836 48.9104 30.7126C48.5376 30.5891 48.1354 30.7911 48.012 31.1635L42.2587 48.283C41.9161 49.255 41.4896 49.8353 41.0144 49.9607C40.7199 50.0174 40.4152 49.9597 40.1615 49.8003L41.5597 35.1199C41.5963 34.734 41.3132 34.3914 40.9268 34.3548C40.5409 34.3178 40.1983 34.6013 40.1615 34.9873L39.945 37.2311L27.949 42.8235L26.9639 40.7263L28.9347 39.8038C29.1885 39.6919 29.352 39.4411 29.352 39.1641C29.352 38.887 29.1885 38.6361 28.9347 38.5245L22.6784 35.931Z" fill="white"/>
<defs>
<filter id="filter0_d_188_1069" x="0" y="0" width="82.563" height="82.5635" filterUnits="userSpaceOnUse" color-interpolation-filters="sRGB">
<feFlood flood-opacity="0" result="BackgroundImageFix"/>
<feColorMatrix in="SourceAlpha" type="matrix" values="0 0 0 0 0 0 0 0 0 0 0 0 0 0 0 0 0 0 127 0" result="hardAlpha"/>
<feOffset dy="4"/>
<feGaussianBlur stdDeviation="2"/>
<feComposite in2="hardAlpha" operator="out"/>
<feColorMatrix type="matrix" values="0 0 0 0 0 0 0 0 0 0 0 0 0 0 0 0 0 0 0.25 0"/>
<feBlend mode="normal" in2="BackgroundImageFix" result="effect1_dropShadow_188_1069"/>
<feBlend mode="normal" in="SourceGraphic" in2="effect1_dropShadow_188_1069" result="shape"/>
</filter>
<linearGradient id="paint0_linear_188_1069" x1="41.2816" y1="0" x2="41.2816" y2="74.5632" gradientUnits="userSpaceOnUse">
<stop stop-color="#91A3CC"/>
<stop offset="1" stop-color="#2A4480"/>
</linearGradient>
</defs>
</svg>
