<svg width="120" height="120" viewBox="0 0 120 120" fill="none" xmlns="http://www.w3.org/2000/svg">
<g filter="url(#filter0_d_4007_6)">
<circle cx="59.5412" cy="55.8596" r="55.5412" fill="url(#paint0_linear_4007_6)"/>
</g>
<path d="M69.9668 75.7727H48.4435C48.0191 75.7727 47.6777 75.4313 47.6777 75.0069C47.6777 74.5826 48.0191 74.2412 48.4435 74.2412H69.9699C70.3943 74.2412 70.7357 74.5826 70.7357 75.0069C70.7357 75.4313 70.3911 75.7727 69.9668 75.7727Z" fill="white"/>
<path d="M79.1143 75.7732H77.9848C77.5605 75.7732 77.2191 75.4319 77.2191 75.0075C77.2191 74.5832 77.5605 74.2418 77.9848 74.2418H79.1143C80.8021 74.2418 82.1772 72.8667 82.1772 71.1789V69.0189C82.1772 67.6119 81.2232 66.3899 79.8609 66.0485L74.705 64.7532C73.901 64.5522 73.1639 64.1342 72.5769 63.5472L66.0491 57.0193C65.478 56.4482 64.6899 56.1228 63.8827 56.1228H45.5212C44.7044 56.1228 43.9323 56.4418 43.3549 57.0193L37.1301 63.2377C36.5527 63.8183 36.2336 64.5873 36.2336 65.404V71.1789C36.2336 72.8667 37.6087 74.2418 39.2965 74.2418H40.426C40.8503 74.2418 41.1917 74.5832 41.1917 75.0075C41.1917 75.4319 40.8503 75.7732 40.426 75.7732H39.2965C36.7632 75.7732 34.7021 73.7122 34.7021 71.1789V65.404C34.7021 64.1757 35.1807 63.0239 36.0486 62.1561L42.2733 55.9314C43.1411 55.0635 44.2961 54.585 45.5212 54.585H63.8827C65.1111 54.585 66.2628 55.0635 67.1307 55.9314L73.6585 62.4592C74.0509 62.8516 74.5423 63.1292 75.0783 63.2632L80.2341 64.5585C82.2793 65.0722 83.7086 66.9036 83.7086 69.0157V71.1789C83.7086 73.7122 81.6476 75.7732 79.1143 75.7732Z" fill="white"/>
<path d="M68.8823 66.0389H40.5185C39.9474 66.0389 39.4401 65.6975 39.22 65.1711C39.003 64.6446 39.1211 64.0448 39.5231 63.6428L44.4716 58.6943C44.8576 58.3082 45.3713 58.0977 45.9169 58.0977H63.4839C64.0295 58.0977 64.5432 58.3114 64.9292 58.6943L69.8777 63.6428C70.2797 64.0448 70.401 64.6446 70.1808 65.1711C69.9607 65.6975 69.4534 66.0389 68.8823 66.0389ZM40.8248 64.5074H68.5728L63.8445 59.7759C63.7487 59.6802 63.6211 59.6259 63.4839 59.6259H45.9169C45.7797 59.6259 45.6521 59.6802 45.5564 59.7759L40.8248 64.5074Z" fill="white"/>
<path d="M48.7374 66.0391C48.3131 66.0391 47.9717 65.6978 47.9717 65.2734V58.8605C47.9717 58.4361 48.3131 58.0947 48.7374 58.0947C49.1617 58.0947 49.5031 58.4361 49.5031 58.8605V65.2702C49.5031 65.6946 49.1586 66.0391 48.7374 66.0391Z" fill="white"/>
<path d="M55.5587 66.0391C55.1344 66.0391 54.793 65.6978 54.793 65.2734V58.8605C54.793 58.4361 55.1344 58.0947 55.5587 58.0947C55.983 58.0947 56.3244 58.4361 56.3244 58.8605V65.2702C56.3244 65.6946 55.983 66.0391 55.5587 66.0391Z" fill="white"/>
<path d="M44.4332 79.7834C41.801 79.7834 39.6602 77.6425 39.6602 75.0103C39.6602 72.3782 41.801 70.2373 44.4332 70.2373C47.0654 70.2373 49.2062 72.3782 49.2062 75.0103C49.2062 77.6425 47.0654 79.7834 44.4332 79.7834ZM44.4332 71.7656C42.6465 71.7656 41.1916 73.2204 41.1916 75.0071C41.1916 76.7938 42.6465 78.2487 44.4332 78.2487C46.2199 78.2487 47.6748 76.7938 47.6748 75.0071C47.6779 73.2204 46.2231 71.7656 44.4332 71.7656Z" fill="white"/>
<path d="M44.4334 77.1129C43.272 77.1129 42.3276 76.1685 42.3276 75.0071C42.3276 73.8458 43.272 72.9014 44.4334 72.9014C45.5947 72.9014 46.5391 73.8458 46.5391 75.0071C46.5391 76.1685 45.5947 77.1129 44.4334 77.1129ZM44.4334 74.4328C44.1175 74.4328 43.8591 74.6913 43.8591 75.0071C43.8591 75.323 44.1175 75.5814 44.4334 75.5814C44.7492 75.5814 45.0077 75.323 45.0077 75.0071C45.0077 74.6913 44.7524 74.4328 44.4334 74.4328Z" fill="white"/>
<path d="M73.9776 79.7834C71.3454 79.7834 69.2046 77.6425 69.2046 75.0103C69.2046 72.3782 71.3454 70.2373 73.9776 70.2373C76.6098 70.2373 78.7506 72.3782 78.7506 75.0103C78.7506 77.6425 76.6098 79.7834 73.9776 79.7834ZM73.9776 71.7656C72.1909 71.7656 70.736 73.2204 70.736 75.0071C70.736 76.7938 72.1909 78.2487 73.9776 78.2487C75.7643 78.2487 77.2192 76.7938 77.2192 75.0071C77.2192 73.2204 75.7643 71.7656 73.9776 71.7656Z" fill="white"/>
<path d="M73.9773 77.1129C72.816 77.1129 71.8716 76.1685 71.8716 75.0071C71.8716 73.8458 72.816 72.9014 73.9773 72.9014C75.1387 72.9014 76.0831 73.8458 76.0831 75.0071C76.0831 76.1685 75.1387 77.1129 73.9773 77.1129ZM73.9773 74.4328C73.6615 74.4328 73.403 74.6913 73.403 75.0071C73.403 75.323 73.6615 75.5814 73.9773 75.5814C74.2932 75.5814 74.5516 75.323 74.5516 75.0071C74.5516 74.6913 74.2932 74.4328 73.9773 74.4328Z" fill="white"/>
<path d="M82.943 70.7541H80.5597C80.1353 70.7541 79.7939 70.4127 79.7939 69.9884C79.7939 69.564 80.1353 69.2227 80.5597 69.2227H82.943C83.3673 69.2227 83.7087 69.564 83.7087 69.9884C83.7087 70.4127 83.3673 70.7541 82.943 70.7541Z" fill="white"/>
<path d="M50.521 70.1006H52.4513V72.0309H50.521V70.1006Z" fill="white"/>
<path d="M52.4512 68.1699H54.3814V70.1002H52.4512V68.1699Z" fill="white"/>
<path d="M54.3818 70.1006H56.3121V72.0309H54.3818V70.1006Z" fill="white"/>
<path d="M56.312 68.1699H58.2423V70.1002H56.312V68.1699Z" fill="white"/>
<path d="M58.2422 70.1006H60.1725V72.0309H58.2422V70.1006Z" fill="white"/>
<path d="M60.1689 68.1699H62.0992V70.1002H60.1689V68.1699Z" fill="white"/>
<path d="M62.0996 70.1006H64.0299V72.0309H62.0996V70.1006Z" fill="white"/>
<path d="M64.0298 68.1699H65.9601V70.1002H64.0298V68.1699Z" fill="white"/>
<path d="M65.96 70.1006H67.8902V72.0309H65.96V70.1006Z" fill="white"/>
<path d="M58.0313 56.1161H51.3694C51.127 56.1161 50.8972 56.0013 50.7537 55.8066C50.6101 55.612 50.5654 55.36 50.6388 55.127L51.3184 52.9128C51.5832 52.0514 52.3681 51.4707 53.271 51.4707H56.1329C57.0358 51.4707 57.8207 52.0514 58.0855 52.9128L58.7651 55.127C58.8353 55.36 58.7938 55.612 58.6502 55.8066C58.5035 56.0013 58.2737 56.1161 58.0313 56.1161ZM52.4064 54.5847H56.9943L56.6179 53.3595C56.5509 53.1425 56.3562 52.999 56.1297 52.999H53.271C53.0445 52.999 52.8498 53.1425 52.7828 53.3595L52.4064 54.5847Z" fill="white"/>
<path d="M79.1842 48.472H71.1122C70.6879 48.472 70.3465 48.1306 70.3465 47.7063C70.3465 47.282 70.6879 46.9406 71.1122 46.9406H79.1842C79.8351 46.9406 80.4477 46.6885 80.9071 46.2259L81.0284 46.1047C81.2549 45.8781 81.4336 45.6101 81.5548 45.3134C81.6792 45.0167 81.7398 44.704 81.7398 44.3818C81.7398 43.8234 81.5452 43.2747 81.1911 42.8407C81.14 42.7769 81.0826 42.7163 81.0252 42.6589L78.1824 39.8161C77.723 39.3567 77.1104 39.1015 76.4595 39.1015H53.7206C53.3633 39.1015 53.057 38.8558 52.9741 38.508L52.5178 36.5395C52.2562 35.41 51.5256 34.4369 50.5174 33.869L49.5761 33.3394V40.2596C49.573 43.9415 52.5721 46.9406 56.2539 46.9406H65.4203C65.8446 46.9406 66.186 47.282 66.186 47.7063C66.186 48.1306 65.8446 48.472 65.4203 48.472H56.2539C54.0588 48.472 51.9978 47.617 50.4472 46.0664C48.8966 44.5158 48.0415 42.4515 48.0415 40.2596V32.0281C48.0415 31.7569 48.1851 31.5048 48.4212 31.3676C48.6573 31.2304 48.9476 31.2272 49.1837 31.3612L51.2671 32.5353C52.6486 33.3138 53.6504 34.6475 54.0078 36.1917L54.33 37.5732H76.4627C77.522 37.5732 78.5174 37.9848 79.2672 38.7345L82.11 41.5773C82.2025 41.6698 82.295 41.7719 82.378 41.874C82.9554 42.5791 83.2713 43.4693 83.2713 44.3818C83.2713 44.905 83.1692 45.4155 82.9682 45.9005C82.7672 46.3854 82.4801 46.8161 82.11 47.1862L81.9887 47.3075C81.2389 48.0573 80.2435 48.472 79.1842 48.472Z" fill="white"/>
<path d="M63.6241 51.7994C63.3529 51.7994 63.104 51.6591 62.9668 51.4262C62.8296 51.1932 62.8233 50.9061 62.9509 50.67L65.9659 45.0866C66.0999 44.8377 66.3584 44.6846 66.6391 44.6846H72.5576C72.8096 44.6846 73.0489 44.809 73.1893 45.0196C73.3297 45.2302 73.3616 45.495 73.269 45.7311C73.2435 45.7949 72.6437 47.2912 71.1569 48.7844C70.2827 49.6618 69.2809 50.3605 68.177 50.8614C66.8018 51.4804 65.2704 51.7994 63.6241 51.7994ZM67.0954 46.2128L64.9513 50.185C66.9582 49.9362 68.6779 49.1003 70.0753 47.6996C70.6018 47.1732 70.9942 46.6467 71.275 46.2128H67.0954Z" fill="white"/>
<path d="M81.7845 43.1243H75.2375C73.9486 43.1243 72.733 42.6298 71.8077 41.7365C70.8857 40.8431 70.3528 39.6467 70.3082 38.3641C70.2922 37.9429 70.624 37.5856 71.0452 37.5728C71.4663 37.5569 71.8237 37.8887 71.8364 38.3098C71.9002 40.1508 73.3966 41.5929 75.2375 41.5929H81.7845C82.2088 41.5929 82.5502 41.9343 82.5502 42.3586C82.5502 42.7829 82.2088 43.1243 81.7845 43.1243Z" fill="white"/>
<path d="M68.6459 41.8899H67.0475C66.6231 41.8899 66.2817 41.5485 66.2817 41.1241C66.2817 40.6998 66.6231 40.3584 67.0475 40.3584H68.6459C69.0703 40.3584 69.4116 40.6998 69.4116 41.1241C69.4116 41.5485 69.0703 41.8899 68.6459 41.8899Z" fill="white"/>
<path d="M64.3676 41.8899H62.7691C62.3448 41.8899 62.0034 41.5485 62.0034 41.1241C62.0034 40.6998 62.3448 40.3584 62.7691 40.3584H64.3676C64.7919 40.3584 65.1333 40.6998 65.1333 41.1241C65.1333 41.5485 64.7919 41.8899 64.3676 41.8899Z" fill="white"/>
<path d="M60.0888 41.8899H58.4903C58.066 41.8899 57.7246 41.5485 57.7246 41.1241C57.7246 40.6998 58.066 40.3584 58.4903 40.3584H60.0888C60.5131 40.3584 60.8545 40.6998 60.8545 41.1241C60.8545 41.5485 60.5099 41.8899 60.0888 41.8899Z" fill="white"/>
<path d="M55.8105 41.8899H54.212C53.7877 41.8899 53.4463 41.5485 53.4463 41.1241C53.4463 40.6998 53.7877 40.3584 54.212 40.3584H55.8105C56.2348 40.3584 56.5762 40.6998 56.5762 41.1241C56.5762 41.5485 56.2316 41.8899 55.8105 41.8899Z" fill="white"/>
<path d="M45.368 39.2639H35.9049C35.4805 39.2639 35.1392 38.9225 35.1392 38.4981C35.1392 38.0738 35.4805 37.7324 35.9049 37.7324H45.368C45.7923 37.7324 46.1337 38.0738 46.1337 38.4981C46.1337 38.9225 45.7923 39.2639 45.368 39.2639Z" fill="white"/>
<path d="M45.3678 42.2951H39.1207C38.6964 42.2951 38.355 41.9537 38.355 41.5294C38.355 41.1051 38.6964 40.7637 39.1207 40.7637H45.3678C45.7921 40.7637 46.1335 41.1051 46.1335 41.5294C46.1335 41.9537 45.7921 42.2951 45.3678 42.2951Z" fill="white"/>
<path d="M45.368 45.3293H35.9049C35.4805 45.3293 35.1392 44.9879 35.1392 44.5636C35.1392 44.1392 35.4805 43.7979 35.9049 43.7979H45.368C45.7923 43.7979 46.1337 44.1392 46.1337 44.5636C46.1337 44.9879 45.7923 45.3293 45.368 45.3293Z" fill="white"/>
<defs>
<filter id="filter0_d_4007_6" x="0" y="0.318359" width="119.083" height="119.082" filterUnits="userSpaceOnUse" color-interpolation-filters="sRGB">
<feFlood flood-opacity="0" result="BackgroundImageFix"/>
<feColorMatrix in="SourceAlpha" type="matrix" values="0 0 0 0 0 0 0 0 0 0 0 0 0 0 0 0 0 0 127 0" result="hardAlpha"/>
<feOffset dy="4"/>
<feGaussianBlur stdDeviation="2"/>
<feComposite in2="hardAlpha" operator="out"/>
<feColorMatrix type="matrix" values="0 0 0 0 0 0 0 0 0 0 0 0 0 0 0 0 0 0 0.25 0"/>
<feBlend mode="normal" in2="BackgroundImageFix" result="effect1_dropShadow_4007_6"/>
<feBlend mode="normal" in="SourceGraphic" in2="effect1_dropShadow_4007_6" result="shape"/>
</filter>
<linearGradient id="paint0_linear_4007_6" x1="59.5412" y1="0.318359" x2="59.5412" y2="111.401" gradientUnits="userSpaceOnUse">
<stop stop-color="#91A3CC"/>
<stop offset="1" stop-color="#2A4480"/>
</linearGradient>
</defs>
</svg>
