<svg width="386" height="74" viewBox="0 0 386 74" fill="none" xmlns="http://www.w3.org/2000/svg">
<g clip-path="url(#clip0_3001_2)">
<path d="M128.523 37.4542V20.2489H131.206H133.889V21.3862C133.889 22.0117 133.898 22.5235 133.91 22.5235C133.922 22.5235 134.26 22.3173 134.663 22.0654C139.408 19.093 146.307 18.1979 152.494 19.7518C158.068 21.1517 162.109 24.475 163.546 28.8406C164.385 31.3917 164.339 34.2288 163.418 36.696C162.271 39.7652 159.915 42.2328 156.517 43.9232C153.543 45.4025 150.148 46.1432 146.341 46.1432C143.185 46.1432 140.242 45.617 137.651 44.5896C136.623 44.1819 135.305 43.5127 134.505 42.9923L133.889 42.591V48.6253V54.6596H131.206H128.523V37.4542ZM148.936 41.5691C151.954 41.141 154.296 40.1835 156.052 38.6594C157.381 37.5058 158.306 35.9036 158.657 34.1496C158.8 33.4323 158.801 31.7382 158.658 31.0229C158.246 28.9588 157.063 27.1557 155.292 25.8912C154.578 25.3816 153.128 24.6554 152.203 24.3441C149.59 23.4651 146.421 23.2048 143.519 23.6307C138.481 24.3702 135.075 26.8691 134.162 30.4972C133.758 32.098 133.83 33.8261 134.363 35.3364C135.573 38.7672 139.141 41.0502 144.184 41.62C145.197 41.7345 147.981 41.7047 148.937 41.5691H148.936ZM166.725 37.4542V20.2489H169.408H172.091V21.3862C172.091 22.0117 172.102 22.5235 172.116 22.5235C172.131 22.5235 172.426 22.3386 172.773 22.1126C173.575 21.5897 175.158 20.8077 176.173 20.433C180.556 18.8153 185.907 18.5545 190.589 19.7301C198.223 21.6466 202.718 26.8971 202.294 33.4008C201.97 38.3653 198.666 42.4432 193.233 44.5861C191.46 45.2851 189.644 45.726 187.371 46.0088C186.171 46.158 182.937 46.1578 181.685 46.0085C178.14 45.5856 175.027 44.5329 172.601 42.9361L172.091 42.6003V48.63V54.6597H169.408H166.725V37.4542ZM187.268 41.5438C191.448 40.9196 194.393 39.2356 195.941 36.5854C196.84 35.0461 197.177 32.9983 196.843 31.097C196.15 27.145 192.677 24.4104 187.36 23.63C183.85 23.1149 179.888 23.6279 177.194 24.9463C174.444 26.292 172.789 28.3014 172.224 30.9804C172.076 31.6836 172.076 33.4915 172.226 34.1808C172.626 36.0364 173.53 37.5716 174.903 38.7255C176.792 40.3142 179.252 41.2602 182.444 41.6259C183.499 41.7469 186.219 41.7006 187.268 41.5438H187.268ZM106.36 46.1077C103.514 45.8563 101.085 45.2956 99.0187 44.4132C94.32 42.4062 91.3522 39.0189 90.5468 34.7436C90.393 33.9271 90.3343 32.0875 90.4341 31.2084C91.0157 26.0827 94.7915 22.0228 100.761 20.1043C103.938 19.0834 107.848 18.7499 111.358 19.2005C117.789 20.0262 122.653 23.0081 124.791 27.4351C126.532 31.0396 126.311 35.4181 124.218 38.7842C123.276 40.3006 121.724 41.8654 120.125 42.9121C117.636 44.5403 114.665 45.5533 111.055 46.0034C110.332 46.0936 107.031 46.1669 106.36 46.1077ZM110.166 41.6254C112.965 41.3284 115.32 40.5293 117.092 39.2753C118.54 38.2502 119.686 36.7394 120.2 35.1773C120.501 34.2629 120.561 33.8336 120.561 32.5843C120.561 31.3385 120.502 30.9128 120.204 29.9978C119.222 26.9905 116.35 24.7535 112.338 23.8704C108.821 23.0961 104.718 23.3652 101.679 24.5697C99.4862 25.4386 97.7554 26.8452 96.7404 28.5831C95.6611 30.4311 95.4162 32.9482 96.1048 35.1174C96.8466 37.4546 98.8009 39.4107 101.49 40.5078C102.955 41.1054 104.769 41.5217 106.564 41.6726C107.253 41.7305 109.447 41.7018 110.166 41.6254ZM220.849 46.1097C220.737 46.0969 220.343 46.0578 219.974 46.0229C217.012 45.7422 213.898 44.8068 211.615 43.5121C208.529 41.7617 206.38 39.2739 205.398 36.3169C204.734 34.3157 204.621 32.0668 205.08 29.9977C205.774 26.8691 207.678 24.2124 210.636 22.2476C214.536 19.6564 220.27 18.5056 225.806 19.2031C230.406 19.7826 234.195 21.4647 236.831 24.0974C238.839 26.1024 239.994 28.4517 240.327 31.2121C240.414 31.9295 240.401 33.3802 240.3 34.1414C239.576 39.6229 235.231 43.8124 228.577 45.4445C226.559 45.9394 225.292 46.0892 222.919 46.1137C221.893 46.1242 220.961 46.1225 220.849 46.1097ZM224.377 41.6527C227.92 41.3268 230.808 40.1592 232.662 38.3031C233.917 37.0464 234.645 35.6629 234.932 33.991C235.051 33.3019 235.049 31.8657 234.929 31.151C234.283 27.3038 230.891 24.5151 225.865 23.6991C224.658 23.5032 223.855 23.4393 222.599 23.4393C216.963 23.4393 212.59 25.5642 210.909 29.12C210.407 30.1799 210.176 31.2736 210.176 32.5843C210.176 34.3137 210.579 35.6852 211.489 37.0519C213.159 39.5609 216.327 41.1638 220.519 41.6215C221.384 41.7159 223.504 41.7331 224.377 41.6527Z" fill="#006B33"/>
</g>
<path fill-rule="evenodd" clip-rule="evenodd" d="M358.534 32.9127C359.679 32.6917 367.617 32.9127 369.445 32.9127C371.216 32.7824 372.995 32.8498 374.75 33.1137C382.487 35.1232 382.427 47.1803 374.047 48.6874C372.801 48.9085 365.004 48.6874 363.115 48.6874C361.344 48.8059 359.565 48.7318 357.81 48.4664C356.752 48.155 355.77 47.6294 354.924 46.9223C354.079 46.2151 353.387 45.3415 352.893 44.3558C352.4 43.37 352.114 42.2933 352.054 41.1924C351.994 40.0915 352.161 38.9901 352.545 37.9566C352.987 36.6399 353.784 35.4707 354.848 34.5773C355.911 33.684 357.2 33.101 358.574 32.8926L358.534 32.9127ZM385.28 42.2771C385.552 40.1557 385.292 38.0002 384.524 36.0042C383.756 34.0083 382.503 32.2347 380.879 30.8429C379.34 29.5374 377.505 28.6269 375.534 28.1903C372.989 27.8675 370.419 27.78 367.858 27.9291H359.82C357.585 27.8771 355.379 28.4477 353.449 29.5769C351.683 30.6481 350.195 32.1212 349.105 33.8764C348.015 35.6316 347.356 37.6192 347.18 39.6775C347.003 41.7357 347.315 43.8066 348.091 45.7214C348.866 47.6363 350.082 49.341 351.641 50.697C355.66 54.1332 359.558 53.6309 364.642 53.6309H372.681C375.825 53.674 378.87 52.5285 381.206 50.4234C383.542 48.3183 384.997 45.4089 385.28 42.2771ZM309.602 31.4056C310.112 32.5939 310.788 33.7036 311.611 34.7012L317.941 43.9852C319.107 45.8138 320.714 48.4463 322.081 50.1946C322.829 51.3222 323.853 52.2394 325.056 52.8586C326.259 53.4777 327.601 53.7782 328.953 53.7313C330.249 53.62 331.498 53.1962 332.593 52.4962C333.689 51.7962 334.598 50.8409 335.243 49.7123C336.61 47.7028 337.996 45.6933 339.443 43.523L346.838 32.5711C347.164 32.1499 347.354 31.64 347.383 31.1086C347.413 30.5773 347.281 30.0493 347.005 29.5945C346.728 29.1397 346.321 28.7793 345.835 28.5609C345.35 28.3425 344.81 28.2764 344.286 28.3712C343.692 28.5856 343.15 28.9216 342.693 29.3576C342.236 29.7935 341.875 30.3199 341.633 30.9032L337.434 37.1327C336.047 39.1422 334.64 41.2924 333.234 43.322C332.51 44.367 331.867 45.3315 331.224 46.4167C330.581 47.5018 329.697 48.8281 328.109 48.4262C326.971 47.8694 326.056 46.9408 325.517 45.7937L323.508 42.6991C322.101 40.6895 320.755 38.68 319.288 36.5097C317.821 34.3395 316.555 32.4907 315.088 30.3204C314.854 29.6779 314.413 29.1316 313.835 28.7676C313.256 28.4037 312.573 28.243 311.893 28.3109C311.534 28.3517 311.187 28.466 310.874 28.6465C310.562 28.827 310.289 29.07 310.074 29.3602C309.86 29.6505 309.707 29.9819 309.625 30.3337C309.544 30.6856 309.536 31.0504 309.602 31.4056ZM260.429 31.3453C260.917 32.5446 261.596 33.6574 262.438 34.6409L270.858 47.0195C272.868 50.1544 274.877 53.8921 279.76 53.7313C284.181 53.5706 286.01 49.8731 288.261 46.5373L294.591 37.2533C295.254 36.2485 295.977 35.2437 296.701 34.1586C297.653 33.2008 298.224 31.9295 298.308 30.5817C298.259 30.2322 298.141 29.8961 297.96 29.5934C297.779 29.2907 297.538 29.0274 297.253 28.8193C296.969 28.6113 296.645 28.4626 296.301 28.3822C295.958 28.3017 295.601 28.2911 295.254 28.3511C294.651 28.5422 294.099 28.8649 293.637 29.2959C293.174 29.7269 292.814 30.2553 292.581 30.8429C291.114 32.9931 289.808 34.882 288.361 37.1327C286.914 39.3834 285.588 41.1517 284.141 43.1613C283.398 44.2263 282.775 45.1708 282.132 46.2559C281.894 46.876 281.476 47.4105 280.932 47.7903C280.387 48.17 279.741 48.3776 279.077 48.386C277.893 47.8737 276.946 46.9337 276.425 45.7535C272.948 40.79 269.331 35.3442 265.895 30.2601C265.656 29.6252 265.217 29.0854 264.644 28.7227C264.071 28.36 263.395 28.1942 262.72 28.2506C262.361 28.2914 262.014 28.4057 261.701 28.5862C261.389 28.7667 261.116 29.0097 260.901 29.2999C260.687 29.5902 260.534 29.9216 260.452 30.2735C260.371 30.6253 260.363 30.9902 260.429 31.3453ZM303.432 28.3712C300.86 28.9138 301.282 31.1041 301.282 33.8371V49.1898C301.097 50.3427 301.258 51.5244 301.744 52.5859C302.022 52.9933 302.409 53.3144 302.861 53.5126C303.313 53.7108 303.811 53.7782 304.299 53.7069C304.787 53.6357 305.245 53.4288 305.621 53.1098C305.998 52.7908 306.277 52.3725 306.427 51.9027C306.668 51.0989 306.547 41.8551 306.547 40.5087V32.8122C306.727 31.6678 306.574 30.4957 306.105 29.4362C305.825 29.0126 305.425 28.6815 304.956 28.4848C304.488 28.2881 303.972 28.2346 303.473 28.331L303.432 28.3712ZM303.573 19.047C303.197 19.2941 302.876 19.6155 302.629 19.9915L300.619 21.8804C299.413 23.066 300.418 23.6086 301.966 25.0756L302.91 26.02C304.136 27.2459 304.598 26.3416 306.206 24.734C308.456 22.5838 308.376 23.066 304.899 19.5896C304.773 19.3618 304.573 19.1839 304.332 19.0853C304.09 18.9866 303.823 18.9731 303.573 19.047Z" fill="#0072B8"/>
<path fill-rule="evenodd" clip-rule="evenodd" d="M34.7427 48.1371L32.2344 2.95962C32.2344 2.57097 32.3109 2.18613 32.4596 1.82705C32.6083 1.46798 32.8262 1.14171 33.101 0.866876C33.3758 0.592045 33.702 0.374035 34.0611 0.225295C34.4202 0.0765557 34.805 2.24942e-08 35.1936 2.58941e-08C35.5823 -5.13898e-05 35.9672 0.0764663 36.3263 0.225183C36.6854 0.373899 37.0117 0.591901 37.2865 0.866737C37.5614 1.14157 37.7794 1.46786 37.9281 1.82696C38.0768 2.18606 38.1533 2.57094 38.1533 2.95962L35.6168 48.1371H34.7427ZM32.1499 48.3062L23.7513 4.08694C23.5258 2.4805 24.6813 0.9868 26.2874 0.789518C27.8938 0.564053 29.3594 1.71956 29.5848 3.32561L33.0799 48.2217L32.1499 48.3062ZM29.5852 48.7008L16.4519 7.58165C16.0573 6.03158 16.9874 4.4815 18.5093 4.05876C20.0311 3.66419 21.6094 4.59424 22.004 6.11612L30.628 48.5035C30.2616 48.5599 29.9234 48.6444 29.5852 48.7008ZM27.2178 49.2926L10.0825 12.5982C9.51884 11.1887 10.1952 9.58265 11.6044 9.01859C13.0135 8.45493 14.62 9.15951 15.1836 10.5687L28.0915 49.0386C27.8097 49.1235 27.4997 49.2081 27.2178 49.2926ZM24.7377 50.1945L4.95318 18.7422C4.2486 17.5021 4.69953 15.8957 5.96777 15.1911C7.20783 14.4865 8.81426 14.9656 9.51884 16.2057L25.6114 49.8563C25.3014 49.969 25.0195 50.0818 24.7377 50.1945ZM22.2858 51.3778L2.19124 27.1971C1.43029 26.1261 1.65576 24.6324 2.69853 23.8715C3.76949 23.0823 5.26319 23.3078 6.02414 24.3788L23.1595 50.9272C22.8598 51.0604 22.5681 51.2109 22.2858 51.3778ZM19.3547 53.2664L0.612982 36.6948C-0.204327 35.8775 -0.204327 34.5247 0.612982 33.7074C1.43029 32.8619 2.78308 32.8619 3.60039 33.6792L20.1157 52.731C19.862 52.9001 19.6084 53.0973 19.3547 53.2664ZM16.9028 55.4647L3.48766 47.1789C2.72671 46.6434 2.55762 45.5443 3.09309 44.7833C3.65676 44.0224 4.72772 43.8533 5.48866 44.3888L17.4947 54.9007C17.2974 55.0702 17.1001 55.2674 16.9028 55.4647ZM38.2088 48.3062L46.636 4.08694C46.8333 2.4805 45.7056 0.9868 44.0995 0.789518C42.4931 0.564053 40.9994 1.71956 40.8021 3.32561L37.2792 48.2213L38.2088 48.3062ZM40.7739 48.729L53.935 7.58165C54.3304 6.03158 53.3999 4.4815 51.8777 4.05876C50.3562 3.66419 48.7775 4.59424 48.3829 6.11612L39.7593 48.5317C40.0975 48.5881 40.4361 48.6444 40.7739 48.729ZM43.1417 49.3208L60.3052 12.5986C60.8685 11.1891 60.1639 9.58304 58.7547 9.01898C57.3456 8.45532 55.7395 9.1599 55.1751 10.5691L42.2676 49.0672C42.5772 49.1517 42.8594 49.2363 43.1417 49.3208ZM45.6218 50.2227L65.4341 18.7422C66.1391 17.5021 65.6878 15.8957 64.4195 15.1911C63.1513 14.4865 61.5448 14.9656 60.8684 16.2057L44.7763 49.8845L45.6218 50.2227ZM48.0733 51.4064L68.1679 27.1971C68.957 26.1261 68.7311 24.6324 67.6884 23.8715C66.6174 23.0823 65.1233 23.3078 64.3628 24.3788L47.1993 50.9554C47.5093 51.0963 47.7915 51.2651 48.0733 51.4064ZM50.9766 53.3228L69.7461 36.6948C70.5916 35.8775 70.5916 34.5247 69.7743 33.7074C68.957 32.8619 67.6038 32.8619 66.7865 33.6792L50.243 52.7873C50.4689 52.9564 50.7225 53.1251 50.9766 53.3228ZM53.4849 55.4647L66.8996 47.1789C67.6602 46.6434 67.8293 45.5443 67.2942 44.7833C66.7309 44.0224 65.6596 43.8533 64.899 44.3888L52.8922 54.9007C53.0903 55.0702 53.2876 55.2674 53.4849 55.4647Z" fill="#CC2229"/>
<path fill-rule="evenodd" clip-rule="evenodd" d="M6.05175 72.91H4.44531V60.8195H6.05175V65.8643H11.9984V60.8195H13.5766V72.91H11.9984V67.2167H6.05175V72.91ZM17.8041 60.8195V68.7953C17.8323 69.0775 17.8605 69.359 17.9168 69.6408C18.0296 70.2045 18.3114 70.7117 18.706 71.1909C19.1287 71.6704 19.8615 71.8954 20.8761 71.8954C22.1161 71.8954 22.9334 71.5291 23.3562 70.8249C23.7507 70.0921 23.948 69.1621 23.948 68.0066V60.8199H25.5263V68.2324C25.5263 69.867 25.2163 71.0226 24.6244 71.7271C24.0044 72.4035 23.328 72.8545 22.5952 73.0235C22.3003 73.1072 21.9985 73.1639 21.6934 73.193C21.4115 73.2212 21.1297 73.2494 20.8761 73.2494C19.3542 73.2494 18.255 72.9394 17.6068 72.2916C16.9868 71.6715 16.564 70.9666 16.3949 70.1778C16.3113 69.8448 16.2547 69.5055 16.2258 69.1632C16.2258 68.8251 16.1977 68.515 16.1977 68.2332V60.8207H17.8041V60.8195ZM28.4009 72.91H26.71L31.1629 60.8191H32.8539L37.3354 72.91H35.6444L34.4885 69.7817H29.5001L28.4009 72.91ZM34.0939 68.4289L32.0084 62.4537L29.951 68.4289H34.0939ZM42.3512 72.91H40.3506L37.2223 60.8195H38.97L41.4501 70.9654L43.9017 60.8195H45.7336L48.1855 70.9654L50.637 60.8195H52.4129L49.2846 72.91H47.284L44.8313 62.7359L42.3512 72.91ZM61.5728 65.9766V67.358H55.3718V71.5291H62.4176V72.91H53.7939V60.8195H62.2203V62.2005H55.3718V65.9766H61.5728ZM65.6872 60.8195V72.91H64.1086V60.8195H65.6872Z" fill="white"/>
<defs>
<clipPath id="clip0_3001_2">
<rect width="150" height="35.6597" fill="white" transform="translate(90.3848 19)"/>
</clipPath>
</defs>
</svg>
