<svg width="79" height="79" viewBox="0 0 79 79" fill="none" xmlns="http://www.w3.org/2000/svg">
<g clip-path="url(#clip0_1734_135)">
<path d="M74.7459 13.0046H52.1397C51.289 9.35843 48.9797 7.41382 45.9413 6.92767C43.2674 1.70151 38.649 0.607666 33.1797 0.607666C30.992 0.607666 23.5782 0.972282 19.3243 6.44151C16.1643 10.4523 15.3136 16.1646 16.8936 23.5784C15.0705 24.5507 14.949 26.6169 15.5567 28.5615C15.9213 30.3846 17.1367 35.9754 20.1751 36.583C20.5397 37.92 21.269 40.3507 22.849 42.7815V48.8584L7.53511 54.8138C3.40281 56.3938 0.607422 60.4046 0.607422 64.9015V77.1769C0.607422 77.9061 1.09358 78.3923 1.82281 78.3923H66.2382C66.9674 78.3923 67.4536 77.9061 67.4536 77.1769V69.8846H74.7459C76.812 69.8846 78.392 68.3046 78.392 66.2384V16.6507C78.392 14.5846 76.6905 13.0046 74.7459 13.0046ZM21.7551 34.3954C20.4182 33.5446 20.4182 36.4615 17.9874 27.9538C17.2582 25.4015 18.5951 25.6446 18.4736 25.6446C19.2028 25.6446 19.8105 24.9154 19.689 24.1861C17.8659 17.0154 18.4736 11.5461 21.269 8.02151C24.1859 4.37536 29.6551 2.79536 33.909 3.03844H34.0305C41.6874 2.67382 43.9967 8.26459 43.9967 8.38613C44.6043 9.96613 46.6705 8.26459 48.7366 11.06C49.952 12.7615 50.9243 16.4077 48.4936 23.9431C48.372 24.3077 48.4936 24.6723 48.6151 25.0369C49.3443 26.0092 50.9243 24.7938 50.0736 27.8323C50.0736 27.9538 48.7367 34.1523 47.1567 34.1523C47.0351 34.1523 46.6705 34.0307 46.1843 34.2738C45.9413 34.3954 45.6982 34.76 45.6982 35.1246C45.5766 35.6107 43.389 46.9138 33.909 47.2784C24.429 46.9138 22.2413 35.6107 22.1197 35.1246C22.2413 34.8815 21.9982 34.6384 21.7551 34.3954ZM39.0136 75.9615H29.169L32.6936 65.6307C33.0582 64.5369 32.0859 64.2938 29.6551 60.8907L34.152 59.6754L38.5274 60.8907C34.5167 67.4538 34.0305 60.7692 39.0136 75.9615ZM23.5782 51.1677L31.4782 57.8523L23.9428 59.9184L20.7828 52.2615L23.5782 51.1677ZM36.5828 57.8523L44.3613 51.0461L47.0351 52.14L43.7536 59.9184L36.5828 57.8523ZM42.9028 45.9415V49.223L34.0305 56.88L25.1582 49.4661V45.9415C30.1413 50.9246 37.5551 51.2892 42.9028 45.9415ZM3.03819 64.9015C3.03819 61.4984 5.22588 58.3384 8.38588 57.1231L18.4736 53.2338L22.1197 61.8631C22.3628 62.3492 22.7274 62.5923 23.2136 62.5923H23.5782L27.1028 61.62L30.1413 65.5092L26.4951 75.9615H3.03819V64.9015ZM65.0228 75.9615H41.5659L37.9197 65.5092L40.9582 61.62L44.1182 62.4707H44.4828C44.969 62.4707 45.4551 62.2277 45.5767 61.7415L49.2228 52.9907L59.5536 57.0015C62.7136 58.2169 64.9013 61.3769 64.9013 64.78V75.9615H65.0228ZM75.9613 66.2384C75.9613 66.9677 75.4751 67.4538 74.7459 67.4538H67.4536V64.78C67.4536 60.4046 64.6582 56.2723 60.5259 54.6923L45.3336 48.8584V42.7815C46.792 40.3507 47.6428 37.92 48.0074 36.583C50.9243 35.9754 52.2613 30.3846 52.6259 28.5615C53.2336 26.6169 53.112 24.6723 51.4105 23.5784C52.3828 20.4184 52.7474 17.6231 52.7474 15.3138H74.989C75.7182 15.3138 76.2043 15.8 76.2043 16.5292V66.2384H75.9613Z" fill="white"/>
<path d="M71.1004 21.0261H66.2388C65.5096 21.0261 65.0234 21.5123 65.0234 22.2415C65.0234 22.9707 65.5096 23.4569 66.2388 23.4569H71.1004C71.8296 23.4569 72.3157 22.9707 72.3157 22.2415C72.3157 21.5123 71.8296 21.0261 71.1004 21.0261Z" fill="white"/>
<path d="M71.1004 30.7493H66.2388C65.5096 30.7493 65.0234 31.2354 65.0234 31.9647C65.0234 32.6939 65.5096 33.18 66.2388 33.18H71.1004C71.8296 33.18 72.3157 32.6939 72.3157 31.9647C72.3157 31.2354 71.8296 30.7493 71.1004 30.7493Z" fill="white"/>
<path d="M71.1004 40.4722H66.2388C65.5096 40.4722 65.0234 40.9583 65.0234 41.6876C65.0234 42.4168 65.5096 42.9029 66.2388 42.9029H71.1004C71.8296 42.9029 72.3157 42.4168 72.3157 41.6876C72.3157 40.9583 71.8296 40.4722 71.1004 40.4722Z" fill="white"/>
<path d="M60.1626 21.0261H57.7319C56.1519 21.0261 56.1519 23.4569 57.7319 23.4569H60.1626C60.8919 23.4569 61.378 22.9707 61.378 22.2415C61.378 21.5123 60.8919 21.0261 60.1626 21.0261Z" fill="white"/>
<path d="M60.1618 30.7491C59.0679 30.8707 56.5156 30.1414 56.5156 31.9645C56.5156 32.6937 57.0018 33.1799 57.731 33.1799H60.1618C60.891 33.1799 61.3772 32.6937 61.3772 31.9645C61.3772 31.2353 60.891 30.7491 60.1618 30.7491Z" fill="white"/>
<path d="M60.1618 40.4722H57.731C57.0018 40.4722 56.5156 40.9583 56.5156 41.6876C56.5156 42.4168 57.0018 42.9029 57.731 42.9029H60.1618C60.891 42.9029 61.3772 42.4168 61.3772 41.6876C61.3772 40.9583 60.891 40.4722 60.1618 40.4722Z" fill="white"/>
<path d="M71.1004 50.074H66.2388C65.5096 50.074 65.0234 50.5601 65.0234 51.2894C65.0234 52.0186 65.5096 52.5047 66.2388 52.5047H71.1004C71.8296 52.5047 72.3157 52.0186 72.3157 51.2894C72.3157 50.5601 71.8296 50.074 71.1004 50.074Z" fill="white"/>
</g>
<defs>
<clipPath id="clip0_1734_135">
<rect width="79" height="79" fill="white"/>
</clipPath>
</defs>
</svg>
