<svg width="111" height="111" viewBox="0 0 111 111" fill="none" xmlns="http://www.w3.org/2000/svg">
<g clip-path="url(#clip0_1761_32)">
<path d="M60.422 30.9182L63.8652 29.5038C66.6654 28.3888 70.2794 27.2592 74.5513 27.9773C83.2963 29.4471 89.3296 34.1691 92.9227 40.4323C94.3075 42.846 93.1887 46.0254 90.5977 47.0404C86.2882 48.728 83.2496 52.921 83.2496 57.812C83.2496 62.9351 86.5851 67.2918 91.2152 68.8051C93.6123 69.5891 94.9591 72.2498 94.172 74.6456C92.1305 80.8556 89.1867 86.5855 85.7036 91.2105C82.2654 95.7767 78.0654 99.5739 73.3895 101.425C70.3406 102.632 67.0637 102.181 63.9301 101.404L62.0702 100.908L59.3098 100.106C58.0567 99.7442 56.7705 99.4291 55.4995 99.4291C54.2286 99.4291 52.9424 99.7442 51.6894 100.106L48.9293 100.908L47.0693 101.404C43.9357 102.181 40.6587 102.632 37.61 101.425C31.7211 99.0938 26.5268 93.6548 22.6041 87.2427C18.6119 80.7164 15.5865 72.6249 14.353 64.1829C13.3026 56.9934 13.8696 48.925 17.1964 42.0957C20.6225 35.0623 26.8889 29.5842 36.4478 27.9773C40.3318 27.3244 43.6718 28.1986 46.3507 29.2007L47.8778 29.8062L50.5776 30.9183C52.4262 31.6426 53.888 32.0692 55.4995 32.0692C57.1115 32.0692 58.5733 31.6426 60.422 30.9182ZM54.4256 12.8004C58.941 8.28494 65.872 7.89482 67.507 9.53003C69.1424 11.1652 68.752 18.096 64.2366 22.6115C59.7213 27.1269 52.7902 27.517 51.1553 25.8819C49.5199 24.2467 49.9102 17.3158 54.4256 12.8004Z" fill="white"/>
</g>
<defs>
<clipPath id="clip0_1761_32">
<rect width="111" height="111" fill="white"/>
</clipPath>
</defs>
</svg>
