<svg width="38" height="38" viewBox="0 0 38 38" fill="none" xmlns="http://www.w3.org/2000/svg">
<g clip-path="url(#clip0_1242_19)">
<path d="M34.2347 9.83933H15.6217C14.2257 8.00717 12.7633 7.80359 10.7025 7.80359H10.6361C7.8441 7.80359 5.7169 9.77142 5.05214 10.5178H2.65898C1.19654 10.5179 0 11.7393 0 13.2322V25.5144C0 27.0072 1.19654 28.1608 2.65898 28.1608H5.1186C7.71112 30.1287 8.64177 30.1966 13.295 30.1966C15.7547 30.1966 18.5466 29.518 19.3443 29.3823C20.8733 29.7895 22.4686 28.9752 23.0005 27.4145C23.1999 26.8037 23.1999 26.0573 23.0005 25.4466C24.197 25.4466 25.3271 24.6324 25.726 23.4109L25.7924 23.3431C26.0583 22.5966 25.9918 21.7145 25.6594 21.0359C25.6018 20.9182 25.5356 20.8049 25.4626 20.6961C26.8574 20.4234 27.9196 19.1349 27.9196 17.6429C27.9196 17.0322 27.7202 16.4215 27.3878 15.9465H34.2347C35.8966 15.9465 37.2261 14.5893 37.2261 12.8929C37.2261 11.1965 35.8966 9.83933 34.2347 9.83933ZM5.7169 26.9393C5.58392 26.8715 5.45101 26.8036 5.31803 26.8036H2.65898C1.92776 26.8036 1.32945 26.1928 1.32945 25.5143V13.2322C1.32945 12.4858 1.92776 11.8751 2.65898 11.8751H5.31796C5.51739 11.8751 5.71683 11.8072 5.84974 11.6037C5.84974 11.6037 7.84403 9.22866 10.5695 9.16083H10.6359C12.6967 9.16083 13.6273 9.29657 14.6909 10.9251L14.7573 10.9929L15.2778 11.6209C16.88 13.7656 18.6187 16.1217 19.2777 17.1001C19.9425 18.1858 20.1419 19.0679 19.743 19.6108C19.4636 19.9531 18.9024 20.1026 18.3751 20.0209C18.2961 20.0042 18.2199 19.9809 18.1476 19.9501C17.3499 19.6108 15.9539 18.6608 14.425 17.3715C14.3548 17.3178 14.28 17.2787 14.2031 17.2533C12.3915 15.7017 10.7067 13.9368 10.37 13.0965C10.237 12.7572 9.83825 12.6215 9.50583 12.7572C9.17348 12.893 9.0405 13.3001 9.17348 13.6394C9.59039 14.6323 11.2056 16.385 12.9942 17.9678C12.8454 18.1876 12.7295 18.4242 12.6302 18.6608L12.5638 18.7966C12.3077 19.548 12.3606 20.3305 12.6541 21.001C11.6338 21.2064 10.7291 21.95 10.37 23.0037C9.83825 24.5645 10.7024 26.3287 12.2313 26.8716L16.7828 28.4798C15.7268 28.6701 14.4598 28.8394 13.2949 28.8394C8.64177 28.8393 8.10999 28.7715 5.7169 26.9393ZM13.7604 22.3929L18.9451 24.2249L20.7194 24.8549C21.0327 24.9784 21.283 25.172 21.4651 25.4093C21.5166 25.486 21.5635 25.5665 21.6044 25.6501C21.8038 26.0572 21.8038 26.5322 21.6709 26.9393C21.405 27.8215 20.4743 28.2965 19.5437 27.9572C19.4783 27.9572 19.4129 27.9408 19.3475 27.9322L12.6967 25.5822C11.7661 25.2429 11.3672 24.2929 11.6331 23.4108C11.7661 23.0036 12.0984 22.6643 12.4973 22.4608C12.6967 22.325 12.9626 22.2572 13.2285 22.2572C13.428 22.2572 13.6275 22.3251 13.7604 22.3929ZM23.4658 20.8322C23.8647 20.968 24.197 21.2394 24.3964 21.6465C24.5959 21.9858 24.5959 22.4608 24.4629 22.8679L24.3964 23.0037C24.2971 23.3079 24.1234 23.574 23.8756 23.7742C23.4769 24.0378 22.9732 24.1121 22.4687 23.9537L21.1391 23.4787C21.0134 23.4359 20.8943 23.4269 20.786 23.4452L19.3428 22.9352L14.7575 21.3072C13.8934 20.968 13.4946 20.0858 13.7604 19.2037L13.8269 19.0679C13.8269 19.0001 13.8934 18.8643 13.9599 18.7965C14.0147 18.8398 14.0686 18.8818 14.1229 18.9243C15.3129 19.8886 16.4856 20.6967 17.3536 21.0879C17.3723 21.0964 17.3909 21.1046 17.4093 21.1126C17.4569 21.1334 17.5039 21.1534 17.5495 21.1715C17.8703 21.3094 18.2169 21.3726 18.5695 21.3727C18.6059 21.3739 18.6422 21.3751 18.6795 21.3751C19.1402 21.3751 19.6004 21.2613 19.9971 21.0481C20.5206 20.8092 20.9933 20.4517 21.3385 20.0179L23.4658 20.8322ZM24.9282 19.2715H24.6623L23.1334 19.0679C23.0294 19.0679 22.9254 19.0879 22.8296 19.1257L21.3386 18.5929C21.2994 18.577 21.2603 18.565 21.2214 18.5565C21.154 17.9541 20.9074 17.2202 20.3414 16.3537C20.2667 16.2288 20.1759 16.0854 20.0728 15.9279L25.0611 15.8108C25.46 15.8108 25.8588 16.0144 26.1248 16.2858C26.3906 16.6251 26.5901 17.0322 26.5901 17.5072C26.5901 18.4572 25.8589 19.2715 24.9282 19.2715ZM34.2347 14.5893H25.0612C24.9947 14.5893 24.9947 14.5893 24.9282 14.5893H19.2778C19.2354 14.5893 19.195 14.593 19.1558 14.599C18.4194 13.5676 17.4991 12.3329 16.6423 11.1965H34.2348C35.1655 11.1965 35.8967 11.9429 35.8967 12.8929C35.8967 13.8429 35.1654 14.5893 34.2347 14.5893Z" fill="#43C6AC"/>
</g>
<defs>
<clipPath id="clip0_1242_19">
<rect width="37.2261" height="38" fill="white"/>
</clipPath>
</defs>
</svg>
