<svg width="38" height="24" viewBox="0 0 38 24" fill="none" xmlns="http://www.w3.org/2000/svg">
<path d="M34.2347 2.83934H15.6217C14.2257 1.00717 12.7633 0.803589 10.7025 0.803589H10.6361C7.8441 0.803589 5.7169 2.77142 5.05214 3.51784H2.65898C1.19654 3.51792 0 4.73933 0 6.23224V18.5144C0 20.0072 1.19654 21.1608 2.65898 21.1608H5.1186C7.71112 23.1287 8.64177 23.1966 13.295 23.1966C15.7547 23.1966 18.5466 22.518 19.3443 22.3823C20.8733 22.7895 22.4686 21.9752 23.0005 20.4145C23.1999 19.8037 23.1999 19.0573 23.0005 18.4466C24.197 18.4466 25.3271 17.6324 25.726 16.4109L25.7924 16.3431C26.0583 15.5966 25.9918 14.7145 25.6594 14.0359C25.6018 13.9182 25.5356 13.8049 25.4626 13.6961C26.8574 13.4234 27.9196 12.1349 27.9196 10.6429C27.9196 10.0322 27.7202 9.4215 27.3878 8.9465H34.2347C35.8966 8.9465 37.2261 7.58934 37.2261 5.89292C37.2261 4.1965 35.8966 2.83934 34.2347 2.83934ZM5.7169 19.9393C5.58392 19.8715 5.45101 19.8036 5.31803 19.8036H2.65898C1.92776 19.8036 1.32945 19.1928 1.32945 18.5143V6.23224C1.32945 5.48583 1.92776 4.87508 2.65898 4.87508H5.31796C5.51739 4.87508 5.71683 4.80725 5.84974 4.60366C5.84974 4.60366 7.84403 2.22866 10.5695 2.16083H10.6359C12.6967 2.16083 13.6273 2.29657 14.6909 3.92508L14.7573 3.99292L15.2778 4.62088C16.88 6.76558 18.6187 9.12165 19.2777 10.1001C19.9425 11.1858 20.1419 12.0679 19.743 12.6108C19.4636 12.9531 18.9024 13.1026 18.3751 13.0209C18.2961 13.0042 18.2199 12.9809 18.1476 12.9501C17.3499 12.6108 15.9539 11.6608 14.425 10.3715C14.3548 10.3178 14.28 10.2787 14.2031 10.2533C12.3915 8.70165 10.7067 6.9368 10.37 6.0965C10.237 5.75725 9.83825 5.6215 9.50583 5.75725C9.17348 5.89299 9.0405 6.30008 9.17348 6.63941C9.59039 7.63231 11.2056 9.38498 12.9942 10.9678C12.8454 11.1876 12.7295 11.4242 12.6302 11.6608L12.5638 11.7966C12.3077 12.548 12.3606 13.3305 12.6541 14.001C11.6338 14.2064 10.7291 14.95 10.37 16.0037C9.83825 17.5645 10.7024 19.3287 12.2313 19.8716L16.7828 21.4798C15.7268 21.6701 14.4598 21.8394 13.2949 21.8394C8.64177 21.8393 8.10999 21.7715 5.7169 19.9393ZM13.7604 15.3929L18.9451 17.2249L20.7194 17.8549C21.0327 17.9784 21.283 18.172 21.4651 18.4093C21.5166 18.486 21.5635 18.5665 21.6044 18.6501C21.8038 19.0572 21.8038 19.5322 21.6709 19.9393C21.405 20.8215 20.4743 21.2965 19.5437 20.9572C19.4783 20.9572 19.4129 20.9408 19.3475 20.9322L12.6967 18.5822C11.7661 18.2429 11.3672 17.2929 11.6331 16.4108C11.7661 16.0036 12.0984 15.6643 12.4973 15.4608C12.6967 15.325 12.9626 15.2572 13.2285 15.2572C13.428 15.2572 13.6275 15.3251 13.7604 15.3929ZM23.4658 13.8322C23.8647 13.968 24.197 14.2394 24.3964 14.6465C24.5959 14.9858 24.5959 15.4608 24.4629 15.8679L24.3964 16.0037C24.2971 16.3079 24.1234 16.574 23.8756 16.7742C23.4769 17.0378 22.9732 17.1121 22.4687 16.9537L21.1391 16.4787C21.0134 16.4359 20.8943 16.4269 20.786 16.4452L19.3428 15.9352L14.7575 14.3072C13.8934 13.968 13.4946 13.0858 13.7604 12.2037L13.8269 12.0679C13.8269 12.0001 13.8934 11.8643 13.9599 11.7965C14.0147 11.8398 14.0686 11.8818 14.1229 11.9243C15.3129 12.8886 16.4856 13.6967 17.3536 14.0879C17.3723 14.0964 17.3909 14.1046 17.4093 14.1126C17.4569 14.1334 17.5039 14.1534 17.5495 14.1715C17.8703 14.3094 18.2169 14.3726 18.5695 14.3727C18.6059 14.3739 18.6422 14.3751 18.6795 14.3751C19.1402 14.3751 19.6004 14.2613 19.9971 14.0481C20.5206 13.8092 20.9933 13.4517 21.3385 13.0179L23.4658 13.8322ZM24.9282 12.2715H24.6623L23.1334 12.0679C23.0294 12.0679 22.9254 12.0879 22.8296 12.1257L21.3386 11.5929C21.2994 11.577 21.2603 11.565 21.2214 11.5565C21.154 10.9541 20.9074 10.2202 20.3414 9.35366C20.2667 9.22883 20.1759 9.08544 20.0728 8.92787L25.0611 8.81083C25.46 8.81083 25.8588 9.01441 26.1248 9.28583C26.3906 9.62508 26.5901 10.0322 26.5901 10.5072C26.5901 11.4572 25.8589 12.2715 24.9282 12.2715ZM34.2347 7.58934H25.0612C24.9947 7.58934 24.9947 7.58934 24.9282 7.58934H19.2778C19.2354 7.58934 19.1949 7.59305 19.1558 7.59898C18.4194 6.56757 17.4991 5.33294 16.6423 4.1965H34.2348C35.1655 4.1965 35.8967 4.94292 35.8967 5.89292C35.8967 6.84292 35.1654 7.58934 34.2347 7.58934Z" fill="#56C1C1"/>
</svg>
