<svg width="38" height="23" viewBox="0 0 38 23" fill="none" xmlns="http://www.w3.org/2000/svg">
<path d="M34.2347 2.03575H15.6217C14.2257 0.203582 12.7633 0 10.7025 0H10.6361C7.8441 0 5.7169 1.96784 5.05214 2.71425H2.65898C1.19654 2.71433 0 3.93575 0 5.42866V17.7108C0 19.2037 1.19654 20.3572 2.65898 20.3572H5.1186C7.71112 22.3251 8.64177 22.393 13.295 22.393C15.7547 22.393 18.5466 21.7144 19.3443 21.5787C20.8733 21.9859 22.4686 21.1716 23.0005 19.6109C23.1999 19.0001 23.1999 18.2537 23.0005 17.6431C24.197 17.6431 25.3271 16.8288 25.726 15.6073L25.7924 15.5395C26.0583 14.7931 25.9918 13.9109 25.6594 13.2323C25.6018 13.1146 25.5356 13.0013 25.4626 12.8925C26.8574 12.6198 27.9196 11.3313 27.9196 9.83933C27.9196 9.22858 27.7202 8.61791 27.3878 8.14291H34.2347C35.8966 8.14291 37.2261 6.78575 37.2261 5.08933C37.2261 3.39291 35.8966 2.03575 34.2347 2.03575ZM5.7169 19.1357C5.58392 19.0679 5.45101 19 5.31803 19H2.65898C1.92776 19 1.32945 18.3893 1.32945 17.7107V5.42866C1.32945 4.68224 1.92776 4.07149 2.65898 4.07149H5.31796C5.51739 4.07149 5.71683 4.00366 5.84974 3.80007C5.84974 3.80007 7.84403 1.42507 10.5695 1.35724H10.6359C12.6967 1.35724 13.6273 1.49298 14.6909 3.12149L14.7573 3.18933L15.2778 3.81729C16.88 5.96199 18.6187 8.31807 19.2777 9.29649C19.9425 10.3822 20.1419 11.2643 19.743 11.8072C19.4636 12.1495 18.9024 12.299 18.3751 12.2173C18.2961 12.2006 18.2199 12.1773 18.1476 12.1465C17.3499 11.8072 15.9539 10.8572 14.425 9.56791C14.3548 9.51418 14.28 9.47506 14.2031 9.44975C12.3915 7.89806 10.7067 6.13321 10.37 5.29291C10.237 4.95366 9.83825 4.81791 9.50583 4.95366C9.17348 5.0894 9.0405 5.49649 9.17348 5.83582C9.59039 6.82872 11.2056 8.58139 12.9942 10.1642C12.8454 10.384 12.7295 10.6206 12.6302 10.8572L12.5638 10.993C12.3077 11.7444 12.3606 12.5269 12.6541 13.1974C11.6338 13.4028 10.7291 14.1464 10.37 15.2001C9.83825 16.7609 10.7024 18.5251 12.2313 19.068L16.7828 20.6762C15.7268 20.8665 14.4598 21.0358 13.2949 21.0358C8.64177 21.0357 8.10999 20.9679 5.7169 19.1357ZM13.7604 14.5893L18.9451 16.4213L20.7194 17.0513C21.0327 17.1748 21.283 17.3684 21.4651 17.6057C21.5166 17.6824 21.5635 17.7629 21.6044 17.8465C21.8038 18.2537 21.8038 18.7287 21.6709 19.1357C21.405 20.0179 20.4743 20.4929 19.5437 20.1536C19.4783 20.1536 19.4129 20.1373 19.3475 20.1286L12.6967 17.7786C11.7661 17.4393 11.3672 16.4893 11.6331 15.6072C11.7661 15.2 12.0984 14.8607 12.4973 14.6572C12.6967 14.5214 12.9626 14.4536 13.2285 14.4536C13.428 14.4537 13.6275 14.5215 13.7604 14.5893ZM23.4658 13.0287C23.8647 13.1644 24.197 13.4358 24.3964 13.8429C24.5959 14.1822 24.5959 14.6572 24.4629 15.0643L24.3964 15.2001C24.2971 15.5043 24.1234 15.7704 23.8756 15.9706C23.4769 16.2342 22.9732 16.3085 22.4687 16.1501L21.1391 15.6751C21.0134 15.6323 20.8943 15.6233 20.786 15.6416L19.3428 15.1316L14.7575 13.5037C13.8934 13.1644 13.4946 12.2822 13.7604 11.4001L13.8269 11.2643C13.8269 11.1965 13.8934 11.0607 13.9599 10.9929C14.0147 11.0362 14.0686 11.0782 14.1229 11.1207C15.3129 12.085 16.4856 12.8931 17.3536 13.2843C17.3723 13.2928 17.3909 13.301 17.4093 13.3091C17.4569 13.3298 17.5039 13.3498 17.5495 13.3679C17.8703 13.5058 18.2169 13.569 18.5695 13.5691C18.6059 13.5703 18.6422 13.5715 18.6795 13.5715C19.1402 13.5715 19.6004 13.4577 19.9971 13.2445C20.5206 13.0056 20.9933 12.6481 21.3385 12.2143L23.4658 13.0287ZM24.9282 11.4679H24.6623L23.1334 11.2643C23.0294 11.2643 22.9254 11.2843 22.8296 11.3221L21.3386 10.7893C21.2994 10.7734 21.2603 10.7614 21.2214 10.7529C21.154 10.1505 20.9074 9.41665 20.3414 8.55007C20.2667 8.42524 20.1759 8.28185 20.0728 8.12428L25.0611 8.00724C25.46 8.00724 25.8588 8.21082 26.1248 8.48224C26.3906 8.82149 26.5901 9.22866 26.5901 9.70366C26.5901 10.6537 25.8589 11.4679 24.9282 11.4679ZM34.2347 6.78575H25.0612C24.9947 6.78575 24.9947 6.78575 24.9282 6.78575H19.2778C19.2354 6.78575 19.1949 6.78946 19.1558 6.79539C18.4194 5.76398 17.4991 4.52935 16.6423 3.39291H34.2348C35.1655 3.39291 35.8967 4.13933 35.8967 5.08933C35.8967 6.03933 35.1654 6.78575 34.2347 6.78575Z" fill="#2052E8" fill-opacity="0.647059"/>
</svg>
