<svg width="38" height="38" viewBox="0 0 38 38" fill="none" xmlns="http://www.w3.org/2000/svg">
<path d="M34.9464 9.83933H15.9464C14.5214 8.00717 13.0286 7.80359 10.925 7.80359H10.8572C8.00716 7.80359 5.83575 9.77142 5.15716 10.5178H2.71425C1.22142 10.5179 0 11.7393 0 13.2322V25.5144C0 27.0072 1.22142 28.1608 2.71425 28.1608H5.225C7.87142 30.1287 8.82142 30.1966 13.5714 30.1966C16.0822 30.1966 18.9322 29.518 19.7464 29.3823C21.3072 29.7895 22.9357 28.9752 23.4786 27.4145C23.6822 26.8037 23.6822 26.0573 23.4786 25.4466C24.7 25.4466 25.8536 24.6324 26.2607 23.4109L26.3286 23.3431C26.6 22.5966 26.5322 21.7145 26.1928 21.0359C26.134 20.9182 26.0664 20.8049 25.9919 20.6961C27.4157 20.4234 28.5 19.1349 28.5 17.6429C28.5 17.0322 28.2964 16.4215 27.9572 15.9465H34.9464C36.6428 15.9465 38 14.5893 38 12.8929C38 11.1965 36.6428 9.83933 34.9464 9.83933ZM5.83575 26.9393C5.7 26.8715 5.56433 26.8036 5.42858 26.8036H2.71425C1.96784 26.8036 1.35709 26.1928 1.35709 25.5143V13.2322C1.35709 12.4858 1.96784 11.8751 2.71425 11.8751H5.42851C5.63209 11.8751 5.83567 11.8072 5.97134 11.6037C5.97134 11.6037 8.00709 9.22866 10.7892 9.16083H10.857C12.9606 9.16083 13.9106 9.29657 14.9963 10.9251L15.0641 10.9929L15.5954 11.6209C17.2309 13.7656 19.0057 16.1217 19.6784 17.1001C20.357 18.1858 20.5606 19.0679 20.1534 19.6108C19.8682 19.9531 19.2953 20.1026 18.7571 20.0209C18.6765 20.0042 18.5987 19.9809 18.5249 19.9501C17.7106 19.6108 16.2856 18.6608 14.7249 17.3715C14.6532 17.3178 14.5769 17.2787 14.4983 17.2533C12.6491 15.7017 10.9293 13.9368 10.5856 13.0965C10.4499 12.7572 10.0428 12.6215 9.70343 12.7572C9.36418 12.893 9.22843 13.3001 9.36418 13.6394C9.78975 14.6323 11.4385 16.385 13.2643 17.9678C13.1124 18.1876 12.9941 18.4242 12.8928 18.6608L12.8249 18.7966C12.5635 19.548 12.6176 20.3305 12.9172 21.001C11.8757 21.2064 10.9522 21.95 10.5856 23.0037C10.0428 24.5645 10.9249 26.3287 12.4856 26.8716L17.1317 28.4798C16.0537 28.6701 14.7604 28.8394 13.5713 28.8394C8.82142 28.8393 8.27858 28.7715 5.83575 26.9393ZM14.0464 22.3929L19.3389 24.2249L21.1501 24.8549C21.4699 24.9784 21.7255 25.172 21.9113 25.4093C21.9639 25.486 22.0117 25.5665 22.0535 25.6501C22.2571 26.0572 22.2571 26.5322 22.1213 26.9393C21.8499 27.8215 20.8999 28.2965 19.9499 27.9572C19.8832 27.9572 19.8164 27.9408 19.7497 27.9322L12.9607 25.5822C12.0107 25.2429 11.6035 24.2929 11.8749 23.4108C12.0107 23.0036 12.3499 22.6643 12.7571 22.4608C12.9607 22.325 13.2321 22.2572 13.5035 22.2572C13.7072 22.2572 13.9107 22.3251 14.0464 22.3929ZM23.9536 20.8322C24.3607 20.968 24.7 21.2394 24.9036 21.6465C25.1072 21.9858 25.1072 22.4608 24.9714 22.8679L24.9036 23.0037C24.8022 23.3079 24.6249 23.574 24.372 23.7742C23.9649 24.0378 23.4507 24.1121 22.9357 23.9537L21.5786 23.4787C21.4503 23.4359 21.3287 23.4269 21.2181 23.4452L19.7449 22.9352L15.0643 21.3072C14.1822 20.968 13.7751 20.0858 14.0465 19.2037L14.1143 19.0679C14.1143 19.0001 14.1822 18.8643 14.2501 18.7965C14.306 18.8398 14.3611 18.8818 14.4165 18.9243C15.6312 19.8886 16.8283 20.6967 17.7144 21.0879C17.7335 21.0964 17.7524 21.1046 17.7712 21.1126C17.8198 21.1334 17.8677 21.1534 17.9143 21.1715C18.2418 21.3094 18.5956 21.3726 18.9555 21.3727C18.9927 21.3739 19.0297 21.3751 19.0678 21.3751C19.5381 21.3751 20.0079 21.2613 20.4128 21.0481C20.9472 20.8092 21.4297 20.4517 21.7821 20.0179L23.9536 20.8322ZM25.4464 19.2715H25.175L23.6143 19.0679C23.5081 19.0679 23.402 19.0879 23.3042 19.1257L21.7822 18.5929C21.7422 18.577 21.7022 18.565 21.6626 18.5565C21.5937 17.9541 21.342 17.2202 20.7643 16.3537C20.688 16.2288 20.5953 16.0854 20.4901 15.9279L25.5821 15.8108C25.9893 15.8108 26.3963 16.0144 26.6678 16.2858C26.9393 16.6251 27.1428 17.0322 27.1428 17.5072C27.1428 18.4572 26.3964 19.2715 25.4464 19.2715ZM34.9464 14.5893H25.5822C25.5143 14.5893 25.5143 14.5893 25.4464 14.5893H19.6786C19.6353 14.5893 19.594 14.593 19.554 14.599C18.8023 13.5676 17.8628 12.3329 16.9883 11.1965H34.9465C35.8965 11.1965 36.6429 11.9429 36.6429 12.8929C36.6429 13.8429 35.8964 14.5893 34.9464 14.5893Z" fill="#FFE000"/>
</svg>
