<svg width="35" height="38" viewBox="0 0 35 38" fill="none" xmlns="http://www.w3.org/2000/svg">
<g clip-path="url(#clip0_1242_27)">
<path d="M32.0623 9.83933H14.6304C13.323 8.00717 11.9533 7.80359 10.0234 7.80359H9.96113C7.34634 7.80359 5.35412 9.77142 4.73155 10.5178H2.49025C1.12061 10.5179 0 11.7393 0 13.2322V25.5144C0 27.0072 1.12061 28.1608 2.49025 28.1608H4.79378C7.22179 30.1287 8.09339 30.1966 12.4514 30.1966C14.7549 30.1966 17.3697 29.518 18.1168 29.3823C19.5487 29.7895 21.0428 28.9752 21.5409 27.4145C21.7277 26.8037 21.7277 26.0573 21.5409 25.4466C22.6615 25.4466 23.7199 24.6324 24.0935 23.4109L24.1557 23.3431C24.4047 22.5966 24.3425 21.7145 24.0312 21.0359C23.9772 20.9182 23.9152 20.8049 23.8468 20.6961C25.1531 20.4234 26.1479 19.1349 26.1479 17.6429C26.1479 17.0322 25.9611 16.4215 25.6499 15.9465H32.0623C33.6187 15.9465 34.8639 14.5893 34.8639 12.8929C34.8639 11.1965 33.6187 9.83933 32.0623 9.83933ZM5.35412 26.9393C5.22958 26.8715 5.10511 26.8036 4.98056 26.8036H2.49025C1.80543 26.8036 1.24509 26.1928 1.24509 25.5143V13.2322C1.24509 12.4858 1.80543 11.8751 2.49025 11.8751H4.9805C5.16728 11.8751 5.35406 11.8072 5.47853 11.6037C5.47853 11.6037 7.34627 9.22866 9.89875 9.16083H9.96099C11.891 9.16083 12.7626 9.29657 13.7586 10.9251L13.8209 10.9929L14.3084 11.6209C15.8089 13.7656 17.4372 16.1217 18.0544 17.1001C18.677 18.1858 18.8637 19.0679 18.4902 19.6108C18.2285 19.9531 17.7029 20.1026 17.2091 20.0209C17.1351 20.0042 17.0638 19.9809 16.996 19.9501C16.249 19.6108 14.9416 18.6608 13.5096 17.3715C13.4439 17.3178 13.3738 17.2787 13.3018 17.2533C11.6052 15.7017 10.0273 13.9368 9.71197 13.0965C9.58743 12.7572 9.21394 12.6215 8.90261 12.7572C8.59136 12.893 8.46681 13.3001 8.59136 13.6394C8.98181 14.6323 10.4945 16.385 12.1696 17.9678C12.0303 18.1876 11.9217 18.4242 11.8287 18.6608L11.7665 18.7966C11.5267 19.548 11.5762 20.3305 11.8511 21.001C10.8956 21.2064 10.0483 21.95 9.71197 23.0037C9.21394 24.5645 10.0232 26.3287 11.4552 26.8716L15.7178 28.4798C14.7288 28.6701 13.5422 28.8394 12.4512 28.8394C8.09339 28.8393 7.59535 28.7715 5.35412 26.9393ZM12.8872 22.3929L17.7429 24.2249L19.4046 24.8549C19.698 24.9784 19.9325 25.172 20.103 25.4093C20.1513 25.486 20.1951 25.5665 20.2334 25.6501C20.4202 26.0572 20.4202 26.5322 20.2957 26.9393C20.0467 27.8215 19.1751 28.2965 18.3035 27.9572C18.2423 27.9572 18.181 27.9408 18.1198 27.9322L11.891 25.5822C11.0194 25.2429 10.6459 24.2929 10.8949 23.4108C11.0194 23.0036 11.3307 22.6643 11.7043 22.4608C11.891 22.325 12.1401 22.2572 12.3891 22.2572C12.5759 22.2572 12.7627 22.3251 12.8872 22.3929ZM21.9767 20.8322C22.3503 20.968 22.6615 21.2394 22.8483 21.6465C23.0351 21.9858 23.0351 22.4608 22.9105 22.8679L22.8483 23.0037C22.7553 23.3079 22.5926 23.574 22.3605 23.7742C21.9871 24.0378 21.5154 24.1121 21.0429 23.9537L19.7977 23.4787C19.68 23.4359 19.5684 23.4269 19.467 23.4452L18.1153 22.9352L13.8211 21.3072C13.0117 20.968 12.6382 20.0858 12.8872 19.2037L12.9495 19.0679C12.9495 19.0001 13.0117 18.8643 13.074 18.7965C13.1254 18.8398 13.1759 18.8818 13.2267 18.9243C14.3412 19.8886 15.4395 20.6967 16.2524 21.0879C16.2699 21.0964 16.2873 21.1046 16.3045 21.1126C16.3491 21.1334 16.3931 21.1534 16.4359 21.1715C16.7363 21.3094 17.0609 21.3726 17.3911 21.3727C17.4252 21.3739 17.4592 21.3751 17.4942 21.3751C17.9256 21.3751 18.3566 21.2613 18.7281 21.0481C19.2184 20.8092 19.6611 20.4517 19.9844 20.0179L21.9767 20.8322ZM23.3463 19.2715H23.0973L21.6654 19.0679C21.568 19.0679 21.4706 19.0879 21.3809 19.1257L19.9845 18.5929C19.9478 18.577 19.9112 18.565 19.8748 18.5565C19.8116 17.9541 19.5807 17.2202 19.0506 16.3537C18.9806 16.2288 18.8956 16.0854 18.7991 15.9279L23.4708 15.8108C23.8444 15.8108 24.2179 16.0144 24.467 16.2858C24.716 16.6251 24.9027 17.0322 24.9027 17.5072C24.9027 18.4572 24.2179 19.2715 23.3463 19.2715ZM32.0623 14.5893H23.4709C23.4086 14.5893 23.4086 14.5893 23.3463 14.5893H18.0545C18.0148 14.5893 17.9769 14.593 17.9402 14.599C17.2505 13.5676 16.3886 12.3329 15.5863 11.1965H32.0624C32.934 11.1965 33.6188 11.9429 33.6188 12.8929C33.6188 13.8429 32.9339 14.5893 32.0623 14.5893Z" fill="#A044FF"/>
</g>
<defs>
<clipPath id="clip0_1242_27">
<rect width="34.8639" height="38" fill="white"/>
</clipPath>
</defs>
</svg>
