<svg width="82" height="66" viewBox="0 0 82 66" fill="none" xmlns="http://www.w3.org/2000/svg">
<path d="M81.666 18.9716L67.9414 1.14294C67.4334 0.48355 66.5069 0.320891 65.8043 0.767577L56.9432 6.40308H45.3863C45.2367 6.40308 45.0878 6.43498 44.944 6.4769L35.9833 9.05629L26.6855 6.51318L17.6511 0.767577C16.9604 0.328399 16.0508 0.477294 15.5371 1.11417L0.356691 19.9175C-0.188842 20.5932 -0.0987538 21.5798 0.559389 22.1459L8.5159 28.9932L15.6541 38.6126C13.5665 40.8367 13.6071 44.3445 15.7792 46.5172C16.7421 47.4794 17.9664 48.0231 19.2257 48.1494C19.1819 48.4347 19.1594 48.7244 19.1594 49.0184C19.1594 50.5361 19.7506 51.9632 20.8235 53.0361C21.8971 54.1096 23.3241 54.7008 24.8418 54.7008C24.8625 54.7008 24.8825 54.6996 24.9025 54.699C24.9019 54.7377 24.9 54.7759 24.9 54.8147C24.9 56.3324 25.4912 57.7594 26.5641 58.833C27.6377 59.9059 29.0647 60.4971 30.5824 60.4971C30.8821 60.4971 31.1786 60.4727 31.4696 60.4277C31.5928 61.6914 32.1377 62.9213 33.1036 63.8873C34.211 64.9952 35.6661 65.5489 37.1213 65.5489C38.5765 65.5489 40.0317 64.9952 41.1396 63.8873L42.0086 63.0183L42.3733 63.3124C43.4719 64.3765 44.8983 64.9083 46.3247 64.9083C47.7798 64.9083 49.235 64.3546 50.3423 63.2467C51.4728 62.1162 52.0265 60.6241 52.0033 59.1395C53.4873 59.1621 54.98 58.609 56.1105 57.4792C57.2397 56.3493 57.7934 54.8585 57.7715 53.3745C59.3174 53.3989 60.7838 52.8052 61.878 51.711C63.0085 50.5806 63.5621 49.0885 63.539 47.6039C65.0242 47.6264 66.5156 47.0734 67.6461 45.9429C69.5755 44.0135 69.8239 41.0312 68.3931 38.8297L73.605 27.9141L81.4408 21.1712C82.0883 20.6138 82.1872 19.6479 81.666 18.9716ZM17.1368 4.2516L23.6332 8.38251L9.50124 25.5993L3.83821 20.7252L17.1368 4.2516ZM18.0533 40.7547L20.014 38.7941C20.0734 38.7346 20.136 38.6783 20.1998 38.6258C20.5833 38.313 21.0475 38.1265 21.5392 38.0821C21.553 38.0809 21.5674 38.0809 21.5812 38.0802C21.6512 38.0746 21.7213 38.0709 21.792 38.0715C22.4639 38.0809 23.0882 38.3555 23.5512 38.8441C24.4596 39.8044 24.4108 41.3734 23.4423 42.3419L21.5411 44.2431C20.5796 45.2047 19.0149 45.2047 18.0533 44.2431C17.0918 43.2809 17.0918 41.7163 18.0533 40.7547ZM23.0976 50.762C22.6316 50.2965 22.3751 49.6772 22.3751 49.0184C22.3751 48.3596 22.6316 47.7403 23.0976 47.2742L26.8995 43.4724C27.6277 42.7442 28.7725 42.5446 29.7035 42.9881C30.6631 43.4455 31.203 44.4871 31.0623 45.535C30.9872 46.0943 30.727 46.6211 30.3278 47.0208L26.586 50.762C26.12 51.2281 25.5006 51.4846 24.8418 51.4846C24.1831 51.4846 23.5637 51.2281 23.0976 50.762ZM28.8382 56.5583C28.3722 56.0928 28.1157 55.4735 28.1157 54.8147C28.1157 54.1559 28.3722 53.5366 28.8382 53.0705L32.6394 49.2687C33.4183 48.4904 34.6677 48.3227 35.6211 48.8776C36.492 49.3844 36.948 50.3791 36.7985 51.3701C36.7165 51.915 36.4575 52.4274 36.0678 52.8171L32.3266 56.5583C31.8606 57.0243 31.2412 57.2808 30.5824 57.2808C29.9237 57.2808 29.3043 57.0243 28.8382 56.5583ZM35.3771 61.6132C34.4156 60.6516 34.4156 59.087 35.3771 58.1254L37.3378 56.1648C37.3972 56.1053 37.4591 56.0496 37.523 55.9971C37.5248 55.9958 37.5261 55.9946 37.5273 55.9933C37.8464 55.7343 38.2211 55.561 38.6209 55.4853C38.6303 55.4841 38.6397 55.4828 38.6491 55.4816C38.7179 55.4691 38.7879 55.4591 38.858 55.4528C38.8862 55.4503 38.9143 55.4503 38.9431 55.4484C39.0007 55.4453 39.0576 55.4416 39.1158 55.4422C39.787 55.4516 40.412 55.7256 40.875 56.2148C40.9319 56.2749 40.9851 56.3374 41.0339 56.4019C41.7734 57.3684 41.6739 58.8042 40.7561 59.7226L38.8649 61.6138C37.9033 62.5754 36.3387 62.5748 35.3771 61.6132ZM65.372 43.6688C64.4105 44.631 62.8458 44.6304 61.8842 43.6688C61.8492 43.6338 61.8123 43.6012 61.7748 43.5706L51.4359 33.1229C50.8109 32.4917 49.7931 32.4867 49.1618 33.1116C48.5306 33.736 48.5256 34.7539 49.1499 35.3851L59.6008 45.9448C59.602 45.946 59.6033 45.9473 59.6045 45.9485C60.5661 46.9101 60.5661 48.4754 59.6045 49.4369C59.1384 49.903 58.5191 50.1595 57.8603 50.1595C57.2009 50.1595 56.5816 49.903 56.1161 49.4369L49.1249 42.3732C48.5005 41.7419 47.4827 41.7369 46.8514 42.3613C46.2202 42.9863 46.2152 44.0041 46.8396 44.6354L53.7238 51.5909C53.7588 51.6347 53.7963 51.6766 53.8364 51.7167C54.7979 52.6782 54.7979 54.2435 53.8364 55.2051C52.8742 56.1666 51.3089 56.166 50.3474 55.2044L46.5318 51.3488C45.9068 50.7176 44.8889 50.7119 44.2577 51.3369C43.6264 51.9613 43.6214 52.9791 44.2458 53.6104L47.955 57.3578C47.9901 57.4016 48.0276 57.4441 48.0683 57.4842C49.0298 58.4457 49.0298 60.011 48.0683 60.9726C47.1067 61.9348 45.542 61.9341 44.5805 60.9726C44.4697 60.8618 44.3396 60.7768 44.2157 60.6817C44.1106 60.6016 44.0831 60.5459 44.1357 60.4183C44.1888 60.2888 44.2683 60.1718 44.3215 60.0417C44.3803 59.8965 44.4278 59.747 44.4741 59.5969C44.7206 58.8023 44.7932 57.9477 44.6824 57.1232C44.4697 55.541 43.5995 54.1134 42.2807 53.21C41.5682 52.7226 40.7436 52.403 39.889 52.2828C40.3032 50.4561 39.8058 48.4754 38.5121 47.1084C37.4473 45.9836 36.009 45.3523 34.4618 45.3311C34.4055 45.3304 34.3492 45.3304 34.2923 45.3311C34.3267 43.8546 33.7899 42.3876 32.7721 41.3121C31.7067 40.1873 30.2684 39.556 28.7219 39.5348C28.262 39.5285 27.7978 39.5773 27.3499 39.6805C27.1585 38.3486 26.4872 37.1162 25.4706 36.2347C24.4602 35.3601 23.1896 34.8746 21.8364 34.8558C20.4119 34.8352 19.0124 35.3607 17.9545 36.316L11.739 27.941L26.6086 9.82579L31.3476 11.1221L25.1584 22.0433C24.4102 23.364 24.2212 24.8967 24.626 26.3594C25.0308 27.8227 25.9804 29.0402 27.3011 29.7884C27.3837 29.8353 27.4669 29.8797 27.5514 29.9223C27.5576 29.9254 27.5639 29.9285 27.5707 29.9317C27.7928 30.0424 28.0212 30.1375 28.2527 30.2176C29.3306 30.5911 30.4949 30.6317 31.6178 30.3214C33.0805 29.9166 34.2979 28.9663 35.0462 27.6463L39.0682 20.5488L46.2496 21.058L65.3726 40.1804C66.3336 41.1426 66.3336 42.7072 65.372 43.6688ZM66.0383 36.2985L48.0989 18.3597C48.0651 18.3253 48.0295 18.2928 47.9926 18.2621C47.7342 18.0469 47.4139 17.9168 47.076 17.893L38.2831 17.2693C37.675 17.2274 37.0706 17.5508 36.7704 18.0807L32.2484 26.061C31.9237 26.6341 31.3951 27.0463 30.7601 27.2221C30.1257 27.3979 29.4601 27.3154 28.8864 26.9907C28.3133 26.666 27.9011 26.1373 27.7253 25.5023C27.5495 24.8673 27.6314 24.2017 27.9568 23.6286L33.9933 12.9751L36.4394 12.2713C36.4557 12.2663 36.4713 12.26 36.4876 12.255L45.6171 9.61871H56.6479L70.4188 27.1245L66.0383 36.2985ZM72.5252 24.6008L59.7903 8.40315L66.2898 4.26974L78.1895 19.7267L72.5252 24.6008Z" fill="white"/>
</svg>
