<svg width="64" height="64" viewBox="0 0 64 64" fill="none" xmlns="http://www.w3.org/2000/svg">
<circle cx="32" cy="32" r="31" fill="url(#paint0_linear_414_397)" stroke="#1C1C1C" stroke-width="2"/>
<path d="M44.5008 38.15V41.9C44.5022 42.2481 44.4309 42.5927 44.2914 42.9117C44.1519 43.2307 43.9474 43.517 43.6909 43.7523C43.4343 43.9877 43.1315 44.1669 42.8017 44.2784C42.4719 44.3899 42.1225 44.4313 41.7758 44.4C37.9293 43.9821 34.2345 42.6677 30.9883 40.5625C27.9681 38.6433 25.4074 36.0827 23.4883 33.0625C21.3757 29.8015 20.0611 26.0887 19.6508 22.225C19.6195 21.8793 19.6606 21.5309 19.7714 21.202C19.8822 20.8731 20.0602 20.5709 20.2942 20.3145C20.5282 20.0582 20.813 19.8534 21.1305 19.7132C21.448 19.5729 21.7912 19.5003 22.1383 19.5H25.8883C26.4949 19.494 27.083 19.7088 27.543 20.1044C28.0029 20.5 28.3034 21.0493 28.3883 21.65C28.5465 22.8501 28.8401 24.0284 29.2633 25.1625C29.4315 25.6099 29.4678 26.0961 29.3682 26.5636C29.2685 27.0311 29.0368 27.4601 28.7008 27.8L27.1133 29.3875C28.8927 32.5169 31.4838 35.1081 34.6133 36.8875L36.2008 35.3C36.5406 34.9639 36.9697 34.7323 37.4372 34.6326C37.9046 34.5329 38.3909 34.5693 38.8383 34.7375C39.9724 35.1607 41.1507 35.4542 42.3508 35.6125C42.958 35.6982 43.5125 36.004 43.9089 36.4719C44.3054 36.9397 44.516 37.537 44.5008 38.15Z" stroke="#1C1C1C" stroke-width="2" stroke-linecap="round" stroke-linejoin="round"/>
<defs>
<linearGradient id="paint0_linear_414_397" x1="2" y1="32" x2="62" y2="32" gradientUnits="userSpaceOnUse">
<stop stop-color="#EDE574"/>
<stop offset="1" stop-color="#E1F5C4"/>
</linearGradient>
</defs>
</svg>
