<svg width="120" height="120" viewBox="0 0 120 120" fill="none" xmlns="http://www.w3.org/2000/svg">
<g filter="url(#filter0_d_196_1492)">
<circle cx="59.5412" cy="55.8596" r="55.5412" fill="url(#paint0_linear_196_1492)"/>
</g>
<g clip-path="url(#clip0_196_1492)">
<path d="M46.4916 58.7584C44.8811 58.5217 43.2595 58.3678 41.6333 58.2973C40.9202 58.2532 39.9803 58.625 39.8175 60.423C39.7871 60.8751 39.8307 61.3291 39.9466 61.7672C40.0547 62.2247 40.2982 62.6389 40.6454 62.9557C40.9926 63.2726 41.4273 63.4773 41.8927 63.5431L48.8441 64.5219C48.8788 64.5277 48.9139 64.5305 48.9491 64.5303C49.0849 64.5305 49.2184 64.4955 49.3367 64.4288C49.4549 64.3621 49.554 64.266 49.6241 64.1497C49.6943 64.0335 49.7332 63.9011 49.7371 63.7653C49.741 63.6296 49.7098 63.4952 49.6464 63.3751C47.3601 59.0262 46.7741 58.8455 46.4916 58.7584ZM42.1122 61.9836C41.9595 61.9602 41.8173 61.8916 41.704 61.7865C41.5908 61.6815 41.5116 61.5449 41.4768 61.3944C41.4035 61.1246 41.3731 60.845 41.3865 60.5658C41.389 60.3267 41.4431 60.091 41.5451 59.8747H41.5671C43.363 59.9871 45.3826 60.1499 45.9297 60.2465C46.521 61.0377 47.0498 61.8738 47.5113 62.7471L42.1122 61.9836Z" fill="white"/>
<path d="M78.7763 58.2972C77.1501 58.3677 75.5285 58.5215 73.918 58.7582C73.6355 58.8454 73.0485 59.026 70.759 63.3792C70.6956 63.4993 70.6644 63.6337 70.6683 63.7694C70.6722 63.9051 70.7111 64.0375 70.7813 64.1538C70.8515 64.27 70.9505 64.3662 71.0688 64.4329C71.1871 64.4995 71.3206 64.5345 71.4563 64.5344C71.4915 64.5345 71.5266 64.5317 71.5614 64.526L78.5127 63.5472C78.9781 63.4814 79.4129 63.2767 79.76 62.9598C80.1072 62.643 80.3508 62.2287 80.4588 61.7713C80.5743 61.3331 80.618 60.8791 80.588 60.427C80.4283 58.6248 79.4831 58.2541 78.7763 58.2972ZM78.9328 61.3943C78.898 61.5448 78.8189 61.6814 78.7056 61.7864C78.5923 61.8914 78.4501 61.9601 78.2974 61.9834L72.8983 62.7438C73.3601 61.8709 73.8885 61.0349 74.4789 60.2432C75.0355 60.1456 77.0571 59.9828 78.852 59.8714C78.9665 60.0848 79.0253 60.3235 79.0231 60.5656C79.0366 60.8449 79.0061 61.1245 78.9328 61.3943Z" fill="white"/>
<path d="M71.1085 59.4913C71.0292 59.378 70.9214 59.2874 70.7961 59.2288C70.6708 59.1702 70.5322 59.1456 70.3944 59.1573C70.3219 59.1636 63.087 59.7875 60.2073 59.7875C57.3276 59.7875 50.0916 59.1573 50.0202 59.1573C49.8823 59.1452 49.7436 59.1696 49.6182 59.2283C49.4927 59.2869 49.385 59.3775 49.3058 59.4911C49.2267 59.6047 49.1789 59.7372 49.1673 59.8751C49.1557 60.0131 49.1808 60.1517 49.2399 60.2769L51.3141 64.6783C51.3747 64.8062 51.4686 64.9155 51.5859 64.9948C51.7032 65.074 51.8397 65.1203 51.981 65.1289L60.2031 65.5994L68.4378 65.1289C68.5792 65.1205 68.7157 65.0743 68.8331 64.995C68.9504 64.9158 69.0442 64.8064 69.1047 64.6783L71.1789 60.2769C71.2376 60.1514 71.262 60.0126 71.2496 59.8746C71.2372 59.7366 71.1886 59.6044 71.1085 59.4913ZM67.876 63.5871L60.2052 64.0303L52.5386 63.5871L51.2458 60.844C53.5132 61.0288 58.0081 61.3691 60.2083 61.3691C62.4085 61.3691 66.9045 61.0288 69.173 60.844L67.876 63.5871Z" fill="white"/>
<path d="M64.7328 35.5633L65.8943 35.9981C66.2741 36.1401 66.619 36.3619 66.9058 36.6485C67.1926 36.9351 67.4146 37.2799 67.5568 37.6596L67.9916 38.8253C68.0483 38.9743 68.149 39.1026 68.2803 39.1931C68.4116 39.2836 68.5673 39.3321 68.7267 39.3321C68.8862 39.3321 69.0419 39.2836 69.1732 39.1931C69.3045 39.1026 69.4052 38.9743 69.4619 38.8253L69.8967 37.6638C70.0391 37.2843 70.261 36.9398 70.5476 36.6532C70.8341 36.3667 71.1787 36.1447 71.5581 36.0023L72.7197 35.5675C72.8687 35.5108 72.997 35.4101 73.0875 35.2788C73.178 35.1475 73.2264 34.9918 73.2264 34.8324C73.2264 34.6729 73.178 34.5172 73.0875 34.3859C72.997 34.2546 72.8687 34.154 72.7197 34.0972L71.5581 33.6624C71.1784 33.5202 70.8336 33.2982 70.547 33.0114C70.2604 32.7247 70.0387 32.3797 69.8967 32L69.4661 30.83C69.4094 30.681 69.3087 30.5527 69.1774 30.4622C69.0461 30.3717 68.8904 30.3232 68.7309 30.3232C68.5715 30.3232 68.4158 30.3717 68.2845 30.4622C68.1532 30.5527 68.0525 30.681 67.9958 30.83L67.5568 31.9916C67.4148 32.3713 67.193 32.7163 66.9064 33.003C66.6198 33.2898 66.2751 33.5118 65.8954 33.654L64.7338 34.0888C64.5848 34.1456 64.4565 34.2462 64.366 34.3775C64.2755 34.5088 64.2271 34.6645 64.2271 34.824C64.2271 34.9834 64.2755 35.1391 64.366 35.2704C64.4565 35.4017 64.5848 35.5024 64.7338 35.5591L64.7328 35.5633ZM68.7288 33.1888C69.1184 33.8707 69.6834 34.436 70.3651 34.8261C69.6832 35.2158 69.1182 35.7812 68.7288 36.4634C68.3386 35.7815 67.7734 35.2163 67.0916 34.8261C67.7734 34.4359 68.3386 33.8706 68.7288 33.1888Z" fill="white"/>
<path d="M73.5879 40.4515L74.468 40.7812C74.7303 40.8797 74.9684 41.0332 75.1664 41.2313C75.3644 41.4295 75.5177 41.6678 75.6159 41.9302L75.9456 42.8102C76.0018 42.9606 76.1026 43.0901 76.2344 43.1816C76.3663 43.273 76.5229 43.322 76.6834 43.322C76.8439 43.322 77.0005 43.273 77.1324 43.1816C77.2642 43.0901 77.365 42.9606 77.4212 42.8102L77.7499 41.9302C77.8483 41.6677 78.0017 41.4294 78.1999 41.2312C78.3981 41.0331 78.6364 40.8796 78.8988 40.7812L79.7789 40.4515C79.9275 40.3943 80.0553 40.2935 80.1454 40.1622C80.2356 40.031 80.2838 39.8755 80.2838 39.7163C80.2838 39.5571 80.2356 39.4016 80.1454 39.2704C80.0553 39.1392 79.9275 39.0383 79.7789 38.9812L78.8988 38.6472C78.6366 38.5495 78.3984 38.3965 78.2005 38.1986C78.0027 38.0008 77.8497 37.7626 77.752 37.5004L77.4212 36.6192C77.365 36.4689 77.2642 36.3394 77.1324 36.2479C77.0005 36.1564 76.8439 36.1074 76.6834 36.1074C76.5229 36.1074 76.3663 36.1564 76.2344 36.2479C76.1026 36.3394 76.0018 36.4689 75.9456 36.6192L75.6159 37.5004C75.5176 37.7626 75.3644 38.0007 75.1664 38.1987C74.9684 38.3968 74.7302 38.55 74.468 38.6482L73.5868 38.978C73.4378 39.0347 73.3096 39.1354 73.219 39.2667C73.1285 39.398 73.0801 39.5537 73.0801 39.7132C73.0801 39.8726 73.1285 40.0283 73.219 40.1596C73.3096 40.2909 73.4378 40.3916 73.5868 40.4483L73.5879 40.4515ZM76.6829 38.8247C76.9226 39.1704 77.2225 39.4703 77.5682 39.71C77.2232 39.9502 76.9235 40.2496 76.6829 40.5943C76.443 40.2494 76.1435 39.9499 75.7986 39.71C76.144 39.4703 76.4436 39.1704 76.6829 38.8247Z" fill="white"/>
<path d="M78.5082 35.5636L79.3883 35.8934C79.6504 35.9915 79.8885 36.1446 80.0865 36.3424C80.2845 36.5402 80.4379 36.7782 80.5362 37.0402L80.866 37.9203C80.9222 38.0706 81.0229 38.2002 81.1548 38.2916C81.2866 38.3831 81.4433 38.4321 81.6037 38.4321C81.7642 38.4321 81.9209 38.3831 82.0527 38.2916C82.1846 38.2002 82.2853 38.0706 82.3415 37.9203L82.6713 37.0402C82.7693 36.778 82.9223 36.5399 83.1202 36.3419C83.318 36.1438 83.556 35.9906 83.8181 35.8923L84.6993 35.5626C84.8483 35.5058 84.9766 35.4052 85.0671 35.2739C85.1576 35.1426 85.206 34.9869 85.206 34.8274C85.206 34.668 85.1576 34.5123 85.0671 34.381C84.9766 34.2497 84.8483 34.149 84.6993 34.0923L83.8192 33.7614C83.5571 33.6634 83.3192 33.5103 83.1213 33.3125C82.9235 33.1146 82.7704 32.8767 82.6723 32.6146L82.3426 31.7335C82.2864 31.5832 82.1856 31.4536 82.0538 31.3622C81.9219 31.2707 81.7653 31.2217 81.6048 31.2217C81.4443 31.2217 81.2877 31.2707 81.1558 31.3622C81.024 31.4536 80.9232 31.5832 80.867 31.7335L80.5373 32.6146C80.439 32.8767 80.2857 33.1147 80.0877 33.3126C79.8897 33.5104 79.6516 33.6635 79.3894 33.7614L78.5082 34.0923C78.3592 34.149 78.2309 34.2497 78.1404 34.381C78.0499 34.5123 78.0015 34.668 78.0015 34.8274C78.0015 34.9869 78.0499 35.1426 78.1404 35.2739C78.2309 35.4052 78.3592 35.5058 78.5082 35.5626V35.5636ZM81.6032 33.9421C81.8437 34.2866 82.143 34.5859 82.4875 34.8264C82.143 35.0668 81.8437 35.3662 81.6032 35.7106C81.3633 35.3657 81.0639 35.0663 80.7189 34.8264C81.0636 34.5862 81.363 34.2868 81.6032 33.9421Z" fill="white"/>
<path d="M83.1113 74.8174C82.9024 74.8174 82.7021 74.9004 82.5544 75.0481C82.4067 75.1958 82.3237 75.3962 82.3237 75.6051V78.8754C82.3237 78.9492 82.2944 79.02 82.2422 79.0722C82.19 79.1244 82.1192 79.1537 82.0454 79.1537H77.9537C77.8799 79.1537 77.8091 79.1244 77.7569 79.0722C77.7047 79.02 77.6754 78.9492 77.6754 78.8754V77.527C77.6754 77.318 77.5924 77.1177 77.4447 76.97C77.297 76.8223 77.0967 76.7393 76.8878 76.7393C76.6789 76.7393 76.4785 76.8223 76.3308 76.97C76.1831 77.1177 76.1001 77.318 76.1001 77.527V78.8754C76.1007 79.3669 76.2961 79.838 76.6436 80.1855C76.9911 80.533 77.4623 80.7285 77.9537 80.7291H82.0496C82.541 80.7285 83.0122 80.533 83.3597 80.1855C83.7072 79.838 83.9026 79.3669 83.9032 78.8754V75.6051C83.9032 75.5013 83.8827 75.3985 83.8428 75.3027C83.803 75.2068 83.7446 75.1198 83.671 75.0466C83.5974 74.9734 83.5101 74.9155 83.414 74.8761C83.318 74.8368 83.2151 74.8168 83.1113 74.8174Z" fill="white"/>
<path d="M43.4669 76.7382C43.258 76.7382 43.0577 76.8212 42.91 76.9689C42.7623 77.1166 42.6793 77.317 42.6793 77.5259V78.8744C42.6793 78.948 42.6501 79.0186 42.5981 79.0708C42.5462 79.123 42.4757 79.1524 42.402 79.1527H38.3062C38.2326 79.1524 38.162 79.123 38.1101 79.0708C38.0581 79.0186 38.0289 78.948 38.0289 78.8744V75.605C38.0289 75.3961 37.946 75.1958 37.7982 75.0481C37.6505 74.9004 37.4502 74.8174 37.2413 74.8174C37.0324 74.8174 36.832 74.9004 36.6843 75.0481C36.5366 75.1958 36.4536 75.3961 36.4536 75.605V78.8754C36.4539 79.3664 36.6488 79.8372 36.9957 80.1847C37.3426 80.5322 37.8131 80.7279 38.3041 80.729H42.3999C42.8913 80.7285 43.3623 80.533 43.7097 80.1855C44.057 79.8379 44.2522 79.3668 44.2525 78.8754V77.5269C44.2528 77.3182 44.1702 77.1179 44.0229 76.97C43.8756 76.8222 43.6757 76.7388 43.4669 76.7382Z" fill="white"/>
<path d="M83.7602 50.1203L81.1347 49.6667C80.7511 49.5959 80.3548 49.6579 80.0112 49.8425C79.6675 50.0271 79.3971 50.3233 79.2443 50.6822L79.1025 50.9973L77.2415 46.6074C76.8209 45.6008 76.1495 44.7187 75.2913 44.0451C74.4332 43.3716 73.4168 42.9289 72.3391 42.7594C68.3235 42.1498 64.2666 41.8527 60.205 41.8709C56.1433 41.8531 52.0864 42.1505 48.0708 42.7604C46.9932 42.9299 45.977 43.3724 45.1188 44.0457C44.2607 44.7191 43.5892 45.601 43.1684 46.6074L41.3011 51.0015L41.1688 50.6927C41.0172 50.3322 40.7474 50.0341 40.4038 49.8474C40.0602 49.6607 39.6633 49.5966 39.2784 49.6656L36.6528 50.1203C36.2268 50.191 35.8396 50.4106 35.5603 50.7401C35.2811 51.0696 35.1278 51.4875 35.1279 51.9194V52.435C35.1283 52.8508 35.2702 53.254 35.5301 53.5785C35.7901 53.9029 36.1527 54.1293 36.5583 54.2204L39.0515 54.7833L37.9467 56.4689C36.9894 57.9254 36.48 59.6305 36.4817 61.3734V70.3317C36.4817 73.7124 38.8362 75.8979 42.4826 75.8979H77.9273C81.5737 75.8979 83.9283 73.7134 83.9283 70.3317V61.3692C83.9299 59.6263 83.4205 57.9212 82.4632 56.4647L81.3584 54.7843L83.8432 54.2235C84.25 54.1336 84.6141 53.9077 84.8754 53.5832C85.1368 53.2587 85.2798 52.8548 85.2809 52.4382V51.9225C85.2822 51.4906 85.1299 51.0723 84.8514 50.7423C84.5729 50.4122 84.1862 50.1918 83.7602 50.1203ZM36.8975 52.6787C36.8423 52.6662 36.7929 52.6353 36.7575 52.591C36.7222 52.5467 36.7031 52.4917 36.7033 52.435V51.9194C36.7024 51.8599 36.7233 51.8021 36.7619 51.7569C36.8006 51.7116 36.8544 51.682 36.9133 51.6736L39.5504 51.2178C39.5874 51.2112 39.6255 51.2181 39.6578 51.2374C39.69 51.2567 39.7142 51.2871 39.7258 51.3228L40.3696 52.7784L39.9768 53.3771L36.8975 52.6787ZM82.3529 67.8847H40.0534C39.8445 67.8847 39.6442 67.9677 39.4965 68.1154C39.3488 68.2631 39.2658 68.4635 39.2658 68.6724C39.2658 68.8813 39.3488 69.0816 39.4965 69.2294C39.6442 69.3771 39.8445 69.4601 40.0534 69.4601H82.3529V70.3317C82.3529 72.8291 80.6989 74.3225 77.9273 74.3225H42.4826C39.7111 74.3225 38.057 72.8302 38.057 70.3317V61.3692C38.0559 59.9332 38.4754 58.5283 39.2637 57.328L41.7464 53.5409H76.1105C76.3194 53.5409 76.5197 53.4579 76.6674 53.3102C76.8151 53.1625 76.8981 52.9621 76.8981 52.7532C76.8981 52.5443 76.8151 52.344 76.6674 52.1963C76.5197 52.0486 76.3194 51.9656 76.1105 51.9656H42.6065L44.6187 47.227C44.9354 46.4667 45.4417 45.8003 46.0893 45.2914C46.7368 44.7825 47.504 44.448 48.3176 44.32C52.2514 43.7208 56.2258 43.4287 60.205 43.4462C64.184 43.4276 68.1585 43.7187 72.0923 44.3169C72.9063 44.4452 73.6737 44.7801 74.3213 45.2896C74.9688 45.7991 75.4749 46.4661 75.7912 47.227L78.0933 52.6535C78.1111 52.6969 78.1333 52.7384 78.1594 52.7774L81.1462 57.3322C81.9345 58.5325 82.354 59.9374 82.3529 61.3734V67.8847ZM83.7056 52.435C83.7056 52.4928 83.6856 52.5488 83.6491 52.5936C83.6125 52.6384 83.5616 52.6692 83.505 52.6808L80.4363 53.3739L80.0435 52.7753L80.6915 51.305C80.7061 51.2731 80.7308 51.247 80.7617 51.2307C80.7927 51.2143 80.8282 51.2087 80.8627 51.2147L83.4945 51.6705C83.5534 51.6789 83.6072 51.7085 83.6459 51.7537C83.6846 51.7989 83.7054 51.8567 83.7046 51.9162L83.7056 52.435Z" fill="white"/>
</g>
<defs>
<filter id="filter0_d_196_1492" x="0" y="0.318359" width="119.083" height="119.082" filterUnits="userSpaceOnUse" color-interpolation-filters="sRGB">
<feFlood flood-opacity="0" result="BackgroundImageFix"/>
<feColorMatrix in="SourceAlpha" type="matrix" values="0 0 0 0 0 0 0 0 0 0 0 0 0 0 0 0 0 0 127 0" result="hardAlpha"/>
<feOffset dy="4"/>
<feGaussianBlur stdDeviation="2"/>
<feComposite in2="hardAlpha" operator="out"/>
<feColorMatrix type="matrix" values="0 0 0 0 0 0 0 0 0 0 0 0 0 0 0 0 0 0 0.25 0"/>
<feBlend mode="normal" in2="BackgroundImageFix" result="effect1_dropShadow_196_1492"/>
<feBlend mode="normal" in="SourceGraphic" in2="effect1_dropShadow_196_1492" result="shape"/>
</filter>
<linearGradient id="paint0_linear_196_1492" x1="59.5412" y1="0.318359" x2="59.5412" y2="111.401" gradientUnits="userSpaceOnUse">
<stop stop-color="#91A3CC"/>
<stop offset="1" stop-color="#2A4480"/>
</linearGradient>
<clipPath id="clip0_196_1492">
<rect width="50.4103" height="50.4103" fill="white" transform="translate(35 30.3184)"/>
</clipPath>
</defs>
</svg>
