<svg width="33" height="33" viewBox="0 0 33 33" fill="none" xmlns="http://www.w3.org/2000/svg">
<path d="M13.5226 21.4272C13.6496 21.5398 13.8408 21.5421 13.9705 21.4299C16.8001 18.9748 19.3795 16.3998 22.4571 13.8014C22.7227 13.5772 22.8809 13.2637 22.903 12.9181C22.9709 11.8438 21.6917 11.1404 20.8224 11.8595C18.1893 14.0341 16.0001 16.0065 13.9581 18.0452C13.5568 17.6443 13.02 17.0709 12.3576 16.335C11.8455 15.7662 10.9213 15.6678 10.2995 16.282C9.75345 16.821 9.7274 17.6863 10.2397 18.2522C11.4763 19.617 12.2526 20.2981 13.5226 21.4272Z" fill="#EDE574"/>
<path d="M6.87732 27.5296C11.214 30.8996 17.7753 31.1647 22.3189 28.0794C26.223 25.4284 28.513 20.3311 28.0988 15.6061C27.8518 8.58264 23.2881 4.20976 15.7821 3.86807C13.5744 3.76344 11.429 4.30953 9.53744 5.42035C6.37767 6.90763 3.76491 9.59524 2.58591 12.8911C0.73603 18.0624 2.54061 24.1595 6.87732 27.5296ZM5.37031 10.959C7.49141 6.99104 11.275 4.33877 15.7512 4.54527C23.175 4.88343 27.4326 9.13557 27.4326 16.2117C27.4326 22.6442 22.1994 27.8777 15.7666 27.8777C6.9033 27.8777 1.42057 18.3486 5.37031 10.959Z" fill="#EDE574"/>
<path d="M25.1615 2.97336C24.7436 3.96973 24.4626 5.01776 24.326 6.08918C24.3024 6.27503 24.4337 6.44455 24.6196 6.46839C24.8097 6.49144 24.9755 6.3575 24.9988 6.17482C25.1275 5.16432 25.3926 4.17545 25.7866 3.23558C25.8592 3.06297 25.7777 2.86432 25.6051 2.79192C25.4321 2.71863 25.2339 2.80074 25.1615 2.97336Z" fill="#EDE574"/>
<path d="M29.4204 5.1987C29.3058 5.05037 29.093 5.023 28.9447 5.13822L26.6696 6.89964C26.5215 7.01398 26.4944 7.22721 26.6092 7.3751C26.7243 7.52454 26.9389 7.54944 27.0846 7.43558L29.3597 5.67415C29.5078 5.55981 29.5349 5.34659 29.4204 5.1987Z" fill="#EDE574"/>
<path d="M31.118 9.14177C31.0601 8.96386 30.8694 8.86586 30.6906 8.92457C29.9276 9.17356 29.1362 9.29407 28.3284 9.27509C28.1522 9.28171 27.9865 9.41989 27.9825 9.60751C27.9787 9.79469 28.1275 9.9492 28.3147 9.95317C29.2401 9.9686 30.0931 9.83242 30.9008 9.5691C31.0789 9.51127 31.176 9.31968 31.118 9.14177Z" fill="#EDE574"/>
</svg>
