<svg width="512" height="512" viewBox="0 0 512 512" fill="none" xmlns="http://www.w3.org/2000/svg">
<g clip-path="url(#clip0_1855_110)">
<path d="M137.72 99.2369L150 120.317C151.107 122.058 152.844 123.304 154.848 123.795C156.852 124.286 158.969 123.984 160.755 122.951C162.541 121.919 163.86 120.236 164.435 118.254C165.009 116.272 164.796 114.145 163.84 112.317L147.56 84.3169C146.498 82.4938 144.759 81.1641 142.721 80.6172C140.683 80.0703 138.512 80.3505 136.68 81.3969L108.68 97.3969C106.839 98.4577 105.496 100.206 104.944 102.258C104.393 104.31 104.679 106.496 105.74 108.337C106.801 110.177 108.549 111.521 110.601 112.073C112.653 112.624 114.839 112.338 116.68 111.277L137.72 99.2369Z" fill="white"/>
<path d="M173.76 387.404C174.822 389.227 176.561 390.556 178.599 391.103C180.637 391.65 182.808 391.37 184.64 390.324L212.64 374.324C214.481 373.263 215.824 371.514 216.376 369.462C216.927 367.411 216.641 365.224 215.58 363.384C214.519 361.543 212.771 360.199 210.719 359.648C208.667 359.096 206.481 359.383 204.64 360.444L183.6 372.484L171.32 351.404C170.213 349.662 168.476 348.416 166.472 347.925C164.468 347.434 162.352 347.737 160.565 348.769C158.779 349.802 157.46 351.485 156.886 353.466C156.311 355.448 156.524 357.575 157.48 359.404L173.76 387.404Z" fill="white"/>
<path d="M66.04 121.957L38.04 137.957C37.1267 138.483 36.3262 139.184 35.6848 140.021C35.0433 140.857 34.5733 141.812 34.302 142.83C34.0307 143.849 33.9632 144.911 34.1036 145.955C34.244 147 34.5894 148.006 35.12 148.917L51.4 176.917C52.507 178.658 54.2439 179.905 56.2481 180.396C58.2522 180.886 60.3685 180.584 62.1549 179.551C63.9413 178.519 65.2597 176.836 65.8346 174.854C66.4095 172.873 66.1964 170.745 65.24 168.917L52.8 147.997L73.96 135.997C74.8714 135.472 75.6704 134.772 76.3114 133.938C76.9523 133.104 77.4228 132.152 77.6958 131.136C77.9688 130.12 78.039 129.06 77.9025 128.017C77.7659 126.974 77.4253 125.968 76.9 125.057C76.3747 124.146 75.6751 123.347 74.841 122.706C74.0069 122.065 73.0548 121.594 72.0389 121.321C71.023 121.048 69.9633 120.978 68.9203 121.115C67.8773 121.251 66.8714 121.592 65.96 122.117L66.04 121.957Z" fill="white"/>
<path d="M189.68 199.164C183.416 194.921 176.232 192.23 168.721 191.313C161.211 190.395 153.591 191.279 146.489 193.889C139.388 196.5 133.01 200.763 127.882 206.327C122.754 211.89 119.024 218.594 117 225.884C115.501 231.34 115.104 237.039 115.832 242.65C116.56 248.261 118.398 253.671 121.24 258.564C124.592 264.337 129.267 269.231 134.88 272.844C136.662 273.97 138.817 274.348 140.876 273.895C142.935 273.441 144.731 272.193 145.875 270.422C147.019 268.651 147.417 266.5 146.984 264.437C146.55 262.373 145.32 260.565 143.56 259.404C140.055 257.162 137.135 254.118 135.04 250.524C133.268 247.454 132.125 244.062 131.679 240.545C131.232 237.029 131.491 233.459 132.44 230.044C133.79 225.238 136.257 220.819 139.639 217.147C143.021 213.475 147.223 210.655 151.903 208.916C156.582 207.177 161.606 206.568 166.565 207.139C171.525 207.711 176.279 209.446 180.44 212.204C181.763 213.154 182.995 214.225 184.12 215.404C184.847 216.163 185.717 216.771 186.68 217.194C187.643 217.617 188.679 217.846 189.73 217.868C190.781 217.891 191.827 217.706 192.806 217.324C193.786 216.942 194.681 216.371 195.44 215.644C196.199 214.916 196.807 214.046 197.23 213.084C197.653 212.121 197.882 211.085 197.904 210.034C197.927 208.982 197.742 207.937 197.36 206.957C196.978 205.978 196.407 205.083 195.68 204.324C193.844 202.422 191.835 200.695 189.68 199.164Z" fill="white"/>
<path d="M190.2 78.3973C191.496 78.3974 192.772 78.083 193.919 77.4809C195.066 76.8788 196.05 76.0071 196.786 74.9408C197.521 73.8745 197.987 72.6454 198.143 71.3593C198.299 70.0732 198.14 68.7684 197.68 67.5572L186.16 37.3173C185.407 35.3334 183.896 33.7301 181.961 32.8599C180.026 31.9897 177.824 31.924 175.84 32.6773C173.856 33.4305 172.253 34.9409 171.383 36.8763C170.513 38.8117 170.447 41.0134 171.2 42.9973L182.72 73.1972C183.29 74.7221 184.311 76.0368 185.648 76.9659C186.984 77.8951 188.572 78.3944 190.2 78.3973Z" fill="white"/>
<path d="M510.76 432.884C499.76 415.644 402.96 264.004 389.52 250.844L386.72 248.084C374.04 235.604 359.72 221.444 340.32 221.444H340C326.28 221.444 298.24 223.484 285.96 224.404L202.52 5.16372C201.767 3.1894 200.263 1.59332 198.337 0.723975C196.411 -0.14537 194.219 -0.21736 192.24 0.523724L37.16 58.7237C36.174 59.0927 35.2706 59.6526 34.5015 60.3713C33.7323 61.0901 33.1126 61.9536 32.6779 62.9123C32.2431 63.871 32.0018 64.9061 31.9679 65.9583C31.9339 67.0104 32.1079 68.059 32.48 69.0437L37.76 82.9237C38.5132 84.9075 40.0236 86.5109 41.959 87.3811C43.8944 88.2512 46.0962 88.3169 48.08 87.5637C50.0638 86.8105 51.6672 85.3001 52.5373 83.3647C53.4075 81.4293 53.4732 79.2275 52.72 77.2437L50.28 70.8837L190.28 18.2837L286.28 270.764H285.96C285.822 269.69 285.469 268.656 284.92 267.724L158.4 49.9637C157.338 48.1407 155.599 46.811 153.561 46.2641C151.523 45.7172 149.352 45.9974 147.52 47.0437L3.99998 129.444C3.08662 129.97 2.2862 130.671 1.64471 131.507C1.00322 132.344 0.533303 133.298 0.261962 134.317C-0.00937837 135.335 -0.0767942 136.397 0.0635884 137.442C0.203971 138.486 0.549385 139.493 1.07998 140.404L164.48 420.844C164.718 421.212 164.985 421.56 165.28 421.884C165.443 422.106 165.616 422.319 165.8 422.524C166.089 422.786 166.396 423.026 166.72 423.244C167.227 423.714 167.847 424.045 168.52 424.204C169.413 424.646 170.405 424.853 171.4 424.804C172.089 424.799 172.775 424.705 173.44 424.524L174.04 424.284C174.496 424.137 174.938 423.95 175.36 423.724L209.84 403.724C208.666 409.295 209.234 415.092 211.467 420.33C213.699 425.568 217.488 429.992 222.32 433.004C228.24 437.004 276.88 462.724 290.84 462.724C299.52 462.724 316.56 455.364 326.48 450.724C334.943 466.432 346.777 480.073 361.134 490.668C375.491 501.263 392.015 508.549 409.52 512.004H410.68C411.731 512.08 412.786 511.948 413.786 511.617C414.785 511.285 415.71 510.76 416.507 510.071C417.303 509.382 417.957 508.543 418.429 507.601C418.901 506.66 419.184 505.634 419.26 504.584C419.336 503.533 419.205 502.478 418.873 501.478C418.541 500.478 418.016 499.554 417.327 498.757C416.638 497.96 415.799 497.307 414.857 496.835C413.916 496.362 412.891 496.08 411.84 496.004C396.594 492.939 382.222 486.516 369.768 477.203C357.314 467.891 347.091 455.921 339.84 442.164C336.717 435.85 333.966 429.359 331.6 422.724C325.92 407.884 320.08 392.564 310 383.804C304.68 379.164 285.12 363.804 262.52 345.884L230.2 320.284C219.08 311.484 185.28 284.644 178.76 278.244C176.425 276.246 174.515 273.801 173.141 271.053C171.767 268.305 170.957 265.31 170.76 262.244C171.265 256.079 174.131 250.347 178.76 246.244C185.52 239.404 196.04 239.804 209.96 247.364L344 320.004C345.156 320.627 346.447 320.957 347.76 320.964C349.558 321.01 351.319 320.449 352.759 319.371C354.199 318.293 355.234 316.761 355.696 315.023C356.159 313.284 356.022 311.441 355.307 309.79C354.593 308.139 353.343 306.777 351.76 305.924L308 282.324C307.916 281.888 307.795 281.46 307.64 281.044L292 240.004C305.56 239.044 328.64 237.524 340.2 237.444C353 237.444 363.88 248.164 375.36 259.484L378.2 262.284C387.4 271.284 454.2 374.284 497.12 441.484C497.665 442.41 498.391 443.217 499.255 443.856C500.119 444.495 501.103 444.954 502.148 445.205C503.193 445.456 504.278 445.493 505.338 445.315C506.398 445.138 507.411 444.748 508.317 444.17C509.223 443.592 510.003 442.837 510.611 441.951C511.219 441.065 511.642 440.065 511.856 439.012C512.069 437.958 512.067 436.873 511.852 435.82C511.636 434.767 511.21 433.768 510.6 432.884H510.76ZM312.2 416.884C313.8 420.884 315.36 424.884 316.84 428.564C317.88 431.284 318.88 433.884 319.92 436.564C308.12 442.044 295.16 447.084 290.84 447.124C283.16 446.924 240.84 426.364 231.08 420.004C228.413 418.43 226.458 415.886 225.623 412.904C224.788 409.923 225.138 406.733 226.6 404.004C227.313 402.14 228.428 400.457 229.866 399.074C231.304 397.691 233.03 396.643 234.92 396.004C240.28 400.004 246.52 404.004 252.28 407.524C256.96 410.444 261.36 413.204 263.8 415.084C268.12 418.484 276.08 419.564 284.44 419.564C293.757 419.473 303.047 418.549 312.2 416.804V416.884ZM304.76 402.124C295.2 403.644 277.52 404.884 273.64 402.684C270.52 400.244 266 397.444 260.76 394.124C255.52 390.804 249.84 387.284 245.08 383.764L268 370.564C283.6 382.884 296 392.604 299.68 396.004C301.653 397.791 303.375 399.836 304.8 402.084L304.76 402.124ZM167.36 235.124C163.527 238.635 160.436 242.88 158.272 247.607C156.108 252.334 154.914 257.447 154.76 262.644C154.979 267.809 156.244 272.875 158.479 277.537C160.713 282.199 163.871 286.358 167.76 289.764C172.68 294.564 188.92 307.884 220.44 332.884L252.8 358.484L254.56 359.844L174.28 405.964L18.96 139.324L148.6 64.8837L260.24 256.524L217.56 233.404C191.48 219.284 176 226.524 167.36 235.124Z" fill="white"/>
</g>
<defs>
<clipPath id="clip0_1855_110">
<rect width="512" height="512" fill="white"/>
</clipPath>
</defs>
</svg>
