<svg width="512" height="512" viewBox="0 0 512 512" fill="none" xmlns="http://www.w3.org/2000/svg">
<path d="M145.067 477.866H366.933C371.46 477.866 375.801 476.068 379.001 472.867C382.202 469.667 384 465.326 384 460.799V51.1995C384 46.6731 382.202 42.3321 379.001 39.1315C375.801 35.9309 371.46 34.1328 366.933 34.1328H341.333C336.807 34.1328 332.466 35.9309 329.265 39.1315C326.065 42.3321 324.267 46.6731 324.267 51.1995V59.7328C324.267 61.996 323.368 64.1665 321.767 65.7668C320.167 67.3671 317.997 68.2661 315.733 68.2661H196.267C194.003 68.2661 191.833 67.3671 190.233 65.7668C188.632 64.1665 187.733 61.996 187.733 59.7328V51.1995C187.733 46.6731 185.935 42.3321 182.735 39.1315C179.534 35.9309 175.193 34.1328 170.667 34.1328H145.067C140.54 34.1328 136.199 35.9309 132.999 39.1315C129.798 42.3321 128 46.6731 128 51.1995V460.799C128 465.326 129.798 469.667 132.999 472.867C136.199 476.068 140.54 477.866 145.067 477.866ZM145.067 460.799V409.079C154.174 407.978 162.921 404.856 170.667 399.94C178.238 394.903 187.176 392.317 196.267 392.533C205.375 392.31 214.331 394.896 221.918 399.94C232.174 406.255 243.981 409.599 256.026 409.599C268.07 409.599 279.878 406.255 290.133 399.94C297.798 395.108 306.673 392.543 315.733 392.543C324.794 392.543 333.669 395.108 341.333 399.94C349.076 404.862 357.824 407.985 366.933 409.079V460.799H145.067ZM170.667 51.1995V59.7328C170.667 66.5224 173.364 73.0338 178.165 77.8348C182.966 82.6357 189.477 85.3328 196.267 85.3328H315.733C322.523 85.3328 329.034 82.6357 333.835 77.8348C338.636 73.0338 341.333 66.5224 341.333 59.7328V51.1995H366.933V391.901C360.852 390.794 355.051 388.491 349.867 385.126C339.62 378.81 327.821 375.466 315.785 375.466C303.748 375.466 291.949 378.81 281.702 385.126C274.025 389.965 265.135 392.532 256.06 392.532C246.985 392.532 238.095 389.965 230.417 385.126C220.252 378.573 208.359 375.209 196.267 375.466C184.18 375.212 172.294 378.576 162.133 385.126C156.951 388.495 151.149 390.798 145.067 391.901V51.1995H170.667Z" fill="white"/>
<path d="M136.533 512H375.467C386.778 511.986 397.623 507.487 405.622 499.488C413.62 491.49 418.12 480.645 418.133 469.333V42.6667C418.12 31.3549 413.62 20.5104 405.622 12.5117C397.623 4.51313 386.778 0.0135497 375.467 0L136.533 0C125.222 0.0135497 114.377 4.51313 106.378 12.5117C98.3798 20.5104 93.8802 31.3549 93.8667 42.6667V469.333C93.8802 480.645 98.3798 491.49 106.378 499.488C114.377 507.487 125.222 511.986 136.533 512ZM110.933 42.6667C110.933 35.8771 113.63 29.3657 118.431 24.5647C123.232 19.7638 129.744 17.0667 136.533 17.0667H375.467C382.256 17.0667 388.768 19.7638 393.569 24.5647C398.37 29.3657 401.067 35.8771 401.067 42.6667V469.333C401.067 476.123 398.37 482.634 393.569 487.435C388.768 492.236 382.256 494.933 375.467 494.933H136.533C129.744 494.933 123.232 492.236 118.431 487.435C113.63 482.634 110.933 476.123 110.933 469.333V42.6667Z" fill="white"/>
<path d="M256 358.4C278.273 358.718 299.763 350.191 315.759 334.689C331.755 319.187 340.952 297.976 341.333 275.704C341.333 237.15 324.361 213.948 306.347 189.381C291.911 171.138 280.017 151.021 270.993 129.579C269.781 126.587 267.703 124.025 265.026 122.221C262.349 120.417 259.194 119.453 255.966 119.453C252.738 119.453 249.583 120.417 246.906 122.221C244.229 124.025 242.151 126.587 240.939 129.579C231.938 151.018 220.068 171.136 205.653 189.381C187.674 213.948 170.667 237.167 170.667 275.704C171.049 297.976 180.245 319.187 196.241 334.689C212.237 350.191 233.727 358.718 256 358.4ZM219.392 199.467C234.191 180.622 246.495 159.946 256 137.95C265.505 159.946 277.81 180.622 292.608 199.467C310.289 223.634 324.267 242.723 324.267 275.704C323.583 293.352 316.092 310.049 303.364 322.294C290.636 334.538 273.661 341.377 256 341.377C238.339 341.377 221.364 334.538 208.636 322.294C195.908 310.049 188.417 293.352 187.733 275.704C187.733 242.723 201.711 223.634 219.392 199.467Z" fill="white"/>
<path d="M221.867 51.1995H230.4C232.663 51.1995 234.834 50.3004 236.434 48.7001C238.034 47.0998 238.933 44.9293 238.933 42.6661C238.933 40.403 238.034 38.2325 236.434 36.6322C234.834 35.0319 232.663 34.1328 230.4 34.1328H221.867C219.603 34.1328 217.433 35.0319 215.833 36.6322C214.232 38.2325 213.333 40.403 213.333 42.6661C213.333 44.9293 214.232 47.0998 215.833 48.7001C217.433 50.3004 219.603 51.1995 221.867 51.1995Z" fill="white"/>
<path d="M264.533 51.1995H290.133C292.397 51.1995 294.567 50.3004 296.167 48.7001C297.768 47.0998 298.667 44.9293 298.667 42.6661C298.667 40.403 297.768 38.2325 296.167 36.6322C294.567 35.0319 292.397 34.1328 290.133 34.1328H264.533C262.27 34.1328 260.1 35.0319 258.499 36.6322C256.899 38.2325 256 40.403 256 42.6661C256 44.9293 256.899 47.0998 258.499 48.7001C260.1 50.3004 262.27 51.1995 264.533 51.1995Z" fill="white"/>
<path d="M256 273.068C258.263 273.068 260.434 272.169 262.034 270.568C263.634 268.968 264.533 266.797 264.533 264.534V204.801C264.533 202.538 263.634 200.367 262.034 198.767C260.434 197.167 258.263 196.268 256 196.268C253.737 196.268 251.566 197.167 249.966 198.767C248.366 200.367 247.467 202.538 247.467 204.801V264.534C247.467 266.797 248.366 268.968 249.966 270.568C251.566 272.169 253.737 273.068 256 273.068Z" fill="white"/>
<path d="M256 315.733C258.263 315.733 260.434 314.834 262.034 313.233C263.634 311.633 264.533 309.463 264.533 307.199V298.666C264.533 296.403 263.634 294.232 262.034 292.632C260.434 291.032 258.263 290.133 256 290.133C253.737 290.133 251.566 291.032 249.966 292.632C248.366 294.232 247.467 296.403 247.467 298.666V307.199C247.467 309.463 248.366 311.633 249.966 313.233C251.566 314.834 253.737 315.733 256 315.733Z" fill="white"/>
</svg>
