<svg width="78" height="72" viewBox="0 0 78 72" fill="none" xmlns="http://www.w3.org/2000/svg">
<path d="M72.6067 11.4865H25.548L20.9058 3.44611C20.0655 1.99062 18.7548 1.02552 17.1153 0.655477C15.4756 0.284825 13.8776 0.593321 12.4937 1.54638L2.10168 8.70121C1.75114 8.94252 1.49581 9.29855 1.37973 9.70774C0.112531 14.1728 0.394062 19.852 2.21655 26.5876C3.84556 32.6082 6.64564 39.1486 10.3139 45.5021C16.5873 56.3677 26.8976 68.888 37.0216 71.4412C37.1688 71.4783 37.3188 71.4967 37.4687 71.4967C37.7385 71.4967 38.0073 71.4368 38.2544 71.3192L49.6465 65.897C51.1641 65.1747 52.2301 63.9447 52.729 62.3396C53.2279 60.7345 53.0476 59.1171 52.2072 57.6619L50.5692 54.8248H72.6067C75.2441 54.8248 77.3895 52.6793 77.3895 50.042V16.2692C77.3895 13.6321 75.2441 11.4865 72.6067 11.4865ZM27.2791 15.1428H69.6616L46.619 30.9393L27.2096 17.6334C27.4066 16.8242 27.4349 15.9741 27.2791 15.1428ZM49.2376 61.2542C49.0414 61.8855 48.672 62.3116 48.0751 62.5959L37.2993 67.7247C29.9606 65.4975 20.6902 56.1618 13.4802 43.6741C6.26234 31.1725 2.95374 18.8772 4.73601 11.3264L14.5671 4.55761C15.1112 4.18284 15.6655 4.07605 16.3099 4.22169C16.9544 4.36733 17.4087 4.70157 17.7392 5.27408L23.4374 15.1437C24.0337 16.1764 23.6902 17.521 22.6716 18.1412L16.36 21.9844C15.7005 22.3861 15.3644 23.1588 15.5203 23.915C17.3316 32.7004 25.0853 46.1302 31.788 52.0914C32.3648 52.6047 33.2024 52.6999 33.8797 52.3294L40.3637 48.7848C41.4102 48.2131 42.7465 48.5875 43.3427 49.6203L49.0409 59.49C49.3714 60.0624 49.4338 60.623 49.2376 61.2542ZM72.6067 51.1685H48.4584L46.5091 47.7923C44.928 45.0538 41.3844 44.0599 38.61 45.5768L33.2877 48.4862C27.6898 42.9612 21.378 32.0293 19.3922 24.4188L24.573 21.2644C24.8279 21.1091 25.0666 20.9368 25.289 20.7498L45.5852 34.6636C45.8967 34.8772 46.2578 34.984 46.6188 34.984C46.9799 34.984 47.3411 34.8772 47.6525 34.6636L73.7333 16.7843V50.0421C73.7333 50.6527 73.2173 51.1685 72.6067 51.1685Z" fill="white"/>
</svg>
