<svg width="78" height="78" viewBox="0 0 78 78" fill="none" xmlns="http://www.w3.org/2000/svg">
<path d="M9.75 60.9375H6.09375C5.77052 60.9375 5.46052 61.0659 5.23196 61.2945C5.0034 61.523 4.875 61.833 4.875 62.1562C4.875 62.4795 5.0034 62.7895 5.23196 63.018C5.46052 63.2466 5.77052 63.375 6.09375 63.375H9.75C10.0732 63.375 10.3832 63.2466 10.6118 63.018C10.8403 62.7895 10.9688 62.4795 10.9688 62.1562C10.9688 61.833 10.8403 61.523 10.6118 61.2945C10.3832 61.0659 10.0732 60.9375 9.75 60.9375Z" fill="white"/>
<path d="M14.625 60.9375H13.4062C13.083 60.9375 12.773 61.0659 12.5445 61.2945C12.3159 61.523 12.1875 61.833 12.1875 62.1562C12.1875 62.4795 12.3159 62.7895 12.5445 63.018C12.773 63.2466 13.083 63.375 13.4062 63.375H14.625C14.9482 63.375 15.2582 63.2466 15.4868 63.018C15.7153 62.7895 15.8438 62.4795 15.8438 62.1562C15.8438 61.833 15.7153 61.523 15.4868 61.2945C15.2582 61.0659 14.9482 60.9375 14.625 60.9375Z" fill="white"/>
<path d="M71.9062 25.5938H69.4688V15.8438C69.4671 14.5513 68.9529 13.3123 68.039 12.3985C67.1252 11.4846 65.8862 10.9704 64.5938 10.9688H13.4062C12.1138 10.9702 10.8746 11.4843 9.96071 12.3982C9.04678 13.3121 8.5327 14.5513 8.53125 15.8438V37.7812H6.09375C4.80127 37.7827 3.56213 38.2968 2.64821 39.2107C1.73428 40.1246 1.2202 41.3638 1.21875 42.6562V62.1562C1.2202 63.4487 1.73428 64.6879 2.64821 65.6018C3.56213 66.5157 4.80127 67.0298 6.09375 67.0312H18.2812C19.5737 67.0296 20.8127 66.5154 21.7265 65.6015C22.6404 64.6877 23.1546 63.4487 23.1562 62.1562V58.5H33.7822L33.1729 60.9375H29.25C28.9268 60.9375 28.6168 61.0659 28.3882 61.2945C28.1597 61.523 28.0312 61.833 28.0312 62.1562V65.8125C28.0312 66.1357 28.1597 66.4457 28.3882 66.6743C28.6168 66.9028 28.9268 67.0312 29.25 67.0312H71.9062C73.1987 67.0296 74.4377 66.5154 75.3515 65.6015C76.2654 64.6877 76.7796 63.4487 76.7812 62.1562V30.4688C76.7796 29.1763 76.2654 27.9373 75.3515 27.0235C74.4377 26.1096 73.1987 25.5954 71.9062 25.5938ZM20.7188 62.1562C20.7179 62.8025 20.4608 63.422 20.0039 63.8789C19.547 64.3358 18.9275 64.5929 18.2812 64.5938H6.09375C5.44754 64.5929 4.82805 64.3358 4.37111 63.8789C3.91418 63.422 3.6571 62.8025 3.65625 62.1562V42.6562C3.6571 42.01 3.91418 41.3905 4.37111 40.9336C4.82805 40.4767 5.44754 40.2196 6.09375 40.2188H7.65223L8.59371 43.0417C8.67461 43.2844 8.82982 43.4954 9.03734 43.645C9.24487 43.7945 9.49419 43.875 9.75 43.875H14.625C14.8808 43.875 15.1301 43.7945 15.3377 43.645C15.5452 43.4954 15.7004 43.2844 15.7813 43.0417L16.7228 40.2188H18.2812C18.9275 40.2196 19.547 40.4767 20.0039 40.9336C20.4608 41.3905 20.7179 42.01 20.7188 42.6562V62.1562ZM10.2223 40.2188H14.1527L13.746 41.4375H10.629L10.2223 40.2188ZM23.1562 56.0625V52.4062H45.0938V56.0625H23.1562ZM45.0938 58.5V60.9375H44.8271L44.2178 58.5H45.0938ZM42.3135 60.9375H35.6865L36.2959 58.5H41.7041L42.3135 60.9375ZM30.4688 64.5938V63.375H45.2476C45.3592 63.8022 45.5283 64.2122 45.7504 64.5938H30.4688ZM45.0938 30.4688V49.9688H23.1562V42.6562C23.1546 41.3638 22.6404 40.1248 21.7265 39.211C20.8127 38.2971 19.5737 37.7829 18.2812 37.7812H10.9688V15.8438C10.9696 15.1975 11.2267 14.578 11.6836 14.1211C12.1405 13.6642 12.76 13.4071 13.4062 13.4062H64.5938C65.24 13.4071 65.8595 13.6642 66.3164 14.1211C66.7733 14.578 67.0304 15.1975 67.0312 15.8438V25.5938H49.9688C48.6763 25.5954 47.4373 26.1096 46.5235 27.0235C45.6096 27.9373 45.0954 29.1763 45.0938 30.4688ZM74.3438 62.1562C74.3429 62.8025 74.0858 63.422 73.6289 63.8789C73.172 64.3358 72.5525 64.5929 71.9062 64.5938H49.9688C49.3225 64.5929 48.703 64.3358 48.2461 63.8789C47.7892 63.422 47.5321 62.8025 47.5312 62.1562V30.4688C47.5321 29.8225 47.7892 29.203 48.2461 28.7461C48.703 28.2892 49.3225 28.0321 49.9688 28.0312H71.9062C72.5525 28.0321 73.172 28.2892 73.6289 28.7461C74.0858 29.203 74.3429 29.8225 74.3438 30.4688V62.1562Z" fill="white"/>
<path d="M71.9062 29.25H49.9688C49.6455 29.25 49.3355 29.3784 49.107 29.607C48.8784 29.8355 48.75 30.1455 48.75 30.4688V58.5C48.75 58.8232 48.8784 59.1332 49.107 59.3618C49.3355 59.5903 49.6455 59.7188 49.9688 59.7188H71.9062C72.2295 59.7188 72.5395 59.5903 72.768 59.3618C72.9966 59.1332 73.125 58.8232 73.125 58.5V30.4688C73.125 30.1455 72.9966 29.8355 72.768 29.607C72.5395 29.3784 72.2295 29.25 71.9062 29.25ZM70.6875 57.2812H51.1875V31.6875H70.6875V57.2812Z" fill="white"/>
<path d="M59.7188 63.375C60.3918 63.375 60.9375 62.8293 60.9375 62.1562C60.9375 61.4832 60.3918 60.9375 59.7188 60.9375C59.0457 60.9375 58.5 61.4832 58.5 62.1562C58.5 62.8293 59.0457 63.375 59.7188 63.375Z" fill="white"/>
</svg>
