<svg width="78" height="78" viewBox="0 0 78 78" fill="none" xmlns="http://www.w3.org/2000/svg">
<path d="M77.3581 9.84442C77.3118 9.80085 68.1496 1.06317 68.1496 1.06317C67.7994 0.727104 67.4371 0.379761 66.7607 0.379761H29.8753C28.7979 0.379761 27.9213 1.25619 27.9213 2.33357V8.33332L14.921 10.5618C13.879 10.7446 13.1782 11.7419 13.3588 12.7828L14.0186 16.6298C9.793 18.0518 5.4547 19.5176 1.26662 21.022C0.276996 21.3839 -0.242344 22.4842 0.110789 23.4798L8.44171 46.6385C8.60928 47.1045 9.04849 47.3947 9.51695 47.3947C9.64522 47.3947 9.77593 47.3729 9.9036 47.3269C10.4974 47.1133 10.8056 46.4589 10.592 45.865L2.38437 23.0488C6.33007 21.6361 10.4162 20.2535 14.4096 18.9093L18.3357 41.7982L22.8533 68.1586C23.0164 69.0891 23.8344 69.7512 24.7576 69.7512C24.8621 69.7512 24.9681 69.7426 25.0744 69.7251L37.3101 67.6254L46.8712 65.9864L32.4913 71.155L21.1516 75.2322L12.3449 50.737C12.1315 50.1432 11.4772 49.835 10.8832 50.0484C10.2893 50.2618 9.98114 50.9163 10.1946 51.5101L19.1262 76.3534C19.4118 77.1347 20.1519 77.6203 20.9342 77.6203C21.1504 77.6203 21.3699 77.5832 21.5838 77.505L33.2641 73.3055L59.7863 63.7727L64.8531 62.9042H76.0459C77.1233 62.9042 77.9999 62.0258 77.9999 60.946V11.1319C78 10.448 77.6289 10.0991 77.3581 9.84442ZM74.3308 10.115H68.6134L68.4717 10.1156C68.1979 10.1174 67.557 10.1221 67.3945 9.96066C67.357 9.92334 67.3131 9.79872 67.3131 9.56731L67.2999 3.41033L74.3308 10.115ZM75.7149 60.6188H30.2064V38.3511C30.2064 37.7201 29.6949 37.2086 29.0639 37.2086C28.4329 37.2086 27.9213 37.7201 27.9213 38.3511V60.9457C27.9213 62.0253 28.7979 62.9039 29.8753 62.9039H51.3271L36.9237 65.3728L25.0437 67.4116L20.5879 41.4119L15.6719 12.7514L27.9211 10.6517V33.0496C27.9211 33.6806 28.4327 34.1922 29.0637 34.1922C29.6947 34.1922 30.2063 33.6806 30.2063 33.0496V2.66476H65.013L65.028 9.5699C65.028 10.4069 65.2825 11.0839 65.7845 11.5824C66.5558 12.3482 67.6461 12.4015 68.323 12.4015C68.3812 12.4015 68.4364 12.4011 68.488 12.4007L75.7149 12.4003V60.6188Z" fill="white"/>
<path d="M35.7129 18.1211C35.7129 18.7521 36.2245 19.2637 36.8555 19.2637H69.5235C70.1545 19.2637 70.666 18.7521 70.666 18.1211C70.666 17.4901 70.1545 16.9785 69.5235 16.9785H36.8555C36.2245 16.9785 35.7129 17.4901 35.7129 18.1211Z" fill="white"/>
<path d="M69.5235 25.0957H36.8555C36.2245 25.0957 35.7129 25.6073 35.7129 26.2383C35.7129 26.8693 36.2245 27.3809 36.8555 27.3809H69.5235C70.1545 27.3809 70.666 26.8693 70.666 26.2383C70.666 25.6073 70.1545 25.0957 69.5235 25.0957Z" fill="white"/>
<path d="M69.5235 33.2129H36.8555C36.2245 33.2129 35.7129 33.7245 35.7129 34.3555C35.7129 34.9865 36.2245 35.498 36.8555 35.498H69.5235C70.1545 35.498 70.666 34.9865 70.666 34.3555C70.666 33.7245 70.1545 33.2129 69.5235 33.2129Z" fill="white"/>
<path d="M69.5235 41.3301H36.8555C36.2245 41.3301 35.7129 41.8416 35.7129 42.4727C35.7129 43.1037 36.2245 43.6152 36.8555 43.6152H69.5235C70.1545 43.6152 70.666 43.1037 70.666 42.4727C70.666 41.8416 70.1545 41.3301 69.5235 41.3301Z" fill="white"/>
<path d="M69.5235 49.4474H36.8555C36.2245 49.4474 35.7129 49.959 35.7129 50.59C35.7129 51.221 36.2245 51.7325 36.8555 51.7325H69.5235C70.1545 51.7325 70.666 51.221 70.666 50.59C70.666 49.959 70.1545 49.4474 69.5235 49.4474Z" fill="white"/>
</svg>
