<svg width="269" height="269" viewBox="0 0 269 269" fill="none" xmlns="http://www.w3.org/2000/svg">
<g clip-path="url(#clip0_1737_24)">
<path d="M134.5 252.188C136.821 252.188 138.703 250.306 138.703 247.984C138.703 245.663 136.821 243.781 134.5 243.781C132.179 243.781 130.297 245.663 130.297 247.984C130.297 250.306 132.179 252.188 134.5 252.188Z" fill="white"/>
<path d="M193.344 0H75.6562C71.1989 0.00511162 66.9255 1.77806 63.7737 4.92991C60.6218 8.08176 58.8489 12.3551 58.8438 16.8125V49.1856C58.8438 50.1901 59.2035 51.1614 59.8578 51.9235C60.5122 52.6857 61.4178 53.1883 62.4107 53.3404L80.0021 56.0342C80.3884 56.0798 80.7554 56.2278 81.0653 56.4629C81.3753 56.6979 81.6168 57.0115 81.7649 57.3712L89.1769 77.4119C89.4374 78.1154 89.8813 78.7365 90.4626 79.2107C91.0439 79.6849 91.7415 79.995 92.483 80.1088L114.478 83.4766C114.864 83.5226 115.231 83.6709 115.54 83.9062C115.85 84.1414 116.091 84.455 116.238 84.8146L123.647 104.851C123.908 105.555 124.352 106.176 124.933 106.65C125.514 107.124 126.212 107.434 126.954 107.548L148.944 110.914C149.33 110.96 149.697 111.108 150.007 111.343C150.317 111.577 150.558 111.891 150.707 112.25L158.113 132.287C158.373 132.99 158.817 133.612 159.398 134.086C159.98 134.561 160.677 134.871 161.419 134.984L183.418 138.354C183.803 138.401 184.17 138.549 184.479 138.783C184.789 139.018 185.031 139.33 185.18 139.689L192.645 159.865C192.897 160.548 193.323 161.153 193.879 161.622C194.436 162.091 195.104 162.407 195.82 162.54C198.871 163.105 201.92 163.78 204.989 164.237C205.604 164.368 206.242 164.362 206.855 164.218C207.468 164.074 208.042 163.797 208.536 163.406C209.029 163.015 209.43 162.52 209.711 161.956C209.991 161.392 210.143 160.773 210.156 160.143V16.8125C210.151 12.3551 208.378 8.08176 205.226 4.92991C202.074 1.77806 197.801 0.00511162 193.344 0ZM145.138 8.40625L137.793 15.5237C136.898 16.3444 135.729 16.8015 134.515 16.8053C133.301 16.8091 132.129 16.3593 131.229 15.5442L123.862 8.40625H145.138ZM201.75 155.09L199.7 154.71L193.063 136.772C192.394 135.006 191.265 133.451 189.793 132.268C188.321 131.086 186.56 130.318 184.691 130.044L165.139 127.05L158.592 109.335C157.923 107.568 156.794 106.012 155.321 104.829C153.849 103.645 152.087 102.877 150.218 102.604L130.673 99.6128L124.124 81.9004C123.456 80.1331 122.327 78.5766 120.855 77.3926C119.383 76.2085 117.621 75.44 115.751 75.1668L96.203 72.1735L89.651 54.458C88.9826 52.6903 87.8533 51.1336 86.3804 49.9496C84.9074 48.7655 83.1444 47.9972 81.2743 47.7244L67.25 45.5766V16.8125C67.2525 14.5838 68.139 12.4471 69.7149 10.8712C71.2909 9.29526 73.4276 8.40879 75.6562 8.40625H111.782L125.401 21.6026C127.873 23.9139 131.131 25.198 134.515 25.1942C137.899 25.1903 141.154 23.8989 143.62 21.582L157.218 8.40625H193.344C195.572 8.40879 197.709 9.29526 199.285 10.8712C200.861 12.4471 201.747 14.5838 201.75 16.8125V155.09Z" fill="white"/>
<path d="M206.72 173.127L190.988 170.21C190.617 170.153 190.267 170 189.973 169.768C189.678 169.536 189.448 169.232 189.305 168.886L181.888 148.839C181.628 148.135 181.184 147.514 180.603 147.04C180.022 146.566 179.324 146.256 178.583 146.142L156.583 142.773C156.197 142.727 155.831 142.579 155.521 142.343C155.212 142.108 154.971 141.794 154.824 141.435L147.416 121.399C147.156 120.695 146.712 120.074 146.131 119.6C145.549 119.125 144.852 118.815 144.11 118.702L122.117 115.336C121.731 115.29 121.365 115.142 121.055 114.907C120.746 114.671 120.504 114.358 120.356 113.999L112.95 93.963C112.69 93.2592 112.246 92.6378 111.664 92.1634C111.083 91.689 110.385 91.3789 109.644 91.2652L87.6469 87.8975C87.2609 87.8516 86.8942 87.7034 86.5847 87.4681C86.2753 87.2329 86.0344 86.9191 85.8871 86.5594L78.474 66.5187C78.2136 65.8151 77.7697 65.1941 77.1883 64.7199C76.607 64.2457 75.9094 63.9357 75.1678 63.822L63.683 62.064C63.0842 61.9724 62.4727 62.0112 61.8903 62.1779C61.308 62.3446 60.7685 62.6353 60.3089 63.0299C59.8493 63.4245 59.4805 63.9138 59.2276 64.4642C58.9747 65.0146 58.8438 65.6132 58.8438 66.219V252.188C58.8489 256.645 60.6218 260.918 63.7737 264.07C66.9255 267.222 71.1989 268.995 75.6562 269H193.344C197.801 268.995 202.074 267.222 205.226 264.07C208.378 260.918 210.151 256.645 210.156 252.188V177.259C210.156 176.277 209.813 175.326 209.185 174.572C208.557 173.817 207.685 173.306 206.72 173.127ZM201.75 252.188C201.747 254.416 200.861 256.553 199.285 258.129C197.709 259.705 195.572 260.591 193.344 260.594H75.6562C73.4275 260.591 71.2909 259.705 69.7149 258.129C68.139 256.553 67.2525 254.416 67.25 252.188V71.1148L71.4481 71.757L78.002 89.4736C78.6694 91.2412 79.7979 92.7978 81.2702 93.9819C82.7424 95.166 84.5049 95.9344 86.3744 96.2072L105.924 99.2005L112.472 116.913C113.14 118.68 114.269 120.237 115.741 121.421C117.214 122.604 118.976 123.373 120.846 123.646L140.39 126.637L146.938 144.347C147.606 146.115 148.734 147.672 150.206 148.856C151.679 150.041 153.442 150.81 155.311 151.083L174.864 154.077L181.421 171.801C182.072 173.511 183.153 175.025 184.561 176.194C185.969 177.363 187.655 178.149 189.456 178.475L201.75 180.754V252.188Z" fill="white"/>
<path d="M231.172 164.699H222.766C221.651 164.699 220.582 165.142 219.794 165.93C219.005 166.718 218.562 167.787 218.562 168.902C218.562 170.017 219.005 171.086 219.794 171.874C220.582 172.662 221.651 173.105 222.766 173.105H231.172C232.287 173.105 233.356 172.662 234.144 171.874C234.932 171.086 235.375 170.017 235.375 168.902C235.375 167.787 234.932 166.718 234.144 165.93C233.356 165.142 232.287 164.699 231.172 164.699Z" fill="white"/>
<path d="M225.616 155.799L231.687 150.198C232.093 149.824 232.421 149.374 232.652 148.873C232.884 148.372 233.014 147.83 233.036 147.279C233.059 146.727 232.972 146.177 232.781 145.659C232.591 145.141 232.3 144.666 231.926 144.26C231.552 143.854 231.101 143.526 230.6 143.295C230.1 143.063 229.558 142.933 229.006 142.911C228.455 142.888 227.905 142.975 227.387 143.166C226.869 143.356 226.393 143.647 225.988 144.021L219.917 149.622C219.498 149.988 219.159 150.435 218.919 150.937C218.679 151.438 218.543 151.984 218.521 152.539C218.499 153.095 218.59 153.65 218.789 154.169C218.988 154.688 219.29 155.162 219.678 155.56C220.05 155.969 220.5 156.299 221.001 156.533C221.502 156.766 222.045 156.898 222.597 156.92C223.15 156.943 223.701 156.855 224.219 156.663C224.738 156.47 225.212 156.177 225.616 155.799Z" fill="white"/>
<path d="M225.614 180.45C224.795 179.696 223.71 179.299 222.597 179.344C221.485 179.39 220.436 179.875 219.681 180.693C218.926 181.512 218.526 182.596 218.57 183.708C218.613 184.821 219.096 185.871 219.913 186.627L225.984 192.229C226.808 192.975 227.892 193.367 229.002 193.323C230.113 193.278 231.161 192.8 231.923 191.991C232.679 191.172 233.079 190.086 233.034 188.972C232.989 187.858 232.504 186.808 231.685 186.052L225.614 180.45Z" fill="white"/>
<path d="M46.2344 53.3159H37.8281C36.7134 53.3159 35.6443 53.7587 34.8561 54.547C34.0678 55.3352 33.625 56.4043 33.625 57.519C33.625 58.6338 34.0678 59.7029 34.8561 60.4911C35.6443 61.2793 36.7134 61.7222 37.8281 61.7222H46.2344C47.3491 61.7222 48.4182 61.2793 49.2064 60.4911C49.9947 59.7029 50.4375 58.6338 50.4375 57.519C50.4375 56.4043 49.9947 55.3352 49.2064 54.547C48.4182 53.7587 47.3491 53.3159 46.2344 53.3159Z" fill="white"/>
<path d="M43.3843 44.4164C44.204 45.1693 45.2888 45.5663 46.4009 45.5203C47.5129 45.4744 48.5613 44.9891 49.3161 44.1711C50.0708 43.3531 50.4702 42.2691 50.4266 41.1569C50.3831 40.0448 49.9001 38.9953 49.0837 38.2388L43.013 32.6381C42.6073 32.2639 42.132 31.9733 41.6141 31.7828C41.0961 31.5922 40.5457 31.5056 39.9943 31.5278C39.4429 31.55 38.9012 31.6806 38.4003 31.9121C37.8993 32.1437 37.4489 32.4716 37.0747 32.8772C36.7005 33.2828 36.4098 33.7582 36.2193 34.2761C36.0288 34.794 35.9421 35.3444 35.9643 35.8958C35.9865 36.4473 36.1171 36.9889 36.3487 37.4899C36.5802 37.9908 36.9081 38.4413 37.3137 38.8155L43.3843 44.4164Z" fill="white"/>
<path d="M43.3841 69.067L37.3134 74.669C36.9061 75.0429 36.5767 75.4935 36.3439 75.9949C36.1111 76.4964 35.9795 77.0388 35.9567 77.5912C35.9339 78.1436 36.0202 78.6951 36.2109 79.214C36.4015 79.733 36.6926 80.2092 37.0676 80.6155C37.4425 81.0217 37.894 81.35 38.396 81.5816C38.898 81.8131 39.4408 81.9433 39.9932 81.9648C40.5457 81.9862 41.0969 81.8984 41.6154 81.7065C42.1339 81.5146 42.6094 81.2223 43.0147 80.8463L49.0853 75.2446C49.902 74.488 50.3852 73.4382 50.4288 72.3257C50.4724 71.2131 50.0728 70.1288 49.3177 69.3106C48.5626 68.4924 47.5137 68.0072 46.4013 67.9615C45.2889 67.9159 44.2037 68.3135 43.3841 69.067Z" fill="white"/>
</g>
<defs>
<clipPath id="clip0_1737_24">
<rect width="269" height="269" fill="white"/>
</clipPath>
</defs>
</svg>
