<svg width="205" height="205" viewBox="0 0 205 205" fill="none" xmlns="http://www.w3.org/2000/svg">
<path d="M162.848 24.8883H162.111V24.158C162.111 16.227 155.654 9.76953 147.723 9.76953H42.1541C34.2231 9.76953 27.7656 16.227 27.7656 24.158V165.71C27.7656 173.641 34.2231 180.099 42.1541 180.099H42.8908V180.848C42.8908 188.779 49.3419 195.23 57.2728 195.23H162.848C170.779 195.23 177.23 188.779 177.23 180.848V39.2703C177.23 31.3394 170.779 24.8883 162.848 24.8883ZM33.8516 165.71V24.158C33.8516 19.5775 37.5736 15.8555 42.1541 15.8555H147.723C152.303 15.8555 156.025 19.5775 156.025 24.158V165.71C156.025 170.291 152.303 174.013 147.723 174.013H42.1541C37.5736 174.013 33.8516 170.291 33.8516 165.71ZM171.144 180.848C171.144 185.422 167.422 189.145 162.848 189.145H57.2728C52.6987 189.145 48.9767 185.422 48.9767 180.848V180.099H147.723C155.654 180.099 162.111 173.641 162.111 165.71V30.9742H162.848C167.422 30.9742 171.144 34.6963 171.144 39.2703V180.848Z" fill="white"/>
<path d="M140.465 98.1885H71.2715C69.593 98.1885 68.2285 99.553 68.2285 101.231C68.2285 102.91 69.593 104.274 71.2715 104.274H140.465C142.144 104.274 143.508 102.91 143.508 101.231C143.508 99.553 142.144 98.1885 140.465 98.1885Z" fill="white"/>
<path d="M140.465 121.757H71.2715C69.593 121.757 68.2285 123.122 68.2285 124.8C68.2285 126.479 69.593 127.843 71.2715 127.843H140.465C142.144 127.843 143.508 126.479 143.508 124.8C143.508 123.122 142.144 121.757 140.465 121.757Z" fill="white"/>
<path d="M140.465 145.332H71.2715C69.593 145.332 68.2285 146.697 68.2285 148.375C68.2285 150.053 69.593 151.418 71.2715 151.418H140.465C142.144 151.418 143.508 150.053 143.508 148.375C143.508 146.697 142.144 145.332 140.465 145.332Z" fill="white"/>
<path d="M102.949 51.3975H127.094C128.773 51.3975 130.137 50.0329 130.137 48.3545C130.137 46.6761 128.773 45.3115 127.094 45.3115H102.949C101.271 45.3115 99.9062 46.6761 99.9062 48.3545C99.9062 50.0329 101.271 51.3975 102.949 51.3975Z" fill="white"/>
<path d="M144.007 64.3188H102.949C101.271 64.3188 99.9062 65.6834 99.9062 67.3618C99.9062 69.0403 101.271 70.4048 102.949 70.4048H144.007C145.685 70.4048 147.05 69.0403 147.05 67.3618C147.05 65.6834 145.692 64.3188 144.007 64.3188Z" fill="white"/>
<path d="M76.3181 21.7686H57.9258C56.2473 21.7686 54.8828 23.1331 54.8828 24.8115C54.8828 26.49 56.2473 27.8609 57.9258 27.8609H76.3181C77.9966 27.8609 79.3611 26.4964 79.3611 24.8179C79.3611 23.1395 77.9966 21.7686 76.3181 21.7686Z" fill="white"/>
<path d="M48.0742 21.7686H43.75C42.0716 21.7686 40.707 23.1331 40.707 24.8115C40.707 26.49 42.0716 27.8545 43.75 27.8545H48.0806C49.7591 27.8545 51.1236 26.49 51.1236 24.8115C51.1236 23.1331 49.7591 21.7686 48.0742 21.7686Z" fill="white"/>
<path d="M57.9195 95.6903L53.3518 100.316L51.3979 98.3617C50.2063 97.1702 48.2845 97.1702 47.0929 98.3617C45.9013 99.5533 45.9013 101.475 47.0929 102.667L51.2121 106.786C51.7823 107.356 52.5574 107.676 53.3646 107.676H53.371C54.1782 107.676 54.9598 107.35 55.5235 106.773L62.2437 99.9697C63.4288 98.7717 63.416 96.8498 62.218 95.6647C61.0265 94.4859 59.1046 94.4988 57.9195 95.6903Z" fill="white"/>
<path d="M57.9195 119.265L53.3518 123.89L51.3979 121.936C50.2063 120.745 48.2845 120.745 47.0929 121.936C45.9013 123.128 45.9013 125.05 47.0929 126.241L51.2121 130.361C51.7823 130.931 52.5574 131.251 53.3646 131.251H53.371C54.1782 131.251 54.9598 130.924 55.5235 130.348L62.2437 123.544C63.4288 122.346 63.416 120.425 62.218 119.239C61.0265 118.061 59.1046 118.073 57.9195 119.265Z" fill="white"/>
<path d="M57.9195 142.834L53.3518 147.453L51.3979 145.499C50.2063 144.307 48.2845 144.307 47.0929 145.499C45.9013 146.69 45.9013 148.612 47.0929 149.804L51.2121 153.923C51.7823 154.493 52.5574 154.814 53.3646 154.814H53.371C54.1782 154.814 54.9598 154.487 55.5235 153.91L62.2437 147.113C63.4288 145.915 63.416 143.993 62.218 142.808C61.0265 141.636 59.1046 141.642 57.9195 142.834Z" fill="white"/>
<path d="M67.6445 33.0308C53.9544 33.0308 42.8203 44.1648 42.8203 57.855C42.8203 71.5451 53.9544 82.6792 67.6445 82.6792C81.3347 82.6792 92.4688 71.5451 92.4688 57.855C92.4688 44.1648 81.3283 33.0308 67.6445 33.0308ZM67.6445 76.5933C57.3112 76.5933 48.9062 68.1883 48.9062 57.855C48.9062 47.5217 57.3112 39.1167 67.6445 39.1167C77.9778 39.1167 86.3828 47.5217 86.3828 57.855C86.3828 68.1883 77.9714 76.5933 67.6445 76.5933Z" fill="white"/>
<path d="M70.3729 44.6578C69.3479 42.5822 65.9398 42.5822 64.9084 44.6578L54.857 65.0809C54.1138 66.5864 54.7353 68.4122 56.2407 69.1553C57.759 69.892 59.572 69.2706 60.3151 67.7715L62.5317 63.2615H72.7432L74.9598 67.7715C75.4915 68.8478 76.5678 69.4692 77.6953 69.4692C78.1437 69.4692 78.6049 69.3667 79.0342 69.1553C80.5396 68.4122 81.161 66.5864 80.4179 65.0809L70.3729 44.6578ZM65.5362 57.1692L67.6438 52.8898L69.7515 57.1692H65.5362Z" fill="white"/>
</svg>
