<svg width="205" height="205" viewBox="0 0 205 205" fill="none" xmlns="http://www.w3.org/2000/svg">
<path d="M102.5 192.187C82.7523 192.193 63.5545 185.681 47.8857 173.661C32.217 161.641 20.9534 144.786 15.8427 125.711C10.7319 106.636 12.0598 86.4069 19.6202 68.1634C27.1807 49.92 40.551 34.6819 57.6566 24.8135C58.637 24.2561 59.798 24.1091 60.8864 24.4046C61.9748 24.7001 62.9022 25.4141 63.4661 26.3908C64.03 27.3674 64.1847 28.5275 63.8964 29.6178C63.6081 30.7082 62.9003 31.6402 61.9274 32.2106C46.4501 41.1387 34.3524 54.9257 27.5114 71.432C20.6705 87.9383 19.4688 106.241 24.0929 123.5C28.717 140.759 38.9083 156.009 53.0853 166.885C67.2624 177.76 84.6325 183.652 102.5 183.646C103.633 183.646 104.719 184.096 105.52 184.897C106.321 185.698 106.771 186.784 106.771 187.917C106.771 189.049 106.321 190.136 105.52 190.937C104.719 191.738 103.633 192.187 102.5 192.187Z" fill="white"/>
<path d="M145.208 180.759C144.268 180.759 143.354 180.448 142.608 179.876C141.862 179.304 141.326 178.501 141.083 177.593C140.839 176.685 140.902 175.722 141.262 174.854C141.622 173.985 142.258 173.259 143.072 172.789C158.55 163.861 170.647 150.074 177.488 133.568C184.329 117.062 185.531 98.7589 180.907 81.4999C176.283 64.2408 166.091 48.9905 151.914 38.1154C137.737 27.2403 120.367 21.3484 102.499 21.3542C101.367 21.3542 100.28 20.9042 99.4794 20.1033C98.6785 19.3023 98.2285 18.216 98.2285 17.0833C98.2285 15.9506 98.6785 14.8643 99.4794 14.0634C100.28 13.2625 101.367 12.8125 102.499 12.8125C122.247 12.8069 141.445 19.3192 157.114 31.3389C172.783 43.3587 184.046 60.2139 189.157 79.2891C194.268 98.3643 192.94 118.593 185.379 136.837C177.819 155.08 164.449 170.318 147.343 180.186C146.694 180.561 145.957 180.759 145.208 180.759Z" fill="white"/>
<path d="M145.208 180.759C144.268 180.759 143.354 180.448 142.608 179.876C141.862 179.304 141.326 178.501 141.083 177.593C140.839 176.685 140.902 175.722 141.262 174.854C141.622 173.985 142.258 173.259 143.072 172.789C158.55 163.861 170.647 150.074 177.488 133.568C184.329 117.062 185.531 98.7589 180.907 81.4999C176.283 64.2408 166.091 48.9905 151.914 38.1154C137.737 27.2403 120.367 21.3484 102.499 21.3542C101.367 21.3542 100.28 20.9042 99.4794 20.1033C98.6785 19.3023 98.2285 18.216 98.2285 17.0833C98.2285 15.9506 98.6785 14.8643 99.4794 14.0634C100.28 13.2625 101.367 12.8125 102.499 12.8125C122.247 12.8069 141.445 19.3192 157.114 31.3389C172.783 43.3587 184.046 60.2139 189.157 79.2891C194.268 98.3643 192.94 118.593 185.379 136.837C177.819 155.08 164.449 170.318 147.343 180.186C146.694 180.561 145.957 180.759 145.208 180.759Z" fill="white"/>
<path d="M102.5 192.187C82.7523 192.193 63.5545 185.681 47.8857 173.661C32.217 161.641 20.9534 144.786 15.8427 125.711C10.7319 106.636 12.0598 86.4069 19.6202 68.1634C27.1807 49.92 40.551 34.6819 57.6566 24.8135C58.637 24.2561 59.798 24.1091 60.8864 24.4046C61.9748 24.7001 62.9022 25.4141 63.4661 26.3908C64.03 27.3674 64.1847 28.5275 63.8964 29.6178C63.6081 30.7082 62.9003 31.6402 61.9274 32.2106C46.4501 41.1387 34.3524 54.9257 27.5114 71.432C20.6705 87.9383 19.4688 106.241 24.0929 123.5C28.717 140.759 38.9083 156.009 53.0853 166.885C67.2624 177.76 84.6325 183.652 102.5 183.646C103.633 183.646 104.719 184.096 105.52 184.897C106.321 185.698 106.771 186.784 106.771 187.917C106.771 189.049 106.321 190.136 105.52 190.937C104.719 191.738 103.633 192.187 102.5 192.187Z" fill="white"/>
<path d="M59.7921 55.5209C58.6594 55.5209 57.5731 55.071 56.7722 54.27C55.9712 53.4691 55.5213 52.3828 55.5213 51.2501V32.3431L33.6845 29.8703C32.5586 29.7423 31.5297 29.1723 30.824 28.2857C30.1184 27.399 29.7939 26.2684 29.9219 25.1425C30.0499 24.0166 30.6199 22.9877 31.5065 22.282C32.3932 21.5764 33.5238 21.2519 34.6497 21.3799L60.2747 24.2883C61.3167 24.4068 62.2786 24.9046 62.9772 25.6867C63.6759 26.4688 64.0623 27.4806 64.0629 28.5293V51.2501C64.0629 52.3828 63.613 53.4691 62.812 54.27C62.0111 55.071 60.9248 55.5209 59.7921 55.5209Z" fill="white"/>
<path d="M170.833 183.646C170.671 183.646 170.508 183.637 170.346 183.62L144.721 180.712C143.68 180.592 142.719 180.094 142.022 179.312C141.324 178.53 140.938 177.519 140.938 176.471V153.75C140.938 152.617 141.387 151.531 142.188 150.73C142.989 149.929 144.076 149.479 145.208 149.479C146.341 149.479 147.427 149.929 148.228 150.73C149.029 151.531 149.479 152.617 149.479 153.75V172.657L171.316 175.13C172.403 175.249 173.403 175.781 174.109 176.616C174.816 177.451 175.175 178.525 175.113 179.617C175.051 180.708 174.573 181.735 173.777 182.484C172.98 183.234 171.927 183.65 170.833 183.646Z" fill="white"/>
<path d="M102.499 158.021C91.5184 158.021 80.784 154.764 71.6537 148.664C62.5233 142.563 55.4071 133.892 51.2048 123.747C47.0026 113.602 45.9031 102.438 48.0454 91.6683C50.1876 80.8983 55.4755 71.0054 63.2402 63.2407C71.0049 55.476 80.8978 50.1881 91.6678 48.0458C102.438 45.9036 113.601 47.0031 123.746 51.2053C133.891 55.4075 142.563 62.5238 148.663 71.6541C154.764 80.7845 158.02 91.5189 158.02 102.5C158.003 117.22 152.148 131.332 141.74 141.74C131.331 152.149 117.219 158.004 102.499 158.021ZM102.499 55.5207C93.2078 55.5207 84.1248 58.276 76.3991 63.4381C68.6735 68.6003 62.652 75.9374 59.0963 84.5217C55.5405 93.106 54.6102 102.552 56.4229 111.665C58.2356 120.778 62.7099 129.149 69.2801 135.719C75.8502 142.289 84.2211 146.764 93.3342 148.576C102.447 150.389 111.893 149.459 120.478 145.903C129.062 142.347 136.399 136.326 141.561 128.6C146.723 120.874 149.479 111.791 149.479 102.5C149.464 90.0447 144.51 78.1039 135.702 69.2968C126.895 60.4897 114.955 55.5354 102.499 55.5207Z" fill="white"/>
<path d="M119.583 123.854C118.45 123.854 117.364 123.404 116.563 122.603L99.4799 105.519C98.6789 104.719 98.2288 103.633 98.2285 102.5V81.1458C98.2285 80.0131 98.6785 78.9268 99.4794 78.1259C100.28 77.325 101.367 76.875 102.499 76.875C103.632 76.875 104.718 77.325 105.519 78.1259C106.32 78.9268 106.77 80.0131 106.77 81.1458V100.732L122.602 116.564C123.199 117.161 123.606 117.922 123.771 118.75C123.935 119.579 123.851 120.437 123.528 121.218C123.204 121.998 122.657 122.665 121.955 123.134C121.253 123.603 120.427 123.854 119.583 123.854Z" fill="white"/>
</svg>
