<svg width="36" height="36" viewBox="0 0 36 36" fill="none" xmlns="http://www.w3.org/2000/svg">
<g filter="url(#filter0_d_223_1247)">
<circle cx="18" cy="16" r="15" fill="url(#paint0_linear_223_1247)"/>
</g>
<g clip-path="url(#clip0_223_1247)">
<path d="M22.8546 18.2915C22.5475 17.9718 22.1771 17.8008 21.7845 17.8008C21.3951 17.8008 21.0215 17.9686 20.7018 18.2884L19.7014 19.2856C19.6191 19.2413 19.5367 19.2001 19.4576 19.159C19.3436 19.102 19.236 19.0482 19.1442 18.9912C18.2071 18.396 17.3555 17.6204 16.5387 16.6168C16.143 16.1166 15.877 15.6955 15.6839 15.2681C15.9435 15.0307 16.1841 14.7838 16.4184 14.5463C16.507 14.4577 16.5957 14.3659 16.6843 14.2772C17.3491 13.6124 17.3491 12.7513 16.6843 12.0865L15.82 11.2222C15.7219 11.124 15.6206 11.0227 15.5256 10.9214C15.3357 10.7251 15.1362 10.5225 14.9304 10.3326C14.6233 10.0286 14.2561 9.86719 13.8699 9.86719C13.4836 9.86719 13.1101 10.0286 12.7935 10.3326C12.7903 10.3357 12.7903 10.3357 12.7871 10.3389L11.7108 11.4248C11.3055 11.83 11.0744 12.3239 11.0238 12.8969C10.9478 13.8213 11.2201 14.6824 11.429 15.246C11.9419 16.6294 12.708 17.9116 13.8509 19.2856C15.2375 20.9413 16.9059 22.2488 18.8118 23.1701C19.5399 23.5152 20.5118 23.9236 21.5977 23.9932C21.6642 23.9964 21.7338 23.9996 21.7972 23.9996C22.5285 23.9996 23.1427 23.7368 23.6239 23.2144C23.627 23.2081 23.6334 23.2049 23.6365 23.1986C23.8012 22.9991 23.9911 22.8187 24.1906 22.6256C24.3267 22.4958 24.466 22.3596 24.6021 22.2172C24.9155 21.8911 25.0802 21.5112 25.0802 21.1218C25.0802 20.7292 24.9124 20.3525 24.5926 20.0359L22.8546 18.2915ZM23.9879 21.6252C23.9848 21.6252 23.9848 21.6283 23.9879 21.6252C23.8645 21.7581 23.7378 21.8784 23.6017 22.0114C23.3959 22.2077 23.187 22.4135 22.9907 22.6446C22.6709 22.9865 22.2942 23.1479 21.8003 23.1479C21.7528 23.1479 21.7022 23.1479 21.6547 23.1448C20.7144 23.0846 19.8407 22.7174 19.1853 22.404C17.3935 21.5365 15.82 20.305 14.5125 18.7442C13.433 17.4431 12.7112 16.24 12.2331 14.9484C11.9387 14.1601 11.8311 13.5459 11.8785 12.9666C11.9102 12.5962 12.0527 12.2891 12.3154 12.0263L13.395 10.9467C13.5501 10.8011 13.7147 10.722 13.8762 10.722C14.0757 10.722 14.2371 10.8423 14.3384 10.9436C14.3416 10.9467 14.3447 10.9499 14.3479 10.9531C14.541 11.1335 14.7247 11.3203 14.9178 11.5198C15.0159 11.6211 15.1172 11.7224 15.2185 11.8269L16.0828 12.6911C16.4184 13.0267 16.4184 13.337 16.0828 13.6725C15.991 13.7644 15.9023 13.8562 15.8105 13.9448C15.5446 14.2171 15.2913 14.4703 15.0159 14.7173C15.0096 14.7236 15.0032 14.7268 15.0001 14.7331C14.7278 15.0054 14.7785 15.2713 14.8355 15.4518C14.8386 15.4612 14.8418 15.4707 14.845 15.4802C15.0697 16.0248 15.3863 16.5376 15.8675 17.1486L15.8707 17.1518C16.7445 18.2282 17.6657 19.0672 18.682 19.7098C18.8118 19.7921 18.9447 19.8586 19.0714 19.9219C19.1853 19.9789 19.293 20.0327 19.3848 20.0897C19.3974 20.0961 19.4101 20.1056 19.4228 20.1119C19.5304 20.1657 19.6317 20.191 19.7362 20.191C19.999 20.191 20.1636 20.0264 20.2174 19.9726L21.3001 18.8899C21.4078 18.7822 21.5787 18.6524 21.7782 18.6524C21.9745 18.6524 22.1359 18.7759 22.2341 18.8835C22.2372 18.8867 22.2372 18.8867 22.2404 18.8899L23.9848 20.6343C24.3109 20.9572 24.3109 21.2896 23.9879 21.6252Z" fill="white"/>
<path d="M19.1057 12.5685C19.9352 12.7078 20.6886 13.1004 21.2901 13.7019C21.8917 14.3034 22.2811 15.0569 22.4235 15.8864C22.4583 16.0953 22.6388 16.2409 22.8446 16.2409C22.8699 16.2409 22.8921 16.2378 22.9174 16.2346C23.1517 16.1966 23.3068 15.975 23.2688 15.7407C23.0978 14.7372 22.623 13.8222 21.898 13.0972C21.173 12.3723 20.2581 11.8974 19.2545 11.7264C19.0202 11.6884 18.8018 11.8436 18.7606 12.0747C18.7195 12.3058 18.8714 12.5306 19.1057 12.5685Z" fill="white"/>
<path d="M25.9827 15.6168C25.7009 13.9642 24.9221 12.4605 23.7254 11.2638C22.5288 10.0671 21.025 9.28828 19.3724 9.00652C19.1413 8.96536 18.9229 9.12365 18.8817 9.35476C18.8437 9.58903 18.9988 9.80748 19.2331 9.84863C20.7084 10.0987 22.0539 10.7984 23.1239 11.8653C24.194 12.9353 24.8905 14.2808 25.1406 15.7561C25.1754 15.9651 25.3559 16.1107 25.5616 16.1107C25.587 16.1107 25.6091 16.1075 25.6345 16.1044C25.8656 16.0695 26.0239 15.8479 25.9827 15.6168Z" fill="white"/>
</g>
<defs>
<filter id="filter0_d_223_1247" x="0" y="0" width="36" height="36" filterUnits="userSpaceOnUse" color-interpolation-filters="sRGB">
<feFlood flood-opacity="0" result="BackgroundImageFix"/>
<feColorMatrix in="SourceAlpha" type="matrix" values="0 0 0 0 0 0 0 0 0 0 0 0 0 0 0 0 0 0 127 0" result="hardAlpha"/>
<feOffset dy="2"/>
<feGaussianBlur stdDeviation="1.5"/>
<feComposite in2="hardAlpha" operator="out"/>
<feColorMatrix type="matrix" values="0 0 0 0 0 0 0 0 0 0 0 0 0 0 0 0 0 0 0.12 0"/>
<feBlend mode="normal" in2="BackgroundImageFix" result="effect1_dropShadow_223_1247"/>
<feBlend mode="normal" in="SourceGraphic" in2="effect1_dropShadow_223_1247" result="shape"/>
</filter>
<linearGradient id="paint0_linear_223_1247" x1="18" y1="1" x2="18" y2="31" gradientUnits="userSpaceOnUse">
<stop stop-color="#91A3CC"/>
<stop offset="1" stop-color="#2A4480"/>
</linearGradient>
<clipPath id="clip0_223_1247">
<rect width="15" height="15" fill="white" transform="translate(11 9)"/>
</clipPath>
</defs>
</svg>
