<svg width="120" height="120" viewBox="0 0 120 120" fill="none" xmlns="http://www.w3.org/2000/svg">
<g filter="url(#filter0_d_196_1491)">
<circle cx="59.5412" cy="55.8596" r="55.5412" fill="url(#paint0_linear_196_1491)"/>
</g>
<path d="M62.0059 46.4219C58.2272 46.4219 54.9785 48.737 53.6042 52.023C52.2299 48.737 48.9811 46.4219 45.2024 46.4219C40.1835 46.4219 36.1006 50.5051 36.1006 55.5237C36.1006 68.793 52.5618 78.1478 53.2626 78.5396C53.3686 78.5991 53.4866 78.6285 53.6042 78.6285C53.7218 78.6285 53.8397 78.5991 53.9457 78.5396C54.6465 78.1478 71.1077 68.793 71.1077 55.5237C71.1077 50.5051 67.0248 46.4219 62.0059 46.4219ZM53.6042 77.1167C51.2436 75.7 37.5009 66.9571 37.5009 55.5237C37.5009 51.2771 40.9558 47.8222 45.2024 47.8222C49.4491 47.8222 52.904 51.2771 52.904 55.5237C52.904 55.9107 53.2175 56.2239 53.6042 56.2239C53.9908 56.2239 54.3043 55.9107 54.3043 55.5237C54.3043 51.2771 57.7592 47.8222 62.0059 47.8222C66.2526 47.8222 69.7075 51.2771 69.7075 55.5237C69.7075 66.9571 55.9648 75.7 53.6042 77.1167Z" fill="white"/>
<path d="M66.907 59.7243H65.5067C64.3484 59.7243 63.4062 60.6665 63.4062 61.8247C63.4062 62.211 63.0921 62.5249 62.7061 62.5249C62.3201 62.5249 62.006 62.211 62.006 61.8247V57.9739C62.006 56.6229 60.9065 55.5234 59.5554 55.5234C58.2044 55.5234 57.1049 56.6229 57.1049 57.9739V66.0256C57.1049 66.7975 56.4769 67.4259 55.7047 67.4259C54.9324 67.4259 54.3044 66.7975 54.3044 66.0256V61.8247C54.3044 60.6665 53.3622 59.7243 52.2039 59.7243H50.8037C50.417 59.7243 50.1035 60.0375 50.1035 60.4244C50.1035 60.8114 50.417 61.1246 50.8037 61.1246H52.2039C52.5899 61.1246 52.9041 61.4384 52.9041 61.8247V66.0256C52.9041 67.5701 54.1604 68.8262 55.7047 68.8262C57.2489 68.8262 58.5052 67.5701 58.5052 66.0256V57.9739C58.5052 57.3948 58.9763 56.9237 59.5554 56.9237C60.1346 56.9237 60.6057 57.3948 60.6057 57.9739V61.8247C60.6057 62.983 61.5478 63.9252 62.7061 63.9252C63.8643 63.9252 64.8065 62.983 64.8065 61.8247C64.8065 61.4384 65.1207 61.1246 65.5067 61.1246H66.907C67.2936 61.1246 67.6071 60.8114 67.6071 60.4244C67.6071 60.0375 67.2936 59.7243 66.907 59.7243Z" fill="white"/>
<path d="M80.2094 41.5208H73.208V34.5194C73.208 33.3611 72.2658 32.4189 71.1075 32.4189H64.1061C62.9479 32.4189 62.0057 33.3611 62.0057 34.5194V41.5208H55.0042C53.846 41.5208 52.9038 42.463 52.9038 43.6212V49.2292C52.9038 49.6162 53.2173 49.9294 53.604 49.9294C53.9906 49.9294 54.3041 49.6162 54.3041 49.2292V43.6212C54.3041 43.2349 54.6183 42.9211 55.0042 42.9211H62.7058C63.0925 42.9211 63.406 42.6079 63.406 42.221V34.5194C63.406 34.1331 63.7201 33.8192 64.1061 33.8192H71.1075C71.4935 33.8192 71.8077 34.1331 71.8077 34.5194V42.221C71.8077 42.6079 72.1212 42.9211 72.5078 42.9211H80.2094C80.5954 42.9211 80.9095 43.2349 80.9095 43.6212V50.6227C80.9095 51.009 80.5954 51.3228 80.2094 51.3228H72.5078C72.1212 51.3228 71.8077 51.636 71.8077 52.023V59.7245C71.8077 60.0035 71.632 60.264 71.3704 60.3734C71.0135 60.5218 70.8446 60.9313 70.993 61.2889C71.1051 61.5576 71.3653 61.7197 71.6398 61.7197C71.7294 61.7197 71.8207 61.7026 71.9085 61.6657C72.6979 61.3375 73.208 60.5751 73.208 59.7245V52.7231H80.2094C81.3676 52.7231 82.3098 51.7809 82.3098 50.6227V43.6212C82.3098 42.463 81.3676 41.5208 80.2094 41.5208Z" fill="white"/>
<defs>
<filter id="filter0_d_196_1491" x="0" y="0.318359" width="119.083" height="119.082" filterUnits="userSpaceOnUse" color-interpolation-filters="sRGB">
<feFlood flood-opacity="0" result="BackgroundImageFix"/>
<feColorMatrix in="SourceAlpha" type="matrix" values="0 0 0 0 0 0 0 0 0 0 0 0 0 0 0 0 0 0 127 0" result="hardAlpha"/>
<feOffset dy="4"/>
<feGaussianBlur stdDeviation="2"/>
<feComposite in2="hardAlpha" operator="out"/>
<feColorMatrix type="matrix" values="0 0 0 0 0 0 0 0 0 0 0 0 0 0 0 0 0 0 0.25 0"/>
<feBlend mode="normal" in2="BackgroundImageFix" result="effect1_dropShadow_196_1491"/>
<feBlend mode="normal" in="SourceGraphic" in2="effect1_dropShadow_196_1491" result="shape"/>
</filter>
<linearGradient id="paint0_linear_196_1491" x1="59.5412" y1="0.318359" x2="59.5412" y2="111.401" gradientUnits="userSpaceOnUse">
<stop stop-color="#91A3CC"/>
<stop offset="1" stop-color="#2A4480"/>
</linearGradient>
</defs>
</svg>
