<svg width="71" height="74" viewBox="0 0 71 74" fill="none" xmlns="http://www.w3.org/2000/svg">
<path fill-rule="evenodd" clip-rule="evenodd" d="M34.7427 48.1371L32.2344 2.95962C32.2344 2.57097 32.3109 2.18613 32.4596 1.82705C32.6083 1.46798 32.8262 1.14171 33.101 0.866876C33.3758 0.592045 33.702 0.374035 34.0611 0.225295C34.4202 0.0765557 34.805 2.24942e-08 35.1936 2.58941e-08C35.5823 -5.13898e-05 35.9672 0.0764663 36.3263 0.225183C36.6854 0.373899 37.0117 0.591901 37.2865 0.866737C37.5614 1.14157 37.7794 1.46786 37.9281 1.82696C38.0768 2.18606 38.1533 2.57094 38.1533 2.95962L35.6168 48.1371H34.7427ZM32.1499 48.3062L23.7513 4.08694C23.5258 2.4805 24.6813 0.9868 26.2874 0.789518C27.8938 0.564053 29.3594 1.71956 29.5848 3.32561L33.0799 48.2217L32.1499 48.3062ZM29.5852 48.7008L16.4519 7.58165C16.0573 6.03158 16.9874 4.4815 18.5093 4.05876C20.0311 3.66419 21.6094 4.59424 22.004 6.11612L30.628 48.5035C30.2616 48.5599 29.9234 48.6444 29.5852 48.7008ZM27.2178 49.2926L10.0825 12.5982C9.51884 11.1887 10.1952 9.58265 11.6044 9.01859C13.0135 8.45493 14.62 9.15951 15.1836 10.5687L28.0915 49.0386C27.8097 49.1235 27.4997 49.2081 27.2178 49.2926ZM24.7377 50.1945L4.95318 18.7422C4.2486 17.5021 4.69953 15.8957 5.96777 15.1911C7.20783 14.4865 8.81426 14.9656 9.51884 16.2057L25.6114 49.8563C25.3014 49.969 25.0195 50.0818 24.7377 50.1945ZM22.2858 51.3778L2.19124 27.1971C1.43029 26.1261 1.65576 24.6324 2.69853 23.8715C3.76949 23.0823 5.26319 23.3078 6.02414 24.3788L23.1595 50.9272C22.8598 51.0604 22.5681 51.2109 22.2858 51.3778ZM19.3547 53.2664L0.612982 36.6948C-0.204327 35.8775 -0.204327 34.5247 0.612982 33.7074C1.43029 32.8619 2.78308 32.8619 3.60039 33.6792L20.1157 52.731C19.862 52.9001 19.6084 53.0973 19.3547 53.2664ZM16.9028 55.4647L3.48766 47.1789C2.72671 46.6434 2.55762 45.5443 3.09309 44.7833C3.65676 44.0224 4.72772 43.8533 5.48866 44.3888L17.4947 54.9007C17.2974 55.0702 17.1001 55.2674 16.9028 55.4647ZM38.2088 48.3062L46.636 4.08694C46.8333 2.4805 45.7056 0.9868 44.0995 0.789518C42.4931 0.564053 40.9994 1.71956 40.8021 3.32561L37.2792 48.2213L38.2088 48.3062ZM40.7739 48.729L53.935 7.58165C54.3304 6.03158 53.3999 4.4815 51.8777 4.05876C50.3562 3.66419 48.7775 4.59424 48.3829 6.11612L39.7593 48.5317C40.0975 48.5881 40.4361 48.6444 40.7739 48.729ZM43.1417 49.3208L60.3052 12.5986C60.8685 11.1891 60.1639 9.58304 58.7547 9.01898C57.3456 8.45532 55.7395 9.1599 55.1751 10.5691L42.2676 49.0672C42.5772 49.1517 42.8594 49.2363 43.1417 49.3208ZM45.6218 50.2227L65.4341 18.7422C66.1391 17.5021 65.6878 15.8957 64.4195 15.1911C63.1513 14.4865 61.5448 14.9656 60.8684 16.2057L44.7763 49.8845L45.6218 50.2227ZM48.0733 51.4064L68.1679 27.1971C68.957 26.1261 68.7311 24.6324 67.6884 23.8715C66.6174 23.0823 65.1233 23.3078 64.3628 24.3788L47.1993 50.9554C47.5093 51.0963 47.7915 51.2651 48.0733 51.4064ZM50.9766 53.3228L69.7461 36.6948C70.5916 35.8775 70.5916 34.5247 69.7743 33.7074C68.957 32.8619 67.6038 32.8619 66.7865 33.6792L50.243 52.7873C50.4689 52.9564 50.7225 53.1251 50.9766 53.3228ZM53.4849 55.4647L66.8996 47.1789C67.6602 46.6434 67.8293 45.5443 67.2942 44.7833C66.7309 44.0224 65.6596 43.8533 64.899 44.3888L52.8922 54.9007C53.0903 55.0702 53.2876 55.2674 53.4849 55.4647Z" fill="#CC2229"/>
<path fill-rule="evenodd" clip-rule="evenodd" d="M6.05175 72.91H4.44531V60.8195H6.05175V65.8643H11.9984V60.8195H13.5766V72.91H11.9984V67.2167H6.05175V72.91ZM17.8041 60.8195V68.7953C17.8323 69.0775 17.8605 69.359 17.9168 69.6408C18.0296 70.2045 18.3114 70.7117 18.706 71.1909C19.1287 71.6704 19.8615 71.8954 20.8761 71.8954C22.1161 71.8954 22.9334 71.5291 23.3562 70.8249C23.7507 70.0921 23.948 69.1621 23.948 68.0066V60.8199H25.5263V68.2324C25.5263 69.867 25.2163 71.0226 24.6244 71.7271C24.0044 72.4035 23.328 72.8545 22.5952 73.0235C22.3003 73.1072 21.9985 73.1639 21.6934 73.193C21.4115 73.2212 21.1297 73.2494 20.8761 73.2494C19.3542 73.2494 18.255 72.9394 17.6068 72.2916C16.9868 71.6715 16.564 70.9666 16.3949 70.1778C16.3113 69.8448 16.2547 69.5055 16.2258 69.1632C16.2258 68.8251 16.1977 68.515 16.1977 68.2332V60.8207H17.8041V60.8195ZM28.4009 72.91H26.71L31.1629 60.8191H32.8539L37.3354 72.91H35.6444L34.4885 69.7817H29.5001L28.4009 72.91ZM34.0939 68.4289L32.0084 62.4537L29.951 68.4289H34.0939ZM42.3512 72.91H40.3506L37.2223 60.8195H38.97L41.4501 70.9654L43.9017 60.8195H45.7336L48.1855 70.9654L50.637 60.8195H52.4129L49.2846 72.91H47.284L44.8313 62.7359L42.3512 72.91ZM61.5728 65.9766V67.358H55.3718V71.5291H62.4176V72.91H53.7939V60.8195H62.2203V62.2005H55.3718V65.9766H61.5728ZM65.6872 60.8195V72.91H64.1086V60.8195H65.6872Z" fill="white"/>
</svg>
