<svg width="43" height="43" viewBox="0 0 43 43" fill="none" xmlns="http://www.w3.org/2000/svg">
<circle cx="21.5" cy="21.5" r="21.5" fill="#FD7304"/>
<path d="M19.5192 29.1924C17.7871 29.1924 16.3919 28.7113 15.3575 27.701C14.3231 26.7147 13.7938 25.3916 13.7938 23.7077V21.8554H16.4881V23.5634C16.4881 24.5256 16.7768 25.2713 17.3541 25.8006C17.9315 26.3538 18.605 26.6185 19.3748 26.6185C20.2168 26.6185 20.9144 26.3538 21.4677 25.8006C22.021 25.2473 22.2856 24.5497 22.2856 23.7077V11.4632H25.052V23.7077C25.052 25.2713 24.5469 26.5944 23.4884 27.6288C22.454 28.6632 21.1309 29.1924 19.5192 29.1924Z" fill="white"/>
</svg>
