<svg width="52" height="52" viewBox="0 0 52 52" fill="none" xmlns="http://www.w3.org/2000/svg">
<path d="M50.2667 39V7.80001C50.2653 6.65116 49.8083 5.54976 48.9959 4.7374C48.1836 3.92504 47.0822 3.46805 45.9333 3.46667H6.06667C4.91782 3.46805 3.81642 3.92504 3.00406 4.7374C2.1917 5.54976 1.73471 6.65116 1.73333 7.80001V39C1.27362 39 0.832745 39.1826 0.507682 39.5077C0.182619 39.8328 0 40.2736 0 40.7333L0 43.3333C0.00183505 44.9418 0.641589 46.4838 1.77891 47.6211C2.91624 48.7584 4.45825 49.3982 6.06667 49.4H45.9333C47.5418 49.3982 49.0838 48.7584 50.2211 47.6211C51.3584 46.4838 51.9982 44.9418 52 43.3333V40.7333C52 40.2736 51.8174 39.8328 51.4923 39.5077C51.1673 39.1826 50.7264 39 50.2667 39ZM3.46667 26.8667H6.22613C6.43058 27.4449 6.83286 27.9323 7.36188 28.2426C7.89091 28.553 8.51261 28.6663 9.1171 28.5626C9.7216 28.4589 10.27 28.1448 10.6653 27.6758C11.0606 27.2069 11.2774 26.6133 11.2774 26C11.2774 25.3867 11.0606 24.7931 10.6653 24.3242C10.27 23.8552 9.7216 23.5412 9.1171 23.4375C8.51261 23.3337 7.89091 23.4471 7.36188 23.7574C6.83286 24.0677 6.43058 24.5551 6.22613 25.1333H3.46667V19.9333H6.22613C6.43058 20.5116 6.83286 20.999 7.36188 21.3093C7.89091 21.6196 8.51261 21.7329 9.1171 21.6292C9.7216 21.5255 10.27 21.2114 10.6653 20.7425C11.0606 20.2736 11.2774 19.68 11.2774 19.0667C11.2774 18.4533 11.0606 17.8598 10.6653 17.3908C10.27 16.9219 9.7216 16.6078 9.1171 16.5041C8.51261 16.4004 7.89091 16.5137 7.36188 16.8241C6.83286 17.1344 6.43058 17.6218 6.22613 18.2H3.46667V7.80001C3.46667 7.11045 3.74059 6.44913 4.22819 5.96153C4.71578 5.47394 5.3771 5.20001 6.06667 5.20001H7.8V9.17454C7.80114 9.63401 7.98366 10.0744 8.30787 10.4L9.79333 11.8863C9.62372 12.2332 9.53483 12.6139 9.53333 13C9.53333 13.5142 9.68582 14.0169 9.97151 14.4445C10.2572 14.8721 10.6633 15.2053 11.1384 15.4021C11.6134 15.5989 12.1362 15.6504 12.6406 15.5501C13.1449 15.4497 13.6082 15.2021 13.9718 14.8385C14.3354 14.4749 14.5831 14.0116 14.6834 13.5072C14.7837 13.0029 14.7322 12.4801 14.5354 12.005C14.3386 11.5299 14.0054 11.1239 13.5778 10.8382C13.1502 10.5525 12.6476 10.4 12.1333 10.4C11.7473 10.4019 11.3666 10.4908 11.0197 10.66L9.53333 9.17454V5.20001H42.4667V9.17454L40.9803 10.66C40.6334 10.4908 40.2527 10.4019 39.8667 10.4C39.3524 10.4 38.8498 10.5525 38.4222 10.8382C37.9946 11.1239 37.6614 11.5299 37.4646 12.005C37.2678 12.4801 37.2163 13.0029 37.3166 13.5072C37.4169 14.0116 37.6646 14.4749 38.0282 14.8385C38.3918 15.2021 38.8551 15.4497 39.3594 15.5501C39.8638 15.6504 40.3866 15.5989 40.8616 15.4021C41.3367 15.2053 41.7428 14.8721 42.0285 14.4445C42.3142 14.0169 42.4667 13.5142 42.4667 13C42.4652 12.6139 42.3763 12.2332 42.2067 11.8863L43.6921 10.4C44.0163 10.0744 44.1989 9.63401 44.2 9.17454V5.20001H45.9333C46.6229 5.20001 47.2842 5.47394 47.7718 5.96153C48.2594 6.44913 48.5333 7.11045 48.5333 7.80001V18.2H45.7739C45.5694 17.6218 45.1671 17.1344 44.6381 16.8241C44.1091 16.5137 43.4874 16.4004 42.8829 16.5041C42.2784 16.6078 41.73 16.9219 41.3347 17.3908C40.9394 17.8598 40.7226 18.4533 40.7226 19.0667C40.7226 19.68 40.9394 20.2736 41.3347 20.7425C41.73 21.2114 42.2784 21.5255 42.8829 21.6292C43.4874 21.7329 44.1091 21.6196 44.6381 21.3093C45.1671 20.999 45.5694 20.5116 45.7739 19.9333H48.5333V25.1333H45.7739C45.5694 24.5551 45.1671 24.0677 44.6381 23.7574C44.1091 23.4471 43.4874 23.3337 42.8829 23.4375C42.2784 23.5412 41.73 23.8552 41.3347 24.3242C40.9394 24.7931 40.7226 25.3867 40.7226 26C40.7226 26.6133 40.9394 27.2069 41.3347 27.6758C41.73 28.1448 42.2784 28.4589 42.8829 28.5626C43.4874 28.6663 44.1091 28.553 44.6381 28.2426C45.1671 27.9323 45.5694 27.4449 45.7739 26.8667H48.5333V39H44.2V35.4588C44.1989 34.9993 44.0163 34.5589 43.6921 34.2333L42.3271 32.8683C42.4161 32.6103 42.4632 32.3396 42.4667 32.0667C42.4667 31.5524 42.3142 31.0498 42.0285 30.6222C41.7428 30.1946 41.3367 29.8614 40.8616 29.6646C40.3866 29.4678 39.8638 29.4163 39.3594 29.5166C38.8551 29.617 38.3918 29.8646 38.0282 30.2282C37.6646 30.5918 37.4169 31.0551 37.3166 31.5594C37.2163 32.0638 37.2678 32.5866 37.4646 33.0617C37.6614 33.5367 37.9946 33.9428 38.4222 34.2285C38.8498 34.5142 39.3524 34.6667 39.8667 34.6667C40.3616 34.6659 40.8458 34.5224 41.2611 34.2533L42.4667 35.4588V39H9.53333V35.4588L10.7389 34.2533C11.1542 34.5224 11.6384 34.6659 12.1333 34.6667C12.6476 34.6667 13.1502 34.5142 13.5778 34.2285C14.0054 33.9428 14.3386 33.5367 14.5354 33.0617C14.7322 32.5866 14.7837 32.0638 14.6834 31.5594C14.5831 31.0551 14.3354 30.5918 13.9718 30.2282C13.6082 29.8646 13.1449 29.617 12.6406 29.5166C12.1362 29.4163 11.6134 29.4678 11.1384 29.6646C10.6633 29.8614 10.2572 30.1946 9.97151 30.6222C9.68582 31.0498 9.53333 31.5524 9.53333 32.0667C9.53682 32.3396 9.58393 32.6103 9.67287 32.8683L8.30787 34.2333C7.98366 34.5589 7.80114 34.9993 7.8 35.4588V39H3.46667V26.8667ZM7.8 26C7.8 25.8286 7.85083 25.661 7.94606 25.5185C8.04129 25.376 8.17665 25.2649 8.33501 25.1993C8.49337 25.1337 8.66763 25.1166 8.83574 25.15C9.00386 25.1834 9.15829 25.266 9.27949 25.3872C9.4007 25.5084 9.48324 25.6628 9.51668 25.8309C9.55012 25.999 9.53296 26.1733 9.46736 26.3317C9.40177 26.49 9.29068 26.6254 9.14816 26.7206C9.00564 26.8158 8.83808 26.8667 8.66667 26.8667C8.43681 26.8667 8.21637 26.7754 8.05384 26.6128C7.89131 26.4503 7.8 26.2299 7.8 26ZM7.8 19.0667C7.8 18.8953 7.85083 18.7277 7.94606 18.5852C8.04129 18.4427 8.17665 18.3316 8.33501 18.266C8.49337 18.2004 8.66763 18.1832 8.83574 18.2167C9.00386 18.2501 9.15829 18.3326 9.27949 18.4538C9.4007 18.5751 9.48324 18.7295 9.51668 18.8976C9.55012 19.0657 9.53296 19.24 9.46736 19.3983C9.40177 19.5567 9.29068 19.6921 9.14816 19.7873C9.00564 19.8825 8.83808 19.9333 8.66667 19.9333C8.43681 19.9333 8.21637 19.842 8.05384 19.6795C7.89131 19.517 7.8 19.2965 7.8 19.0667ZM12.1333 12.1333C12.3047 12.1333 12.4723 12.1842 12.6148 12.2794C12.7574 12.3746 12.8684 12.51 12.934 12.6683C12.9996 12.8267 13.0168 13.001 12.9833 13.1691C12.9499 13.3372 12.8674 13.4916 12.7462 13.6128C12.625 13.734 12.4705 13.8166 12.3024 13.85C12.1343 13.8835 11.96 13.8663 11.8017 13.8007C11.6433 13.7351 11.508 13.624 11.4127 13.4815C11.3175 13.339 11.2667 13.1714 11.2667 13C11.2667 12.7702 11.358 12.5497 11.5205 12.3872C11.683 12.2247 11.9035 12.1333 12.1333 12.1333ZM40.7333 13C40.7333 13.1714 40.6825 13.339 40.5873 13.4815C40.492 13.624 40.3567 13.7351 40.1983 13.8007C40.04 13.8663 39.8657 13.8835 39.6976 13.85C39.5295 13.8166 39.375 13.734 39.2538 13.6128C39.1326 13.4916 39.0501 13.3372 39.0167 13.1691C38.9832 13.001 39.0004 12.8267 39.066 12.6683C39.1316 12.51 39.2427 12.3746 39.3852 12.2794C39.5277 12.1842 39.6953 12.1333 39.8667 12.1333C40.0965 12.1333 40.317 12.2247 40.4795 12.3872C40.642 12.5497 40.7333 12.7702 40.7333 13ZM44.2 19.0667C44.2 19.2381 44.1492 19.4056 44.0539 19.5482C43.9587 19.6907 43.8234 19.8018 43.665 19.8674C43.5066 19.933 43.3324 19.9501 43.1643 19.9167C42.9961 19.8832 42.8417 19.8007 42.7205 19.6795C42.5993 19.5583 42.5168 19.4039 42.4833 19.2358C42.4499 19.0676 42.467 18.8934 42.5326 18.735C42.5982 18.5767 42.7093 18.4413 42.8518 18.3461C42.9944 18.2508 43.1619 18.2 43.3333 18.2C43.5632 18.2 43.7836 18.2913 43.9462 18.4538C44.1087 18.6164 44.2 18.8368 44.2 19.0667ZM44.2 26C44.2 26.1714 44.1492 26.339 44.0539 26.4815C43.9587 26.624 43.8234 26.7351 43.665 26.8007C43.5066 26.8663 43.3324 26.8835 43.1643 26.85C42.9961 26.8166 42.8417 26.734 42.7205 26.6128C42.5993 26.4916 42.5168 26.3372 42.4833 26.1691C42.4499 26.001 42.467 25.8267 42.5326 25.6684C42.5982 25.51 42.7093 25.3746 42.8518 25.2794C42.9944 25.1842 43.1619 25.1333 43.3333 25.1333C43.5632 25.1333 43.7836 25.2247 43.9462 25.3872C44.1087 25.5497 44.2 25.7702 44.2 26ZM39.8667 32.9333C39.6953 32.9333 39.5277 32.8825 39.3852 32.7873C39.2427 32.6921 39.1316 32.5567 39.066 32.3983C39.0004 32.24 38.9832 32.0657 39.0167 31.8976C39.0501 31.7295 39.1326 31.5751 39.2538 31.4538C39.375 31.3326 39.5295 31.2501 39.6976 31.2167C39.8657 31.1832 40.04 31.2004 40.1983 31.266C40.3567 31.3316 40.492 31.4427 40.5873 31.5852C40.6825 31.7277 40.7333 31.8953 40.7333 32.0667C40.7333 32.2965 40.642 32.517 40.4795 32.6795C40.317 32.842 40.0965 32.9333 39.8667 32.9333ZM18.2 40.7333H33.8V41.6C33.8 42.0597 33.6174 42.5006 33.2923 42.8257C32.9673 43.1507 32.5264 43.3333 32.0667 43.3333H19.9333C19.4736 43.3333 19.0327 43.1507 18.7077 42.8257C18.3826 42.5006 18.2 42.0597 18.2 41.6V40.7333ZM11.2667 32.0667C11.2667 31.8953 11.3175 31.7277 11.4127 31.5852C11.508 31.4427 11.6433 31.3316 11.8017 31.266C11.96 31.2004 12.1343 31.1832 12.3024 31.2167C12.4705 31.2501 12.625 31.3326 12.7462 31.4538C12.8674 31.5751 12.9499 31.7295 12.9833 31.8976C13.0168 32.0657 12.9996 32.24 12.934 32.3983C12.8684 32.5567 12.7574 32.6921 12.6148 32.7873C12.4723 32.8825 12.3047 32.9333 12.1333 32.9333C11.9035 32.9333 11.683 32.842 11.5205 32.6795C11.358 32.517 11.2667 32.2965 11.2667 32.0667ZM50.2667 43.3333C50.2653 44.4822 49.8083 45.5836 48.9959 46.396C48.1836 47.2083 47.0822 47.6653 45.9333 47.6667H6.06667C4.91782 47.6653 3.81642 47.2083 3.00406 46.396C2.1917 45.5836 1.73471 44.4822 1.73333 43.3333V40.7333H16.4667V41.6C16.4667 42.5194 16.8319 43.4012 17.482 44.0513C18.1322 44.7014 19.0139 45.0667 19.9333 45.0667H32.0667C32.9861 45.0667 33.8678 44.7014 34.518 44.0513C35.1681 43.4012 35.5333 42.5194 35.5333 41.6V40.7333H50.2667V43.3333Z" fill="#1C1C1C"/>
<path d="M12.9999 42.4667H10.3999C10.17 42.4667 9.94958 42.558 9.78704 42.7205C9.62451 42.883 9.5332 43.1035 9.5332 43.3333C9.5332 43.5632 9.62451 43.7836 9.78704 43.9462C9.94958 44.1087 10.17 44.2 10.3999 44.2H12.9999C13.2297 44.2 13.4502 44.1087 13.6127 43.9462C13.7752 43.7836 13.8665 43.5632 13.8665 43.3333C13.8665 43.1035 13.7752 42.883 13.6127 42.7205C13.4502 42.558 13.2297 42.4667 12.9999 42.4667Z" fill="#1C1C1C"/>
<path d="M5.1987 44.2C5.67734 44.2 6.06536 43.812 6.06536 43.3333C6.06536 42.8547 5.67734 42.4667 5.1987 42.4667C4.72005 42.4667 4.33203 42.8547 4.33203 43.3333C4.33203 43.812 4.72005 44.2 5.1987 44.2Z" fill="#1C1C1C"/>
<path d="M7.80026 44.2C8.27891 44.2 8.66693 43.812 8.66693 43.3333C8.66693 42.8547 8.27891 42.4667 7.80026 42.4667C7.32161 42.4667 6.93359 42.8547 6.93359 43.3333C6.93359 43.812 7.32161 44.2 7.80026 44.2Z" fill="#1C1C1C"/>
<path d="M16.4663 26.8666C16.2364 26.8666 16.016 26.9579 15.8534 27.1205C15.6909 27.283 15.5996 27.5034 15.5996 27.7333C15.5996 27.9632 15.6909 28.1836 15.8534 28.3461C16.016 28.5087 16.2364 28.6 16.4663 28.6H17.3329C17.3329 29.2895 17.6069 29.9509 18.0945 30.4384C18.5821 30.926 19.2434 31.2 19.9329 31.2V32.0666C19.9329 32.2965 20.0243 32.5169 20.1868 32.6795C20.3493 32.842 20.5698 32.9333 20.7996 32.9333C21.0295 32.9333 21.2499 32.842 21.4124 32.6795C21.575 32.5169 21.6663 32.2965 21.6663 32.0666V31.2H23.3996V32.0666C23.3996 32.2965 23.4909 32.5169 23.6535 32.6795C23.816 32.842 24.0364 32.9333 24.2663 32.9333C24.4961 32.9333 24.7166 32.842 24.8791 32.6795C25.0416 32.5169 25.1329 32.2965 25.1329 32.0666V31.2H26.8663V32.0666C26.8663 32.2965 26.9576 32.5169 27.1201 32.6795C27.2826 32.842 27.5031 32.9333 27.7329 32.9333C27.9628 32.9333 28.1832 32.842 28.3458 32.6795C28.5083 32.5169 28.5996 32.2965 28.5996 32.0666V31.2H30.3329V32.0666C30.3329 32.2965 30.4243 32.5169 30.5868 32.6795C30.7493 32.842 30.9698 32.9333 31.1996 32.9333C31.4295 32.9333 31.6499 32.842 31.8124 32.6795C31.975 32.5169 32.0663 32.2965 32.0663 32.0666V31.2C32.7558 31.2 33.4172 30.926 33.9048 30.4384C34.3923 29.9509 34.6663 29.2895 34.6663 28.6H35.5329C35.7628 28.6 35.9832 28.5087 36.1458 28.3461C36.3083 28.1836 36.3996 27.9632 36.3996 27.7333C36.3996 27.5034 36.3083 27.283 36.1458 27.1205C35.9832 26.9579 35.7628 26.8666 35.5329 26.8666H34.6663V25.1333H35.5329C35.7628 25.1333 35.9832 25.042 36.1458 24.8795C36.3083 24.7169 36.3996 24.4965 36.3996 24.2666C36.3996 24.0368 36.3083 23.8163 36.1458 23.6538C35.9832 23.4913 35.7628 23.4 35.5329 23.4H34.6663V21.6666H35.5329C35.7628 21.6666 35.9832 21.5753 36.1458 21.4128C36.3083 21.2503 36.3996 21.0298 36.3996 20.8C36.3996 20.5701 36.3083 20.3497 36.1458 20.1871C35.9832 20.0246 35.7628 19.9333 35.5329 19.9333H34.6663V18.2H35.5329C35.7628 18.2 35.9832 18.1087 36.1458 17.9461C36.3083 17.7836 36.3996 17.5632 36.3996 17.3333C36.3996 17.1034 36.3083 16.883 36.1458 16.7205C35.9832 16.5579 35.7628 16.4666 35.5329 16.4666H34.6663C34.6663 15.7771 34.3923 15.1158 33.9048 14.6282C33.4172 14.1406 32.7558 13.8666 32.0663 13.8666V13C32.0663 12.7701 31.975 12.5497 31.8124 12.3871C31.6499 12.2246 31.4295 12.1333 31.1996 12.1333C30.9698 12.1333 30.7493 12.2246 30.5868 12.3871C30.4243 12.5497 30.3329 12.7701 30.3329 13V13.8666H28.5996V13C28.5996 12.7701 28.5083 12.5497 28.3458 12.3871C28.1832 12.2246 27.9628 12.1333 27.7329 12.1333C27.5031 12.1333 27.2826 12.2246 27.1201 12.3871C26.9576 12.5497 26.8663 12.7701 26.8663 13V13.8666H25.1329V13C25.1329 12.7701 25.0416 12.5497 24.8791 12.3871C24.7166 12.2246 24.4961 12.1333 24.2663 12.1333C24.0364 12.1333 23.816 12.2246 23.6535 12.3871C23.4909 12.5497 23.3996 12.7701 23.3996 13V13.8666H21.6663V13C21.6663 12.7701 21.575 12.5497 21.4124 12.3871C21.2499 12.2246 21.0295 12.1333 20.7996 12.1333C20.5698 12.1333 20.3493 12.2246 20.1868 12.3871C20.0243 12.5497 19.9329 12.7701 19.9329 13V13.8666C19.2434 13.8666 18.5821 14.1406 18.0945 14.6282C17.6069 15.1158 17.3329 15.7771 17.3329 16.4666H16.4663C16.2364 16.4666 16.016 16.5579 15.8534 16.7205C15.6909 16.883 15.5996 17.1034 15.5996 17.3333C15.5996 17.5632 15.6909 17.7836 15.8534 17.9461C16.016 18.1087 16.2364 18.2 16.4663 18.2H17.3329V19.9333H16.4663C16.2364 19.9333 16.016 20.0246 15.8534 20.1871C15.6909 20.3497 15.5996 20.5701 15.5996 20.8C15.5996 21.0298 15.6909 21.2503 15.8534 21.4128C16.016 21.5753 16.2364 21.6666 16.4663 21.6666H17.3329V23.4H16.4663C16.2364 23.4 16.016 23.4913 15.8534 23.6538C15.6909 23.8163 15.5996 24.0368 15.5996 24.2666C15.5996 24.4965 15.6909 24.7169 15.8534 24.8795C16.016 25.042 16.2364 25.1333 16.4663 25.1333H17.3329V26.8666H16.4663ZM19.0663 16.4666C19.0663 16.2368 19.1576 16.0163 19.3201 15.8538C19.4826 15.6913 19.7031 15.6 19.9329 15.6H32.0663C32.2961 15.6 32.5166 15.6913 32.6791 15.8538C32.8416 16.0163 32.9329 16.2368 32.9329 16.4666V28.6C32.9329 28.8298 32.8416 29.0503 32.6791 29.2128C32.5166 29.3753 32.2961 29.4666 32.0663 29.4666H19.9329C19.7031 29.4666 19.4826 29.3753 19.3201 29.2128C19.1576 29.0503 19.0663 28.8298 19.0663 28.6V16.4666Z" fill="#1C1C1C"/>
<path d="M22.5341 22.5333H24.2674C24.7272 22.5333 25.168 22.3506 25.4931 22.0256C25.8182 21.7005 26.0008 21.2596 26.0008 20.7999V19.0666C26.0008 18.6069 25.8182 18.166 25.4931 17.8409C25.168 17.5159 24.7272 17.3333 24.2674 17.3333H22.5341C22.0744 17.3333 21.6335 17.5159 21.3085 17.8409C20.9834 18.166 20.8008 18.6069 20.8008 19.0666V20.7999C20.8008 21.2596 20.9834 21.7005 21.3085 22.0256C21.6335 22.3506 22.0744 22.5333 22.5341 22.5333ZM22.5341 19.0666H24.2674V20.7999H22.5341V19.0666Z" fill="#1C1C1C"/>
<path d="M28.5991 19.0666H30.3324C30.5623 19.0666 30.7827 18.9753 30.9452 18.8127C31.1078 18.6502 31.1991 18.4298 31.1991 18.1999C31.1991 17.9701 31.1078 17.7496 30.9452 17.5871C30.7827 17.4246 30.5623 17.3333 30.3324 17.3333H28.5991C28.3692 17.3333 28.1488 17.4246 27.9863 17.5871C27.8237 17.7496 27.7324 17.9701 27.7324 18.1999C27.7324 18.4298 27.8237 18.6502 27.9863 18.8127C28.1488 18.9753 28.3692 19.0666 28.5991 19.0666Z" fill="#1C1C1C"/>
<path d="M28.5991 22.5334H30.3324C30.5623 22.5334 30.7827 22.4421 30.9452 22.2795C31.1078 22.117 31.1991 21.8966 31.1991 21.6667C31.1991 21.4369 31.1078 21.2164 30.9452 21.0539C30.7827 20.8914 30.5623 20.8 30.3324 20.8H28.5991C28.3692 20.8 28.1488 20.8914 27.9863 21.0539C27.8237 21.2164 27.7324 21.4369 27.7324 21.6667C27.7324 21.8966 27.8237 22.117 27.9863 22.2795C28.1488 22.4421 28.3692 22.5334 28.5991 22.5334Z" fill="#1C1C1C"/>
<path d="M21.6674 26.8666H30.3341C30.564 26.8666 30.7844 26.7753 30.9469 26.6128C31.1095 26.4503 31.2008 26.2298 31.2008 26C31.2008 25.7701 31.1095 25.5497 30.9469 25.3871C30.7844 25.2246 30.564 25.1333 30.3341 25.1333H21.6674C21.4376 25.1333 21.2172 25.2246 21.0546 25.3871C20.8921 25.5497 20.8008 25.7701 20.8008 26C20.8008 26.2298 20.8921 26.4503 21.0546 26.6128C21.2172 26.7753 21.4376 26.8666 21.6674 26.8666Z" fill="#1C1C1C"/>
</svg>
