<svg width="120" height="120" viewBox="0 0 120 120" fill="none" xmlns="http://www.w3.org/2000/svg">
<g filter="url(#filter0_d_196_1493)">
<circle cx="59.5412" cy="55.8596" r="55.5412" fill="url(#paint0_linear_196_1493)"/>
</g>
<path d="M74.7375 56.3352H72.4179V54.3154C72.4179 53.9283 72.3229 53.5657 72.1661 53.2377C72.1661 51.8319 72.1661 49.1099 72.1661 47.7028C72.1661 47.5612 72.1159 47.4242 72.0249 47.3158L68.237 42.8184C67.8141 42.3109 67.1907 42.0197 66.5271 42.0197H60.0065V38.4419C60.0065 37.5002 59.2407 36.7344 58.2989 36.7344H37.1126C36.1708 36.7344 35.405 37.5002 35.405 38.4419V55.7455C34.9305 55.9342 34.5933 56.3958 34.5933 56.9369V58.1107C34.5933 58.8188 35.1691 59.3948 35.8773 59.3948H39.0366C39.5754 60.8802 40.9967 61.9465 42.6657 61.9465C44.3348 61.9465 45.756 60.8803 46.2949 59.3948H48.4688V59.7465C48.4688 60.0781 48.7375 60.3468 49.0691 60.3468C49.4007 60.3468 49.6694 60.0781 49.6694 59.7465V54.3153C49.6694 53.5897 50.2617 52.9993 50.99 52.9993H69.9015C70.627 52.9993 71.2174 53.5897 71.2174 54.3153V64.4231H49.6693L49.6354 64.0646C49.6354 63.733 49.3667 63.4643 49.0351 63.4643C48.7035 63.4643 48.4348 63.733 48.4348 64.0646L48.4688 65.0244C48.4688 65.0285 48.4711 65.0319 48.4712 65.036V68.9155C48.4712 70.4879 49.75 71.7673 51.3225 71.7673H53.5157C53.7967 73.2156 55.0722 74.3129 56.5998 74.3129C58.1292 74.3129 59.4056 73.2156 59.6868 71.7673H64.2633C64.5443 73.2156 65.8197 74.3129 67.3474 74.3129C68.8767 74.3129 70.1531 73.2156 70.4343 71.7673C70.5086 71.7673 74.7029 71.7673 74.6327 71.7673C74.9137 73.2156 76.1892 74.3129 77.7168 74.3129C79.2462 74.3129 80.5226 73.2156 80.8038 71.7673H80.9649C82.5374 71.7673 83.8168 70.4879 83.8168 68.9155V65.3691C83.8168 60.3143 79.6522 56.3352 74.7375 56.3352ZM70.8993 47.8434H64.0387C63.9974 47.8434 63.9642 47.8102 63.9642 47.7689V45.2144C63.9642 45.1732 63.9974 45.1394 64.0387 45.1394H68.6215L70.8993 47.8434ZM36.6056 50.4055H37.7475V52.9525H36.6056V50.4055ZM37.7475 49.2049H36.6056V47.8397H37.7475V49.2049ZM35.8772 58.1942C35.8313 58.1942 35.7938 58.1567 35.7938 58.1107V56.9369C35.7938 56.8909 35.8313 56.8534 35.8772 56.8534C35.9803 56.8534 39.0557 56.8534 39.0063 56.8534C38.876 57.2402 38.8022 57.6529 38.8022 58.083C38.8022 58.1206 38.8068 58.1569 38.8078 58.1942H35.8772ZM42.6657 60.7459C41.1973 60.7459 40.0028 59.5514 40.0028 58.083C40.0028 56.6146 41.1973 55.4202 42.6657 55.4202C44.1341 55.4202 45.3286 56.6146 45.3286 58.083C45.3285 59.5514 44.134 60.7459 42.6657 60.7459ZM46.5235 58.1942C46.5246 58.1569 46.5291 58.1206 46.5291 58.083C46.5291 57.6529 46.4553 57.2402 46.325 56.8534H48.4688V58.1942H46.5235ZM48.4688 54.3154V55.6529H45.665C44.9561 54.7797 43.8754 54.2198 42.6657 54.2198C41.4561 54.2198 40.3753 54.7797 39.6664 55.6529H36.6056V54.1531H37.9113C38.4829 54.1531 38.9481 53.6879 38.9481 53.1162C38.9481 50.5305 38.9481 50.009 38.9481 47.6762C38.9481 47.1045 38.4829 46.6393 37.9113 46.6393H36.6056V38.4419C36.6056 38.1624 36.8331 37.935 37.1126 37.935H58.299C58.5785 37.935 58.806 38.1624 58.806 38.4419V51.7988H50.99C49.6 51.7988 48.4688 52.9276 48.4688 54.3154ZM69.9014 51.7988H60.0065V43.2203H66.5271C66.8333 43.2203 67.1203 43.354 67.3163 43.5889L67.6109 43.9387H64.0386C63.3356 43.9387 62.7635 44.5109 62.7635 45.2143V47.7688C62.7635 48.4718 63.3356 49.0439 64.0386 49.0439H70.9654V52.0433C70.6412 51.8906 70.283 51.7988 69.9014 51.7988ZM56.5998 73.1123C55.5287 73.1123 54.6574 72.2396 54.6574 71.167C54.6574 70.0945 55.5287 69.2217 56.5998 69.2217C57.6723 69.2217 58.5452 70.0944 58.5452 71.167C58.5452 72.2396 57.6724 73.1123 56.5998 73.1123ZM67.3474 73.1123C66.2762 73.1123 65.4049 72.2396 65.4049 71.167C65.4049 70.0945 66.2762 69.2217 67.3474 69.2217C68.4199 69.2217 69.2927 70.0944 69.2927 71.167C69.2927 72.2396 68.4199 73.1123 67.3474 73.1123ZM67.3474 68.0211C65.8197 68.0211 64.5442 69.1184 64.2633 70.5667H59.6868C59.4056 69.1184 58.1292 68.0211 56.5998 68.0211C55.0722 68.0211 53.7966 69.1184 53.5157 70.5667H51.3225C50.4123 70.5667 49.6717 69.8257 49.6717 68.9155V65.6247H71.2187V70.5668H70.4342C70.1531 69.1184 68.8767 68.0211 67.3474 68.0211ZM77.7168 73.1123C76.6457 73.1123 75.7744 72.2396 75.7744 71.167C75.7744 70.0945 76.6457 69.2217 77.7168 69.2217C78.7893 69.2217 79.6622 70.0944 79.6622 71.167C79.6622 72.2396 78.7894 73.1123 77.7168 73.1123ZM82.6163 66.451H81.1821C80.8505 66.451 80.5818 66.7197 80.5818 67.0513C80.5818 67.3829 80.8505 67.6516 81.1821 67.6516H82.6163V68.9155C82.6163 69.8257 81.8753 70.5667 80.965 70.5667H80.8039C80.5227 69.1184 79.2463 68.0211 77.7169 68.0211C76.1893 68.0211 74.9137 69.1184 74.6328 70.5667H72.4194C72.4194 65.7254 72.4194 65.1466 72.4194 57.5357H74.7376C79.0322 57.5357 82.6164 61.0158 82.6164 65.369V66.451H82.6163Z" fill="white"/>
<path d="M74.7376 58.5908H74.0754C73.7438 58.5908 73.4751 58.8595 73.4751 59.1911V65.2198C73.4751 65.5514 73.7438 65.8201 74.0754 65.8201H80.9557C81.1175 65.8201 81.2723 65.7549 81.3853 65.639C81.4983 65.5231 81.5598 65.3666 81.556 65.2047C81.4632 61.4785 78.3724 58.5908 74.7376 58.5908ZM74.6757 64.6195V59.7914H74.7376C77.4668 59.7914 79.9201 61.7946 80.3062 64.6195H74.6757Z" fill="white"/>
<defs>
<filter id="filter0_d_196_1493" x="0" y="0.318359" width="119.083" height="119.082" filterUnits="userSpaceOnUse" color-interpolation-filters="sRGB">
<feFlood flood-opacity="0" result="BackgroundImageFix"/>
<feColorMatrix in="SourceAlpha" type="matrix" values="0 0 0 0 0 0 0 0 0 0 0 0 0 0 0 0 0 0 127 0" result="hardAlpha"/>
<feOffset dy="4"/>
<feGaussianBlur stdDeviation="2"/>
<feComposite in2="hardAlpha" operator="out"/>
<feColorMatrix type="matrix" values="0 0 0 0 0 0 0 0 0 0 0 0 0 0 0 0 0 0 0.25 0"/>
<feBlend mode="normal" in2="BackgroundImageFix" result="effect1_dropShadow_196_1493"/>
<feBlend mode="normal" in="SourceGraphic" in2="effect1_dropShadow_196_1493" result="shape"/>
</filter>
<linearGradient id="paint0_linear_196_1493" x1="59.5412" y1="0.318359" x2="59.5412" y2="111.401" gradientUnits="userSpaceOnUse">
<stop stop-color="#91A3CC"/>
<stop offset="1" stop-color="#2A4480"/>
</linearGradient>
</defs>
</svg>
