<svg width="56" height="56" viewBox="0 0 56 56" fill="none" xmlns="http://www.w3.org/2000/svg">
<g clip-path="url(#clip0_450_2095)">
<path d="M45.4993 44.3334H33.8327C33.1887 44.3334 32.666 43.8107 32.666 43.1667C32.666 42.5227 33.1887 42 33.8327 42H45.4993C47.429 42 48.9993 40.4297 48.9993 38.5V36.1667C48.9993 35.5227 49.522 35 50.166 35H52.4783C53.1223 35 53.645 34.4774 53.645 33.8334V19.8334C53.645 19.1894 53.1223 18.6667 52.4783 18.6667H50.166C49.522 18.6667 48.9993 18.144 48.9993 17.5V15.1667C48.9993 13.237 47.429 11.6667 45.4993 11.6667H38.4993C37.8553 11.6667 37.3327 11.144 37.3327 10.5C37.3327 9.85604 37.8553 9.33337 38.4993 9.33337H45.4993C48.7147 9.33337 51.3327 11.9514 51.3327 15.1667V16.3334H52.4783C54.408 16.3334 55.9783 17.9037 55.9783 19.8334V33.8334C55.9783 35.763 54.408 37.3334 52.4783 37.3334H51.3327V38.5C51.3327 41.7154 48.7147 44.3334 45.4993 44.3334Z" fill="#1C1C1C"/>
<path d="M15.1667 44.3334H5.83333C2.618 44.3334 0 41.7154 0 38.5V15.1667C0 11.9514 2.618 9.33337 5.83333 9.33337H22.1667C22.8107 9.33337 23.3333 9.85604 23.3333 10.5C23.3333 11.144 22.8107 11.6667 22.1667 11.6667H5.83333C3.90367 11.6667 2.33333 13.237 2.33333 15.1667V38.5C2.33333 40.4297 3.90367 42 5.83333 42H15.1667C15.8107 42 16.3333 42.5227 16.3333 43.1667C16.3333 43.8107 15.8107 44.3334 15.1667 44.3334Z" fill="#1C1C1C"/>
<path d="M21.7062 49C21.5219 49 21.3329 48.9557 21.1602 48.8647C20.6586 48.5987 20.4206 48.0083 20.6002 47.467L25.4862 32.6667H16.3326C15.8986 32.6667 15.5019 32.4263 15.2989 32.0413C15.0982 31.6563 15.1262 31.192 15.3736 30.835L31.5342 7.50165C31.8516 7.04432 32.4559 6.88098 32.9599 7.09565C33.4709 7.31965 33.7532 7.87265 33.6342 8.41632L30.3489 23.3333H39.6659C40.1092 23.3333 40.5152 23.5853 40.7136 23.9843C40.9096 24.3833 40.8606 24.8593 40.5899 25.2117L22.6302 48.545C22.4039 48.8413 22.0586 49 21.7062 49ZM18.5609 30.3333H27.1009C27.4766 30.3333 27.8266 30.513 28.0459 30.8163C28.2652 31.1197 28.3259 31.5093 28.2069 31.8663L24.9636 41.6873L37.2952 25.6667H28.8976C28.5452 25.6667 28.2092 25.5056 27.9876 25.2303C27.7659 24.955 27.6819 24.5933 27.7566 24.248L30.0806 13.699L18.5609 30.3333Z" fill="#1C1C1C"/>
</g>
<defs>
<clipPath id="clip0_450_2095">
<rect width="56" height="56" fill="white"/>
</clipPath>
</defs>
</svg>
