<svg width="83" height="83" viewBox="0 0 83 83" fill="none" xmlns="http://www.w3.org/2000/svg">
<g filter="url(#filter0_d_188_1070)">
<circle cx="41.2816" cy="37.2816" r="37.2816" fill="url(#paint0_linear_188_1070)"/>
</g>
<g clip-path="url(#clip0_188_1070)">
<path d="M30.8255 29.0234C25.4177 29.0234 21.0181 33.4231 21.0181 38.8309C21.0181 42.1885 22.6153 45.7985 25.7653 49.5607C26.2334 50.1197 26.6998 50.6376 27.1474 51.1102C25.1135 51.6654 23.8923 52.6628 23.8923 53.8269C23.8923 55.8878 27.4643 56.9998 30.8252 56.9998C34.1861 56.9998 37.7581 55.8877 37.7581 53.8269C37.7581 52.6637 36.5373 51.6661 34.5047 51.1107C35.3168 50.2534 36.1905 49.2448 37.0196 48.1198C37.2118 47.8589 37.1561 47.4918 36.8954 47.2996C36.6347 47.1077 36.2674 47.1632 36.0752 47.4239C35.0743 48.7823 33.9908 49.9761 33.0454 50.9243C32.9371 50.9796 32.8464 51.0674 32.7897 51.1781C31.9428 52.0104 31.2301 52.6278 30.8257 52.9651C30.4258 52.6311 29.724 52.022 28.888 51.2006C28.828 51.0691 28.7226 50.966 28.594 50.9085C25.9372 48.2362 22.1911 43.6193 22.1911 38.831C22.1911 34.0701 26.0645 30.1967 30.8254 30.1967C35.5864 30.1967 39.4597 34.0701 39.4597 38.831C39.4597 40.9102 38.7513 43.1555 37.3541 45.5046C37.1886 45.7832 37.28 46.1431 37.5584 46.3086C37.8368 46.4742 38.1968 46.3828 38.3624 46.1043C39.869 43.5712 40.6329 41.1242 40.6329 38.831C40.6329 33.4231 36.2333 29.0234 30.8255 29.0234ZM30.4665 54.1851C30.5721 54.2669 30.6989 54.3078 30.8255 54.3078C30.9521 54.3078 31.0788 54.2669 31.1845 54.1851C31.2564 54.1294 32.2366 53.365 33.5431 52.0876C35.5214 52.4911 36.5851 53.2679 36.5851 53.827C36.5851 54.2446 36.0128 54.7372 35.0915 55.1126C33.9614 55.5732 32.4464 55.8268 30.8253 55.8268C27.3092 55.8268 25.0654 54.6423 25.0654 53.827C25.0654 53.2671 26.1295 52.4907 28.1089 52.0872C29.4226 53.3722 30.4042 54.1368 30.4665 54.1851Z" fill="white"/>
<path d="M30.8257 34.5664C29.8979 34.5664 29.0157 34.8593 28.2745 35.4134C28.0151 35.6074 27.962 35.975 28.1559 36.2345C28.35 36.4938 28.7175 36.5469 28.9769 36.3531C29.5137 35.9517 30.153 35.7395 30.8256 35.7395C32.5301 35.7395 33.9167 37.1262 33.9167 38.8307C33.9167 40.5352 32.5301 41.9218 30.8256 41.9218C29.1211 41.9218 27.7345 40.5351 27.7345 38.8307C27.7345 38.5399 27.7747 38.2523 27.854 37.9762C27.9434 37.6648 27.7635 37.34 27.4522 37.2506C27.1409 37.1615 26.816 37.3412 26.7265 37.6525C26.6171 38.034 26.5615 38.4303 26.5615 38.8307C26.5615 41.182 28.4744 43.0949 30.8258 43.0949C33.177 43.0949 35.09 41.182 35.09 38.8307C35.0899 36.4794 33.1769 34.5664 30.8257 34.5664Z" fill="white"/>
<path d="M56.3872 34.0407C56.6856 33.7205 56.9931 33.3755 57.3014 33.0072C59.7434 30.0906 60.9816 27.2867 60.9816 24.6734C60.9816 20.4424 57.5393 17 53.3082 17C50.2174 17 47.4421 18.8395 46.2381 21.6864C46.1119 21.9848 46.2515 22.329 46.5498 22.4551C46.848 22.5812 47.1923 22.4417 47.3184 22.1434C48.3386 19.7316 50.6897 18.173 53.3082 18.173C56.8925 18.173 59.8085 21.0891 59.8085 24.6735C59.8085 29.5206 54.7196 34.1644 53.308 35.359C52.9969 35.0961 52.5072 34.6658 51.9331 34.103C51.8758 33.9895 51.7833 33.8995 51.6722 33.8438C49.647 31.8046 46.8079 28.2994 46.8079 24.6735C46.8079 24.3495 46.5454 24.0869 46.2213 24.0869C45.8974 24.0869 45.6348 24.3495 45.6348 24.6735C45.6348 27.2867 46.873 30.0906 49.3151 33.0073C49.6233 33.3753 49.9305 33.7202 50.2288 34.0403C48.7167 34.4946 47.8438 35.2679 47.8438 36.1991C47.8438 36.9844 48.4809 37.6765 49.6377 38.1479C50.6276 38.5512 51.9311 38.7734 53.3081 38.7734C54.6851 38.7734 55.9886 38.5512 56.9785 38.1479C58.1352 37.6764 58.7722 36.9843 58.7722 36.199C58.7721 35.2696 57.8986 34.4956 56.3872 34.0407ZM53.3081 37.6002C50.5316 37.6002 49.017 36.6746 49.017 36.1989C49.017 35.8891 49.7059 35.3221 51.1772 35.0093C52.1671 35.9725 52.9019 36.5448 52.9493 36.5816C53.055 36.6634 53.1817 36.7043 53.3083 36.7043C53.4349 36.7043 53.5615 36.6634 53.6673 36.5816C53.7147 36.545 54.4493 35.9725 55.4392 35.0094C56.0947 35.1492 56.6625 35.3539 57.0599 35.5958C57.3976 35.8016 57.5992 36.0271 57.5992 36.1989C57.5991 36.6746 56.0845 37.6002 53.3081 37.6002Z" fill="white"/>
<path d="M53.3086 21.2607C51.4267 21.2607 49.8955 22.7918 49.8955 24.674C49.8955 26.5559 51.4266 28.087 53.3086 28.087C55.1907 28.087 56.7218 26.556 56.7218 24.674C56.7218 22.7919 55.1907 21.2607 53.3086 21.2607ZM53.3087 26.9139C52.0734 26.9139 51.0686 25.909 51.0686 24.6739C51.0686 23.4387 52.0735 22.4338 53.3087 22.4338C54.5439 22.4338 55.5488 23.4386 55.5488 24.6739C55.5487 25.909 54.5439 26.9139 53.3087 26.9139Z" fill="white"/>
<path d="M45.7 35.6123H45.4322C45.2372 35.6123 45.0413 35.6252 44.8496 35.6507C44.5286 35.6935 44.3029 35.9883 44.3455 36.3096C44.3848 36.6045 44.6367 36.8189 44.9262 36.8189C44.952 36.8189 44.9781 36.8172 45.0043 36.8137C45.1449 36.795 45.2889 36.7856 45.4323 36.7856H45.7V36.7855C46.024 36.7855 46.2866 36.523 46.2866 36.1989C46.2866 35.8749 46.024 35.6123 45.7 35.6123Z" fill="white"/>
<path d="M43.7607 53.2109C43.7598 53.2109 43.759 53.2109 43.758 53.2109L42.9833 53.2145C42.6594 53.2159 42.398 53.4798 42.3994 53.8037C42.4008 54.1267 42.6632 54.3876 42.9859 54.3876C42.9868 54.3876 42.9877 54.3876 42.9886 54.3876L43.7633 54.3841C44.0872 54.3826 44.3486 54.1188 44.3472 53.7948C44.3458 53.4717 44.0835 53.2109 43.7607 53.2109Z" fill="white"/>
<path d="M46.3959 43.21H45.6212C45.2972 43.21 45.0347 43.4726 45.0347 43.7965C45.0347 44.1205 45.2972 44.3831 45.6212 44.3831H46.3959C46.7199 44.3831 46.9825 44.1206 46.9825 43.7965C46.9825 43.4726 46.72 43.21 46.3959 43.21Z" fill="white"/>
<path d="M43.288 36.8079C43.0684 36.5699 42.6974 36.5549 42.4592 36.7745C42.2405 36.9761 42.0416 37.2009 41.868 37.4426C41.679 37.7058 41.7392 38.0723 42.0023 38.2613C42.1058 38.3356 42.2255 38.3714 42.344 38.3714C42.5264 38.3714 42.7063 38.2865 42.8209 38.127C42.9482 37.9497 43.0942 37.7847 43.2546 37.6367C43.4927 37.4171 43.5076 37.046 43.288 36.8079Z" fill="white"/>
<path d="M46.8598 53.1963C46.8589 53.1963 46.858 53.1963 46.8571 53.1963L46.0824 53.1998C45.7585 53.2012 45.4971 53.4651 45.4985 53.789C45.4999 54.1121 45.7624 54.3729 46.085 54.3729C46.086 54.3729 46.0868 54.3729 46.0878 54.3729L46.8624 54.3694C47.1863 54.368 47.4477 54.1041 47.4463 53.7802C47.4448 53.4571 47.1825 53.1963 46.8598 53.1963Z" fill="white"/>
<path d="M40.6616 53.2246C40.6607 53.2246 40.6598 53.2246 40.6589 53.2246L39.8842 53.2281C39.5603 53.2296 39.2989 53.4934 39.3003 53.8173C39.3018 54.1404 39.564 54.4013 39.8868 54.4013C39.8877 54.4013 39.8886 54.4013 39.8895 54.4013L40.6642 54.3977C40.9881 54.3963 41.2495 54.1324 41.2481 53.8085C41.2467 53.4854 40.9844 53.2246 40.6616 53.2246Z" fill="white"/>
<path d="M43.7212 42.7175C43.5369 42.6013 43.3635 42.4655 43.2061 42.3142C42.9726 42.0896 42.6012 42.097 42.3767 42.3303C42.1521 42.5637 42.1594 42.935 42.3928 43.1596C42.6075 43.366 42.8438 43.5511 43.0952 43.7097C43.1924 43.771 43.3006 43.8003 43.4077 43.8003C43.6024 43.8003 43.7927 43.7035 43.9044 43.5265C44.0773 43.2526 43.9952 42.8903 43.7212 42.7175Z" fill="white"/>
<path d="M42.2794 40.6163C42.24 40.4141 42.22 40.2061 42.22 39.998L42.2202 39.9654C42.224 39.6415 41.9645 39.3759 41.6405 39.3721C41.6382 39.3721 41.6359 39.3721 41.6335 39.3721C41.3127 39.3721 41.0509 39.6302 41.0471 39.9518L41.0469 39.9981C41.0469 40.2814 41.0741 40.5649 41.1279 40.8407C41.1824 41.1208 41.4279 41.3151 41.703 41.3151C41.7401 41.3151 41.7779 41.3116 41.8157 41.3042C42.1338 41.2422 42.3413 40.9343 42.2794 40.6163Z" fill="white"/>
<path d="M49.495 43.21H48.7204C48.3964 43.21 48.1338 43.4726 48.1338 43.7965C48.1338 44.1205 48.3964 44.3831 48.7204 44.3831H49.495C49.819 44.3831 50.0816 44.1206 50.0816 43.7965C50.0816 43.4726 49.819 43.21 49.495 43.21Z" fill="white"/>
<path d="M58.912 44.4047C58.686 44.2264 58.4444 44.0643 58.1939 43.9233C57.9119 43.7642 57.554 43.8642 57.395 44.1464C57.236 44.4286 57.3358 44.7864 57.6181 44.9453C57.8157 45.0568 58.0065 45.1846 58.1849 45.3255C58.2927 45.4106 58.4207 45.4518 58.548 45.4518C58.7213 45.4518 58.893 45.3752 59.0088 45.2286C59.2096 44.9743 59.1663 44.6054 58.912 44.4047Z" fill="white"/>
<path d="M56.7348 53.6168C56.6902 53.2959 56.3937 53.0713 56.0734 53.116C55.8813 53.1426 55.6846 53.1566 55.4884 53.1573L55.3787 53.1579C55.0547 53.1595 54.7934 53.4234 54.7949 53.7473C54.7966 54.0702 55.0588 54.331 55.3814 54.331C55.3824 54.331 55.3834 54.331 55.3843 54.331L55.4938 54.3305C55.7416 54.3294 55.9906 54.3118 56.234 54.2781C56.555 54.2338 56.7792 53.9376 56.7348 53.6168Z" fill="white"/>
<path d="M59.3235 51.9672C59.1 51.7325 58.7287 51.7236 58.4943 51.9471C58.3297 52.1039 58.1516 52.249 57.9648 52.3786C57.6986 52.5631 57.6324 52.9286 57.8169 53.1949C57.9309 53.3592 58.1136 53.4473 58.2995 53.4473C58.4148 53.4473 58.5312 53.4134 58.6331 53.3428C58.8695 53.1788 59.0951 52.9951 59.3035 52.7965C59.5381 52.573 59.547 52.2017 59.3235 51.9672Z" fill="white"/>
<path d="M60.4651 49.1186C60.1472 49.0587 59.8402 49.2681 59.7802 49.5864C59.7381 49.8096 59.6783 50.0311 59.6021 50.2449C59.4933 50.55 59.6525 50.8855 59.9576 50.9943C60.0227 51.0175 60.0893 51.0286 60.1547 51.0286C60.3956 51.0286 60.6215 50.8789 60.7072 50.6389C60.8038 50.3678 60.8798 50.0868 60.9332 49.8036C60.9929 49.4852 60.7834 49.1785 60.4651 49.1186Z" fill="white"/>
<path d="M60.8135 47.233C60.7339 46.956 60.6319 46.6832 60.5099 46.4217C60.3728 46.1281 60.0241 46.0012 59.7303 46.1381C59.4367 46.2751 59.3098 46.6241 59.4467 46.9177C59.5428 47.1236 59.6233 47.3386 59.6859 47.5566C59.7597 47.8138 59.9944 47.9815 60.2494 47.9815C60.3031 47.9815 60.3574 47.9741 60.4115 47.9586C60.7228 47.8691 60.9028 47.5443 60.8135 47.233Z" fill="white"/>
<path d="M52.5937 43.21H51.819C51.495 43.21 51.2324 43.4726 51.2324 43.7965C51.2324 44.1205 51.4949 44.3831 51.819 44.3831H52.5937C52.9177 44.3831 53.1802 44.1206 53.1802 43.7965C53.1802 43.4726 52.9177 43.21 52.5937 43.21Z" fill="white"/>
<path d="M49.9585 53.1826C49.9576 53.1826 49.9567 53.1826 49.9558 53.1826L49.1811 53.1861C48.8572 53.1875 48.5958 53.4514 48.5972 53.7754C48.5987 54.0984 48.861 54.3593 49.1837 54.3593C49.1846 54.3593 49.1855 54.3593 49.1864 54.3593L49.9611 54.3557C50.285 54.3543 50.5464 54.0904 50.545 53.7665C50.5436 53.4435 50.2812 53.1826 49.9585 53.1826Z" fill="white"/>
<path d="M55.7187 43.2155C55.6357 43.2118 55.5516 43.21 55.469 43.21H54.9181C54.5941 43.21 54.3315 43.4726 54.3315 43.7965C54.3315 44.1205 54.594 44.3831 54.9181 44.3831H55.469V44.383C55.5353 44.383 55.6012 44.3845 55.6668 44.3874C55.6756 44.3879 55.6844 44.388 55.6932 44.388C56.0051 44.388 56.2648 44.1422 56.2787 43.8275C56.293 43.5037 56.0422 43.2298 55.7187 43.2155Z" fill="white"/>
<path d="M53.0571 53.168C53.0562 53.168 53.0553 53.168 53.0544 53.168L52.2797 53.1715C51.9558 53.1729 51.6944 53.4368 51.6958 53.7607C51.6973 54.0838 51.9596 54.3446 52.2823 54.3446C52.2832 54.3446 52.2842 54.3446 52.285 54.3446L53.0597 54.3411C53.3836 54.3396 53.645 54.0758 53.6436 53.7519C53.6422 53.4288 53.3799 53.168 53.0571 53.168Z" fill="white"/>
</g>
<defs>
<filter id="filter0_d_188_1070" x="0" y="0" width="82.563" height="82.5635" filterUnits="userSpaceOnUse" color-interpolation-filters="sRGB">
<feFlood flood-opacity="0" result="BackgroundImageFix"/>
<feColorMatrix in="SourceAlpha" type="matrix" values="0 0 0 0 0 0 0 0 0 0 0 0 0 0 0 0 0 0 127 0" result="hardAlpha"/>
<feOffset dy="4"/>
<feGaussianBlur stdDeviation="2"/>
<feComposite in2="hardAlpha" operator="out"/>
<feColorMatrix type="matrix" values="0 0 0 0 0 0 0 0 0 0 0 0 0 0 0 0 0 0 0.25 0"/>
<feBlend mode="normal" in2="BackgroundImageFix" result="effect1_dropShadow_188_1070"/>
<feBlend mode="normal" in="SourceGraphic" in2="effect1_dropShadow_188_1070" result="shape"/>
</filter>
<linearGradient id="paint0_linear_188_1070" x1="41.2816" y1="0" x2="41.2816" y2="74.5632" gradientUnits="userSpaceOnUse">
<stop stop-color="#91A3CC"/>
<stop offset="1" stop-color="#2A4480"/>
</linearGradient>
<clipPath id="clip0_188_1070">
<rect width="40" height="40" fill="white" transform="translate(21 17)"/>
</clipPath>
</defs>
</svg>
