<svg width="151" height="36" viewBox="0 0 151 36" fill="none" xmlns="http://www.w3.org/2000/svg">
<g clip-path="url(#clip0_1761_48)">
<path d="M38.5231 18.4542V1.24888H41.2059H43.8888V2.38618C43.8888 3.0117 43.8984 3.52349 43.91 3.52349C43.9217 3.52349 44.2604 3.31733 44.6627 3.06536C49.4082 0.0929575 56.3066 -0.802102 62.4939 0.751791C68.0682 2.15173 72.1092 5.47495 73.5457 9.8406C74.3852 12.3917 74.3389 15.2288 73.4175 17.696C72.2714 20.7652 69.9153 23.2328 66.5169 24.9232C63.543 26.4025 60.1476 27.1432 56.3408 27.1432C53.1849 27.1432 50.2416 26.617 47.6507 25.5896C46.6226 25.1819 45.3048 24.5127 44.5053 23.9923L43.8888 23.591V29.6253V35.6596H41.2059H38.5231V18.4542ZM58.9362 22.5691C61.9543 22.141 64.296 21.1835 66.0517 19.6594C67.3807 18.5058 68.3063 16.9036 68.6569 15.1496C68.8003 14.4323 68.8007 12.7382 68.6584 12.0229C68.2456 9.95881 67.0627 8.1557 65.292 6.89124C64.5782 6.38155 63.1285 5.65543 62.2031 5.34414C59.5898 4.46508 56.4213 4.20476 53.5193 4.63069C48.4808 5.37019 45.0753 7.86907 44.1616 11.4972C43.7585 13.098 43.8305 14.8261 44.3632 16.3364C45.5732 19.7672 49.1413 22.0502 54.1836 22.62C55.1973 22.7345 57.9808 22.7047 58.937 22.5691H58.9362ZM76.7248 18.4542V1.24888H79.4077H82.0906V2.38618C82.0906 3.0117 82.1023 3.52349 82.1164 3.52349C82.1307 3.52349 82.4259 3.3386 82.7726 3.11262C83.5747 2.58974 85.158 1.8077 86.1732 1.43298C90.5557 -0.184654 95.9066 -0.445531 100.589 0.730139C108.223 2.64659 112.718 7.89707 112.294 14.4008C111.97 19.3653 108.666 23.4432 103.233 25.5861C101.46 26.2851 99.6439 26.726 97.3707 27.0088C96.1709 27.158 92.9373 27.1578 91.6847 27.0085C88.1398 26.5856 85.0275 25.5329 82.6009 23.9361L82.0906 23.6003V29.63V35.6597H79.4077H76.7248V18.4542ZM97.2677 22.5438C101.448 21.9196 104.393 20.2356 105.941 17.5854C106.84 16.0461 107.177 13.9983 106.843 12.097C106.15 8.14502 102.677 5.41039 97.3599 4.62996C93.8502 4.11485 89.8876 4.62793 87.1939 5.94627C84.4441 7.29202 82.7892 9.3014 82.2243 11.9804C82.076 12.6836 82.0764 14.4915 82.2258 15.1808C82.6258 17.0364 83.5301 18.5716 84.9026 19.7255C86.7925 21.3142 89.252 22.2602 92.4437 22.6259C93.4993 22.7469 96.2187 22.7006 97.2685 22.5438H97.2677ZM16.3602 27.1077C13.514 26.8563 11.0846 26.2956 9.01874 25.4132C4.31999 23.4062 1.35222 20.0189 0.546812 15.7436C0.392987 14.9271 0.334307 13.0875 0.434057 12.2084C1.01567 7.08275 4.7915 3.02284 10.7612 1.10432C13.938 0.08337 17.8484 -0.250137 21.3583 0.200524C27.7888 1.0262 32.6531 4.00807 34.7911 8.43507C36.5319 12.0396 36.311 16.4181 34.2185 19.7842C33.2758 21.3006 31.7238 22.8654 30.1245 23.9121C27.6364 25.5403 24.6646 26.5533 21.0552 27.0034C20.3323 27.0936 17.0308 27.1669 16.3602 27.1077ZM20.1664 22.6254C22.9655 22.3284 25.32 21.5293 27.0917 20.2753C28.54 19.2502 29.6861 17.7394 30.2004 16.1773C30.5014 15.2629 30.5611 14.8336 30.5611 13.5843C30.5611 12.3385 30.5022 11.9128 30.2036 10.9978C29.2219 7.99049 26.3505 5.7535 22.3384 4.87038C18.8207 4.0961 14.7184 4.36522 11.679 5.56966C9.48621 6.43858 7.75539 7.84517 6.7404 9.58309C5.66109 11.4311 5.41623 13.9482 6.10476 16.1174C6.8466 18.4546 8.80088 20.4107 11.4902 21.5078C12.9551 22.1054 14.7687 22.5217 16.5644 22.6726C17.2533 22.7305 19.4469 22.7018 20.1664 22.6254ZM130.849 27.1097C130.737 27.0969 130.343 27.0578 129.974 27.0229C127.012 26.7422 123.898 25.8068 121.615 24.5121C118.529 22.7617 116.38 20.2739 115.398 17.3169C114.734 15.3157 114.621 13.0668 115.08 10.9977C115.774 7.8691 117.678 5.21243 120.636 3.24756C124.536 0.656399 130.27 -0.49443 135.806 0.203091C140.406 0.782597 144.195 2.46472 146.831 5.0974C148.839 7.10237 149.994 9.45171 150.327 12.2121C150.414 12.9295 150.401 14.3802 150.3 15.1414C149.576 20.6229 145.231 24.8124 138.577 26.4445C136.559 26.9394 135.292 27.0892 132.919 27.1137C131.893 27.1242 130.961 27.1225 130.849 27.1097ZM134.377 22.6527C137.92 22.3268 140.808 21.1592 142.662 19.3031C143.917 18.0464 144.645 16.6629 144.932 14.991C145.051 14.3019 145.049 12.8657 144.929 12.151C144.283 8.30375 140.891 5.51507 135.865 4.69908C134.658 4.50317 133.855 4.43934 132.599 4.43934C126.963 4.43934 122.59 6.5642 120.909 10.12C120.407 11.1799 120.176 12.2736 120.176 13.5843C120.176 15.3137 120.579 16.6852 121.489 18.0519C123.159 20.5609 126.327 22.1638 130.519 22.6215C131.384 22.7159 133.504 22.7331 134.377 22.6527Z" fill="#006B33"/>
</g>
<defs>
<clipPath id="clip0_1761_48">
<rect width="150" height="35.6597" fill="white" transform="translate(0.384766)"/>
</clipPath>
</defs>
</svg>
