<svg width="56" height="56" viewBox="0 0 56 56" fill="none" xmlns="http://www.w3.org/2000/svg">
<path d="M26.6875 50.75H24.0625C23.8304 50.75 23.6079 50.8422 23.4438 51.0063C23.2797 51.1704 23.1875 51.3929 23.1875 51.625C23.1875 51.8571 23.2797 52.0796 23.4438 52.2437C23.6079 52.4078 23.8304 52.5 24.0625 52.5H26.6875C26.9196 52.5 27.1421 52.4078 27.3062 52.2437C27.4703 52.0796 27.5625 51.8571 27.5625 51.625C27.5625 51.3929 27.4703 51.1704 27.3062 51.0063C27.1421 50.8422 26.9196 50.75 26.6875 50.75Z" fill="#1C1C1C"/>
<path d="M36.75 0H14C13.0721 0.00106528 12.1824 0.370156 11.5263 1.0263C10.8702 1.68245 10.5011 2.57207 10.5 3.5V52.5C10.5011 53.4279 10.8702 54.3176 11.5263 54.9737C12.1824 55.6298 13.0721 55.9989 14 56H36.75C37.6779 55.9989 38.5675 55.6298 39.2237 54.9737C39.8798 54.3175 40.2489 53.4279 40.25 52.5V12.8627C40.2499 12.6819 40.1939 12.5055 40.0895 12.3579C39.9852 12.2102 39.8377 12.0985 39.6673 12.0381C39.4968 11.9777 39.3119 11.9715 39.1378 12.0205C38.9638 12.0694 38.8092 12.1711 38.6953 12.3115L37.1478 14.2205L35.9621 14.4443C35.808 14.4734 35.6644 14.5434 35.5464 14.6468L35 15.1275V13.8103L35.9147 13.5489C36.1168 13.491 36.2913 13.3624 36.4064 13.1866C36.5215 13.0107 36.5694 12.7993 36.5415 12.5909L36.3933 11.4895L37.5618 11.4865C37.6867 11.4862 37.8101 11.4592 37.9236 11.4072C38.0372 11.3552 38.1383 11.2796 38.2202 11.1852C38.3021 11.0909 38.3628 10.9802 38.3984 10.8604C38.4339 10.7407 38.4433 10.6147 38.4261 10.491L38.2727 9.39046L39.3806 9.38359C39.6117 9.38214 39.8328 9.28931 39.9957 9.12537C40.1586 8.96143 40.25 8.7397 40.25 8.50859V3.5C40.2489 2.57207 39.8798 1.68245 39.2237 1.02631C38.5675 0.370159 37.6779 0.00106759 36.75 0ZM31.3838 1.75L31.2864 2.53015C31.2414 2.79294 31.1079 3.03243 30.908 3.20886C30.7081 3.38528 30.4538 3.48801 30.1875 3.5H20.5625C20.2962 3.48802 20.0419 3.38528 19.842 3.20886C19.6421 3.03244 19.5086 2.79294 19.4636 2.53015L19.3662 1.75H31.3838ZM38.5 7.63875C38.5 7.63875 37.9121 7.64431 37.8544 7.64986C37.6532 7.67229 37.4584 7.73434 37.2813 7.83244C37.1042 7.93055 36.9482 8.06275 36.8225 8.22144C36.6967 8.38012 36.6036 8.56214 36.5486 8.75699C36.4935 8.95183 36.4776 9.15565 36.5018 9.35668L36.5547 9.73906C36.5547 9.73906 35.6499 9.74676 35.6374 9.74807C35.4792 9.76609 35.326 9.81522 35.1868 9.89265C35.0476 9.97007 34.9251 10.0743 34.8263 10.1992C34.7275 10.3242 34.6544 10.4674 34.6111 10.6208C34.5679 10.7741 34.5555 10.9344 34.5744 11.0926L34.7065 12.0744L33.8845 12.3094C33.7017 12.3616 33.5409 12.472 33.4264 12.6238C33.3119 12.7756 33.25 12.9605 33.25 13.1506V17.0625C33.25 17.2308 33.2986 17.3955 33.3898 17.537C33.4811 17.6784 33.6112 17.7905 33.7645 17.8598C33.9179 17.9292 34.088 17.9528 34.2545 17.928C34.4209 17.9031 34.5767 17.8308 34.7031 17.7196L36.5223 16.1192L37.7878 15.8803C37.9913 15.8419 38.1746 15.7326 38.3052 15.5718L38.5 15.3313V52.5C38.4995 52.964 38.315 53.4088 37.9869 53.7369C37.6588 54.065 37.214 54.2495 36.75 54.25H14C13.536 54.2495 13.0912 54.065 12.7631 53.7369C12.435 53.4089 12.2505 52.964 12.25 52.5V3.5C12.2505 3.03601 12.435 2.59115 12.7631 2.26306C13.0912 1.93497 13.536 1.75045 14 1.75H17.6025L17.7273 2.74719C17.8217 3.43481 18.1599 4.06567 18.6802 4.525C19.2005 4.98433 19.8685 5.2416 20.5625 5.25H30.1875C30.8815 5.2416 31.5495 4.98433 32.0698 4.525C32.5901 4.06567 32.9283 3.43481 33.0227 2.74719L33.1474 1.75H36.75C37.214 1.75045 37.6588 1.93497 37.9869 2.26306C38.315 2.59115 38.4995 3.03601 38.5 3.5V7.63875Z" fill="#1C1C1C"/>
<path d="M44.625 9.625H42.875C42.6429 9.625 42.4204 9.71719 42.2563 9.88128C42.0922 10.0454 42 10.2679 42 10.5C42 10.7321 42.0922 10.9546 42.2563 11.1187C42.4204 11.2828 42.6429 11.375 42.875 11.375H44.625C44.8571 11.375 45.0796 11.2828 45.2437 11.1187C45.4078 10.9546 45.5 10.7321 45.5 10.5C45.5 10.2679 45.4078 10.0454 45.2437 9.88128C45.0796 9.71719 44.8571 9.625 44.625 9.625Z" fill="#1C1C1C"/>
<path d="M42.6015 8.74695C42.7162 8.74743 42.8299 8.7253 42.936 8.68183C43.0422 8.63836 43.1387 8.57439 43.2201 8.49359L44.0951 7.61859C44.1765 7.53737 44.241 7.44091 44.2851 7.33473C44.3291 7.22855 44.3518 7.11474 44.3519 6.99978C44.3519 6.88483 44.3293 6.77099 44.2853 6.66478C44.2414 6.55856 44.1769 6.46206 44.0956 6.38077C44.0143 6.29949 43.9178 6.23502 43.8116 6.19105C43.7054 6.14708 43.5916 6.12447 43.4766 6.12451C43.3617 6.12456 43.2478 6.14725 43.1417 6.19131C43.0355 6.23536 42.939 6.2999 42.8578 6.38125L41.9828 7.25625C41.8638 7.37966 41.7835 7.53512 41.7516 7.70356C41.7198 7.87199 41.7378 8.04605 41.8035 8.20438C41.8693 8.3627 41.9798 8.49838 42.1215 8.59477C42.2633 8.69116 42.4301 8.74405 42.6015 8.74695Z" fill="#1C1C1C"/>
<path d="M43.2197 12.5063C43.0556 12.3424 42.8331 12.2504 42.6012 12.2505C42.3692 12.2506 42.1468 12.3428 41.9828 12.5067C41.8188 12.6707 41.7267 12.8932 41.7266 13.1251C41.7265 13.357 41.8185 13.5795 41.9823 13.7436L42.8573 14.6186C43.0228 14.7801 43.2448 14.8705 43.476 14.8705C43.7072 14.8705 43.9292 14.7801 44.0947 14.6186C44.1759 14.5374 44.2404 14.4409 44.2844 14.3348C44.3284 14.2286 44.351 14.1148 44.351 13.9999C44.351 13.885 44.3284 13.7713 44.2844 13.6651C44.2404 13.559 44.1759 13.4625 44.0947 13.3813L43.2197 12.5063Z" fill="#1C1C1C"/>
</svg>
