<svg width="83" height="83" viewBox="0 0 83 83" fill="none" xmlns="http://www.w3.org/2000/svg">
<path d="M72.625 5.1875H36.3125C34.9371 5.18887 33.6184 5.73585 32.6459 6.7084C31.6734 7.68095 31.1264 8.99961 31.125 10.375V38.9062C31.1264 40.2816 31.6734 41.6003 32.6459 42.5729C33.6184 43.5454 34.9371 44.0924 36.3125 44.0938H72.625C74.0004 44.0924 75.3191 43.5454 76.2916 42.5729C77.2641 41.6003 77.8111 40.2816 77.8125 38.9062V10.375C77.8111 8.99961 77.2641 7.68095 76.2916 6.7084C75.3191 5.73585 74.0004 5.18887 72.625 5.1875ZM75.2188 38.9062C75.2179 39.5939 74.9443 40.2531 74.4581 40.7393C73.9718 41.2256 73.3126 41.4991 72.625 41.5H36.3125C35.6249 41.4991 34.9657 41.2256 34.4794 40.7393C33.9932 40.2531 33.7196 39.5939 33.7188 38.9062V10.375C33.7196 9.68737 33.9932 9.02816 34.4794 8.54193C34.9657 8.0557 35.6249 7.78214 36.3125 7.78125H72.625C73.3126 7.78214 73.9718 8.0557 74.4581 8.54193C74.9443 9.02816 75.2179 9.68737 75.2188 10.375V38.9062Z" fill="white"/>
<path d="M50.5781 46.6875C50.2345 46.6885 49.9052 46.8255 49.6622 47.0685C49.4192 47.3115 49.2823 47.6407 49.2812 47.9844V59.6692L42.6023 51.2006C42.1205 50.6416 41.5207 50.1962 40.8462 49.8967C40.1716 49.5971 39.4391 49.4507 38.7012 49.4681C37.9633 49.4855 37.2385 49.6662 36.5788 49.9971C35.9191 50.3281 35.341 50.8012 34.8859 51.3823L26.7027 61.0698C26.6308 61.1687 26.5277 61.2404 26.41 61.2734C26.2923 61.3063 26.167 61.2986 26.0542 61.2514L18.8047 55.4933C17.8671 54.8645 16.7429 54.5744 15.6181 54.6711C14.4933 54.7678 13.4352 55.2454 12.6186 56.025L7.78125 60.9402V38.9062C7.78326 38.219 8.05717 37.5604 8.54316 37.0744C9.02915 36.5884 9.68771 36.3145 10.375 36.3125H27.2344C27.5783 36.3125 27.9082 36.1759 28.1514 35.9327C28.3946 35.6894 28.5312 35.3596 28.5312 35.0156C28.5312 34.6717 28.3946 34.3418 28.1514 34.0986C27.9082 33.8554 27.5783 33.7188 27.2344 33.7188H10.375C9.69371 33.7186 9.01907 33.8526 8.3896 34.1132C7.76014 34.3739 7.1882 34.756 6.70645 35.2377C6.22471 35.7194 5.84261 36.2914 5.58198 36.9209C5.32136 37.5503 5.18731 38.225 5.1875 38.9062V72.625C5.18731 73.3063 5.32137 73.9809 5.582 74.6104C5.84263 75.2398 6.22473 75.8118 6.70647 76.2935C7.18821 76.7753 7.76015 77.1574 8.38961 77.418C9.01907 77.6786 9.69372 77.8127 10.375 77.8125H46.6875C47.3688 77.8127 48.0434 77.6786 48.6729 77.418C49.3023 77.1574 49.8743 76.7753 50.356 76.2935C50.8378 75.8118 51.2199 75.2398 51.4805 74.6104C51.7411 73.9809 51.8752 73.3063 51.875 72.625V47.9844C51.874 47.6407 51.737 47.3115 51.494 47.0685C51.251 46.8255 50.9218 46.6885 50.5781 46.6875ZM49.2812 72.625C49.2792 73.3123 49.0053 73.9708 48.5193 74.4568C48.0333 74.9428 47.3748 75.2167 46.6875 75.2188H10.375C9.68772 75.2167 9.02916 74.9428 8.54318 74.4568C8.05719 73.9708 7.78327 73.3123 7.78125 72.625V64.6362L14.4342 57.8795C14.8083 57.5225 15.2908 57.3006 15.8053 57.2489C16.3198 57.1972 16.8368 57.3187 17.2744 57.5942L24.5369 63.3394C25.1868 63.787 25.9838 63.968 26.7634 63.8449C27.5429 63.7218 28.2454 63.3041 28.7258 62.678L36.922 52.9903C37.1346 52.711 37.4064 52.4821 37.7178 52.3201C38.0293 52.1582 38.3727 52.0671 38.7235 52.0535C39.0743 52.0399 39.4237 52.104 39.7468 52.2413C40.0699 52.3786 40.3586 52.5857 40.5922 52.8477L49.2812 63.8711V72.625Z" fill="white"/>
<path d="M10.9043 43.9974C10.9043 44.9 11.1719 45.7822 11.6733 46.5326C12.1747 47.283 12.8874 47.8679 13.7212 48.2132C14.555 48.5586 15.4725 48.649 16.3576 48.4729C17.2428 48.2968 18.0559 47.8622 18.6941 47.2241C19.3322 46.5859 19.7668 45.7728 19.9429 44.8877C20.119 44.0025 20.0286 43.085 19.6832 42.2512C19.3378 41.4174 18.753 40.7047 18.0026 40.2033C17.2522 39.7019 16.3699 39.4343 15.4674 39.4343C14.2576 39.4356 13.0977 39.9167 12.2422 40.7722C11.3867 41.6277 10.9055 42.7876 10.9043 43.9974ZM17.4368 43.9974C17.4368 44.387 17.3213 44.7677 17.1049 45.0916C16.8885 45.4154 16.5809 45.6679 16.2211 45.8169C15.8612 45.966 15.4652 46.005 15.0832 45.929C14.7012 45.853 14.3503 45.6654 14.0749 45.39C13.7994 45.1146 13.6119 44.7637 13.5359 44.3817C13.4599 43.9996 13.4989 43.6037 13.6479 43.2438C13.797 42.884 14.0494 42.5764 14.3733 42.36C14.6971 42.1436 15.0779 42.0281 15.4674 42.0281C15.9895 42.0289 16.49 42.2366 16.8591 42.6057C17.2283 42.9749 17.436 43.4754 17.4368 43.9974Z" fill="white"/>
<path d="M63.6168 22.4489C63.5191 22.3847 49.6571 14.4712 49.2754 14.2503C48.8785 14.0303 48.4319 13.9154 47.9781 13.9165C47.5243 13.9176 47.0783 14.0347 46.6825 14.2567C46.2877 14.4828 45.96 14.8098 45.7331 15.2041C45.5061 15.5984 45.3879 16.0459 45.3907 16.5009V32.7802C45.394 33.4676 45.6682 34.1259 46.1537 34.6124C46.6393 35.0989 47.2971 35.3744 47.9844 35.379C48.3935 35.3782 48.7965 35.2802 49.1603 35.0931C49.297 35.027 63.1018 27.1234 63.5121 26.8947C63.8937 26.6672 64.2114 26.3466 64.4354 25.9629C64.6594 25.5792 64.7824 25.1449 64.7929 24.7008C64.8033 24.2566 64.7009 23.817 64.4953 23.4232C64.2896 23.0293 63.9873 22.6941 63.6168 22.4489ZM47.9844 32.7802L47.9781 16.4971L62.2298 24.6405L47.9844 32.7802Z" fill="white"/>
</svg>
