<svg width="38" height="38" viewBox="0 0 38 38" fill="none" xmlns="http://www.w3.org/2000/svg">
<path d="M34.9464 9.83921H15.9464C14.5214 8.00705 13.0286 7.80347 10.925 7.80347H10.8572C8.00716 7.80347 5.83575 9.7713 5.15716 10.5177H2.71425C1.22142 10.5178 0 11.7392 0 13.2321V25.5143C0 27.0071 1.22142 28.1607 2.71425 28.1607H5.225C7.87142 30.1285 8.82142 30.1965 13.5714 30.1965C16.0822 30.1965 18.9322 29.5179 19.7464 29.3822C21.3072 29.7894 22.9357 28.975 23.4786 27.4144C23.6822 26.8036 23.6822 26.0572 23.4786 25.4465C24.7 25.4465 25.8536 24.6323 26.2607 23.4108L26.3286 23.3429C26.6 22.5965 26.5322 21.7144 26.1928 21.0358C26.134 20.9181 26.0664 20.8047 25.9919 20.6959C27.4157 20.4233 28.5 19.1347 28.5 17.6428C28.5 17.032 28.2964 16.4214 27.9572 15.9464H34.9464C36.6428 15.9464 38 14.5892 38 12.8928C38 11.1964 36.6428 9.83921 34.9464 9.83921ZM5.83575 26.9392C5.7 26.8714 5.56433 26.8035 5.42858 26.8035H2.71425C1.96784 26.8035 1.35709 26.1927 1.35709 25.5142V13.2321C1.35709 12.4857 1.96784 11.875 2.71425 11.875H5.42851C5.63209 11.875 5.83567 11.8071 5.97134 11.6035C5.97134 11.6035 8.00709 9.22854 10.7892 9.16071H10.857C12.9606 9.16071 13.9106 9.29645 14.9963 10.925L15.0641 10.9928L15.5954 11.6208C17.2309 13.7655 19.0057 16.1215 19.6784 17.1C20.357 18.1857 20.5606 19.0678 20.1534 19.6107C19.8682 19.953 19.2953 20.1025 18.7571 20.0208C18.6765 20.0041 18.5987 19.9808 18.5249 19.95C17.7106 19.6107 16.2856 18.6607 14.7249 17.3714C14.6532 17.3176 14.5769 17.2785 14.4983 17.2532C12.6491 15.7015 10.9293 13.9367 10.5856 13.0964C10.4499 12.7571 10.0428 12.6214 9.70343 12.7571C9.36418 12.8929 9.22843 13.3 9.36418 13.6393C9.78975 14.6322 11.4385 16.3849 13.2643 17.9677C13.1124 18.1875 12.9941 18.4241 12.8928 18.6607L12.8249 18.7965C12.5635 19.5479 12.6176 20.3304 12.9172 21.0009C11.8757 21.2063 10.9522 21.9499 10.5856 23.0036C10.0428 24.5644 10.9249 26.3286 12.4856 26.8715L17.1317 28.4797C16.0537 28.67 14.7604 28.8393 13.5713 28.8393C8.82142 28.8392 8.27858 28.7714 5.83575 26.9392ZM14.0464 22.3928L19.3389 24.2248L21.1501 24.8548C21.4699 24.9783 21.7255 25.1718 21.9113 25.4092C21.9639 25.4859 22.0117 25.5664 22.0535 25.65C22.2571 26.0571 22.2571 26.5321 22.1213 26.9392C21.8499 27.8214 20.8999 28.2964 19.9499 27.957C19.8832 27.957 19.8164 27.9407 19.7497 27.9321L12.9607 25.582C12.0107 25.2428 11.6035 24.2928 11.8749 23.4106C12.0107 23.0035 12.3499 22.6642 12.7571 22.4606C12.9607 22.3249 13.2321 22.257 13.5035 22.257C13.7072 22.2571 13.9107 22.325 14.0464 22.3928ZM23.9536 20.8321C24.3607 20.9679 24.7 21.2393 24.9036 21.6464C25.1072 21.9856 25.1072 22.4606 24.9714 22.8678L24.9036 23.0035C24.8022 23.3078 24.6249 23.5739 24.372 23.7741C23.9649 24.0377 23.4507 24.112 22.9357 23.9535L21.5786 23.4785C21.4503 23.4358 21.3287 23.4268 21.2181 23.4451L19.7449 22.9351L15.0643 21.3071C14.1822 20.9679 13.7751 20.0857 14.0465 19.2035L14.1143 19.0678C14.1143 19 14.1822 18.8642 14.2501 18.7964C14.306 18.8396 14.3611 18.8817 14.4165 18.9242C15.6312 19.8885 16.8283 20.6966 17.7144 21.0878C17.7335 21.0963 17.7524 21.1045 17.7712 21.1125C17.8198 21.1333 17.8677 21.1533 17.9143 21.1714C18.2418 21.3093 18.5956 21.3724 18.9555 21.3726C18.9927 21.3738 19.0297 21.375 19.0678 21.375C19.5381 21.375 20.0079 21.2612 20.4128 21.048C20.9472 20.8091 21.4297 20.4515 21.7821 20.0178L23.9536 20.8321ZM25.4464 19.2714H25.175L23.6143 19.0678C23.5081 19.0678 23.402 19.0878 23.3042 19.1255L21.7822 18.5928C21.7422 18.5768 21.7022 18.5649 21.6626 18.5564C21.5937 17.954 21.342 17.2201 20.7643 16.3535C20.688 16.2287 20.5953 16.0853 20.4901 15.9277L25.5821 15.8107C25.9893 15.8107 26.3963 16.0143 26.6678 16.2857C26.9393 16.625 27.1428 17.0321 27.1428 17.5071C27.1428 18.4571 26.3964 19.2714 25.4464 19.2714ZM34.9464 14.5892H25.5822C25.5143 14.5892 25.5143 14.5892 25.4464 14.5892H19.6786C19.6353 14.5892 19.594 14.5929 19.554 14.5989C18.8023 13.5674 17.8628 12.3328 16.9883 11.1964H34.9465C35.8965 11.1964 36.6429 11.9428 36.6429 12.8928C36.6429 13.8428 35.8964 14.5892 34.9464 14.5892Z" fill="#EDE574"/>
</svg>
