<svg id="Layer_1" height="512" viewBox="0 0 512 512" width="512" xmlns="http://www.w3.org/2000/svg" data-name="Layer 1"><path d="m256 .277c141.384 0 256 114.587 256 255.963s-114.617 256.035-256 256.035-256-114.658-256-256.035 114.623-255.963 256-255.963zm100.08 352.837c0-9.342-7.078-17.232-16.638-19.454v38.862c9.56-2.222 16.638-10.112 16.638-19.408zm-44.3-51.106c0 9.3 7.079 17.187 16.634 19.409v-38.772c-9.555 2.177-16.634 10.022-16.634 19.363zm44.3 0a5.519 5.519 0 1 0 11.037 0c0-15.372-11.989-28.16-27.675-30.609v-10.611a5.516 5.516 0 1 0 -11.032 0v10.612c-15.681 2.449-27.671 15.237-27.671 30.609s11.99 28.16 27.671 30.654v39.86c-9.555-2.222-16.634-10.112-16.634-19.408a5.519 5.519 0 1 0 -11.037 0c0 15.372 11.99 28.115 27.671 30.654v10.52a5.516 5.516 0 1 0 11.032 0v-10.52c15.686-2.539 27.675-15.282 27.675-30.654s-11.989-28.16-27.675-30.609v-39.86c9.56 2.177 16.638 10.022 16.638 19.363zm-22.148 110.147a84.572 84.572 0 1 0 -84.585-84.571 84.673 84.673 0 0 0 84.585 84.571zm-59.732-231.355a5.527 5.527 0 0 1 5.515 5.487v62.533a96.446 96.446 0 0 1 21.97-11.292v-51.244a5.53 5.53 0 0 1 5.519-5.487h14.551l-31.044-38.091-31.062 38.094zm83.071-42.308a5.494 5.494 0 0 1 5.514 5.487v92.416a94.882 94.882 0 0 1 21.97 10.2v-102.619a5.5 5.5 0 0 1 5.523-5.487h14.548l-31.044-38.089-31.058 38.092zm-133.141 84.613h14.547l-31.054-38.091-31.044 38.091h14.543a5.5 5.5 0 0 1 5.523 5.487v114.092h21.966v-114.092a5.5 5.5 0 0 1 5.519-5.487zm-130.63 42.308h14.551a5.54 5.54 0 0 1 5.515 5.533v71.738h21.97v-71.738a5.536 5.536 0 0 1 5.523-5.533h14.547l-31.053-38.091z" fill="#5eac24" fill-rule="evenodd"/></svg>