<svg width="81" height="81" viewBox="0 0 81 81" fill="none" xmlns="http://www.w3.org/2000/svg">
<path d="M76.006 39.4067H66.2066V32.592H69.2002C69.4463 33.5174 70.2835 34.2044 71.2854 34.2044C72.4789 34.2044 73.4504 33.2335 73.4504 32.0394C73.4504 30.8453 72.4789 29.8733 71.2854 29.8733C70.285 29.8733 69.4491 30.559 69.2016 31.4824H66.2066V30.9114C66.2066 29.9849 65.453 29.2318 64.5265 29.2318H64.3867V20.379C64.3867 18.8208 63.1195 17.5541 61.5624 17.5541H51.8741V17.3644C51.8741 16.438 51.1204 15.6849 50.194 15.6849H49.7817V10.656C49.7817 10.3493 49.5335 10.1012 49.2269 10.1012C48.9202 10.1012 48.6721 10.3493 48.6721 10.656V15.6849H41.8596V5.9348C41.8596 5.62815 41.6114 5.38 41.3048 5.38C40.9981 5.38 40.75 5.62815 40.75 5.9348V15.6849H33.9332V12.7411C34.8595 12.4956 35.5477 11.6584 35.5477 10.656C35.5477 9.46186 34.5763 8.48989 33.3822 8.48989C32.1881 8.48989 31.2166 9.46186 31.2166 10.656C31.2166 11.6556 31.9011 12.4907 32.8236 12.7386V15.6849H32.4151C31.4886 15.6849 30.735 16.438 30.735 17.3644V17.5541H21.0467C19.4896 17.5541 18.2228 18.8208 18.2228 20.379V29.2459C18.1989 29.2427 18.1777 29.2318 18.153 29.2318H17.4584C16.5319 29.2318 15.7783 29.9849 15.7783 30.9114V31.4846H11.3242C11.0176 31.4846 10.7694 31.7327 10.7694 32.0394C10.7694 32.3461 11.0176 32.5942 11.3242 32.5942H15.7783V39.4056H8.68718C8.43992 38.4818 7.6038 37.7965 6.60304 37.7965C5.40893 37.7965 4.4375 38.7674 4.4375 39.9615C4.4375 41.1556 5.40893 42.1276 6.60304 42.1276C7.60461 42.1276 8.44141 41.4403 8.68785 40.5152H15.7783V47.3288H11.3242C11.0176 47.3288 10.7694 47.5769 10.7694 47.8836C10.7694 48.1902 11.0176 48.4383 11.3242 48.4383H15.7783V48.6908C15.7783 49.6173 16.5319 50.3715 17.4584 50.3715H18.153C18.1777 50.3715 18.1989 50.3604 18.2228 50.3574V59.5451C18.2228 61.1022 19.4896 62.3689 21.0467 62.3689H30.735V63.0429C30.735 63.9693 31.4886 64.7235 32.4151 64.7235H32.8274V70.8414C32.8274 71.1481 33.0755 71.3962 33.3822 71.3962C33.6888 71.3962 33.937 71.1481 33.937 70.8414V64.7235H40.7462V71.3712C39.8237 71.6194 39.1392 72.4552 39.1392 73.455C39.1392 74.6491 40.1107 75.62 41.3048 75.62C42.4989 75.62 43.4703 74.6491 43.4703 73.455C43.4703 72.4524 42.7821 71.6144 41.8558 71.3689V64.7235H48.6721V70.8414C48.6721 71.1481 48.9202 71.3962 49.2269 71.3962C49.5335 71.3962 49.7817 71.1481 49.7817 70.8414V64.7235H50.194C51.1204 64.7235 51.8741 63.9693 51.8741 63.0429V62.3689H61.5624C63.1195 62.3689 64.3867 61.1022 64.3867 59.5451V50.3715H64.5265C65.453 50.3715 66.2066 49.6173 66.2066 48.6908V48.4383H71.2854C71.592 48.4383 71.8402 48.1902 71.8402 47.8836C71.8402 47.5769 71.592 47.3288 71.2854 47.3288H66.2066V40.5163H76.006C76.3127 40.5163 76.5608 40.2681 76.5608 39.9615C76.5608 39.6548 76.3127 39.4067 76.006 39.4067ZM71.2854 30.9829C71.8672 30.9829 72.3408 31.4564 72.3408 32.0394C72.3408 32.6213 71.8672 33.0948 71.2854 33.0948C70.7029 33.0948 70.2294 32.6213 70.2294 32.0394C70.2294 31.4564 70.7029 30.9829 71.2854 30.9829ZM32.3262 10.656C32.3262 10.073 32.7997 9.59948 33.3822 9.59948C33.9646 9.59948 34.4381 10.073 34.4381 10.656C34.4381 11.2376 33.965 11.7108 33.383 11.7111C33.3814 11.7111 33.38 11.7103 33.3784 11.7103C33.3781 11.7103 33.3787 11.7103 33.3784 11.7103C32.7983 11.7079 32.3262 11.2362 32.3262 10.656ZM6.60304 41.018C6.02061 41.018 5.54709 40.5444 5.54709 39.9615C5.54709 39.3796 6.02061 38.9061 6.60304 38.9061C7.18432 38.9061 7.65642 39.3778 7.65832 39.9582C7.65832 39.9589 7.65791 39.9596 7.65791 39.9604C7.65791 39.9615 7.65859 39.9624 7.65859 39.9636C7.65737 40.5455 7.18472 41.018 6.60304 41.018ZM42.3607 73.455C42.3607 74.0369 41.8872 74.5104 41.3048 74.5104C40.7224 74.5104 40.2488 74.0369 40.2488 73.455C40.2488 72.8775 40.7145 72.4102 41.2895 72.4015C41.2935 72.4016 41.2969 72.404 41.301 72.404C41.3064 72.404 41.3109 72.401 41.3163 72.4007C41.8932 72.4073 42.3607 72.8761 42.3607 73.455ZM63.2771 59.5451C63.2771 60.49 62.5078 61.2593 61.5624 61.2593H21.0467C20.1012 61.2593 19.3324 60.49 19.3324 59.5451V20.379C19.3324 19.433 20.1012 18.6637 21.0467 18.6637H61.5624C62.5078 18.6637 63.2771 19.433 63.2771 20.379C63.2771 45.3586 63.2771 34.5171 63.2771 59.5451Z" fill="#1C1C1C"/>
<path d="M23.883 41.9563V32.9756C23.883 32.6689 23.6349 32.4208 23.3282 32.4208C23.0216 32.4208 22.7734 32.6689 22.7734 32.9756V41.9563C22.7734 42.263 23.0216 42.5111 23.3282 42.5111C23.6349 42.5111 23.883 42.263 23.883 41.9563Z" fill="#1C1C1C"/>
<path d="M52.7632 45.2192C53.5622 42.3564 52.7743 39.305 50.6551 37.1969C48.6467 35.1774 45.7728 34.3563 42.9767 35C42.7769 35.0444 42.6216 35.1996 42.5661 35.3883C42.5106 35.5881 42.5661 35.7877 42.7104 35.932L46.0169 39.2607V44.1874H41.0904L37.7727 40.8808C37.6395 40.7364 37.4287 40.6809 37.229 40.7364C37.0404 40.792 36.8961 40.9473 36.8407 41.136C36.1971 43.8878 37.0293 46.8281 39.0376 48.8254C41.1459 50.9446 44.1972 51.7325 47.0489 50.9336L53.4068 57.2693C54.9895 58.8522 57.528 58.8517 59.1101 57.2693C60.6857 55.7048 60.6857 53.1417 59.1101 51.5771L52.7632 45.2192ZM57.3015 55.4718C56.7023 56.071 55.7369 56.071 55.1378 55.4718C54.5386 54.8726 54.5386 53.8963 55.1378 53.2971C55.7369 52.6978 56.7023 52.6978 57.3015 53.2971C57.9117 53.8963 57.9117 54.8726 57.3015 55.4718Z" fill="#1C1C1C"/>
<path d="M23.3277 20.5491C22.1335 20.5491 21.1621 21.52 21.1621 22.7141C21.1621 23.9082 22.1335 24.8802 23.3277 24.8802C24.5212 24.8802 25.4926 23.9082 25.4926 22.7141C25.4926 21.52 24.5212 20.5491 23.3277 20.5491ZM23.3277 23.7706C22.7452 23.7706 22.2717 23.297 22.2717 22.7141C22.2717 22.1322 22.7452 21.6587 23.3277 21.6587C23.9095 21.6587 24.3831 22.1322 24.3831 22.7141C24.3831 23.297 23.9095 23.7706 23.3277 23.7706Z" fill="#1C1C1C"/>
<path d="M59.2808 20.5491C58.0867 20.5491 57.1152 21.52 57.1152 22.7141C57.1152 23.9082 58.0867 24.8802 59.2808 24.8802C60.4749 24.8802 61.4463 23.9082 61.4463 22.7141C61.4463 21.52 60.4749 20.5491 59.2808 20.5491ZM59.2808 23.7706C58.6983 23.7706 58.2248 23.297 58.2248 22.7141C58.2248 22.1322 58.6983 21.6587 59.2808 21.6587C59.8632 21.6587 60.3367 22.1322 60.3367 22.7141C60.3367 23.297 59.8632 23.7706 59.2808 23.7706Z" fill="#1C1C1C"/>
<path d="M23.3277 55.0438C22.1335 55.0438 21.1621 56.0147 21.1621 57.2088C21.1621 58.4029 22.1335 59.3738 23.3277 59.3738C24.5212 59.3738 25.4926 58.4029 25.4926 57.2088C25.4926 56.0147 24.5212 55.0438 23.3277 55.0438ZM23.3277 58.2642C22.7452 58.2642 22.2717 57.7907 22.2717 57.2088C22.2717 56.6269 22.7452 56.1534 23.3277 56.1534C23.9095 56.1534 24.3831 56.6269 24.3831 57.2088C24.3831 57.7907 23.9095 58.2642 23.3277 58.2642Z" fill="#1C1C1C"/>
<path d="M42.6905 30.154C44.0022 30.4146 45.3295 29.5945 45.6245 28.2209H47.6804C47.9871 28.2209 48.2352 27.9727 48.2352 27.6661C48.2352 27.3594 47.9871 27.1113 47.6804 27.1113H45.627C45.3386 25.7625 44.0211 24.9086 42.6905 25.1771C39.7475 25.759 36.7644 25.759 33.8225 25.1771C32.5081 24.9129 31.1819 25.7412 30.8883 27.1113H28.8282C28.5216 27.1113 28.2734 27.3594 28.2734 27.6661C28.2734 27.9727 28.5216 28.2209 28.8282 28.2209H30.8861C31.1734 29.562 32.4808 30.4214 33.8225 30.154C36.7644 29.571 39.7475 29.571 42.6905 30.154ZM33.6068 29.0661C33.1934 29.1463 32.773 29.0412 32.449 28.7746C31.4748 27.9771 31.9599 26.2379 33.3338 26.2379C33.8561 26.2379 37.5974 27.3167 42.9061 26.265C43.6713 26.1228 44.2993 26.4423 44.5732 27.6661C44.5766 27.6867 44.5753 27.6868 44.5759 27.691C44.5759 28.5641 43.7846 29.2358 42.9061 29.0661C39.8212 28.4549 36.6918 28.4549 33.6068 29.0661Z" fill="#1C1C1C"/>
</svg>
