<svg width="73" height="74" viewBox="0 0 73 74" fill="none" xmlns="http://www.w3.org/2000/svg">
<g clip-path="url(#clip0_1734_177)">
<path d="M34.0113 65.7646C33.4984 65.7645 32.997 65.9166 32.5705 66.2016C32.144 66.4865 31.8116 66.8915 31.6153 67.3654C31.419 67.8393 31.3676 68.3607 31.4677 68.8638C31.5677 69.3668 31.8147 69.8289 32.1774 70.1916C32.54 70.5543 33.0021 70.8014 33.5052 70.9014C34.0083 71.0015 34.5297 70.9502 35.0036 70.7539C35.4775 70.5576 35.8825 70.2252 36.1675 69.7987C36.4524 69.3722 36.6045 68.8708 36.6045 68.3579C36.6038 67.6704 36.3303 67.0112 35.8442 66.525C35.358 66.0388 34.6989 65.7654 34.0113 65.7646ZM34.0113 69.2402C33.8368 69.2402 33.6662 69.1885 33.521 69.0915C33.3759 68.9946 33.2628 68.8568 33.196 68.6955C33.1292 68.5343 33.1117 68.3568 33.1457 68.1857C33.1798 68.0145 33.2638 67.8572 33.3872 67.7338C33.5106 67.6104 33.6679 67.5264 33.8391 67.4923C34.0103 67.4583 34.1877 67.4758 34.3489 67.5426C34.5102 67.6094 34.648 67.7225 34.745 67.8676C34.8419 68.0128 34.8936 68.1834 34.8936 68.3579C34.8932 68.5918 34.8001 68.8159 34.6347 68.9813C34.4693 69.1466 34.2452 69.2397 34.0113 69.2402ZM29.3763 4.09725C29.3763 3.87036 29.4664 3.65277 29.6268 3.49234C29.7873 3.33191 30.0049 3.24178 30.2317 3.24178H35.0204C35.2472 3.24178 35.4648 3.33191 35.6253 3.49234C35.7857 3.65277 35.8758 3.87036 35.8758 4.09725C35.8758 4.32413 35.7857 4.54172 35.6253 4.70215C35.4648 4.86259 35.2472 4.95271 35.0204 4.95271H30.2317C30.0049 4.95271 29.7873 4.86259 29.6268 4.70215C29.4664 4.54172 29.3763 4.32413 29.3763 4.09725ZM36.9329 4.09725C36.9329 3.92813 36.983 3.76281 37.077 3.62217C37.1709 3.48153 37.3044 3.37188 37.4606 3.30707C37.6168 3.24227 37.7887 3.22522 37.9546 3.25808C38.1205 3.29094 38.2729 3.37223 38.3926 3.49169C38.5123 3.61114 38.594 3.7634 38.6272 3.92922C38.6604 4.09504 38.6437 4.26699 38.5793 4.42334C38.5148 4.57969 38.4054 4.71342 38.265 4.80764C38.1246 4.90186 37.9593 4.95235 37.7902 4.95271H37.7884C37.5616 4.9526 37.3441 4.86242 37.1837 4.702C37.0234 4.54158 36.9333 4.32406 36.9333 4.09725H36.9329ZM69.9559 34.9C70.1584 34.8695 70.3434 34.7674 70.4771 34.6122C70.6107 34.457 70.6843 34.2589 70.6843 34.0541V28.2906C70.6843 28.0857 70.6108 27.8876 70.4771 27.7324C70.3434 27.5771 70.1585 27.475 69.9559 27.4446L65.3734 26.7563C65.1711 26.1528 64.9274 25.564 64.644 24.9941L67.398 21.2672C67.5197 21.1024 67.5783 20.8995 67.563 20.6952C67.5478 20.4909 67.4597 20.2988 67.3149 20.154L63.2394 16.0788C63.0946 15.9339 62.9025 15.8458 62.6983 15.8306C62.494 15.8153 62.291 15.8738 62.1262 15.9955L58.4029 18.7464C57.8316 18.4618 57.2414 18.2169 56.6363 18.0136L55.949 13.4368C55.9186 13.2342 55.8164 13.0492 55.6612 12.9156C55.5059 12.7819 55.3078 12.7084 55.1029 12.7084H54.6211V4.5736C54.6201 3.49345 54.1904 2.45786 53.4266 1.69414C52.6628 0.93041 51.6271 0.500944 50.547 0.5L17.4756 0.5C16.3955 0.501057 15.3599 0.930573 14.5962 1.69429C13.8325 2.458 13.4029 3.49353 13.4018 4.5736V31.7403C13.2672 31.7971 13.1495 31.8874 13.0598 32.0027C12.9701 32.118 12.9115 32.2543 12.8895 32.3987L12.4183 35.5354C12.0696 35.6584 11.7279 35.8002 11.3946 35.9603L8.84245 34.0744C8.67768 33.9527 8.47469 33.8941 8.2704 33.9094C8.0661 33.9246 7.87406 34.0127 7.7292 34.1576L4.80635 37.0804C4.66145 37.2253 4.57337 37.4174 4.55811 37.6217C4.54286 37.826 4.60145 38.029 4.72322 38.1938L6.61082 40.7487C6.45187 41.081 6.31113 41.4217 6.18921 41.7692L3.04679 42.241C2.8442 42.2715 2.65926 42.3736 2.52558 42.5288C2.39191 42.684 2.31838 42.8821 2.31836 43.0869V47.2204C2.31838 47.4253 2.39191 47.6233 2.52558 47.7786C2.65926 47.9338 2.8442 48.0359 3.04679 48.0663L6.19306 48.539C6.31518 48.8846 6.45583 49.2233 6.61438 49.5537L4.72294 52.1133C4.60118 52.2781 4.54261 52.4811 4.5579 52.6854C4.57318 52.8898 4.66129 53.0818 4.80621 53.2267L7.72906 56.1495C7.87392 56.2944 8.06596 56.3824 8.27025 56.3977C8.47455 56.413 8.67754 56.3544 8.84231 56.2326L11.4044 54.3395C11.7341 54.4972 12.072 54.6371 12.4167 54.7585L12.8898 57.9095C12.9118 58.0541 12.9705 58.1905 13.0604 58.3058C13.1503 58.4212 13.2683 58.5115 13.4031 58.5681V69.427C13.4043 70.5067 13.8338 71.5419 14.5972 72.3055C15.3607 73.069 16.3958 73.4986 17.4756 73.5H50.547C51.627 73.4989 52.6625 73.0694 53.4262 72.3057C54.1899 71.5419 54.6195 70.5064 54.6206 69.4264V49.6366H55.1019C55.3068 49.6366 55.5049 49.5631 55.6602 49.4294C55.8154 49.2957 55.9176 49.1107 55.948 48.9081L56.6379 44.3131C57.2372 44.1118 57.822 43.8696 58.3882 43.5882L62.1253 46.3496C62.2901 46.4713 62.4931 46.5299 62.6974 46.5146C62.9017 46.4994 63.0937 46.4113 63.2386 46.2664L67.314 42.1898C67.4588 42.045 67.5469 41.853 67.5621 41.6487C67.5774 41.4445 67.5188 41.2415 67.3971 41.0767L64.6384 37.3436C64.9211 36.7762 65.1644 36.19 65.3668 35.5892L69.9559 34.9ZM17.4756 2.21094H50.547C51.1734 2.21165 51.7739 2.46081 52.2168 2.90374C52.6598 3.34667 52.9089 3.9472 52.9096 4.5736V12.7083H51.5312V6.96791C51.5308 6.70712 51.427 6.45713 51.2426 6.27273C51.0582 6.08832 50.8082 5.98454 50.5474 5.98413H17.4756C17.2148 5.98454 16.9648 6.08832 16.7804 6.27273C16.596 6.45713 16.4922 6.70712 16.4918 6.96791V31.6701H15.1133V4.5736C15.114 3.94728 15.3631 3.34681 15.806 2.90389C16.2488 2.46097 16.8492 2.21177 17.4756 2.21094ZM37.0438 21.2669L39.7976 24.9938C39.5141 25.5637 39.2702 26.1524 39.0677 26.7559L34.4844 27.4443C34.2818 27.4747 34.0969 27.5768 33.9633 27.7321C33.8296 27.8873 33.7561 28.0854 33.7561 28.2902V34.0536C33.7561 34.2585 33.8296 34.4566 33.9632 34.6118C34.0969 34.7671 34.2818 34.8692 34.4844 34.8997L39.0737 35.5889C39.2759 36.1895 39.5193 36.7755 39.802 37.3426L37.0431 41.0777C36.9214 41.2425 36.8628 41.4455 36.8781 41.6498C36.8933 41.8541 36.9814 42.0461 37.1262 42.191L41.2017 46.2662C41.3466 46.411 41.5386 46.4991 41.7429 46.5143C41.9472 46.5296 42.1502 46.471 42.3149 46.3493L46.0525 43.5871C46.6186 43.8684 47.2033 44.1106 47.8025 44.3118L48.4926 48.9073C48.523 49.1099 48.6251 49.2948 48.7803 49.4285C48.9356 49.5622 49.1336 49.6357 49.3385 49.6357H49.8203V63.2158H18.2021V58.5678C18.3367 58.511 18.4545 58.4207 18.5442 58.3054C18.6339 58.1901 18.6926 58.0538 18.7146 57.9094L19.1875 54.7592C19.5322 54.6378 19.8701 54.4979 20.1998 54.3401L22.7619 56.2332C22.9267 56.355 23.1297 56.4136 23.3339 56.3983C23.5382 56.3831 23.7303 56.2951 23.8752 56.1502L26.798 53.2274C26.9429 53.0825 27.0309 52.8905 27.0462 52.6862C27.0615 52.4819 27.0029 52.2789 26.8811 52.1141L24.9896 49.5543C25.1483 49.2238 25.2889 48.885 25.411 48.5393L28.5572 48.0666C28.7597 48.0362 28.9447 47.9341 29.0784 47.7789C29.212 47.6236 29.2856 47.4256 29.2856 47.2207V43.0872C29.2856 42.8824 29.212 42.6843 29.0784 42.5291C28.9447 42.3738 28.7597 42.2717 28.5572 42.2413L25.4159 41.7695C25.2937 41.4219 25.1526 41.0811 24.9934 40.7488L26.881 38.1942C27.0027 38.0295 27.0613 37.8265 27.0461 37.6222C27.0308 37.4179 26.9427 37.2258 26.7979 37.081L23.875 34.1581C23.7301 34.0133 23.5381 33.9253 23.3338 33.91C23.1295 33.8948 22.9265 33.9534 22.7618 34.0751L20.2096 35.9607C19.8763 35.8007 19.5345 35.6588 19.1858 35.5359L18.7153 32.3991C18.6933 32.2546 18.6345 32.1182 18.5446 32.0028C18.4547 31.8875 18.3368 31.7972 18.202 31.7406V7.69478H49.8201V12.7083H49.3388C49.1339 12.7082 48.9358 12.7817 48.7805 12.9154C48.6253 13.0491 48.5231 13.2341 48.4927 13.4367L47.8055 18.0134C47.2004 18.2167 46.6102 18.4615 46.0389 18.7462L42.3155 15.9944C42.1507 15.8727 41.9478 15.8141 41.7435 15.8293C41.5392 15.8446 41.3471 15.9327 41.2023 16.0775L37.1268 20.153C36.9818 20.2979 36.8936 20.4901 36.8784 20.6945C36.8632 20.899 36.9219 21.1021 37.0438 21.2669ZM11.7338 52.5862C11.5905 52.5077 11.4278 52.4718 11.2648 52.4828C11.1018 52.4938 10.9454 52.5513 10.814 52.6484L8.41785 54.4189L6.53682 52.5379L8.30593 50.1436C8.40308 50.0121 8.46052 49.8555 8.47144 49.6923C8.48235 49.5292 8.44629 49.3664 8.36752 49.2231C8.07276 48.6864 7.83726 48.1192 7.66518 47.5315C7.61938 47.3748 7.52971 47.2345 7.40675 47.1272C7.28379 47.0198 7.13268 46.9498 6.97125 46.9256L4.0293 46.4836V43.8235L6.9674 43.3825C7.12906 43.3583 7.28038 43.2882 7.40346 43.1806C7.52654 43.0731 7.61623 42.9325 7.6619 42.7756C7.83353 42.1861 8.06899 41.6172 8.3641 41.0789C8.44266 40.9356 8.47857 40.7729 8.46758 40.6099C8.45659 40.4469 8.39916 40.2905 8.30208 40.1591L6.53696 37.7699L8.41799 35.8889L10.8048 37.6524C10.9362 37.7496 11.0928 37.8071 11.256 37.818C11.4191 37.829 11.5819 37.7929 11.7252 37.7142C12.2644 37.4179 12.8343 37.1815 13.4249 37.0093C13.5818 36.9635 13.7223 36.8738 13.8298 36.7508C13.9373 36.6277 14.0074 36.4764 14.0316 36.3148L14.472 33.3814H17.1322L17.5726 36.3148C17.5969 36.4764 17.6669 36.6277 17.7745 36.7508C17.882 36.8739 18.0225 36.9636 18.1795 37.0093C18.7701 37.1815 19.34 37.4179 19.8791 37.7142C20.0224 37.7929 20.1853 37.829 20.3484 37.818C20.5116 37.8071 20.6681 37.7496 20.7996 37.6524L23.1861 35.8892L25.0673 37.7699L23.3022 40.1585C23.2051 40.2899 23.1476 40.4464 23.1367 40.6093C23.1257 40.7723 23.1616 40.9351 23.2401 41.0783C23.5353 41.6169 23.7709 42.186 23.9426 42.7757C23.9883 42.9327 24.0779 43.0732 24.201 43.1808C24.324 43.2884 24.4753 43.3585 24.637 43.3828L27.5741 43.8238V46.4842L24.6324 46.9261C24.471 46.9504 24.3199 47.0203 24.197 47.1276C24.074 47.2349 23.9843 47.3752 23.9385 47.5318C23.7663 48.1197 23.5307 48.687 23.2359 49.2239C23.1571 49.3672 23.1211 49.53 23.132 49.6931C23.1429 49.8562 23.2003 50.0128 23.2974 50.1443L25.0666 52.538L23.186 54.4191L20.7892 52.6487C20.6579 52.5516 20.5015 52.4941 20.3385 52.4831C20.1755 52.472 20.0128 52.5079 19.8696 52.5864C19.3335 52.8802 18.7671 53.1148 18.1803 53.2861C18.0235 53.3319 17.883 53.4215 17.7755 53.5445C17.6681 53.6676 17.5981 53.8188 17.5738 53.9803L17.1318 56.9266H14.4717L14.0297 53.9802C14.0055 53.8187 13.9355 53.6675 13.8281 53.5445C13.7207 53.4215 13.5803 53.3318 13.4235 53.286C12.8366 53.1146 12.27 52.8799 11.7338 52.5862ZM52.9104 69.4264C52.9096 70.0529 52.6604 70.6536 52.2173 71.0965C51.7742 71.5395 51.1735 71.7885 50.547 71.7891H17.4756C16.8491 71.7884 16.2486 71.5392 15.8056 71.0963C15.3626 70.6534 15.1135 70.0528 15.1128 69.4264V58.6375H16.4912V63.9426C16.4916 64.2034 16.5954 64.4533 16.7798 64.6377C16.9642 64.8222 17.2142 64.9259 17.475 64.9264H50.547C50.8078 64.9259 51.0578 64.8222 51.2422 64.6377C51.4266 64.4533 51.5303 64.2034 51.5308 63.9426V49.636H52.9092L52.9104 69.4264ZM62.9449 37.9298L65.5841 41.5015L62.5503 44.5354L58.9755 41.8939C58.8441 41.7968 58.6877 41.7394 58.5247 41.7284C58.3618 41.7174 58.1991 41.7533 58.0559 41.8318C57.2867 42.2532 56.4739 42.5897 55.632 42.8354C55.4752 42.8812 55.3347 42.9708 55.2273 43.0939C55.1198 43.2169 55.0498 43.3681 55.0255 43.5297L54.3655 47.925H50.0748L49.4148 43.5294C49.3905 43.3678 49.3205 43.2166 49.2131 43.0936C49.1056 42.9706 48.9652 42.8809 48.8084 42.8352C47.9665 42.5894 47.1538 42.2529 46.3846 41.8315C46.2413 41.753 46.0786 41.7171 45.9157 41.7281C45.7527 41.7391 45.5963 41.7965 45.4649 41.8936L41.8908 44.535L38.8573 41.5012L41.4967 37.9292C41.5938 37.7977 41.6513 37.6411 41.6622 37.478C41.6732 37.3149 41.6371 37.1521 41.5584 37.0088C41.1355 36.2389 40.7977 35.4251 40.551 34.582C40.5051 34.4253 40.4154 34.285 40.2924 34.1777C40.1695 34.0704 40.0183 34.0004 39.8569 33.9762L35.4676 33.3171V29.0267L39.8518 28.3685C40.0134 28.3442 40.1647 28.2741 40.2878 28.1665C40.4108 28.0589 40.5005 27.9183 40.5461 27.7614C40.7922 26.9157 41.13 26.0994 41.5536 25.3271C41.6321 25.1839 41.668 25.0212 41.6571 24.8582C41.6461 24.6952 41.5886 24.5387 41.4916 24.4074L38.8576 20.8429L41.8908 17.809L45.4525 20.4407C45.584 20.5378 45.7405 20.5953 45.9037 20.6062C46.0668 20.6172 46.2296 20.5811 46.3729 20.5024C47.1463 20.0775 47.9638 19.7383 48.8109 19.491C48.9678 19.4453 49.1083 19.3556 49.2158 19.2326C49.3233 19.1096 49.3933 18.9583 49.4176 18.7968L50.0749 14.4196H54.3664L55.0238 18.7968C55.0481 18.9583 55.1181 19.1095 55.2255 19.2326C55.333 19.3556 55.4735 19.4453 55.6303 19.491C56.4774 19.7383 57.295 20.0775 58.0684 20.5024C58.2117 20.5812 58.3745 20.6172 58.5377 20.6063C58.7008 20.5953 58.8574 20.5379 58.9889 20.4407L62.5503 17.809L65.584 20.8428L62.9503 24.4072C62.8532 24.5386 62.7958 24.695 62.7848 24.858C62.7738 25.0209 62.8097 25.1836 62.8883 25.3268C63.3117 26.0993 63.6496 26.9157 63.8959 27.7615C63.9415 27.9185 64.0312 28.0591 64.1542 28.1666C64.2773 28.2742 64.4286 28.3443 64.5902 28.3686L68.9738 29.0269V33.3172L64.5842 33.9773C64.4228 34.0016 64.2717 34.0715 64.1488 34.1788C64.0258 34.2861 63.9361 34.4264 63.8903 34.583C63.6435 35.4262 63.3056 36.2401 62.8826 37.0101C62.804 37.1533 62.768 37.316 62.7789 37.4789C62.7898 37.6419 62.8472 37.7983 62.9441 37.9298H62.9449ZM52.2206 23.4428C50.6918 23.4428 49.1974 23.8961 47.9263 24.7454C46.6553 25.5947 45.6645 26.8018 45.0795 28.2141C44.4945 29.6265 44.3414 31.1806 44.6396 32.6799C44.9378 34.1793 45.674 35.5565 46.7549 36.6375C47.8359 37.7185 49.2131 38.4546 50.7125 38.7529C52.2118 39.0511 53.7659 38.8981 55.1783 38.3131C56.5906 37.7281 57.7978 36.7374 58.6471 35.4663C59.4964 34.1952 59.9497 32.7008 59.9497 31.1721C59.9474 29.1229 59.1324 27.1583 57.6834 25.7093C56.2344 24.2602 54.2698 23.4452 52.2206 23.4428ZM52.2206 37.1903C51.0302 37.1904 49.8666 36.8374 48.8769 36.1761C47.8871 35.5148 47.1157 34.5749 46.6602 33.4752C46.2047 32.3755 46.0855 31.1653 46.3177 29.9979C46.5499 28.8304 47.1231 27.758 47.9648 26.9164C48.8065 26.0747 49.8789 25.5015 51.0463 25.2692C52.2138 25.037 53.4239 25.1562 54.5236 25.6118C55.6233 26.0673 56.5633 26.8387 57.2246 27.8284C57.8859 28.8182 58.2388 29.9818 58.2388 31.1721C58.2369 32.7677 57.6023 34.2974 56.474 35.4256C55.3458 36.5538 53.8161 37.1885 52.2206 37.1903ZM21.5876 45.1538C21.5876 44.0096 21.2483 42.8911 20.6126 41.9398C19.9769 40.9884 19.0734 40.247 18.0163 39.8091C16.9592 39.3713 15.796 39.2567 14.6738 39.48C13.5516 39.7032 12.5209 40.2542 11.7118 41.0633C10.9028 41.8723 10.3518 42.9031 10.1286 44.0253C9.90538 45.1475 10.0199 46.3107 10.4578 47.3678C10.8957 48.4249 11.6372 49.3284 12.5885 49.9641C13.5399 50.5997 14.6584 50.939 15.8025 50.939C17.3363 50.9373 18.8068 50.3272 19.8914 49.2426C20.9759 48.1581 21.586 46.6876 21.5876 45.1538ZM11.7285 45.1538C11.7285 44.348 11.9675 43.5603 12.4152 42.8903C12.8629 42.2203 13.4992 41.6981 14.2437 41.3898C14.9882 41.0815 15.8074 41.0008 16.5977 41.158C17.388 41.3153 18.1139 41.7033 18.6837 42.2731C19.2534 42.8429 19.6414 43.5689 19.7986 44.3592C19.9558 45.1495 19.8751 45.9687 19.5667 46.7131C19.2583 47.4576 18.7361 48.0939 18.0661 48.5415C17.396 48.9892 16.6083 49.2281 15.8025 49.2281C14.7223 49.227 13.6866 48.7974 12.9227 48.0335C12.1588 47.2697 11.7291 46.234 11.7279 45.1538H11.7285Z" fill="white"/>
</g>
<defs>
<clipPath id="clip0_1734_177">
<rect width="73" height="73" fill="white" transform="translate(0 0.5)"/>
</clipPath>
</defs>
</svg>
