<svg width="511" height="512" viewBox="0 0 511 512" fill="none" xmlns="http://www.w3.org/2000/svg">
<g clip-path="url(#clip0_1855_9)">
<path d="M347.34 155.148C341.82 155.148 337.34 159.617 337.34 165.145C337.34 170.668 341.82 175.145 347.34 175.145C352.871 175.145 357.34 170.668 357.34 165.145C357.34 159.617 352.871 155.148 347.34 155.148Z" fill="white"/>
<path d="M165.645 336.84C160.113 336.84 155.645 341.32 155.645 346.84C155.645 352.371 160.113 356.84 165.645 356.84C171.164 356.84 175.645 352.371 175.645 346.84C175.645 341.32 171.164 336.84 165.645 336.84Z" fill="white"/>
<path d="M500.059 61.5205C496.684 60.7353 493.137 61.7549 490.699 64.2158L449.242 106.001H429.367L407.488 83.333V63.1806L448.352 21.708C450.77 19.2549 451.754 15.7275 450.953 12.372C450.156 9.02048 447.688 6.31736 444.422 5.21579C434.156 1.75486 423.414 0.000948717 412.488 0.000948717C379.918 0.000948717 350.328 15.1884 331.305 41.6689C313.5 66.458 308.012 96.8369 315.875 125.911L242.215 199.571L119.496 76.5713V52.4306C119.496 48.9189 117.652 45.6611 114.641 43.8564L43.9336 1.42673C39.9961 -0.936551 34.9609 -0.315457 31.7188 2.93064L3.4375 31.208C0.195312 34.4541 -0.425781 39.4892 1.93359 43.4267L44.3555 114.134C46.1602 117.145 49.4141 118.985 52.9258 118.989L77.0586 118.997L199.789 241.997L126.41 315.376C97.3359 307.517 66.9414 313.013 42.1406 330.829C15.6758 349.841 0.5 379.423 0.5 411.993C0.5 422.915 2.25391 433.661 5.71484 443.923C6.82031 447.208 9.55078 449.688 12.9258 450.47C16.3047 451.255 19.8477 450.235 22.2891 447.774L63.7422 405.993H83.7266L106.496 428.763V448.747L64.7148 490.2C62.2539 492.642 61.2344 496.185 62.0195 499.563C62.8008 502.938 65.2812 505.669 68.5664 506.774C78.8281 510.235 89.5742 511.989 100.496 511.989C133.066 511.989 162.645 496.81 181.66 470.345C199.477 445.544 204.973 415.153 197.113 386.079L256.047 327.145L269.547 341.81L263.352 348.001C259.445 351.907 259.445 358.239 263.352 362.145C267.258 366.048 273.586 366.048 277.496 362.145L283.105 356.536L409.77 494.122C409.863 494.224 409.961 494.321 410.059 494.419C433.496 517.856 471.469 517.864 494.918 494.415C518.301 471.02 518.301 432.954 494.918 409.56C494.816 409.458 494.711 409.36 494.605 409.263L356.805 282.841L362.352 277.294C366.258 273.392 366.258 267.06 362.352 263.153C358.445 259.247 352.117 259.247 348.207 263.153L342.055 269.31L327.363 255.825L386.582 196.606C395 198.856 403.688 199.997 412.488 199.997C467.629 199.997 512.484 155.138 512.484 100.001C512.484 89.0752 510.73 78.333 507.27 68.0674C506.164 64.7822 503.434 62.3017 500.059 61.5205ZM88.2852 101.935C86.4102 100.056 83.8672 99.0986 81.2109 99.0986L58.5938 99.0908L23.1016 39.833L40.3398 22.5947L99.4961 58.0947V80.7119C99.4961 83.3603 100.547 85.8994 102.418 87.7744L228.074 213.716L213.93 227.856L88.2852 101.935ZM342.648 296.997L480.918 423.845C496.363 439.454 496.316 464.728 480.773 480.278C465.195 495.856 439.977 495.903 424.336 480.415L297.258 342.38L342.648 296.997ZM327.898 283.462L283.699 327.653L270.199 312.989L313.207 269.978L327.898 283.462ZM412.488 179.997C403.742 179.997 395.141 178.595 386.93 175.829C383.332 174.622 379.355 175.552 376.668 178.235C326.535 228.368 218.512 336.388 178.734 376.169C176.047 378.856 175.113 382.833 176.328 386.435C184.641 411.118 180.664 437.446 165.414 458.677C150.207 479.845 126.543 491.989 100.496 491.989C97.5703 491.989 94.6602 491.829 91.7773 491.52L123.539 460.005C125.43 458.13 126.496 455.575 126.496 452.907V424.618C126.496 421.966 125.441 419.423 123.566 417.548L94.9375 388.919C93.0625 387.044 90.5195 385.989 87.8672 385.989H59.5781C56.9102 385.989 54.3555 387.056 52.4766 388.946L20.9648 420.708C20.6523 417.825 20.4961 414.915 20.4961 411.989C20.4961 385.938 32.6367 362.278 53.8086 347.071C75.0352 331.821 101.367 327.841 126.055 336.157C129.652 337.372 133.629 336.438 136.316 333.751C136.867 333.204 334.109 135.958 334.25 135.817C336.938 133.13 337.867 129.157 336.656 125.556C328.34 100.872 332.309 74.5517 347.547 53.3369C362.766 32.1494 386.434 20.0009 412.484 20.0009C415.5 20.0009 418.496 20.1689 421.465 20.497L390.363 52.0634C388.52 53.9345 387.488 56.4541 387.488 59.0791V87.3681C387.488 89.9619 388.492 92.4502 390.293 94.3134L417.922 122.942C419.805 124.895 422.402 125.997 425.117 125.997H453.406C456.07 125.997 458.625 124.935 460.504 123.04L492.016 91.2822C492.328 94.165 492.484 97.0752 492.484 100.001C492.484 144.11 456.598 179.997 412.488 179.997Z" fill="white"/>
<path d="M311.988 186.355L186.852 311.492C182.949 315.395 182.949 321.727 186.852 325.633C190.758 329.539 197.09 329.539 200.996 325.633L326.133 200.496C330.039 196.594 330.039 190.262 326.133 186.355C322.227 182.449 315.895 182.449 311.988 186.355Z" fill="white"/>
<path d="M438.355 452.001C442.262 455.895 448.594 455.895 452.5 451.977C456.398 448.067 456.387 441.735 452.477 437.836L362.34 347.989C358.43 344.09 352.094 344.102 348.199 348.012C344.297 351.926 344.309 358.254 348.219 362.153L438.355 452.001Z" fill="white"/>
</g>
<defs>
<clipPath id="clip0_1855_9">
<rect width="511" height="512" fill="white"/>
</clipPath>
</defs>
</svg>
