<svg width="83" height="83" viewBox="0 0 83 83" fill="none" xmlns="http://www.w3.org/2000/svg">
<path d="M47.9844 37.609H60.9531C62.329 37.5918 63.6416 37.0288 64.6023 36.0438C65.5629 35.0588 66.093 33.7325 66.0758 32.3567C66.0586 30.9809 65.4956 29.6683 64.5106 28.7076C63.5256 27.7469 62.1993 27.2168 60.8235 27.234C60.5258 25.7682 59.7305 24.4503 58.5724 23.5037C57.4143 22.5571 55.9645 22.04 54.4688 22.04C52.973 22.04 51.5232 22.5571 50.3651 23.5037C49.207 24.4503 48.4117 25.7682 48.1141 27.234C47.4328 27.2255 46.7566 27.3513 46.124 27.6041C45.4913 27.8569 44.9147 28.2319 44.427 28.7076C43.442 29.6683 42.8789 30.9809 42.8617 32.3567C42.8532 33.0379 42.979 33.7142 43.2318 34.3468C43.4846 34.9794 43.8596 35.5561 44.3353 36.0438C44.811 36.5315 45.378 36.9208 46.0042 37.1894C46.6303 37.4579 47.3032 37.6005 47.9844 37.609ZM47.9844 29.8278C48.2846 29.8312 48.5819 29.8878 48.8624 29.9951C49.0629 30.068 49.2782 30.0904 49.4894 30.0602C49.7006 30.03 49.9011 29.9482 50.0731 29.822C50.2451 29.6958 50.3833 29.5291 50.4755 29.3367C50.5677 29.1443 50.6109 28.9321 50.6015 28.719C50.6015 28.6762 50.5833 28.5711 50.5781 28.5309C50.5719 27.4991 50.9759 26.507 51.7012 25.773C52.4264 25.039 53.4136 24.6231 54.4454 24.6169C55.4773 24.6108 56.4693 25.0147 57.2033 25.74C57.9374 26.4652 58.3532 27.4524 58.3594 28.4842C58.3594 28.5244 58.3373 28.6762 58.336 28.719C58.3266 28.9321 58.3699 29.1443 58.462 29.3367C58.5542 29.5291 58.6924 29.6958 58.8644 29.822C59.0364 29.9482 59.2369 30.03 59.4481 30.0602C59.6593 30.0904 59.8747 30.068 60.0752 29.9951C60.3556 29.8878 60.6529 29.8312 60.9531 29.8278C61.641 29.8278 62.3008 30.1011 62.7872 30.5875C63.2736 31.0739 63.5469 31.7336 63.5469 32.4215C63.5469 33.1094 63.2736 33.7692 62.7872 34.2556C62.3008 34.742 61.641 35.0153 60.9531 35.0153H47.9844C47.2965 35.0153 46.6368 34.742 46.1503 34.2556C45.6639 33.7692 45.3906 33.1094 45.3906 32.4215C45.3906 31.7336 45.6639 31.0739 46.1503 30.5875C46.6368 30.1011 47.2965 29.8278 47.9844 29.8278Z" fill="white"/>
<path d="M18.1562 40.2031H31.125C31.469 40.2031 31.7988 40.0665 32.042 39.8233C32.2852 39.5801 32.4219 39.2502 32.4219 38.9062V25.9375C32.4218 25.5936 32.2851 25.2638 32.0419 25.0206L26.8544 19.8331C26.6112 19.5899 26.2814 19.4532 25.9375 19.4531H18.1562C17.8123 19.4531 17.4824 19.5898 17.2392 19.833C16.996 20.0762 16.8594 20.406 16.8594 20.75V38.9062C16.8594 39.2502 16.996 39.5801 17.2392 39.8233C17.4824 40.0665 17.8123 40.2031 18.1562 40.2031ZM19.4531 22.0469H25.4006L29.8281 26.4744V37.6094H19.4531V22.0469Z" fill="white"/>
<path d="M33.7188 31.125H36.3125V33.7188H33.7188V31.125Z" fill="white"/>
<path d="M38.9062 31.125H41.5V33.7188H38.9062V31.125Z" fill="white"/>
<path d="M75.2188 14.2656H71.3281V6.48438C71.3281 5.10856 70.7816 3.7891 69.8087 2.81626C68.8359 1.84341 67.5164 1.29688 66.1406 1.29688H16.8594C15.4836 1.29688 14.1641 1.84341 13.1913 2.81626C12.2184 3.7891 11.6719 5.10856 11.6719 6.48438V14.2656H7.78125C6.06212 14.2677 4.41399 14.9515 3.19838 16.1671C1.98277 17.3827 1.29893 19.0309 1.29688 20.75V59.6562C1.29893 61.3754 1.98277 63.0235 3.19838 64.2391C4.41399 65.4547 6.06212 66.1386 7.78125 66.1406H32.4219V71.3281H29.7373C28.5506 71.332 27.3762 71.5702 26.2817 72.0289C25.1871 72.4876 24.1939 73.1579 23.3589 74.0013C22.5239 74.8447 21.8637 75.8446 21.416 76.9437C20.9683 78.0428 20.742 79.2195 20.75 80.4062C20.75 80.7502 20.8866 81.0801 21.1298 81.3233C21.3731 81.5665 21.7029 81.7031 22.0469 81.7031H60.8623C61.2036 81.7031 61.5311 81.5686 61.7739 81.3288C62.0167 81.0889 62.1551 80.7631 62.1592 80.4218C62.1731 79.2327 61.9509 78.0527 61.5055 76.95C61.0601 75.8474 60.4003 74.8441 59.5644 73.9983C58.7285 73.1525 57.733 72.481 56.6357 72.0226C55.5384 71.5643 54.3611 71.3282 53.1719 71.3281H50.5781V66.1406H75.2188C76.9379 66.1386 78.586 65.4547 79.8016 64.2391C81.0172 63.0235 81.7011 61.3754 81.7031 59.6562V20.75C81.7011 19.0309 81.0172 17.3827 79.8016 16.1671C78.586 14.9515 76.9379 14.2677 75.2188 14.2656ZM14.2656 14.2656H68.7344V42.7969C68.7344 43.4848 68.4611 44.1445 67.9747 44.6309C67.4883 45.1174 66.8285 45.3906 66.1406 45.3906H16.8594C16.1715 45.3906 15.5117 45.1174 15.0253 44.6309C14.5389 44.1445 14.2656 43.4848 14.2656 42.7969V14.2656ZM16.8594 3.89062H66.1406C66.8285 3.89062 67.4883 4.16389 67.9747 4.65032C68.4611 5.13674 68.7344 5.79647 68.7344 6.48438V11.6719H14.2656V6.48438C14.2656 5.79647 14.5389 5.13674 15.0253 4.65032C15.5117 4.16389 16.1715 3.89062 16.8594 3.89062ZM7.78125 16.8594H11.6719V42.7969C11.6719 44.1727 12.2184 45.4921 13.1913 46.465C14.1641 47.4378 15.4836 47.9844 16.8594 47.9844H66.1406C67.5164 47.9844 68.8359 47.4378 69.8087 46.465C70.7816 45.4921 71.3281 44.1727 71.3281 42.7969V16.8594H75.2188C76.2506 16.8594 77.2402 17.2693 77.9698 17.9989C78.6995 18.7285 79.1094 19.7181 79.1094 20.75V53.1719H3.89062V20.75C3.89062 19.7181 4.30053 18.7285 5.03016 17.9989C5.7598 17.2693 6.74939 16.8594 7.78125 16.8594ZM57.7187 75.8218C58.6126 76.7195 59.2166 77.8647 59.4526 79.1094H23.4579C23.7404 77.6506 24.5213 76.3353 25.6669 75.389C26.8124 74.4426 28.2514 73.924 29.7373 73.9219H53.1719C54.0181 73.9199 54.8562 74.0869 55.637 74.4132C56.4177 74.7394 57.1255 75.2183 57.7187 75.8218ZM47.9844 71.3281H35.0156V66.1406H47.9844V71.3281ZM75.2188 63.5469H7.78125C6.74939 63.5469 5.7598 63.137 5.03016 62.4073C4.30053 61.6777 3.89062 60.6881 3.89062 59.6562V55.7656H79.1094V59.6562C79.1094 60.6881 78.6995 61.6777 77.9698 62.4073C77.2402 63.137 76.2506 63.5469 75.2188 63.5469Z" fill="white"/>
<path d="M37.6094 58.3594H45.3906V60.9531H37.6094V58.3594Z" fill="white"/>
<path d="M63.5469 6.48438H66.1406V9.07812H63.5469V6.48438Z" fill="white"/>
<path d="M58.3594 6.48438H60.9531V9.07812H58.3594V6.48438Z" fill="white"/>
<path d="M53.1719 6.48438H55.7656V9.07812H53.1719V6.48438Z" fill="white"/>
</svg>
