<svg width="512" height="512" viewBox="0 0 512 512" fill="none" xmlns="http://www.w3.org/2000/svg">
<g clip-path="url(#clip0_1855_65)">
<path d="M364.9 236.201C363.3 236.201 361.8 236.001 360.2 235.701C349.1 233.101 342.2 222.001 344.8 210.801L367.6 113.301C370.8 99.6011 384.6 91.0011 398.3 94.1011L495.9 116.201C507 118.701 514 129.801 511.5 140.901C509 152.001 497.9 159.001 486.8 156.501L404.3 137.801L385 220.201C382.8 229.801 374.3 236.201 364.9 236.201Z" fill="white"/>
<path d="M232.2 488.201C170.2 488.201 111.9 464.101 68 420.201C24.1 376.301 0 318.001 0 256.001C0 194.001 24.1 135.701 68 91.8008C111.8 48.0008 170.1 23.8008 232.2 23.8008C255.4 23.8008 278.3 27.2008 300.2 33.9008C311.1 37.2008 317.3 48.8008 313.9 59.7008C310.6 70.6008 299 76.8008 288.1 73.4008C270.1 67.9008 251.2 65.1008 232.2 65.1008C127 65.2008 41.4 150.801 41.4 256.001C41.4 361.201 127 446.801 232.2 446.801C337.4 446.801 423 361.201 423 256.001C423 209.001 405.8 163.901 374.5 128.901C366.9 120.401 367.6 107.301 376.1 99.7008C384.6 92.1008 397.7 92.8008 405.3 101.301C443.4 143.901 464.4 198.801 464.4 256.001C464.4 318.001 440.3 376.301 396.4 420.201C352.5 464.001 294.2 488.201 232.2 488.201Z" fill="white"/>
</g>
<defs>
<clipPath id="clip0_1855_65">
<rect width="512" height="512" fill="white"/>
</clipPath>
</defs>
</svg>
