<svg width="512" height="512" viewBox="0 0 512 512" fill="none" xmlns="http://www.w3.org/2000/svg">
<path d="M231.911 321.899C231.911 376.19 276.08 420.359 330.371 420.359C384.662 420.359 428.831 376.19 428.831 321.899C428.831 267.608 384.662 223.439 330.371 223.439C276.08 223.439 231.911 267.608 231.911 321.899ZM365.531 258.599C370.897 253.233 379.629 253.233 384.996 258.598L393.672 267.273C396.272 269.873 397.704 273.329 397.704 277.006C397.704 280.683 396.272 284.139 393.673 286.739L359.574 320.838C359.191 321.221 359.134 321.667 359.134 321.9C359.134 322.132 359.191 322.579 359.574 322.961L393.673 357.06C396.273 359.66 397.704 363.116 397.704 366.793C397.704 370.47 396.272 373.926 393.672 376.526L384.996 385.201C379.63 390.566 370.898 390.566 365.531 385.201L331.432 351.102C331.049 350.72 330.603 350.662 330.371 350.662C330.139 350.662 329.692 350.719 329.31 351.102L295.211 385.199C292.528 387.882 289.003 389.224 285.478 389.224C281.953 389.224 278.429 387.883 275.746 385.2L267.07 376.525C264.47 373.925 263.038 370.469 263.038 366.792C263.038 363.115 264.47 359.659 267.07 357.059L301.169 322.96C301.552 322.577 301.609 322.131 301.609 321.899C301.609 321.666 301.552 321.22 301.169 320.837L267.07 286.739C264.47 284.139 263.038 280.683 263.038 277.006C263.038 273.33 264.47 269.873 267.07 267.273L275.746 258.598C281.112 253.232 289.844 253.232 295.211 258.599L329.31 292.698C329.693 293.08 330.139 293.138 330.371 293.138C330.603 293.138 331.05 293.081 331.432 292.698L365.531 258.599Z" fill="white"/>
<path d="M192.438 119.665L212.785 121.306V90.7012L192.438 92.3412V119.665Z" fill="white"/>
<path d="M323.866 298.142L289.767 264.043C288.584 262.861 287.031 262.27 285.478 262.27C283.925 262.27 282.372 262.861 281.189 264.043L272.514 272.718C271.368 273.864 270.737 275.387 270.737 277.007C270.737 278.627 271.368 280.15 272.514 281.296L306.613 315.395C308.351 317.132 309.307 319.443 309.307 321.9C309.307 324.357 308.35 326.667 306.613 328.405L272.514 362.504C271.368 363.65 270.737 365.173 270.737 366.794C270.737 368.414 271.368 369.937 272.514 371.083L281.19 379.758C283.555 382.123 287.403 382.123 289.768 379.758L323.867 345.66C325.604 343.922 327.914 342.966 330.372 342.966C332.829 342.966 335.139 343.923 336.877 345.66L370.976 379.759C373.341 382.123 377.189 382.124 379.554 379.759L388.229 371.084C389.375 369.938 390.006 368.415 390.006 366.795C390.006 365.175 389.375 363.651 388.229 362.505L354.13 328.406C350.543 324.819 350.543 318.983 354.13 315.397L388.229 281.298C389.375 280.152 390.006 278.629 390.006 277.009C390.006 275.389 389.375 273.866 388.229 272.72L379.553 264.045C377.188 261.68 373.34 261.68 370.975 264.045L336.876 298.144C335.138 299.882 332.828 300.838 330.371 300.838C327.914 300.838 325.604 299.88 323.866 298.142Z" fill="white"/>
<path d="M184.74 95.2422H155.75C127.852 95.2422 105.155 117.938 105.155 145.836C105.155 173.734 127.852 196.43 155.75 196.43H293.03C305.359 196.43 315.815 204.771 318.774 216.379C322.584 215.963 326.452 215.743 330.372 215.743C333.842 215.743 337.272 215.916 340.658 216.243C337.366 192.725 317.265 174.906 293.03 174.906H155.75C139.72 174.906 126.679 161.865 126.679 145.836C126.679 129.807 139.72 116.766 155.75 116.766H184.74V95.2422Z" fill="white"/>
<path d="M138.045 260.569C139.259 263.583 140.518 267.078 139.991 271.114H237.171C241.452 263.29 246.691 256.065 252.726 249.59H136.892C136.547 250.328 136.219 251.254 136.053 252.347C135.582 255.451 136.705 258.021 137.449 259.348C137.671 259.745 137.875 260.147 138.045 260.569Z" fill="white"/>
<path d="M126.679 419.237V281.684C124.113 280.967 121.85 281.787 118.355 283.21C114.871 284.628 110.438 286.428 105.155 285.111V410.442C110.731 411.064 115.239 413.497 119.47 415.786C121.953 417.131 124.267 418.381 126.679 419.237Z" fill="white"/>
<path d="M380.45 73.2773H266.25C266.082 73.2773 265.914 73.2923 265.75 73.3223L222.806 81.0563C221.46 81.2993 220.482 82.4683 220.482 83.8363V128.171C220.482 129.539 221.459 130.708 222.805 130.95L265.749 138.684C265.914 138.714 266.083 138.729 266.25 138.729H380.45V133.235V78.7713V73.2773Z" fill="white"/>
<path d="M388.148 129.385H431.104V82.6211H388.148V129.385ZM400.933 88.6791H418.837C420.963 88.6791 422.686 90.4021 422.686 92.5281C422.686 94.6541 420.963 96.3771 418.837 96.3771H400.933C398.807 96.3771 397.084 94.6541 397.084 92.5281C397.084 90.4031 398.807 88.6791 400.933 88.6791ZM400.933 116.123H418.837C420.963 116.123 422.686 117.846 422.686 119.972C422.686 122.098 420.963 123.821 418.837 123.821H400.933C398.807 123.821 397.084 122.098 397.084 119.972C397.084 117.846 398.807 116.123 400.933 116.123Z" fill="white"/>
<path d="M128.342 254.741C122.325 251.775 118.216 245.712 117.949 238.654C117.869 236.53 116.081 234.864 113.957 234.953C111.833 235.033 110.176 236.821 110.256 238.945C110.717 251.144 119.313 261.244 131.033 263.774C130.215 262.456 129.233 260.505 128.709 257.993C128.459 256.791 128.361 255.69 128.342 254.741Z" fill="white"/>
<path d="M118.052 275.063C114.73 264.607 105.208 257.156 93.8727 256.728C91.7487 256.645 89.9607 258.304 89.8807 260.429C89.8007 262.553 91.4577 264.341 93.5817 264.421C101.713 264.728 108.526 270.134 110.8 277.684C112.247 277.38 113.738 276.777 115.453 276.079C116.281 275.742 117.147 275.389 118.052 275.063Z" fill="white"/>
<path d="M126.637 430.134C124.305 429.08 122.103 427.642 119.74 426.096C115.714 423.462 111.424 420.664 105.919 419.58C103.593 419.122 101.053 418.968 98.2198 419.267C93.9238 419.72 88.9628 421.205 83.0818 424.222C81.1908 425.193 80.4438 427.513 81.4148 429.404C82.3858 431.295 84.7048 432.042 86.5968 431.071C101.553 423.396 107.719 427.431 115.526 432.538C120.192 435.591 125.234 438.89 132.149 439.466C136.62 439.839 141.875 439.073 148.314 436.364C150.273 435.54 151.194 433.283 150.37 431.324C149.546 429.364 147.289 428.444 145.329 429.268C140.896 431.133 137.316 431.878 134.22 431.858C131.376 431.841 128.942 431.177 126.637 430.134Z" fill="white"/>
</svg>
