<svg id="svg19837" height="44" viewBox="0 0 44 44" width="44" xmlns="http://www.w3.org/2000/svg" xmlns:cc="http://creativecommons.org/ns#" xmlns:dc="http://purl.org/dc/elements/1.1/" xmlns:inkscape="http://www.inkscape.org/namespaces/inkscape" xmlns:rdf="http://www.w3.org/1999/02/22-rdf-syntax-ns#" xmlns:sodipodi="http://sodipodi.sourceforge.net/DTD/sodipodi-0.dtd" xmlns:svg="http://www.w3.org/2000/svg"><g id="layer1" transform="translate(0 -1008.362)"><g id="g22384" transform="translate(1107.483 1553.597)"><path id="path22386" d="m-1063.4825-523.20486c0-12.19299-9.8366-22.0297-22.0294-22.0297-12.134 0-21.9706 9.83671-21.9706 22.0297 0 12.13399 9.8366 21.97062 21.9706 21.97062 12.1928 0 22.0294-9.83663 22.0294-21.97062z" fill="#23cd3f"/><g id="g22388" fill="#fff" transform="translate(-540.483 -2150.097)"><g id="g22390" transform="translate(-576 586)"><g id="g22392" fill="#fff" transform="translate(0 1)"><path id="path22394" d="m28.000127 1032.3621v5h2v-1.7363l1.23828 1.3007-2.73828 2.8731 3.39453 3.5625 1.44922-1.3789-2.08203-2.1836 2.73828-2.8731-2.44336-2.5644h1.44336v-2z" fill="#fff" text-indent="0" text-align="start" text-decoration-line="none" text-decoration-style="solid" text-decoration-color="#000000" text-transform="none" block-progression="tb" white-space="normal" isolation="auto" mix-blend-mode="normal" solid-color="#000000" solid-opacity="1"/></g></g><path id="path22396" d="m-553 1614.8621v24h16v-24zm2 2h12v17h-12zm6 18.5c.55228 0 1 .4477 1 1s-.44772 1-1 1-1-.4477-1-1 .44772-1 1-1z" text-indent="0" text-align="start" text-decoration-line="none" text-decoration-style="solid" text-decoration-color="#000000" text-transform="none" block-progression="tb" white-space="normal" isolation="auto" mix-blend-mode="normal" solid-color="#000000" solid-opacity="1"/></g></g></g></svg>