<svg width="244" height="82" viewBox="0 0 244 82" fill="none" xmlns="http://www.w3.org/2000/svg">
<path d="M243.849 19.2867C240.531 0.236022 183.29 -5.70912 115.993 6.00738C87.7305 10.9305 62.2109 18.1918 42.3374 26.3609C45.3902 26.4277 47.6543 27.1277 49.03 28.4998C50.1055 29.5765 50.6487 31.0543 50.6487 32.8954V34.7852H44.0497V33.1166C44.0497 31.7263 43.2161 30.8647 41.7395 30.8647C40.4987 30.8647 39.7343 31.4249 39.4876 32.5284C39.4049 32.9646 39.414 33.4133 39.5143 33.8458C40.2204 36.7321 50.0192 38.5246 51.085 43.8512C51.2248 44.5366 51.4143 46.0034 51.1154 48.1022C50.5041 52.3982 46.7294 54.0559 41.9242 54.0559C35.2171 54.0559 32.4924 50.8791 32.4924 46.4993L32.4973 44.4272H39.5714L39.5751 47.0085C39.5751 48.4595 40.63 49.2604 42.0664 49.2604C43.4275 49.2604 44.2223 48.7123 44.497 47.5918C44.6246 47.0765 44.6805 46.317 44.4484 45.7361C43.1395 42.4524 33.9897 40.9187 32.8631 35.6091C32.6115 34.4157 32.5909 33.3998 32.7999 32.1152C32.9072 31.4784 33.1044 30.8602 33.3857 30.2789C11.3417 40.5881 -1.55358 51.9315 0.150237 61.7255C3.47159 80.7786 60.7112 86.7177 128.007 75.0012C157.59 69.852 184.185 62.1435 204.425 53.5053C204.132 53.5199 203.848 53.5515 203.544 53.5515C198.938 53.5515 194.826 51.8258 194.399 47.1178C194.324 46.2611 194.31 45.9025 194.308 45.414L194.31 34.5907C194.31 34.1241 194.365 33.305 194.417 32.882C194.963 28.332 198.56 26.4557 203.547 26.4557C207.405 26.4557 212.136 27.5628 212.656 32.8857C212.726 33.5541 212.718 34.2675 212.717 34.502V35.5241H206.052V33.9989C206.052 33.9661 206.043 33.3961 205.97 33.04C205.86 32.4968 205.397 31.2378 203.499 31.2378C201.624 31.2378 201.138 32.4992 201.016 33.0413C200.947 33.339 200.914 33.7668 200.914 34.2407V46.0034C200.908 46.4118 200.929 46.7314 200.97 46.9659C201.003 47.1506 201.34 48.7718 203.522 48.7718C205.689 48.7718 206.025 47.1506 206.055 46.9659C206.112 46.6475 206.119 46.2683 206.117 46.0034V42.3588H203.494V38.4334H212.768V45.4164C212.766 45.8916 212.758 46.2428 212.678 47.1178C212.566 48.3526 212.177 49.3977 211.567 50.2909C233.033 40.0984 245.531 28.9385 243.849 19.2867ZM69.3494 53.0508L65.9734 30.1112H65.8518L62.3895 53.0508H55.2741L60.0598 27.1447H71.6694L76.426 53.0508H69.3494ZM103.574 53.0508L103.417 30.5548H103.303L99.1165 53.0508H92.4385L88.2725 30.5548H88.1534L88.0015 53.0508H81.3843L81.9579 27.1447H92.6013L95.7003 46.3887H95.8522L98.9597 27.1447H109.598L110.169 53.0508H103.574ZM134.735 48.0305C134.023 53.0484 129.107 53.9258 125.633 53.9258C119.864 53.9258 116.296 51.46 116.296 46.4421L116.299 44.3956H123.288L123.293 46.9453C123.293 48.3295 124.269 49.1765 125.776 49.1765C127.12 49.1765 127.908 48.6369 128.181 47.5286C128.307 47.0121 128.36 46.2586 128.136 45.6899C126.848 42.4682 117.77 40.8895 116.666 35.6626C116.414 34.4777 116.395 33.4715 116.603 32.2003C117.371 27.4619 121.919 26.4775 125.579 26.4775C128.853 26.4775 131.236 27.1921 132.665 28.6213C133.731 29.6883 134.271 31.1527 134.271 32.9744V34.8435H127.735V33.1944C127.735 31.7822 126.859 30.9656 125.45 30.9656C124.201 30.9656 123.445 31.5209 123.197 32.6135C123.117 33.0452 123.128 33.489 123.229 33.9163C123.929 36.7892 133.641 38.5452 134.705 43.822C134.842 44.4953 135.03 45.9402 134.735 48.0305ZM158.941 45.6765C158.951 46.1626 158.903 47.1336 158.877 47.3828C158.478 51.6508 155.425 53.8201 149.826 53.8201C144.206 53.8201 141.151 51.6508 140.754 47.3828C140.709 46.8168 140.688 46.2491 140.69 45.6814V27.1386H147.376V46.2659C147.369 46.6937 147.391 47.0097 147.434 47.2296C147.516 47.655 147.939 49.0355 149.826 49.0355C151.708 49.0355 152.131 47.6538 152.219 47.2345C152.257 47.0085 152.28 46.6767 152.28 46.2647V27.1386H158.941V45.6765ZM187.749 52.7871H178.445L172.2 32.2671H172.095L172.441 52.7871H165.957V27.1447H175.651L181.424 46.8565H181.559L181.217 27.1447H187.749V52.7871Z" fill="white"/>
</svg>
