<svg width="86" height="87" viewBox="0 0 86 87" fill="none" xmlns="http://www.w3.org/2000/svg">
<g clip-path="url(#clip0_1734_199)">
<path d="M65.3498 25.9038L10.2093 29.9838C7.88624 30.1556 5.89307 31.6009 5.00723 33.7553C4.12149 35.9099 4.52189 38.3392 6.05238 40.0952L19.3965 55.4065L23.7792 75.2381C24.2818 77.5127 25.9974 79.2785 28.2566 79.8468C30.5201 80.4161 32.8653 79.6675 34.3815 77.9047L70.4348 35.9847C72.0763 34.0761 72.3917 31.4942 71.258 29.2465C70.1242 26.9989 67.8603 25.718 65.3498 25.9038ZM67.6227 33.5663L31.5695 75.4862C30.9631 76.191 30.0631 76.4767 29.1612 76.2498C28.2595 76.023 27.6014 75.3457 27.4007 74.4377L23.2269 55.5513L39.6806 47.2518C40.595 46.7905 40.9624 45.6753 40.5011 44.7608C40.0398 43.8463 38.9246 43.4789 38.0101 43.9402L21.5566 52.2397L8.84852 37.6585C8.23766 36.9575 8.08399 36.0256 8.4375 35.1656C8.79102 34.3057 9.55535 33.7515 10.4828 33.6827L65.6233 29.6026C67.1083 29.4927 67.7769 30.5808 67.9465 30.9169C68.116 31.253 68.5937 32.4374 67.6227 33.5663Z" fill="white"/>
</g>
<defs>
<clipPath id="clip0_1734_199">
<rect width="63.2967" height="63.2967" fill="white" transform="translate(0.488281 29.4963) rotate(-26.7673)"/>
</clipPath>
</defs>
</svg>
