<svg width="512" height="512" viewBox="0 0 512 512" fill="none" xmlns="http://www.w3.org/2000/svg">
<path d="M256 480.001C206.678 480.015 158.73 463.75 119.597 433.73C80.4631 403.71 52.3316 361.613 39.5672 313.971C26.8028 266.33 30.1193 215.807 49.002 170.243C67.8847 124.679 101.278 86.6209 144 61.9741C146.449 60.5819 149.348 60.2147 152.067 60.9527C154.785 61.6907 157.101 63.474 158.51 65.9133C159.918 68.3527 160.304 71.25 159.584 73.9732C158.864 76.6963 157.097 79.0242 154.667 80.4487C116.011 102.747 85.7964 137.181 68.7107 178.407C51.625 219.632 48.6237 265.344 60.1727 308.45C71.7216 351.555 97.175 389.644 132.583 416.805C167.991 443.967 211.374 458.682 256 458.667C258.829 458.667 261.542 459.791 263.542 461.792C265.543 463.792 266.667 466.505 266.667 469.334C266.667 472.163 265.543 474.876 263.542 476.877C261.542 478.877 258.829 480.001 256 480.001Z" fill="white"/>
<path d="M362.667 451.456C360.319 451.456 358.036 450.681 356.173 449.252C354.311 447.822 352.972 445.818 352.364 443.55C351.756 441.282 351.914 438.877 352.812 436.708C353.711 434.538 355.3 432.726 357.333 431.552C395.989 409.253 426.203 374.82 443.289 333.594C460.375 292.369 463.376 246.656 451.827 203.551C440.278 160.445 414.825 122.357 379.417 95.1955C344.009 68.0342 300.626 53.319 256 53.3333C253.171 53.3333 250.458 52.2095 248.457 50.2091C246.457 48.2088 245.333 45.4957 245.333 42.6667C245.333 39.8377 246.457 37.1246 248.457 35.1242C250.458 33.1238 253.171 32 256 32C305.322 31.9859 353.269 48.2508 392.403 78.2709C431.537 108.291 459.668 150.388 472.433 198.029C485.197 245.671 481.881 296.193 462.998 341.758C444.115 387.322 410.722 425.38 368 450.027C366.378 450.963 364.539 451.456 362.667 451.456Z" fill="white"/>
<path d="M362.667 451.456C360.319 451.456 358.036 450.681 356.173 449.252C354.311 447.822 352.972 445.818 352.364 443.55C351.756 441.282 351.914 438.877 352.812 436.708C353.711 434.538 355.3 432.726 357.333 431.552C395.989 409.253 426.203 374.82 443.289 333.594C460.375 292.369 463.376 246.656 451.827 203.551C440.278 160.445 414.825 122.357 379.417 95.1955C344.009 68.0342 300.626 53.319 256 53.3333C253.171 53.3333 250.458 52.2095 248.457 50.2091C246.457 48.2088 245.333 45.4957 245.333 42.6667C245.333 39.8377 246.457 37.1246 248.457 35.1242C250.458 33.1238 253.171 32 256 32C305.322 31.9859 353.269 48.2508 392.403 78.2709C431.537 108.291 459.668 150.388 472.433 198.029C485.197 245.671 481.881 296.193 462.998 341.758C444.115 387.322 410.722 425.38 368 450.027C366.378 450.963 364.539 451.456 362.667 451.456Z" fill="white"/>
<path d="M256 480.001C206.678 480.015 158.73 463.75 119.597 433.73C80.4631 403.71 52.3316 361.613 39.5672 313.971C26.8028 266.33 30.1193 215.807 49.002 170.243C67.8847 124.679 101.278 86.6209 144 61.9741C146.449 60.5819 149.348 60.2147 152.067 60.9527C154.785 61.6907 157.101 63.474 158.51 65.9133C159.918 68.3527 160.304 71.25 159.584 73.9732C158.864 76.6963 157.097 79.0242 154.667 80.4487C116.011 102.747 85.7964 137.181 68.7107 178.407C51.625 219.632 48.6237 265.344 60.1727 308.45C71.7216 351.555 97.175 389.644 132.583 416.805C167.991 443.967 211.374 458.682 256 458.667C258.829 458.667 261.542 459.791 263.542 461.792C265.543 463.792 266.667 466.505 266.667 469.334C266.667 472.163 265.543 474.876 263.542 476.877C261.542 478.877 258.829 480.001 256 480.001Z" fill="white"/>
<path d="M149.333 138.666C146.504 138.666 143.791 137.542 141.791 135.542C139.79 133.541 138.667 130.828 138.667 127.999V80.7778L84.128 74.6018C81.316 74.2821 78.7462 72.8585 76.9838 70.644C75.2215 68.4296 74.411 65.6058 74.7307 62.7938C75.0504 59.9818 76.474 57.4119 78.6884 55.6496C80.9029 53.8873 83.7267 53.0768 86.5387 53.3965L150.539 60.6605C153.141 60.9564 155.544 62.1995 157.288 64.1529C159.033 66.1062 159.998 68.6333 160 71.2525V127.999C160 130.828 158.876 133.541 156.876 135.542C154.875 137.542 152.162 138.666 149.333 138.666Z" fill="white"/>
<path d="M426.667 458.667C426.26 458.667 425.855 458.646 425.451 458.603L361.451 451.339C358.85 451.041 356.45 449.797 354.708 447.844C352.965 445.891 352.001 443.365 352 440.747V384.001C352 381.172 353.124 378.459 355.124 376.458C357.125 374.458 359.838 373.334 362.667 373.334C365.496 373.334 368.209 374.458 370.209 376.458C372.21 378.459 373.333 381.172 373.333 384.001V431.222L427.872 437.398C430.587 437.697 433.084 439.025 434.848 441.11C436.613 443.195 437.51 445.877 437.356 448.604C437.201 451.331 436.006 453.895 434.018 455.767C432.029 457.639 429.398 458.677 426.667 458.667Z" fill="white"/>
<path d="M256 394.667C228.574 394.667 201.765 386.535 178.961 371.298C156.157 356.061 138.384 334.404 127.889 309.066C117.393 283.728 114.647 255.847 119.998 228.948C125.348 202.049 138.555 177.341 157.948 157.949C177.341 138.556 202.049 125.349 228.947 119.998C255.846 114.648 283.727 117.394 309.065 127.889C334.403 138.385 356.06 156.158 371.297 178.962C386.534 201.765 394.667 228.575 394.667 256.001C394.624 292.764 380.001 328.01 354.005 354.006C328.009 380.002 292.764 394.625 256 394.667ZM256 138.667C232.794 138.667 210.108 145.549 190.813 158.442C171.518 171.334 156.479 189.659 147.598 211.099C138.717 232.539 136.394 256.131 140.921 278.891C145.449 301.652 156.623 322.559 173.033 338.968C189.442 355.377 210.349 366.552 233.109 371.08C255.87 375.607 279.462 373.283 300.902 364.403C322.341 355.522 340.666 340.483 353.559 321.188C366.452 301.892 373.333 279.207 373.333 256.001C373.297 224.893 360.923 195.07 338.927 173.074C316.93 151.078 287.107 138.704 256 138.667Z" fill="white"/>
<path d="M298.667 309.333C295.838 309.333 293.125 308.209 291.125 306.208L248.459 263.541C246.458 261.541 245.334 258.829 245.333 256V202.667C245.333 199.838 246.457 197.125 248.457 195.124C250.458 193.124 253.171 192 256 192C258.829 192 261.542 193.124 263.542 195.124C265.543 197.125 266.667 199.838 266.667 202.667V251.584L306.208 291.125C307.699 292.617 308.715 294.517 309.126 296.586C309.538 298.655 309.326 300.8 308.519 302.748C307.712 304.697 306.345 306.363 304.591 307.535C302.838 308.707 300.776 309.333 298.667 309.333Z" fill="white"/>
</svg>
