<svg width="270" height="269" viewBox="0 0 270 269" fill="none" xmlns="http://www.w3.org/2000/svg">
<path d="M172.828 92.4688H97.1719C94.8507 92.4688 92.9688 94.3487 92.9688 96.6719V172.328C92.9688 174.651 94.8507 176.531 97.1719 176.531H172.828C175.149 176.531 177.031 174.651 177.031 172.328V96.6719C177.031 94.3487 175.149 92.4688 172.828 92.4688ZM168.625 100.875V149.572L158.987 139.935C157.346 138.293 154.686 138.293 153.044 139.935L141.305 151.674L125.362 135.731C123.721 134.09 121.061 134.09 119.419 135.731L101.375 153.775V100.875H168.625ZM101.375 165.662L122.391 144.647L145.869 168.125H101.375V165.662ZM157.756 168.125L147.248 157.617L156.016 148.85L168.625 161.459V168.125H157.756Z" fill="white"/>
<path d="M143.406 134.5C150.359 134.5 156.016 128.844 156.016 121.891C156.016 114.937 150.359 109.281 143.406 109.281C136.453 109.281 130.797 114.937 130.797 121.891C130.797 128.844 136.453 134.5 143.406 134.5ZM143.406 117.688C145.723 117.688 147.609 119.572 147.609 121.891C147.609 124.21 145.723 126.094 143.406 126.094C141.089 126.094 139.203 124.21 139.203 121.891C139.203 119.572 141.089 117.688 143.406 117.688Z" fill="white"/>
<path d="M215.634 138.703C217.375 143.585 221.997 147.109 227.469 147.109C234.422 147.109 240.078 141.453 240.078 134.5C240.078 127.547 234.422 121.891 227.469 121.891C221.997 121.891 217.374 125.415 215.634 130.297H193.844V113.484H210.656C211.771 113.484 212.84 113.041 213.628 112.253L217.443 108.438C219.747 111.483 223.364 113.484 227.469 113.484C234.422 113.484 240.078 107.828 240.078 100.875C240.078 93.9218 234.422 88.2656 227.469 88.2656C221.178 88.2656 215.995 92.9082 215.055 98.9389L208.916 105.078H193.844V79.8594C193.844 77.5362 191.962 75.6562 189.641 75.6562H164.422V54.6406C164.422 53.5242 163.979 52.457 163.19 51.6689L154.784 43.2626C153.142 41.6208 150.483 41.6208 148.841 43.2626C147.199 44.9045 147.199 47.5643 148.841 49.2061L156.016 56.381V75.6562H139.203V33.625C139.203 31.3018 137.321 29.4219 135 29.4219C132.679 29.4219 130.797 31.3018 130.797 33.625V75.6562H113.984V56.381L121.159 49.2061C122.801 47.5643 122.801 44.9045 121.159 43.2626C119.517 41.6208 116.858 41.6208 115.216 43.2626L106.81 51.6689C106.021 52.457 105.578 53.5242 105.578 54.6406V75.6562H80.3594C78.0382 75.6562 76.1562 77.5362 76.1562 79.8594V105.078H61.0841L54.9449 98.9389C54.0049 92.9082 48.8216 88.2656 42.5312 88.2656C35.578 88.2656 29.9219 93.9218 29.9219 100.875C29.9219 107.828 35.578 113.484 42.5312 113.484C46.6359 113.484 50.2531 111.483 52.557 108.438L56.372 112.253C57.1601 113.041 58.2293 113.484 59.3438 113.484H76.1562V130.297H54.3661C52.6255 125.415 48.0035 121.891 42.5312 121.891C35.578 121.891 29.9219 127.547 29.9219 134.5C29.9219 141.453 35.578 147.109 42.5312 147.109C48.0035 147.109 52.6255 143.585 54.3661 138.703H76.1562V155.516H59.3438C58.2293 155.516 57.1601 155.959 56.372 156.747L52.557 160.562C50.2531 157.517 46.6359 155.516 42.5312 155.516C35.578 155.516 29.9219 161.172 29.9219 168.125C29.9219 175.078 35.578 180.734 42.5312 180.734C48.8216 180.734 54.0049 176.092 54.9449 170.061L61.0841 163.922H76.1562V189.141C76.1562 191.464 78.0382 193.344 80.3594 193.344H105.578V214.441C105.578 215.558 106.021 216.625 106.81 217.413C106.81 217.413 115.202 225.806 115.216 225.819C116.786 227.39 119.518 227.461 121.159 225.819C122.801 224.178 122.801 221.518 121.159 219.876L113.984 212.701V193.344H130.797V235.482C130.797 237.805 132.679 239.685 135 239.685C137.321 239.685 139.203 237.805 139.203 235.482V193.344H156.016V212.701L148.841 219.876C147.199 221.518 147.199 224.177 148.841 225.819C150.41 227.389 153.145 227.459 154.784 225.819L163.19 217.413C163.979 216.625 164.422 215.558 164.422 214.441V193.344H189.641C191.962 193.344 193.844 191.464 193.844 189.141V163.922H208.916L215.055 170.061C215.995 176.092 221.178 180.734 227.469 180.734C234.422 180.734 240.078 175.078 240.078 168.125C240.078 161.172 234.422 155.516 227.469 155.516C223.364 155.516 219.747 157.517 217.443 160.562L213.628 156.747C212.84 155.959 211.771 155.516 210.656 155.516H193.844V138.703H215.634ZM227.469 130.297C229.786 130.297 231.672 132.181 231.672 134.5C231.672 136.819 229.786 138.703 227.469 138.703C225.152 138.703 223.266 136.819 223.266 134.5C223.266 132.181 225.152 130.297 227.469 130.297ZM227.469 96.6719C229.786 96.6719 231.672 98.5559 231.672 100.875C231.672 103.194 229.786 105.078 227.469 105.078C225.152 105.078 223.266 103.194 223.266 100.875C223.266 98.5559 225.152 96.6719 227.469 96.6719ZM42.5312 105.078C40.2142 105.078 38.3281 103.194 38.3281 100.875C38.3281 98.5559 40.2142 96.6719 42.5312 96.6719C44.8483 96.6719 46.7344 98.5559 46.7344 100.875C46.7344 103.194 44.8483 105.078 42.5312 105.078ZM42.5312 138.703C40.2142 138.703 38.3281 136.819 38.3281 134.5C38.3281 132.181 40.2142 130.297 42.5312 130.297C44.8483 130.297 46.7344 132.181 46.7344 134.5C46.7344 136.819 44.8483 138.703 42.5312 138.703ZM42.5312 172.328C40.2142 172.328 38.3281 170.444 38.3281 168.125C38.3281 165.806 40.2142 163.922 42.5312 163.922C44.8483 163.922 46.7344 165.806 46.7344 168.125C46.7344 170.444 44.8483 172.328 42.5312 172.328ZM227.469 163.922C229.786 163.922 231.672 165.806 231.672 168.125C231.672 170.444 229.786 172.328 227.469 172.328C225.152 172.328 223.266 170.444 223.266 168.125C223.266 165.806 225.152 163.922 227.469 163.922ZM185.438 184.938H84.5625V84.0625H185.438V184.938Z" fill="white"/>
</svg>
