<svg width="83" height="83" viewBox="0 0 83 83" fill="none" xmlns="http://www.w3.org/2000/svg">
<g filter="url(#filter0_d_188_1071)">
<circle cx="41.2816" cy="37.2816" r="37.2816" fill="url(#paint0_linear_188_1071)"/>
</g>
<path d="M39.082 22.5625H37.7032C37.5979 22.5625 37.5532 22.6774 37.5532 22.7827C37.5532 22.904 37.6075 23.0093 37.7032 23.0093H38.1437V24.7423C38.1437 24.8444 38.2682 24.8955 38.3927 24.8955C38.5171 24.8955 38.6416 24.8444 38.6416 24.7423V23.0093H39.082C39.1778 23.0093 39.232 22.904 39.232 22.7827C39.232 22.6773 39.1873 22.5625 39.082 22.5625Z" fill="white"/>
<path d="M41.2362 24.6557L40.6393 22.7089C40.6042 22.5972 40.4606 22.543 40.3137 22.543C40.1669 22.543 40.0233 22.5972 39.9883 22.7089L39.3946 24.6557C39.3914 24.6685 39.3882 24.6813 39.3882 24.6908C39.3882 24.8089 39.5701 24.895 39.7073 24.895C39.7872 24.895 39.851 24.8695 39.8701 24.8025L39.9787 24.4035H40.6521L40.7606 24.8025C40.7798 24.8695 40.8437 24.895 40.9234 24.895C41.0607 24.895 41.2426 24.8088 41.2426 24.6908C41.2426 24.6812 41.2394 24.6684 41.2362 24.6557ZM40.0807 24.0206L40.3137 23.1653L40.5466 24.0206H40.0807Z" fill="white"/>
<path d="M43.4034 24.5791L42.8512 23.727L43.381 22.878C43.4033 22.8429 43.4129 22.811 43.4129 22.7791C43.4129 22.6451 43.231 22.543 43.0906 22.543C43.0204 22.543 42.9725 22.5685 42.9406 22.6259L42.5161 23.3663L42.0916 22.6259C42.0596 22.5684 42.0118 22.543 41.9416 22.543C41.8012 22.543 41.6192 22.6451 41.6192 22.7791C41.6192 22.8111 41.6288 22.843 41.6511 22.878L42.181 23.727L41.6288 24.5791C41.6096 24.611 41.6001 24.6397 41.6001 24.6684C41.6001 24.8057 41.7948 24.9141 41.9321 24.9141C41.9831 24.9141 42.0278 24.8982 42.0501 24.863L42.5161 24.0716L42.9821 24.863C43.0013 24.8981 43.0492 24.9141 43.1002 24.9141C43.2374 24.9141 43.4321 24.8056 43.4321 24.6684C43.4321 24.6397 43.4226 24.6109 43.4034 24.5791Z" fill="white"/>
<path d="M44.1976 22.5625C44.0731 22.5625 43.9487 22.6072 43.9487 22.7125V24.7423C43.9487 24.8444 44.0732 24.8955 44.1976 24.8955C44.3222 24.8955 44.4465 24.8444 44.4465 24.7423V22.7125C44.4465 22.6072 44.3222 22.5625 44.1976 22.5625Z" fill="white"/>
<path d="M59.4542 32.3976H57.1087C56.7475 32.3976 56.4156 32.523 56.1521 32.7315L54.6235 27.915C54.1217 26.3337 52.67 25.2714 51.011 25.2714H48.6517L47.7785 22.2944C47.5388 21.4771 46.7765 20.9062 45.9248 20.9062H36.0752C35.2235 20.9062 34.4612 21.477 34.2215 22.2944L33.3483 25.2714H30.9906C29.3316 25.2714 27.8799 26.3337 27.3782 27.915L25.8493 32.7326C25.5856 32.5235 25.2531 32.3976 24.8912 32.3976H22.5458C21.6934 32.3976 21 33.091 21 33.9434V35.1223C21 35.9747 21.6934 36.668 22.5458 36.668H23.708C22.8618 37.7771 22.3511 39.1861 22.3511 40.4928V44.7099C22.3511 46.3244 23.4366 47.6894 24.9157 48.1158V50.7642C24.9157 52.049 25.9609 53.0942 27.2457 53.0942H29.8312C31.1159 53.0942 32.1612 52.049 32.1612 50.7642V48.2548H49.8388V50.7642C49.8388 52.049 50.8841 53.0942 52.1688 53.0942H54.7543C56.0391 53.0942 57.0843 52.049 57.0843 50.7642V48.0564C58.5735 47.5529 59.6489 46.1433 59.6489 44.4862V40.4928C59.6489 39.186 59.1382 37.777 58.292 36.668H59.4542C60.3066 36.668 61 35.9746 61 35.1223V33.9434C61 33.091 60.3066 32.3976 59.4542 32.3976ZM35.3458 22.6241C35.4401 22.3026 35.7401 22.078 36.0752 22.078H45.9248C46.26 22.078 46.56 22.3026 46.6543 22.6241L47.4308 25.2714H34.5692L35.3458 22.6241ZM26.437 34.7473C26.4418 34.735 26.4469 34.7228 26.4509 34.71L28.4949 28.2695C28.8416 27.177 29.8445 26.4431 30.9905 26.4431H51.0097C51.0103 26.4431 51.0097 26.4431 51.0103 26.4431C51.011 26.4431 51.0103 26.4431 51.011 26.4431C52.1571 26.4431 53.16 27.1771 53.5067 28.2695L55.563 34.7484V34.7498C55.2584 34.673 54.9432 34.6314 54.6197 34.6314H54.359L52.5625 28.971C52.3011 28.1473 51.545 27.5939 50.6809 27.5939H47.1755C46.852 27.5939 46.5896 27.8562 46.5896 28.1798C46.5896 28.5033 46.8519 28.7656 47.1755 28.7656H50.6809C51.0321 28.7656 51.3395 28.9905 51.4458 29.3255L53.1298 34.6315H28.8724L30.5563 29.3255C30.6626 28.9907 30.97 28.7656 31.3212 28.7656H44.4497C44.7732 28.7656 45.0355 28.5034 45.0355 28.1798C45.0355 27.8562 44.7733 27.5939 44.4497 27.5939H31.3213C30.4572 27.5939 29.7009 28.1473 29.4396 28.9711L27.6432 34.6314H27.3802C27.0567 34.6314 26.7416 34.673 26.437 34.7498V34.7473ZM22.5458 35.4964C22.3395 35.4964 22.1716 35.3286 22.1716 35.1223V33.9434C22.1716 33.7371 22.3395 33.5693 22.5458 33.5693H24.8912C25.0975 33.5693 25.2653 33.7371 25.2653 33.9434V35.2444C25.1364 35.3221 25.0106 35.4063 24.8881 35.4964H22.5458ZM30.9896 50.7643C30.9895 51.403 30.4698 51.9227 29.8312 51.9227H27.2457C26.607 51.9227 26.0873 51.403 26.0873 50.7643V48.2548H30.9896V50.7643ZM55.9128 50.7643H55.9127C55.9127 51.403 55.393 51.9227 54.7544 51.9227H52.1689C51.5302 51.9227 51.0105 51.403 51.0105 50.7643V48.2548H55.8805C55.8913 48.2548 55.902 48.2541 55.9128 48.2541V50.7643ZM58.4773 40.4928V44.4862C58.4773 45.9182 57.3124 47.0831 55.8805 47.0831H25.8959C24.5873 47.0831 23.5227 46.0185 23.5227 44.7099V40.4928C23.5227 38.9102 24.3062 37.5166 25.3134 36.668H25.4391L26.5325 38.6377C27.0659 39.5984 28.2173 40.2193 29.466 40.2193H31.283C31.6065 40.2193 31.8688 39.957 31.8688 39.6334C31.8688 39.3098 31.6066 39.0476 31.283 39.0476H29.466C28.6363 39.0476 27.887 38.6634 27.557 38.0691L26.437 36.0516V35.9902C26.7537 35.8691 27.0726 35.803 27.3802 35.803H54.6197C54.9454 35.803 55.2612 35.8634 55.563 35.9719V36.0822C55.563 36.0844 55.5633 36.0865 55.5633 36.0887L54.4639 38.0691C54.1339 38.6635 53.3845 39.0476 52.5548 39.0476H34.0087C33.6852 39.0476 33.4229 39.3098 33.4229 39.6334C33.4229 39.957 33.6852 40.2193 34.0087 40.2193H52.5549C53.8036 40.2193 54.9551 39.5985 55.4884 38.6377L56.5818 36.668H56.7119C57.7752 37.6015 58.4773 39.1366 58.4773 40.4928ZM59.8284 35.1223C59.8284 35.3286 59.6605 35.4964 59.4542 35.4964H57.1119C56.9894 35.4064 56.8636 35.3221 56.7347 35.2444V34.658C56.7347 34.6559 56.7347 34.6539 56.7347 34.652V33.9434C56.7347 33.7372 56.9025 33.5694 57.1087 33.5694H59.4542C59.6605 33.5694 59.8284 33.7372 59.8284 33.9434V35.1223Z" fill="white"/>
<path d="M32.3774 44.0363L31.4766 42.0058C31.3149 41.6414 30.9688 41.3853 30.5731 41.3374L26.6843 40.8658C26.3065 40.8198 25.9326 40.9649 25.6843 41.2535C25.436 41.5421 25.3485 41.9333 25.4503 42.3001L26.0187 44.3497C26.1442 44.8024 26.5272 45.1273 26.9943 45.1774L31.2155 45.6299C31.2576 45.6344 31.2994 45.6366 31.3409 45.6366C31.7033 45.6366 32.039 45.4671 32.2566 45.1686C32.4992 44.836 32.5443 44.4126 32.3774 44.0363ZM27.1416 44.0147L26.5926 42.0349L30.4132 42.4982L31.2831 44.4586L27.1416 44.0147Z" fill="white"/>
<path d="M56.3365 41.2535C56.0883 40.9648 55.7143 40.82 55.3365 40.8658L51.4478 41.3373C51.0521 41.3853 50.7058 41.6415 50.5443 42.0058L49.6434 44.0362C49.4765 44.4125 49.5216 44.8358 49.7642 45.1686C49.9819 45.4671 50.3176 45.6365 50.6799 45.6365C50.7215 45.6365 50.7633 45.6343 50.8054 45.6298L55.0265 45.1773C55.4937 45.1272 55.8766 44.8024 56.0022 44.3497L56.5705 42.3001C56.6722 41.9333 56.5848 41.542 56.3365 41.2535ZM54.8793 44.0147L50.7379 44.4586L51.6076 42.4983L55.4283 42.0349L54.8793 44.0147Z" fill="white"/>
<path d="M48.6977 44.0494L48.2149 42.1698C48.0534 41.5414 47.4875 41.1025 46.8387 41.1025H35.1827C34.5338 41.1025 33.9679 41.5414 33.8065 42.1698L33.3237 44.0493C33.2136 44.4778 33.306 44.9241 33.5771 45.2736C33.8483 45.6232 34.2575 45.8237 34.6999 45.8237H47.3215C47.7639 45.8237 48.1732 45.6232 48.4442 45.2736C48.7154 44.924 48.8077 44.4778 48.6977 44.0494ZM47.5184 44.5556C47.4904 44.5916 47.4277 44.6521 47.3214 44.6521H34.6999C34.5936 44.6521 34.5309 44.5916 34.503 44.5556C34.475 44.5196 34.4321 44.4437 34.4585 44.3408L34.9414 42.4613C34.9696 42.3511 35.0689 42.2741 35.1827 42.2741H46.8387C46.9525 42.2741 47.0518 42.3511 47.0801 42.4613L47.5628 44.3408C47.5893 44.4437 47.5464 44.5196 47.5184 44.5556Z" fill="white"/>
<defs>
<filter id="filter0_d_188_1071" x="0" y="0" width="82.563" height="82.5635" filterUnits="userSpaceOnUse" color-interpolation-filters="sRGB">
<feFlood flood-opacity="0" result="BackgroundImageFix"/>
<feColorMatrix in="SourceAlpha" type="matrix" values="0 0 0 0 0 0 0 0 0 0 0 0 0 0 0 0 0 0 127 0" result="hardAlpha"/>
<feOffset dy="4"/>
<feGaussianBlur stdDeviation="2"/>
<feComposite in2="hardAlpha" operator="out"/>
<feColorMatrix type="matrix" values="0 0 0 0 0 0 0 0 0 0 0 0 0 0 0 0 0 0 0.25 0"/>
<feBlend mode="normal" in2="BackgroundImageFix" result="effect1_dropShadow_188_1071"/>
<feBlend mode="normal" in="SourceGraphic" in2="effect1_dropShadow_188_1071" result="shape"/>
</filter>
<linearGradient id="paint0_linear_188_1071" x1="41.2816" y1="0" x2="41.2816" y2="74.5632" gradientUnits="userSpaceOnUse">
<stop stop-color="#91A3CC"/>
<stop offset="1" stop-color="#2A4480"/>
</linearGradient>
</defs>
</svg>
