<svg height="512pt" viewBox="0 0 512 512.01756" width="512pt" xmlns="http://www.w3.org/2000/svg"><path d="m399.902344 256c0 79.527344-64.472656 144-144 144-79.53125 0-144-64.472656-144-144s64.46875-144 144-144c79.527344 0 144 64.472656 144 144zm0 0" fill="#30c902"/><path d="m495.902344 432c0 35.347656-28.65625 64-64 64-35.347656 0-64-28.652344-64-64s28.652344-64 64-64c35.34375 0 64 28.652344 64 64zm0 0" fill="#fff"/><g fill="#209102"><path d="m95.902344 256c0 88.367188 71.632812 160 160 160 88.363281 0 160-71.632812 160-160s-71.636719-160-160-160c-88.324219.101562-159.898438 71.675781-160 160zm288 0c0 70.691406-57.308594 128-128 128-70.695313 0-128-57.308594-128-128s57.304687-128 128-128c70.65625.082031 127.914062 57.34375 128 128zm0 0"/><path d="m239.902344 176v73.367188l-43.3125 43.320312c-4.160156 4.019531-5.828125 9.964844-4.363282 15.5625 1.464844 5.59375 5.832032 9.960938 11.425782 11.425781 5.59375 1.464844 11.542968-.203125 15.558594-4.363281l48-48c3.003906-3 4.6875-7.070312 4.691406-11.3125v-80c0-8.835938-7.164063-16-16-16-8.839844 0-16 7.164062-16 16zm0 0"/><path d="m256.117188 512c40.113281-.007812 79.660156-9.480469 115.421874-27.648438 1.089844 1.257813 2.1875 2.496094 3.335938 3.679688.167969.167969.28125.375.457031.554688.175781.175781.375.277343.542969.445312 31.0625 30.648438 80.988281 30.648438 112.050781 0 .175781-.167969.375-.277344.542969-.445312.167969-.171876.296875-.386719.457031-.554688 30.609375-31.058594 30.609375-80.941406 0-112-.160156-.167969-.28125-.375-.457031-.550781s-.367188-.28125-.542969-.449219c-1.21875-1.191406-2.488281-2.320312-3.785156-3.429688 45.292969-89.542968 34.09375-197.285156-28.640625-275.601562h8.402344c8.835937 0 16-7.164062 16-16s-7.164063-16-16-16h-48c-8.839844 0-16 7.164062-16 16v48c0 8.835938 7.160156 16 16 16 8.835937 0 16-7.164062 16-16v-10.289062c53.453125 68.003906 63.003906 160.695312 24.535156 238.167968h-.066406c-1.078125-.34375-2.191406-.613281-3.277344-.917968-1.242188-.335938-2.457031-.671876-3.695312-.953126-1.058594-.230468-2.121094-.441406-3.203126-.632812-1.4375-.261719-2.894531-.480469-4.359374-.664062-.886719-.109376-1.773438-.238282-2.679688-.320313-2.398438-.222656-4.800781-.367187-7.261719-.367187-20.964843.003906-41.082031 8.261718-56 22.984374-.167969.167969-.378906.28125-.546875.449219-.167968.167969-.285156.382813-.453125.550781-14.722656 14.921876-22.976562 35.039063-22.976562 56 0 2.398438.152343 4.847657.367187 7.265626.085938.902343.207032 1.789062.320313 2.6875.183593 1.445312.398437 2.886718.664062 4.328124.191407 1.085938.398438 2.167969.640625 3.238282.269532 1.191406.589844 2.402344.910156 3.535156.320313 1.136719.609376 2.320312.976563 3.457031-82.785156 41.21875-182.390625 27.324219-250.734375-34.972656-68.347656-62.296875-91.382812-160.191406-57.992188-246.433594 33.394532-86.238281 116.351563-143.089843 208.832032-143.113281 8.835937 0 16-7.164062 16-16s-7.164063-16-16-16c-141.386719.0585938-255.9531252 114.722656-255.8945315 256.109375.0625 141.382813 114.7226565 255.949219 256.1093755 255.890625zm219.046874-100.640625c6.316407 13.035156 6.316407 28.246094 0 41.28125l-20.640624-20.640625zm-43.261718-27.359375c1.917968.007812 3.832031.132812 5.734375.375.441406.058594.871093.136719 1.3125.199219 1.535156.234375 3.0625.53125 4.574219.90625l1.097656.289062c2.707031.773438 5.34375 1.785157 7.871094 3.023438l-20.589844 20.582031-20.648438-20.640625c6.4375-3.109375 13.496094-4.730469 20.648438-4.734375zm0 70.625 20.644531 20.640625c-13.039063 6.3125-28.253906 6.3125-41.292969 0zm-43.265625-43.265625 20.640625 20.640625-20.59375 20.585938c-1.238282-2.535157-2.25-5.171876-3.023438-7.882813-.09375-.359375-.183594-.710937-.269531-1.0625-.386719-1.527344-.683594-3.066406-.921875-4.617187-.054688-.429688-.136719-.855469-.191406-1.28125-1.160156-9.035157.359375-18.214844 4.359375-26.398438zm0 0"/></g></svg>