<svg width="92" height="92" viewBox="0 0 92 92" fill="none" xmlns="http://www.w3.org/2000/svg">
<path d="M31.9871 52.4238L30.9898 51.3367C30.7383 51.0672 24.8715 44.6344 21.116 39.1719C19.6516 37.0426 18.7262 35.3805 18.277 34.0777C18.0164 33.332 17.8277 32.5684 17.693 31.7867C17.5582 30.9781 17.4863 30.1605 17.4863 29.334C17.4863 28.6152 17.5402 27.8965 17.648 27.1957C18.1512 23.7906 19.8672 20.6641 22.4816 18.391C25.1051 16.091 28.4832 14.8242 31.9871 14.8242C39.9832 14.8242 46.4969 21.3289 46.4969 29.334C46.4969 29.9 46.4609 30.475 46.3981 31.032C46.3711 31.2836 46.3352 31.5352 46.2902 31.7867C46.1555 32.5594 45.9578 33.323 45.7063 34.0688C45.257 35.3715 44.3227 37.0426 42.8582 39.1719C39.1027 44.6434 33.227 51.0672 32.9844 51.3367L31.9871 52.4238ZM31.9871 17.5195C26.1742 17.5195 21.152 21.85 20.3074 27.582C20.2266 28.157 20.1816 28.741 20.1816 29.325C20.1816 29.9988 20.2355 30.6727 20.3523 31.3285C20.4602 31.9574 20.6219 32.5863 20.8285 33.1883C21.1969 34.2484 22.0414 35.7398 23.3441 37.6445C26.0934 41.6426 30.1363 46.3234 31.9961 48.4078C33.8469 46.3145 37.8988 41.6426 40.648 37.6445C41.9508 35.7488 42.8043 34.2484 43.1637 33.1883C43.3703 32.5863 43.532 31.9664 43.6398 31.3285C43.6758 31.1309 43.7027 30.9242 43.7297 30.7266C43.7836 30.2684 43.8105 29.8012 43.8105 29.334C43.8016 22.8203 38.5008 17.5195 31.9871 17.5195Z" fill="white"/>
<path d="M55.9297 71.2642H31.8695L31.8516 69.9345C31.8246 67.4817 29.8121 65.4962 27.3594 65.4962C24.9066 65.4962 22.8941 67.4907 22.8672 69.9345L22.8492 71.2642H13.3797C12.077 71.2642 10.7742 70.761 9.81289 69.8716C8.78867 68.9282 8.22266 67.6794 8.22266 66.3407V35.1649C8.22266 32.4786 10.5855 30.2056 13.3797 30.2056H20.1539L20.3426 31.3286C20.4504 31.9575 20.6121 32.5864 20.8187 33.1884C21.1871 34.2485 22.0316 35.7399 23.3344 37.6446C26.0836 41.6427 30.1266 46.3235 31.9863 48.4079C33.8371 46.3145 37.8891 41.6427 40.6383 37.6446C41.941 35.7489 42.7945 34.2485 43.1539 33.1884C43.3605 32.5864 43.5223 31.9665 43.6301 31.3286L43.8188 30.2056H51.0422C53.7824 30.2056 55.9297 32.3888 55.9297 35.1649V71.2642ZM34.4121 68.5688H53.2344V35.1739C53.2344 33.8981 52.273 32.9099 51.0422 32.9099H46.0469C45.948 33.3052 45.8312 33.6915 45.6965 34.0688C45.2473 35.3716 44.3129 37.0427 42.8484 39.172C39.093 44.6435 33.2172 51.0673 32.9746 51.3368L31.9863 52.4239L30.9891 51.3368C30.7375 51.0673 24.8707 44.6345 21.1152 39.172C19.6508 37.0427 18.7254 35.3806 18.2762 34.0778C18.1414 33.6915 18.0246 33.3052 17.9258 32.9099H13.3797C12.068 32.9099 10.918 33.97 10.918 35.1739V66.3497C10.918 67.5356 12.068 68.5778 13.3797 68.5778H20.3156C20.5941 67.1853 21.277 65.9005 22.3102 64.8853C23.6668 63.5466 25.4637 62.8099 27.3684 62.8099C29.273 62.8099 31.0699 63.5466 32.4266 64.8853C33.4508 65.9005 34.1336 67.1763 34.4121 68.5688Z" fill="white"/>
<path d="M66.3418 77.1758C62.3797 77.1758 59.1543 73.9504 59.1543 69.9883C59.1543 69.9523 59.1543 69.9254 59.1543 69.8895C59.1813 67.9938 59.9359 66.2148 61.2836 64.8762C62.6402 63.5375 64.4371 62.8008 66.3418 62.8008C68.2465 62.8008 70.0434 63.5375 71.4 64.8762C72.7477 66.2148 73.5023 67.9938 73.5293 69.8895V69.9883C73.5293 73.9504 70.3039 77.1758 66.3418 77.1758ZM66.3418 65.4961C63.8891 65.4961 61.8766 67.4906 61.8496 69.9344V69.9703V69.9883C61.8496 72.468 63.8621 74.4805 66.3418 74.4805C68.8215 74.4805 70.834 72.468 70.834 69.9883V69.9344C70.807 67.4906 68.7945 65.4961 66.3418 65.4961Z" fill="white"/>
<path d="M83.7805 71.2642H70.8519L70.834 69.9345C70.807 67.4817 68.7945 65.4962 66.3418 65.4962C63.8891 65.4962 61.8766 67.4907 61.8496 69.9345L61.8316 71.2642H53.2246V36.854H71.9211L83.7715 51.6872V71.2642H83.7805ZM73.3945 68.5688H81.0852V52.6306L70.6363 39.5493H55.9289V68.5688H59.298C59.5766 67.1763 60.2594 65.8915 61.2926 64.8763C62.6492 63.5376 64.4461 62.8009 66.3508 62.8009C68.2555 62.8009 70.0523 63.5376 71.409 64.8763C72.4332 65.9005 73.116 67.1763 73.3945 68.5688Z" fill="white"/>
<path d="M27.3691 77.1758C23.407 77.1758 20.1816 73.9504 20.1816 69.9883C20.1816 69.9523 20.1816 69.9254 20.1816 69.8895C20.2086 67.9938 20.9633 66.2148 22.3109 64.8762C23.6676 63.5375 25.4645 62.8008 27.3691 62.8008C29.2738 62.8008 31.0707 63.5375 32.4273 64.8762C33.775 66.2148 34.5297 67.9938 34.5566 69.8895V69.9883C34.5566 73.9504 31.3313 77.1758 27.3691 77.1758ZM27.3691 65.4961C24.9164 65.4961 22.9039 67.4906 22.877 69.9344V69.9793V69.9883C22.877 72.468 24.8895 74.4805 27.3691 74.4805C29.8488 74.4805 31.8613 72.468 31.8613 69.9883V69.9344C31.8344 67.4906 29.8129 65.4961 27.3691 65.4961Z" fill="white"/>
<path d="M62.4434 50.8516H82.3887V53.5469H62.4434V50.8516Z" fill="white"/>
<path d="M31.9871 33.943C29.4445 33.943 27.3691 31.8766 27.3691 29.325C27.3691 26.7824 29.4355 24.707 31.9871 24.707C34.5297 24.707 36.6051 26.7734 36.6051 29.325C36.6051 31.8766 34.5297 33.943 31.9871 33.943ZM31.9871 27.4113C30.927 27.4113 30.0645 28.2738 30.0645 29.334C30.0645 30.3941 30.927 31.2566 31.9871 31.2566C33.0473 31.2566 33.9098 30.3941 33.9098 29.334C33.9098 28.2738 33.0473 27.4113 31.9871 27.4113Z" fill="white"/>
</svg>
