<svg width="512" height="512" viewBox="0 0 512 512" fill="none" xmlns="http://www.w3.org/2000/svg">
<g clip-path="url(#clip0_1855_56)">
<path d="M492.448 434.061H455.526V245.692C455.526 238.007 449.275 231.756 441.591 231.756H327.506V177.444C327.506 169.759 321.255 163.508 313.571 163.508H198.429C190.744 163.508 184.494 169.759 184.494 177.444V230.571C184.494 234.711 187.85 238.068 191.991 238.068C196.132 238.068 199.488 234.711 199.488 230.571V178.501H312.513V434.062H199.487V262.519C199.487 258.379 196.131 255.023 191.99 255.023C187.849 255.023 184.493 258.379 184.493 262.519V289.33H70.4079C62.7232 289.33 56.4728 295.581 56.4728 303.266V434.062H19.5516C8.77125 434.062 0 442.832 0 453.614V504.203C0 508.343 3.35556 511.7 7.49679 511.7H504.503C508.644 511.7 512 508.343 512 504.203V453.614C512 442.832 503.229 434.061 492.448 434.061ZM71.4664 304.324H184.493V434.061H71.4664V304.324ZM497.006 496.706H14.9936V453.614C14.9936 451.1 17.0377 449.056 19.5516 449.056H372.026C376.167 449.056 379.523 445.699 379.523 441.559C379.523 437.419 376.167 434.062 372.026 434.062H327.507V246.749H440.534V434.062H403.974C399.833 434.062 396.477 437.419 396.477 441.559C396.477 445.699 399.833 449.056 403.974 449.056H492.449C494.963 449.056 497.007 451.1 497.007 453.614V496.706H497.006Z" fill="white"/>
<path d="M211.421 91.6887L205.478 126.338C204.611 131.392 206.649 136.405 210.797 139.418C214.945 142.432 220.341 142.823 224.883 140.437L256.001 124.077L287.118 140.437C289.093 141.474 291.229 141.987 293.355 141.987C296.116 141.987 298.859 141.122 301.204 139.418C305.353 136.404 307.391 131.392 306.523 126.338L300.581 91.6877L325.757 67.1482C329.428 63.5687 330.726 58.316 329.14 53.4391C327.556 48.5621 323.419 45.0736 318.344 44.3369L283.553 39.2811L267.992 7.75659C265.723 3.15756 261.128 0.300781 256 0.300781C250.871 0.300781 246.275 3.15756 244.007 7.75559L228.448 39.2811L193.657 44.3369C188.582 45.0736 184.445 48.5621 182.861 53.4391C181.276 58.316 182.573 63.5687 186.244 67.1482L211.421 91.6887ZM231.447 53.9968C235.803 53.3641 239.569 50.6283 241.517 46.6809L256 17.3345L270.482 46.6809C272.431 50.6283 276.196 53.3641 280.553 53.9968L312.938 58.7028L289.503 81.547C286.351 84.6207 284.912 89.0458 285.657 93.385L291.189 125.64L262.223 110.413C258.325 108.362 253.671 108.363 249.774 110.412L220.808 125.64L226.34 93.385C227.084 89.0468 225.647 84.6207 222.493 81.547L199.058 58.7038L231.447 53.9968Z" fill="white"/>
<path d="M364.529 71.1452C364.529 75.2855 367.885 78.642 372.026 78.642H382.762C386.903 78.642 390.259 75.2855 390.259 71.1452C390.259 67.005 386.903 63.6484 382.762 63.6484H372.026C367.885 63.6484 364.529 67.004 364.529 71.1452Z" fill="white"/>
<path d="M359.106 26.2714C360.142 26.2714 361.196 26.0555 362.2 25.5997L371.977 21.1626C375.746 19.4513 377.416 15.0072 375.704 11.2378C373.994 7.46841 369.55 5.79913 365.78 7.5094L356.003 11.9465C352.233 13.6578 350.564 18.1019 352.275 21.8713C353.53 24.6361 356.255 26.2714 359.106 26.2714Z" fill="white"/>
<path d="M356.003 130.342L365.78 134.779C366.785 135.235 367.838 135.451 368.873 135.451C371.725 135.451 374.45 133.816 375.704 131.051C377.416 127.282 375.746 122.837 371.977 121.126L362.2 116.689C358.428 114.979 353.985 116.648 352.275 120.417C350.564 124.187 352.233 128.631 356.003 130.342Z" fill="white"/>
<path d="M130.237 78.642H140.974C145.115 78.642 148.47 75.2855 148.47 71.1452C148.47 67.005 145.115 63.6484 140.974 63.6484H130.237C126.096 63.6484 122.74 67.005 122.74 71.1452C122.74 75.2855 126.096 78.642 130.237 78.642Z" fill="white"/>
<path d="M141.023 21.161L150.799 25.5981C151.805 26.0539 152.858 26.2698 153.893 26.2698C156.745 26.2698 159.47 24.6345 160.724 21.8697C162.435 18.1003 160.766 13.6562 156.997 11.945L147.22 7.50787C143.447 5.79661 139.004 7.46689 137.295 11.2363C135.584 15.0057 137.253 19.4498 141.023 21.161Z" fill="white"/>
<path d="M150.799 116.689L141.023 121.126C137.253 122.837 135.584 127.281 137.295 131.051C138.55 133.816 141.274 135.451 144.126 135.451C145.162 135.451 146.215 135.235 147.22 134.779L156.997 130.342C160.766 128.631 162.435 124.186 160.724 120.417C159.014 116.648 154.571 114.979 150.799 116.689Z" fill="white"/>
</g>
<defs>
<clipPath id="clip0_1855_56">
<rect width="512" height="512" fill="white"/>
</clipPath>
</defs>
</svg>
