<svg width="31" height="31" viewBox="0 0 31 31" fill="none" xmlns="http://www.w3.org/2000/svg">
<path fill-rule="evenodd" clip-rule="evenodd" d="M2.75634 13.3765C2.02525 12.9722 1.6145 12.2644 1.6145 11.5242C1.6145 10.7828 2.02525 10.075 2.75634 9.67198L13.4953 3.73677C14.7146 3.06382 16.2853 3.06382 17.5046 3.73677L28.2435 9.67198C28.9746 10.075 29.3853 10.7828 29.3853 11.5242C29.3853 12.2644 28.9746 12.9722 28.2435 13.3765L17.5046 19.3104C16.2853 19.9846 14.7146 19.9846 13.4953 19.3104L2.75634 13.3765ZM3.69279 11.6805L14.4317 17.6144C15.0814 17.9735 15.9184 17.9735 16.5681 17.6144L27.307 11.6805C27.3781 11.6418 27.4478 11.5953 27.4478 11.5242C27.4478 11.4519 27.3781 11.4067 27.307 11.3666L16.5681 5.43273C15.9184 5.07365 15.0814 5.07365 14.4317 5.43273L3.69279 11.3666C3.62175 11.4067 3.552 11.4519 3.552 11.5242C3.552 11.5953 3.62175 11.6418 3.69279 11.6805Z" fill="white"/>
<path fill-rule="evenodd" clip-rule="evenodd" d="M23.5728 14.5312C23.5728 13.9965 24.0068 13.5625 24.5416 13.5625C25.0763 13.5625 25.5103 13.9965 25.5103 14.5312V20.3438C25.5103 23.0188 23.3416 25.1875 20.6666 25.1875H10.3333C7.65821 25.1875 5.4895 23.0188 5.4895 20.3438V14.5312C5.4895 13.9965 5.9235 13.5625 6.45825 13.5625C6.993 13.5625 7.427 13.9965 7.427 14.5312V20.3438C7.427 21.9493 8.72771 23.25 10.3333 23.25H20.6666C22.2721 23.25 23.5728 21.9493 23.5728 20.3438V14.5312Z" fill="white"/>
<path fill-rule="evenodd" clip-rule="evenodd" d="M14.8153 12.6325C14.4369 12.2553 14.4369 11.6405 14.8153 11.2633C15.1925 10.8849 15.8073 10.8849 16.1845 11.2633L20.7053 15.7842C20.8875 15.965 20.9895 16.2117 20.9895 16.4688V26.8021C20.9895 27.3368 20.5555 27.7708 20.0208 27.7708C19.486 27.7708 19.052 27.3368 19.052 26.8021V16.8705L14.8153 12.6325Z" fill="white"/>
</svg>
