<svg width="83" height="83" viewBox="0 0 83 83" fill="none" xmlns="http://www.w3.org/2000/svg">
<g clip-path="url(#clip0_240_186)">
<path d="M82.5048 24.386C82.5001 24.3547 82.4941 24.3235 82.4869 24.2926C82.0223 21.8183 81.251 19.4513 80.2141 17.2319C80.1856 17.1473 80.1475 17.0656 80.1 16.9878C79.1355 14.9713 77.9509 13.0793 76.5774 11.3434C76.5265 11.258 76.466 11.177 76.3924 11.1034C76.3825 11.0935 76.3717 11.085 76.3615 11.0755C75.0122 9.4098 73.4873 7.89213 71.8151 6.55052C71.8057 6.54046 71.7973 6.52993 71.7875 6.52004C71.712 6.44466 71.6285 6.38241 71.5405 6.33102C69.7977 4.96606 67.8989 3.79158 65.8767 2.83691C65.7997 2.78974 65.7187 2.75229 65.635 2.72392C63.4028 1.69453 61.023 0.932129 58.5361 0.480492C58.5051 0.473521 58.474 0.467686 58.4427 0.463147C56.7386 0.158867 54.9849 0 53.1947 0C51.8179 0 50.4635 0.0959688 49.136 0.277369C49.1318 0.277693 49.1276 0.278666 49.1232 0.279152C36.5348 2.00659 26.4271 11.6234 23.9653 23.9661C20.7341 24.6098 17.6224 25.7846 14.7695 27.4547C14.1888 27.7946 13.9938 28.5408 14.3335 29.1215C14.6735 29.7022 15.4198 29.8972 16.0002 29.5574C18.3607 28.1756 20.9149 27.1634 23.5686 26.5444C23.4516 27.6157 23.3895 28.7032 23.3895 29.8053C23.3895 31.5938 23.5482 33.3461 23.8516 35.0485C23.8565 35.0819 23.8625 35.1152 23.8701 35.1481C24.3218 37.6342 25.084 40.0131 26.1131 42.2446C26.1414 42.3285 26.1792 42.4098 26.2264 42.4871C27.1812 44.5091 28.3554 46.4077 29.7203 48.1505C29.7719 48.2386 29.834 48.3221 29.9095 48.3976C29.9191 48.4073 29.9296 48.4154 29.9395 48.4247C31.2813 50.097 32.7989 51.6221 34.4649 52.9717C34.4745 52.9819 34.4829 52.9926 34.4928 53.0025C34.5663 53.0759 34.6473 53.1365 34.7326 53.1873C36.4686 54.561 38.3606 55.7455 40.3771 56.7101C40.4549 56.7577 40.5367 56.7957 40.6212 56.8242C42.841 57.8614 45.2083 58.6327 47.683 59.0973C47.7133 59.1043 47.7438 59.1101 47.7744 59.1148C49.5327 59.4392 51.3441 59.6102 53.1947 59.6102C54.2971 59.6102 55.385 59.5481 56.4565 59.4309C53.6266 71.5272 42.7515 80.5632 29.8051 80.5632C14.7139 80.5632 2.43618 68.2855 2.43618 53.1942C2.43618 45.5845 5.48481 38.5156 11.0204 33.2893C11.5096 32.8275 11.5317 32.0565 11.07 31.5672C10.608 31.078 9.83696 31.0559 9.34788 31.5176C6.42715 34.2751 4.12844 37.5295 2.51594 41.1904C0.846697 44.9816 0 49.0203 0 53.1947C0 69.6295 13.3708 83 29.8054 83C44.2419 83 56.3124 72.6827 59.0347 59.0346C71.4495 56.5582 81.1077 46.3469 82.7518 33.6557C82.7526 33.6482 82.7542 33.6409 82.7549 33.6336C82.9164 32.3799 83 31.1021 83 29.8053C83 27.955 82.829 26.1439 82.5048 24.386ZM75.3972 13.8211C76.2104 14.9476 76.9412 16.1373 77.5781 17.3827L55.9913 38.9695C55.325 37.748 54.5753 36.5785 53.7508 35.4676L75.3972 13.8211ZM73.8754 11.897L52.2109 33.5615C51.3173 32.543 50.3565 31.5849 49.3336 30.6962L70.996 9.03403C72.0244 9.91655 72.9875 10.8733 73.8754 11.897ZM69.0646 7.51944L47.4181 29.1661C46.3023 28.346 45.128 27.6009 43.902 26.9398L65.4854 5.35626C66.7362 5.98751 67.9326 6.711 69.0646 7.51944ZM58.6671 2.98638C60.1954 3.29795 61.6778 3.73776 63.1027 4.29314L41.5798 25.8159C40.2054 25.2226 38.7785 24.729 37.3072 24.3461L58.6671 2.98638ZM49.8209 2.64449C50.9268 2.50783 52.0527 2.43634 53.1949 2.43634C54.0255 2.43634 54.8471 2.47557 55.6593 2.54836L34.4549 23.7528C32.9395 23.5145 31.3868 23.3895 29.8054 23.3895C29.5579 23.3895 29.3107 23.3956 29.0636 23.4018L49.8209 2.64449ZM45.4717 3.54776L26.9372 22.0824C29.5571 13.1904 36.5798 6.16745 45.4717 3.54776ZM25.9381 32.2698C25.8652 31.4575 25.826 30.6359 25.826 29.8053C25.826 28.663 25.8975 27.5372 26.0341 26.4313L26.4282 26.0372C27.545 25.8988 28.6726 25.8258 29.8056 25.8258C30.6362 25.8258 31.4578 25.865 32.27 25.9378L25.9381 32.2698ZM26.3758 35.2774L35.2774 26.3758C36.806 26.6873 38.2881 27.1271 39.7131 27.6826L27.6824 39.7134C27.1272 38.2883 26.6873 36.806 26.3758 35.2774ZM30.9091 45.6751C30.1005 44.543 29.377 43.3466 28.7457 42.0959L42.0961 28.7456C43.3468 29.377 44.5431 30.1003 45.6753 30.9089L30.9091 45.6751ZM32.4235 47.6065L47.6065 32.4235C48.6349 33.3062 49.598 34.2628 50.4859 35.2865L35.2867 50.4857C34.2628 49.598 33.3062 48.6349 32.4235 47.6065ZM37.2106 52.0076L52.0078 37.2106C52.8211 38.3371 53.5517 39.5266 54.1886 40.772L40.7718 54.1888C39.5266 53.5515 38.3369 52.8207 37.2106 52.0076ZM47.5593 56.5895C46.0376 56.2698 44.5618 55.8241 43.144 55.2623L55.2624 43.144C55.8241 44.5618 56.2698 46.0376 56.5896 47.5593L47.5593 56.5895ZM56.9918 56.3452L56.3453 56.9917C55.3112 57.1108 54.2603 57.1742 53.1947 57.1742C52.3022 57.1742 51.4198 57.1298 50.5488 57.0458L57.0458 50.5488C57.1298 51.4196 57.1742 52.302 57.1742 53.1947C57.1742 54.2603 57.111 55.3111 56.9918 56.3452ZM58.6118 45.5372C58.2217 44.0717 57.7226 42.6507 57.1238 41.2828L78.6519 19.7548C79.2136 21.1726 79.6593 22.6485 79.9789 24.17L58.6118 45.5372ZM60.6377 56.1453L79.5349 37.2479C76.9548 46.3667 69.7561 53.5652 60.6377 56.1453ZM80.3813 32.9557L59.6039 53.7331C59.6071 53.5538 59.6107 53.3747 59.6107 53.1946C59.6107 51.554 59.4753 49.9448 59.219 48.3755L80.4354 27.1593C80.5194 28.0302 80.5638 28.9125 80.5638 29.8053C80.5637 30.8708 80.5003 31.9218 80.3813 32.9557Z" fill="white"/>
</g>
<defs>
<clipPath id="clip0_240_186">
<rect width="83" height="83" fill="white"/>
</clipPath>
</defs>
</svg>
