<svg width="83" height="84" viewBox="0 0 83 84" fill="none" xmlns="http://www.w3.org/2000/svg">
<path d="M81.2227 9.99256C80.6745 9.86503 80.0984 10.0306 79.7025 10.4304L72.9687 17.2174H69.7405L66.1868 13.5355V10.2622L72.8241 3.52595C73.2168 3.1275 73.3767 2.55457 73.2466 2.00955C73.1172 1.46517 72.7162 1.02611 72.1858 0.847184C70.5184 0.285035 68.7736 0.000154097 66.9989 0.000154097C61.7086 0.000154097 56.9025 2.46701 53.8125 6.76814C50.9206 10.7945 50.0291 15.7289 51.3064 20.4513L39.342 32.4157L19.4092 12.4372V8.51613C19.4092 7.94573 19.1097 7.41658 18.6205 7.12345L7.13583 0.231739C6.49627 -0.152121 5.67843 -0.0512387 5.15181 0.476013L0.558183 5.06901C0.0315652 5.59626 -0.0693168 6.4141 0.313909 7.05366L7.20435 18.5384C7.49748 19.0275 8.026 19.3264 8.5964 19.327L12.5162 19.3283L32.4509 39.3068L20.5322 51.2254C15.8098 49.9489 10.8729 50.8416 6.8446 53.7354C2.54601 56.8235 0.0810547 61.6284 0.0810547 66.9187C0.0810547 68.6927 0.365936 70.4381 0.928084 72.1049C1.10764 72.6385 1.55114 73.0414 2.09933 73.1683C2.64816 73.2958 3.22363 73.1302 3.62018 72.7305L10.3533 65.9441H13.5993L17.2976 69.6425V72.8885L10.5113 79.6216C10.1115 80.0181 9.94593 80.5936 10.0735 81.1424C10.2004 81.6906 10.6033 82.1341 11.1369 82.3137C12.8036 82.8758 14.5491 83.1607 16.3231 83.1607C21.6134 83.1607 26.4176 80.6951 29.5063 76.3965C32.4001 72.3682 33.2929 67.4319 32.0163 62.7095L41.5887 53.1371L43.7814 55.519L42.7751 56.5246C42.1407 57.1591 42.1407 58.1876 42.7751 58.8221C43.4096 59.4559 44.4375 59.4559 45.0726 58.8221L45.9837 57.911L66.5573 80.2586C66.5725 80.2751 66.5884 80.2909 66.6043 80.3068C70.4111 84.1137 76.5789 84.1149 80.3877 80.3062C84.1857 76.5063 84.1857 70.3233 80.3877 66.5234C80.3712 66.5069 80.3541 66.491 80.3369 66.4752L57.9544 45.9409L58.8554 45.0399C59.4899 44.4061 59.4899 43.3776 58.8554 42.7431C58.2209 42.1086 57.193 42.1086 56.5579 42.7431L55.5586 43.743L53.1724 41.5528L62.7911 31.9341C64.1584 32.2996 65.5694 32.4848 66.9989 32.4848C75.9552 32.4848 83.2409 25.1985 83.2409 16.2428C83.2409 14.4682 82.9561 12.7234 82.3939 11.056C82.2144 10.5224 81.7709 10.1195 81.2227 9.99256ZM14.3397 16.5569C14.0352 16.2517 13.6221 16.0963 13.1907 16.0963L9.51703 16.095L3.75215 6.46994L6.55211 3.66998L16.1607 9.43613V13.1098C16.1607 13.5399 16.3313 13.9523 16.6352 14.2569L37.0452 34.7131L34.7477 37.0099L14.3397 16.5569ZM55.6551 48.2402L78.1137 68.8437C80.6225 71.379 80.6148 75.4841 78.0902 78.01C75.5599 80.5403 71.4637 80.5479 68.9233 78.0322L48.2824 55.6116L55.6551 48.2402ZM53.2593 46.0418L46.0801 53.2196L43.8874 50.8378L50.873 43.8515L53.2593 46.0418ZM66.9989 29.2363C65.5783 29.2363 64.1812 29.0085 62.8475 28.5593C62.2632 28.3633 61.6173 28.5143 61.1807 28.9502C53.0378 37.0931 35.492 54.6383 29.0311 61.0998C28.5945 61.5364 28.4429 62.1823 28.6402 62.7673C29.9904 66.7765 29.3445 71.0529 26.8675 74.5013C24.3975 77.9396 20.5538 79.9121 16.3231 79.9121C15.8479 79.9121 15.3752 79.8861 14.9069 79.836L20.0659 74.717C20.373 74.4125 20.5462 73.9975 20.5462 73.5642V68.9693C20.5462 68.5385 20.3749 68.1254 20.0703 67.8209L15.4202 63.1708C15.1157 62.8662 14.7026 62.6949 14.2718 62.6949H9.67692C9.24357 62.6949 8.82862 62.8681 8.52343 63.1752L3.40509 68.3342C3.35433 67.8659 3.32895 67.3932 3.32895 66.918C3.32895 62.6867 5.30091 58.8436 8.73979 56.3736C12.1875 53.8966 16.4646 53.2501 20.4745 54.6009C21.0588 54.7982 21.7047 54.6466 22.1413 54.21C22.2307 54.1212 54.2681 22.0832 54.2909 22.0604C54.7275 21.6238 54.8785 20.9786 54.6818 20.3936C53.331 16.3843 53.9756 12.1092 56.4507 8.66333C58.9226 5.22192 62.7669 3.24869 66.9983 3.24869C67.4881 3.24869 67.9747 3.27597 68.457 3.32927L63.4052 8.45649C63.1058 8.76041 62.9383 9.16964 62.9383 9.59601V14.1909C62.9383 14.6122 63.1013 15.0164 63.3938 15.319L67.8815 19.9691C68.1873 20.2864 68.6092 20.4653 69.0502 20.4653H73.6451C74.0778 20.4653 74.4928 20.2927 74.7979 19.985L79.9163 14.8267C79.967 15.2949 79.9924 15.7676 79.9924 16.2428C79.9924 23.4074 74.1635 29.2363 66.9989 29.2363Z" fill="white"/>
</svg>
