<svg width="126" height="35" viewBox="0 0 126 35" fill="none" xmlns="http://www.w3.org/2000/svg">
<path fill-rule="evenodd" clip-rule="evenodd" d="M98.5335 13.9127C99.679 13.6917 107.617 13.9127 109.445 13.9127C111.216 13.7824 112.995 13.8498 114.75 14.1137C122.487 16.1232 122.427 28.1803 114.047 29.6874C112.801 29.9085 105.004 29.6874 103.115 29.6874C101.344 29.8059 99.5653 29.7318 97.8101 29.4664C96.7525 29.155 95.7702 28.6294 94.9244 27.9223C94.0786 27.2151 93.3873 26.3415 92.8935 25.3558C92.3997 24.37 92.1139 23.2933 92.054 22.1924C91.9941 21.0915 92.1613 19.9901 92.5452 18.9566C92.9875 17.6399 93.7842 16.4707 94.8477 15.5773C95.9113 14.684 97.2005 14.101 98.5737 13.8926L98.5335 13.9127ZM125.28 23.2771C125.552 21.1557 125.292 19.0002 124.524 17.0042C123.756 15.0083 122.503 13.2347 120.879 11.8429C119.34 10.5374 117.505 9.62694 115.534 9.19033C112.989 8.86749 110.419 8.78004 107.858 8.92909H99.8196C97.5845 8.87714 95.379 9.44765 93.4494 10.5769C91.6831 11.6481 90.1945 13.1212 89.105 14.8764C88.0155 16.6316 87.3558 18.6192 87.1795 20.6775C87.0033 22.7357 87.3155 24.8066 88.0907 26.7214C88.8659 28.6363 90.0823 30.341 91.6409 31.697C95.6599 35.1332 99.5584 34.6309 104.642 34.6309H112.681C115.825 34.674 118.87 33.5285 121.206 31.4234C123.542 29.3183 124.997 26.4089 125.28 23.2771ZM49.6017 12.4056C50.1117 13.5939 50.7884 14.7036 51.6112 15.7012L57.9412 24.9852C59.1067 26.8138 60.7143 29.4463 62.0808 31.1946C62.8287 32.3222 63.8531 33.2394 65.0562 33.8586C66.2594 34.4777 67.6011 34.7782 68.9534 34.7313C70.2486 34.62 71.4976 34.1962 72.5931 33.4962C73.6886 32.7962 74.5979 31.8409 75.2432 30.7123C76.6097 28.7028 77.9962 26.6933 79.4431 24.523L86.8381 13.5711C87.1635 13.1499 87.3536 12.64 87.3834 12.1086C87.4131 11.5773 87.2811 11.0493 87.0047 10.5945C86.7283 10.1397 86.3206 9.77929 85.8352 9.5609C85.3499 9.34251 84.8097 9.27636 84.286 9.37118C83.6922 9.58565 83.1496 9.92159 82.6928 10.3576C82.2361 10.7935 81.8753 11.3199 81.6335 11.9032L77.4336 18.1327C76.047 20.1422 74.6403 22.2924 73.2337 24.322C72.5102 25.367 71.8672 26.3315 71.2241 27.4167C70.5811 28.5018 69.6969 29.8281 68.1094 29.4262C66.9708 28.8694 66.0563 27.9408 65.5171 26.7937L63.5076 23.6991C62.1009 21.6895 60.7545 19.68 59.2876 17.5097C57.8206 15.3395 56.5546 13.4907 55.0877 11.3204C54.8543 10.6779 54.4134 10.1316 53.8348 9.76764C53.2561 9.40372 52.5727 9.24301 51.8926 9.3109C51.5337 9.35173 51.1871 9.46596 50.8743 9.64649C50.5616 9.82701 50.2893 10.07 50.0744 10.3602C49.8595 10.6505 49.7067 10.9819 49.6253 11.3337C49.544 11.6856 49.536 12.0504 49.6017 12.4056ZM0.428725 12.3453C0.917235 13.5446 1.59577 14.6574 2.43825 15.6409L10.8581 28.0195C12.8677 31.1544 14.8772 34.8921 19.7603 34.7313C24.1813 34.5706 26.0099 30.8731 28.2606 27.5373L34.5906 18.2533C35.2537 17.2485 35.9771 16.2437 36.7006 15.1586C37.6526 14.2008 38.224 12.9295 38.3082 11.5817C38.2595 11.2322 38.141 10.8961 37.9598 10.5934C37.7786 10.2907 37.5384 10.0274 37.2535 9.81934C36.9685 9.61127 36.6447 9.46259 36.3011 9.38215C35.9576 9.30171 35.6014 9.29115 35.2537 9.35109C34.6513 9.54218 34.0989 9.86491 33.6367 10.2959C33.1744 10.7269 32.8138 11.2553 32.5811 11.8429C31.1141 13.9931 29.8079 15.882 28.3611 18.1327C26.9142 20.3834 25.5879 22.1517 24.1411 24.1613C23.3975 25.2263 22.7746 26.1708 22.1315 27.2559C21.8942 27.876 21.4762 28.4105 20.9316 28.7903C20.387 29.17 19.741 29.3776 19.0771 29.386C17.893 28.8737 16.9458 27.9337 16.4245 26.7535C12.948 21.79 9.3309 16.3442 5.89462 11.2601C5.65632 10.6252 5.2173 10.0854 4.64425 9.72268C4.07119 9.35999 3.39542 9.19424 2.71958 9.25061C2.36075 9.29145 2.01416 9.40568 1.70137 9.5862C1.38858 9.76672 1.11628 10.0097 0.901409 10.2999C0.686536 10.5902 0.533687 10.9216 0.452368 11.2735C0.37105 11.6253 0.363002 11.9902 0.428725 12.3453ZM43.4325 9.37118C40.8603 9.91375 41.2823 12.1041 41.2823 14.8371V30.1898C41.0974 31.3427 41.2582 32.5244 41.7445 33.5859C42.0225 33.9933 42.4094 34.3144 42.861 34.5126C43.3127 34.7108 43.8109 34.7782 44.299 34.7069C44.7871 34.6357 45.2453 34.4288 45.6215 34.1098C45.9977 33.7908 46.2766 33.3725 46.4267 32.9027C46.6678 32.0989 46.5472 22.8551 46.5472 21.5087V13.8122C46.7273 12.6678 46.5738 11.4957 46.1051 10.4362C45.8246 10.0126 45.4248 9.68154 44.9563 9.48484C44.4878 9.28814 43.9716 9.2346 43.4727 9.33099L43.4325 9.37118ZM43.5731 0.0470063C43.1971 0.294064 42.8757 0.61549 42.6287 0.991481L40.6191 2.88043C39.4134 4.06605 40.4182 4.60862 41.9655 6.07557L42.91 7.02004C44.1358 8.24585 44.598 7.34157 46.2056 5.73395C48.4563 3.58376 48.3759 4.06605 44.8994 0.589577C44.773 0.361799 44.5727 0.183918 44.3316 0.0852808C44.0905 -0.0133563 43.823 -0.0268569 43.5731 0.0470063Z" fill="#0072B8"/>
</svg>
